<svg width="32" height="32" viewBox="0 0 32 32" fill="none" xmlns="http://www.w3.org/2000/svg">
<g id="Layer_1" clip-path="url(#clip0_632_1240)">
<path id="Vector" d="M6.68391 31.9994C5.93725 31.6678 5.6452 31.2492 5.72864 30.6242C5.76303 30.3501 5.88885 30.0974 6.08405 29.9104C6.27925 29.7234 6.53135 29.6141 6.79612 29.6016C6.86806 29.5971 6.93999 29.6016 7.01192 29.6016C12.9986 29.6016 18.9858 29.6041 24.9735 29.6091C25.2454 29.6058 25.5138 29.6729 25.7547 29.8042C26.1446 30.0375 26.323 30.4404 26.2698 30.9161C26.2165 31.3917 25.9604 31.7151 25.5404 31.8997C25.4533 31.9379 25.3627 31.9679 25.2742 32.0017L6.68391 31.9994Z" fill="#121212"/>
<path id="Vector_2" d="M29.7126 8.13754V8.63121C29.7126 13.5829 29.7126 18.5346 29.7126 23.4864C29.7126 25.254 28.735 26.6374 27.1705 27.0779C26.835 27.1666 26.4901 27.2099 26.144 27.2069C19.3871 27.2134 12.6307 27.2149 5.8748 27.2114C3.75206 27.2114 2.29471 25.6944 2.29255 23.4736C2.28823 18.5354 2.28823 13.5972 2.29255 8.65896V8.13979C1.89476 8.13979 1.53942 8.14429 1.18407 8.13979C0.476969 8.12778 0.0108423 7.65362 0.00796498 6.92211C0.00125126 5.35107 0.00125126 3.77977 0.00796498 2.20823C0.00796498 1.52099 0.47553 1.03557 1.13012 1.00781C1.22507 1.00781 1.32074 1.00781 1.41785 1.00781C11.1403 1.00781 20.8625 1.01056 30.5844 1.01606C30.8892 1.01092 31.1912 1.07679 31.4685 1.20888C31.849 1.4077 31.9943 1.80909 31.995 2.24649C31.995 3.79278 32.0051 5.33906 31.995 6.88535C31.9885 7.66937 31.5224 8.12928 30.7722 8.13754C30.4362 8.14054 30.1032 8.13754 29.7126 8.13754ZM10.8482 22.4352C11.9064 22.4376 12.9223 22.0025 13.6735 21.2251C14.4246 20.4477 14.8497 19.3915 14.8556 18.2878C14.856 17.1844 14.4379 16.1257 13.6924 15.3427C12.947 14.5598 11.9349 14.1162 10.877 14.1089C10.3499 14.1059 9.82749 14.2114 9.33959 14.4194C8.85169 14.6274 8.40793 14.9337 8.03373 15.3209C7.65953 15.708 7.36225 16.1684 7.15891 16.6756C6.95558 17.1828 6.85018 17.7268 6.84877 18.2766C6.85239 19.3806 7.27531 20.4381 8.02492 21.2175C8.77453 21.997 9.78974 22.4349 10.8482 22.4352ZM20.0916 14.0781C19.9794 14.2049 19.9031 14.2972 19.8204 14.3835C19.4161 14.8088 19.0004 15.2222 18.6069 15.6589C18.4978 15.7752 18.4128 15.9136 18.3572 16.0656C18.3016 16.2177 18.2766 16.38 18.2839 16.5425C18.2911 16.7051 18.3303 16.8643 18.3991 17.0103C18.468 17.1563 18.5649 17.286 18.6839 17.3912C19.1356 17.7949 19.7902 17.7664 20.2441 17.3095C20.7318 16.815 21.2044 16.3056 21.7417 15.7414C21.8233 15.8659 21.912 15.9851 22.0072 16.0985C22.4114 16.5247 22.8049 16.9621 23.23 17.3612C23.3749 17.5031 23.5532 17.6024 23.7467 17.6492C23.9403 17.696 24.1423 17.6885 24.3322 17.6275C24.5222 17.5666 24.6932 17.4543 24.8281 17.3021C24.963 17.15 25.0569 16.9633 25.1003 16.761C25.2024 16.3109 25.0701 15.9245 24.7579 15.6026C24.2824 15.1142 23.8062 14.6273 23.3415 14.1509C23.3554 14.1115 23.3733 14.0738 23.3947 14.0383C23.8328 13.5784 24.273 13.1208 24.7104 12.6594C25.2333 12.1079 25.2729 11.3899 24.8118 10.8962C24.3327 10.3838 23.6393 10.4131 23.0962 10.9765C22.6387 11.4499 22.1899 11.9316 21.7137 12.4343C21.226 11.9226 20.7613 11.4394 20.3002 10.9525C20.0053 10.6397 19.6578 10.4731 19.2342 10.5526C18.8105 10.6322 18.4868 10.897 18.3501 11.3351C18.2062 11.7951 18.2897 12.2257 18.627 12.5768C19.1068 13.0727 19.5938 13.5672 20.0916 14.0781Z" fill="#121212"/>
<path id="Vector_3" d="M10.8352 16.4944C11.0599 16.4906 11.2831 16.5332 11.4919 16.6198C11.7007 16.7063 11.8911 16.8351 12.052 16.9987C12.2129 17.1623 12.3412 17.3575 12.4296 17.573C12.5179 17.7885 12.5645 18.0201 12.5666 18.2545C12.5687 18.4889 12.5265 18.7215 12.4423 18.9388C12.3582 19.1562 12.2338 19.3542 12.0763 19.5214C11.9188 19.6887 11.7312 19.8219 11.5243 19.9134C11.3174 20.005 11.0952 20.0531 10.8704 20.0551C10.4164 20.0599 9.97909 19.8771 9.65398 19.5466C9.32886 19.216 9.14242 18.7647 9.13541 18.2912C9.13254 17.8179 9.30997 17.3628 9.6287 17.0258C9.94743 16.6889 10.3814 16.4977 10.8352 16.4944Z" fill="#121212"/>
</g>
<defs>
<clipPath id="clip0_632_1240">
<rect width="32" height="32" fill="white"/>
</clipPath>
</defs>
</svg>
