<svg width="32" height="32" viewBox="0 0 32 32" fill="none" xmlns="http://www.w3.org/2000/svg">
<path d="M16.8934 3.08572C17.1334 3.13103 17.3724 3.17946 17.6057 3.24758C20.0958 3.97312 21.7528 6.3697 21.5745 8.96564C21.3981 11.5297 19.4542 13.6626 16.9216 14.0713C13.8691 14.5634 10.9695 12.509 10.4968 9.51839C10.006 6.41157 12.055 3.5666 15.1426 3.06791H15.1519C15.7291 2.97304 16.3183 2.97906 16.8934 3.08572Z" fill="#121212"/>
<path d="M18.4059 28.9017C16.9741 29.0122 15.5365 29.029 14.1024 28.952C12.5724 28.8661 11.2107 28.6827 9.88243 28.2587C9.26961 28.0631 8.68213 27.7672 8.11404 27.46C7.58505 27.1744 7.3789 26.707 7.47713 26.0827C7.77275 24.1932 7.96294 22.2834 8.33896 20.4105C8.97305 17.2547 11.8679 14.9359 15.0888 14.9009C16.2597 14.8881 17.4349 14.8193 18.5899 15.129C21.3531 15.8705 23.3992 18.1786 23.8081 21.0395C24.0508 22.7384 24.2814 24.4388 24.5376 26.1355C24.6258 26.7179 24.4043 27.1241 23.9432 27.4397C23.1643 27.9743 22.2853 28.2684 21.3756 28.4746C20.754 28.6155 20.1243 28.747 19.4914 28.8089C19.1251 28.8448 18.7572 28.8755 18.4059 28.9017Z" fill="#121212"/>
<path d="M22.564 15.7573C26.1273 13.6098 30.8247 15.7308 31.6271 19.7444C31.7522 20.3693 31.8517 20.9998 31.9712 21.626C32.0707 22.1438 31.8996 22.5578 31.5236 22.9087C30.7599 23.6214 29.8299 24.0198 28.8292 24.2104C27.9201 24.3835 26.9882 24.4376 26.0676 24.5541C25.8136 24.5853 25.7929 24.4432 25.7645 24.2495C25.5674 22.8955 25.396 21.5363 25.146 20.1921C24.8435 18.5639 24.0511 17.1731 22.8937 15.9911C22.8142 15.908 22.705 15.8551 22.564 15.7573Z" fill="#121212"/>
<path d="M9.38502 15.716C8.2479 16.7918 7.42924 18.0282 7.03571 19.4899C6.78545 20.4151 6.67409 21.3775 6.51642 22.3258C6.40631 22.9891 6.32873 23.6581 6.21955 24.3215C6.20516 24.4087 6.07409 24.5449 6.00058 24.5433C4.42113 24.5061 2.86139 24.3393 1.44305 23.5775C1.04075 23.3616 0.682258 23.0504 0.337839 22.7445C0.0425335 22.482 -0.0478727 22.1152 0.0228255 21.7234C0.158904 20.9703 0.262449 20.2089 0.448266 19.468C1.38674 15.7306 5.58452 13.8124 9.04279 15.5263C9.14571 15.5772 9.243 15.6375 9.38502 15.716Z" fill="#121212"/>
<path d="M6.31343 14.1447C5.4649 14.1431 4.63789 13.8778 3.94715 13.3856C3.25641 12.8933 2.73619 12.1985 2.45866 11.3975C2.18114 10.5966 2.16008 9.72925 2.39839 8.91581C2.63671 8.10238 3.12259 7.3832 3.78863 6.85806C5.13064 5.79007 7.02197 5.68852 8.49225 6.59466C8.69464 6.71964 8.7791 6.83744 8.72499 7.0946C8.3496 8.86813 8.61675 10.5554 9.48546 12.1406C9.62436 12.3936 9.59526 12.5389 9.41852 12.7399C8.62019 13.6469 7.52937 14.1491 6.31343 14.1447Z" fill="#121212"/>
<path d="M29.7668 9.8067C29.7455 11.8193 28.6828 13.3269 27.0721 13.905C25.4551 14.4855 23.6955 14.0168 22.5724 12.7245C22.4004 12.5264 22.3847 12.3842 22.5124 12.153C23.3883 10.556 23.6539 8.86025 23.2766 7.07421C23.2309 6.8583 23.2785 6.73363 23.4693 6.62052C24.8401 5.80811 26.2487 5.72719 27.6458 6.49334C29.0429 7.2595 29.7226 8.49779 29.7668 9.8067Z" fill="#121212"/>
</svg>
