<svg width="58" height="28" viewBox="0 0 58 28" fill="none" xmlns="http://www.w3.org/2000/svg">
<g clip-path="url(#clip0_877_1640)">
<path d="M22.7018 15.9285C22.6047 17.0297 22.2244 17.8898 21.5614 18.5089C20.8984 19.1233 20.0166 19.4305 18.916 19.4305C18.147 19.4305 17.4685 19.2367 16.8806 18.8492C16.2971 18.4569 15.8463 17.9016 15.528 17.1833C15.2098 16.4649 15.044 15.6308 15.0308 14.6808V13.7167C15.0308 12.7431 15.1921 11.8853 15.5148 11.1433C15.8374 10.4013 16.2993 9.82948 16.9005 9.42778C17.506 9.02605 18.2044 8.8252 18.9956 8.8252C20.0608 8.8252 20.9184 9.13475 21.5682 9.75386C22.2179 10.373 22.5957 11.2473 22.7018 12.3768H21.0311C20.9516 11.6348 20.7483 11.1008 20.421 10.7747C20.0984 10.4439 19.6232 10.2785 18.9956 10.2785C18.2663 10.2785 17.7049 10.5644 17.3115 11.1363C16.9226 11.7034 16.7237 12.5375 16.7148 13.6387V14.5532C16.7148 15.6686 16.9005 16.5192 17.2718 17.1053C17.6475 17.6913 18.1956 17.9843 18.916 17.9843C19.5747 17.9843 20.0697 17.826 20.4012 17.5094C20.7327 17.1927 20.9426 16.6658 21.0311 15.9285H22.7018ZM27.754 15.3117H25.8843V19.2887H24.2069V8.96698H27.6016C28.7154 8.96698 29.5751 9.234 30.1807 9.76805C30.7863 10.3021 31.0891 11.0748 31.0891 12.0862C31.0891 12.7762 30.9322 13.3551 30.6184 13.823C30.309 14.2862 29.8758 14.643 29.3189 14.8935L31.4868 19.1966V19.2887H29.6902L27.754 15.3117ZM25.8843 13.8726H27.6082C28.174 13.8726 28.6161 13.7214 28.9342 13.4189C29.2525 13.1117 29.4116 12.6935 29.4116 12.1642C29.4116 11.6112 29.2636 11.1835 28.9674 10.881C28.6756 10.5786 28.238 10.4226 27.6545 10.4131H25.8843V13.8726ZM35.5113 13.8585L37.7326 8.96698H39.589L36.3534 15.489V19.2887H34.6694V15.489L31.4272 8.96698H33.2902L35.5113 13.8585ZM42.314 15.4535V19.2887H40.6364V8.96698H44.3294C45.408 8.96698 46.2632 9.26708 46.8954 9.86729C47.5318 10.4675 47.8502 11.2615 47.8502 12.2492C47.8502 13.2606 47.5384 14.0475 46.9152 14.6099C46.2964 15.1723 45.4279 15.4535 44.3096 15.4535H42.314ZM42.314 14.0144H44.3294C44.9263 14.0144 45.3816 13.8655 45.6952 13.5678C46.0091 13.2654 46.166 12.8305 46.166 12.2634C46.166 11.7057 46.007 11.2615 45.6887 10.9306C45.3705 10.5951 44.9329 10.4226 44.376 10.4131H42.314V14.0144ZM57.0262 14.3972C57.0262 15.4086 56.8627 16.2971 56.5356 17.0628C56.2086 17.8236 55.7401 18.4097 55.13 18.8208C54.5244 19.2273 53.8261 19.4305 53.0349 19.4305C52.2525 19.4305 51.5542 19.2273 50.9399 18.8208C50.3298 18.4097 49.8569 17.826 49.5209 17.0698C49.1894 16.3137 49.0214 15.4417 49.017 14.454V13.8726C49.017 12.866 49.1828 11.9775 49.5143 11.2071C49.8503 10.4368 50.3209 9.84838 50.9265 9.44194C51.5366 9.03078 52.2349 8.8252 53.0217 8.8252C53.8085 8.8252 54.5047 9.02841 55.1103 9.43485C55.7201 9.83658 56.1909 10.4179 56.5224 11.1788C56.8539 11.935 57.0219 12.8164 57.0262 13.823V14.3972ZM55.3489 13.8585C55.3489 12.7147 55.1456 11.8381 54.7388 11.2284C54.3367 10.6187 53.7642 10.3139 53.0217 10.3139C52.2968 10.3139 51.7288 10.6187 51.3178 11.2284C50.911 11.8333 50.7032 12.6911 50.6945 13.8017V14.3972C50.6945 15.5315 50.8999 16.4082 51.3112 17.0273C51.7267 17.6464 52.3012 17.956 53.0349 17.956C53.7774 17.956 54.3477 17.6535 54.7456 17.0486C55.1477 16.4436 55.3489 15.5599 55.3489 14.3972V13.8585Z" fill="#808080"/>
<path d="M10.6689 10.1426H6.25623V24.1644H10.6689V10.1426Z" fill="#808080"/>
<path d="M8.31433 6.63721V10.2792" stroke="#808080"/>
<path d="M8.31433 24.1646V27.8066" stroke="#808080"/>
<path d="M4.41268 3.50537H0V17.5272H4.41268V3.50537Z" fill="#808080"/>
<path d="M2.05833 0L2.05823 3.64201" stroke="#808080"/>
<path d="M2.05823 17.5273V21.1695" stroke="#808080"/>
</g>
<defs>
<clipPath id="clip0_877_1640">
<rect width="58" height="28" fill="white"/>
</clipPath>
</defs>
</svg>
