<svg width="94" height="28" viewBox="0 0 94 28" fill="none" xmlns="http://www.w3.org/2000/svg">
<g id="Main Logo" clip-path="url(#clip0_877_1649)">
<path id="Vector" d="M30.2935 15.2189C30.9275 15.1598 31.1507 15.0282 31.1507 14.5168V9.15155C31.1507 8.64018 30.9275 8.50909 30.2935 8.45004V8.14062C31.3034 8.17605 32.3833 8.17605 33.3933 8.14062V8.45004C32.7592 8.50909 32.536 8.64018 32.536 9.15155V14.5168C32.536 15.0282 32.7592 15.1593 33.3933 15.2189V15.5283C32.3833 15.4923 31.3034 15.4923 30.2935 15.5283V15.2189Z" fill="#808080"/>
<path id="Vector_2" d="M38.1598 8.14067C39.0404 8.14067 39.5002 8.12886 39.9082 8.0332L39.4851 9.74564H39.1815C39.2869 8.841 39.0288 8.55579 38.559 8.55579H37.5846V14.4696C37.5846 15.0164 37.8178 15.1593 38.6412 15.2189V15.5284C37.4436 15.4923 36.3282 15.4923 35.1306 15.5284V15.2189C35.9406 15.1599 36.1871 15.0164 36.1871 14.4696V8.55697H35.4126C34.8374 8.55697 34.6142 8.79317 34.1678 9.74682H33.8624L34.2739 8.03438C34.6847 8.13004 35.1544 8.14185 36.0111 8.14185L38.1598 8.14067Z" fill="#808080"/>
<path id="Vector_3" d="M42.9613 11.8045C42.9613 9.56766 44.36 7.94971 46.3414 7.94971C48.3229 7.94971 49.7583 9.55586 49.7583 11.8399C49.7583 14.0767 48.373 15.6946 46.3781 15.6946C44.3914 15.6946 42.9613 14.0885 42.9613 11.8045ZM48.292 12.2326C48.292 10.0082 47.4114 8.34239 46.1666 8.34239C45.251 8.34239 44.4293 9.23463 44.4293 11.413C44.4293 13.6374 45.3093 15.2913 46.5658 15.2913C47.4697 15.2902 48.292 14.3979 48.292 12.2326Z" fill="#808080"/>
<path id="Vector_4" d="M55.1012 13.6246C55.7936 14.6361 56.4416 15.2779 56.9562 15.3258L56.6881 15.6588C55.7604 15.6706 54.7743 15.3736 53.8908 14.0409L52.9642 12.6491C52.8115 12.6609 52.6588 12.6609 52.5061 12.6609V14.5168C52.5061 15.0282 52.706 15.1711 53.3401 15.2189V15.5283C52.3301 15.4923 51.2968 15.4923 50.2875 15.5283V15.2189C50.9215 15.1711 51.1208 15.0282 51.1208 14.5168V9.21119C51.1208 8.71163 50.9215 8.50909 50.3341 8.45004V8.14062C51.4146 8.18786 52.4945 8.14062 53.0702 8.14062C55.6176 8.14062 56.3694 9.11612 56.3694 10.2936C56.3694 11.3523 55.747 12.1495 54.3145 12.4825L55.1012 13.6246ZM52.5061 12.316C54.2323 12.316 55.0074 11.5549 55.0074 10.2818C55.0074 9.28264 54.5138 8.51027 53.2346 8.51027C52.9642 8.51027 52.6705 8.5463 52.5061 8.62837V12.316Z" fill="#808080"/>
<path id="Vector_5" d="M57.2494 11.7684C57.2494 9.55585 58.5641 7.94971 60.6074 7.94971C61.4291 7.94971 61.8312 8.21189 62.5096 8.21189C62.6641 8.21555 62.8183 8.19565 62.967 8.15284C63.0609 8.83073 63.1669 9.485 63.4368 10.2225H63.0142C62.5678 9.08051 61.7112 8.34298 60.7484 8.34298C59.6679 8.34298 58.7407 9.25943 58.7407 11.4726C58.7407 13.6374 59.6213 15.2435 61.1237 15.2435C61.981 15.2435 62.7794 14.7321 63.1553 13.5311H63.6215C63.34 14.578 62.53 15.6964 60.7804 15.6964C58.6819 15.6946 57.2494 14.0885 57.2494 11.7684Z" fill="#808080"/>
<path id="Vector_6" d="M71.4325 8.45004C70.7984 8.50909 70.5758 8.64018 70.5758 9.15155V14.5168C70.5758 15.0282 70.7984 15.1593 71.4325 15.2189V15.5283C70.4231 15.4923 69.3426 15.4923 68.3333 15.5283V15.2189C68.9673 15.1598 69.1899 15.0282 69.1899 14.5168V12.0308H66.3961V14.5168C66.3961 15.0282 66.6187 15.1593 67.2528 15.2189V15.5283C66.2434 15.4923 65.1629 15.4923 64.1536 15.5283V15.2189C64.7876 15.1598 65.0103 15.0282 65.0103 14.5168V9.15155C65.0103 8.64018 64.7876 8.50909 64.1536 8.45004V8.14062C65.1629 8.17605 66.2434 8.17605 67.2528 8.14062V8.45004C66.6187 8.50909 66.3961 8.64018 66.3961 9.15155V11.6617H69.1899V9.15155C69.1899 8.64018 68.9673 8.50909 68.3333 8.45004V8.14062C69.3426 8.17605 70.4231 8.17605 71.4325 8.14062V8.45004Z" fill="#808080"/>
<path id="Vector_7" d="M78.2999 14.136C78.5587 14.8499 78.7114 15.1475 79.4859 15.219V15.5284C78.441 15.5042 77.2789 15.5042 76.2223 15.5284V15.219C76.9968 15.1599 77.1495 14.9574 76.9263 14.3149L76.551 13.2438H73.9798L73.6039 14.3622C73.404 14.981 73.8504 15.1593 74.59 15.219V15.5284C73.721 15.5042 72.7583 15.5042 71.9016 15.5284V15.219C72.6761 15.1475 72.9698 14.8977 73.193 14.2435L75.3179 8.08105H76.1279L78.2999 14.136ZM74.1086 12.8753H76.41L75.224 9.53249L74.1086 12.8753Z" fill="#808080"/>
<path id="Vector_8" d="M84.7693 13.6246C85.4617 14.6361 86.1097 15.2779 86.6243 15.3258L86.3539 15.6588C85.4267 15.6706 84.4401 15.3736 83.5601 14.0409L82.6323 12.6491C82.4796 12.6609 82.3269 12.6609 82.1742 12.6609V14.5168C82.1742 15.0282 82.3741 15.1711 83.0082 15.2189V15.5283C81.9982 15.4923 80.9649 15.4923 79.9556 15.5283V15.2189C80.589 15.1711 80.7889 15.0282 80.7889 14.5168V9.21119C80.7889 8.71163 80.5891 8.50909 80.0022 8.45004V8.14062C81.0827 8.18786 82.1626 8.14062 82.7378 8.14062C85.2857 8.14062 86.0369 9.11612 86.0369 10.2936C86.0369 11.3523 85.415 12.1495 83.9826 12.4825L84.7693 13.6246ZM82.1742 12.316C83.9004 12.316 84.6749 11.5549 84.6749 10.2818C84.6749 9.28264 84.1819 8.51027 82.9021 8.51027C82.6323 8.51027 82.3385 8.5463 82.1742 8.62837V12.316Z" fill="#808080"/>
<path id="Vector_9" d="M87.0935 15.2189C87.6804 15.1114 87.9269 15.0045 87.9269 14.5168V9.21119C87.9269 8.71163 87.7276 8.50909 87.1285 8.45004V8.14062C88.2089 8.18786 89.195 8.14062 89.7469 8.14062C92.3414 8.14062 93.9149 9.223 93.9149 11.7804C93.9149 14.6361 91.9189 15.5283 90.5098 15.5283C89.9112 15.5283 89.3594 15.3618 88.5726 15.3618C88.0912 15.3618 87.6687 15.4208 87.0935 15.5283V15.2189ZM92.412 11.9475C92.412 9.88908 91.6841 8.50909 89.9346 8.50909C89.6764 8.50909 89.4648 8.54511 89.3127 8.61656V14.5168C89.3127 15.0282 89.7941 15.1593 90.2516 15.1593C91.8956 15.1593 92.4125 13.6842 92.4125 11.9475H92.412Z" fill="#808080"/>
<path id="Vector_10" d="M36.7746 20.6291C36.675 20.5862 36.5888 20.5168 36.5251 20.4283C36.465 20.3418 36.4325 20.2388 36.4319 20.133H36.7145C36.7222 20.226 36.7638 20.3127 36.8311 20.3763C36.915 20.4477 37.0231 20.4833 37.1324 20.4755C37.2403 20.4818 37.3468 20.4475 37.4314 20.3793C37.4667 20.3492 37.4948 20.3114 37.5137 20.2688C37.5325 20.2262 37.5417 20.1798 37.5403 20.133C37.5435 20.0632 37.5207 19.9947 37.4762 19.9411C37.4325 19.8912 37.3775 19.8527 37.316 19.8289C37.231 19.7967 37.1445 19.7691 37.0566 19.7463C36.9469 19.719 36.8394 19.6835 36.7349 19.64C36.6527 19.6036 36.5814 19.546 36.528 19.4729C36.4664 19.3838 36.436 19.2763 36.4418 19.1676C36.4401 19.0619 36.4695 18.9581 36.5263 18.8694C36.585 18.7808 36.6675 18.7112 36.7641 18.6686C36.8742 18.6198 36.9935 18.5956 37.1137 18.5978C37.2808 18.591 37.4452 18.6421 37.58 18.7424C37.639 18.788 37.6879 18.8458 37.7232 18.912C37.7586 18.9782 37.7797 19.0512 37.7851 19.1262H37.4937C37.4818 19.0431 37.4378 18.9681 37.3713 18.9178C37.2896 18.8547 37.1884 18.8229 37.0858 18.828C36.9882 18.8237 36.8922 18.8545 36.8148 18.9149C36.7798 18.9445 36.7522 18.982 36.734 19.0243C36.7158 19.0666 36.7075 19.1126 36.7099 19.1587C36.7072 19.2256 36.7297 19.2911 36.7728 19.3418C36.8165 19.3898 36.8711 19.4263 36.9319 19.4481C37.0163 19.4807 37.1023 19.5089 37.1895 19.5325C37.3003 19.5616 37.409 19.5985 37.5147 19.6429C37.5974 19.6804 37.6695 19.7383 37.7245 19.8112C37.787 19.9013 37.8177 20.0101 37.8119 20.1201C37.812 20.2201 37.7848 20.3182 37.7332 20.4035C37.6769 20.4959 37.5961 20.5706 37.5001 20.619C37.3872 20.6764 37.2621 20.7048 37.1359 20.7017C37.0117 20.7041 36.8884 20.6793 36.7746 20.6291Z" fill="#808080"/>
<path id="Vector_11" d="M39.0736 20.6041C38.9525 20.5354 38.8533 20.4329 38.788 20.3088C38.7167 20.1733 38.681 20.0214 38.6843 19.8677C38.6813 19.7146 38.7181 19.5632 38.7909 19.429C38.8585 19.3054 38.9596 19.2039 39.0823 19.1367C39.2093 19.07 39.3502 19.0352 39.4932 19.0352C39.6362 19.0352 39.7771 19.07 39.9041 19.1367C40.0263 19.204 40.1273 19.3049 40.1954 19.4278C40.2682 19.5625 40.3048 19.7142 40.3015 19.8677C40.3048 20.022 40.2672 20.1744 40.1925 20.3088C40.1229 20.4333 40.0204 20.5355 39.8965 20.6041C39.7695 20.6738 39.6271 20.7093 39.4827 20.7074C39.3398 20.7099 39.1987 20.6743 39.0736 20.6041ZM39.7479 20.4033C39.8331 20.3562 39.9035 20.2856 39.9507 20.1996C40.0009 20.0968 40.0271 19.9836 40.0271 19.8689C40.0271 19.7542 40.0009 19.641 39.9507 19.5382C39.9053 19.4528 39.8365 19.3824 39.7525 19.3357C39.6705 19.2922 39.5793 19.2695 39.4868 19.2695C39.3942 19.2695 39.3031 19.2922 39.221 19.3357C39.1381 19.3824 39.0706 19.4529 39.027 19.5382C38.9758 19.6406 38.9507 19.7543 38.9541 19.8689C38.9505 19.9844 38.9751 20.099 39.0258 20.2026C39.068 20.2876 39.1344 20.358 39.2164 20.4045C39.2967 20.449 39.387 20.472 39.4786 20.4712C39.5726 20.4719 39.6652 20.4486 39.7479 20.4033Z" fill="#808080"/>
<path id="Vector_12" d="M42.6472 19.063V20.6809H42.3821V20.4418C42.3312 20.5251 42.258 20.592 42.1711 20.6349C42.0784 20.682 41.9759 20.7059 41.8721 20.7046C41.7558 20.7065 41.6407 20.6796 41.537 20.626C41.4376 20.573 41.3563 20.4906 41.3039 20.3898C41.2432 20.2725 41.2135 20.1413 41.2177 20.009V19.063H41.4776V19.9753C41.469 20.1088 41.5118 20.2404 41.5971 20.3426C41.6394 20.3862 41.6904 20.4202 41.7466 20.4423C41.8029 20.4645 41.8631 20.4744 41.9234 20.4713C41.9854 20.4746 42.0473 20.4644 42.1051 20.4415C42.1629 20.4186 42.2152 20.3835 42.2585 20.3385C42.3401 20.2499 42.3809 20.121 42.3809 19.9517V19.063H42.6472Z" fill="#808080"/>
<path id="Vector_13" d="M44.0022 19.2842V20.2378C43.9992 20.2675 44.002 20.2975 44.0105 20.3261C44.019 20.3547 44.033 20.3813 44.0518 20.4043C44.1017 20.4428 44.1643 20.4603 44.2266 20.4533H44.4218V20.6807H44.1829C44.0356 20.6807 43.9249 20.6462 43.8507 20.5773C43.7773 20.5082 43.74 20.3955 43.74 20.2378V19.2842H43.5331V19.0627H43.74V18.6553H44.0051V19.0627H44.4218V19.2842H44.0022Z" fill="#808080"/>
<path id="Vector_14" d="M46.4412 19.1112C46.5394 19.1646 46.6193 19.2469 46.6702 19.3474C46.7285 19.4654 46.757 19.5963 46.753 19.7283V20.6819H46.4895V19.7666C46.4995 19.6324 46.4577 19.4995 46.373 19.3958C46.3306 19.3523 46.2796 19.3183 46.2234 19.2963C46.1671 19.2742 46.1069 19.2644 46.0466 19.2677C45.9849 19.2646 45.9233 19.2749 45.8659 19.2978C45.8084 19.3207 45.7564 19.3557 45.7133 19.4005C45.6305 19.4891 45.5891 19.618 45.5891 19.7873V20.6819H45.324V18.4971H45.5891V19.2942C45.6425 19.2109 45.7178 19.1445 45.8065 19.1023C45.9034 19.0559 46.0094 19.0327 46.1166 19.0344C46.2293 19.0326 46.3408 19.059 46.4412 19.1112Z" fill="#808080"/>
<path id="Vector_15" d="M50.3312 20.2232H49.4454L49.2822 20.6808H49.0024L49.7367 18.6348H50.0445L50.7758 20.6808H50.4961L50.3312 20.2232ZM50.2554 20.0047L49.8883 18.9654L49.5211 20.0047H50.2554Z" fill="#808080"/>
<path id="Vector_16" d="M51.9134 20.6464C51.8214 20.6097 51.7408 20.5485 51.6803 20.4693C51.6238 20.3938 51.5913 20.3028 51.587 20.2083H51.8609C51.8644 20.2475 51.8763 20.2855 51.8957 20.3197C51.9151 20.3539 51.9417 20.3833 51.9734 20.4061C52.0505 20.4604 52.1431 20.4874 52.2368 20.4828C52.3217 20.4874 52.4057 20.4636 52.4758 20.4149C52.5029 20.3956 52.525 20.37 52.5402 20.3402C52.5554 20.3104 52.5633 20.2773 52.5632 20.2437C52.5644 20.211 52.5562 20.1787 52.5397 20.1506C52.5231 20.1225 52.4989 20.0999 52.4699 20.0854C52.378 20.0403 52.2812 20.0062 52.1815 19.9839C52.0821 19.9591 51.9847 19.9269 51.8901 19.8876C51.8154 19.8558 51.7495 19.8061 51.6978 19.743C51.6416 19.6716 51.613 19.582 51.6173 19.4908C51.6172 19.4091 51.6427 19.3295 51.6902 19.2635C51.7433 19.1909 51.8148 19.1342 51.8971 19.0993C51.9938 19.0581 52.0981 19.0379 52.203 19.0403C52.3571 19.033 52.5088 19.0811 52.6314 19.1761C52.6856 19.2214 52.7293 19.2782 52.7595 19.3424C52.7897 19.4067 52.8057 19.4769 52.8062 19.5481H52.541C52.5395 19.5089 52.5297 19.4705 52.5124 19.4354C52.4952 19.4003 52.4708 19.3692 52.4408 19.3444C52.3702 19.29 52.2828 19.2628 52.1943 19.2676C52.114 19.2634 52.0344 19.2851 51.967 19.3296C51.9406 19.3473 51.919 19.3715 51.9043 19.3999C51.8895 19.4282 51.882 19.4599 51.8825 19.492C51.8817 19.5162 51.8859 19.5404 51.8947 19.5629C51.9035 19.5855 51.9168 19.606 51.9338 19.6231C51.9703 19.6595 52.014 19.6877 52.062 19.7058C52.1321 19.7327 52.2034 19.756 52.2759 19.7754C52.371 19.8003 52.4644 19.8313 52.5556 19.8681C52.6272 19.8986 52.6907 19.9457 52.7409 20.0057C52.7947 20.0733 52.823 20.1581 52.8208 20.2449C52.8219 20.3304 52.7964 20.414 52.7479 20.484C52.6975 20.555 52.6293 20.6111 52.5504 20.6464C52.4541 20.688 52.3502 20.7082 52.2456 20.7055C52.132 20.7092 52.0189 20.6891 51.9134 20.6464Z" fill="#808080"/>
<path id="Vector_17" d="M53.79 18.7471C53.7645 18.7215 53.7471 18.6888 53.7401 18.6531C53.733 18.6175 53.7366 18.5805 53.7504 18.547C53.7641 18.5134 53.7874 18.4847 53.8173 18.4646C53.8472 18.4445 53.8823 18.4339 53.9182 18.4341C53.9414 18.4338 53.9644 18.4383 53.9857 18.4475C54.0071 18.4566 54.0264 18.4702 54.0423 18.4872C54.0748 18.5225 54.0929 18.5689 54.0929 18.6172C54.0929 18.6654 54.0748 18.7118 54.0423 18.7471C54.0264 18.7641 54.0071 18.7777 53.9857 18.7868C53.9644 18.796 53.9414 18.8005 53.9182 18.8002C53.8943 18.8007 53.8707 18.7962 53.8486 18.787C53.8266 18.7779 53.8066 18.7643 53.79 18.7471ZM54.0464 19.063V20.6809H53.7812V19.063H54.0464Z" fill="#808080"/>
<path id="Vector_18" d="M55.0809 19.4302C55.1431 19.3094 55.2376 19.2087 55.3536 19.1397C55.4705 19.0703 55.6039 19.0346 55.7394 19.0363C55.8667 19.0332 55.9925 19.0649 56.1036 19.1279C56.1998 19.1818 56.2794 19.2615 56.3338 19.3582V19.0629H56.6019V20.6809H56.3338V20.3797C56.2784 20.4782 56.1979 20.5598 56.1007 20.6159C55.9902 20.6797 55.8648 20.7119 55.7377 20.7092C55.6019 20.7111 55.4684 20.6741 55.3524 20.6026C55.2364 20.531 55.1427 20.4278 55.082 20.3047C55.0144 20.1694 54.9804 20.0194 54.983 19.8678C54.9792 19.7159 55.0128 19.5655 55.0809 19.4302ZM56.261 19.5483C56.216 19.4616 56.148 19.3894 56.0646 19.3399C55.9814 19.293 55.8879 19.2684 55.7927 19.2684C55.6976 19.2684 55.604 19.293 55.5209 19.3399C55.4378 19.3886 55.3701 19.4603 55.3256 19.5465C55.2753 19.6449 55.2502 19.7546 55.2528 19.8654C55.2502 19.9775 55.2752 20.0886 55.3256 20.1884C55.3702 20.276 55.4386 20.3489 55.5226 20.3986C55.6048 20.4473 55.6984 20.4724 55.7936 20.4712C55.8893 20.4722 55.9835 20.4471 56.0663 20.3986C56.1501 20.3491 56.2183 20.2764 56.2627 20.189C56.313 20.0901 56.338 19.9801 56.3356 19.8689C56.3376 19.758 56.312 19.6483 56.261 19.5501V19.5483Z" fill="#808080"/>
<path id="Vector_19" d="M60.2431 18.623V18.8415H59.6894V20.6809H59.4272V18.8415H58.8706V18.623H60.2431Z" fill="#808080"/>
<path id="Vector_20" d="M62.6016 19.9725H61.3253C61.3255 20.0406 61.3392 20.108 61.3656 20.1707C61.3919 20.2334 61.4304 20.2901 61.4788 20.3374C61.5272 20.3847 61.5844 20.4218 61.6471 20.4463C61.7099 20.4709 61.7768 20.4824 61.844 20.4803C61.9458 20.484 62.0463 20.4556 62.1313 20.3988C62.2069 20.3462 62.2636 20.2701 62.2928 20.1821H62.5783C62.5378 20.3343 62.4474 20.468 62.3219 20.5612C62.183 20.6621 62.0149 20.7136 61.844 20.7076C61.7014 20.7103 61.5607 20.6747 61.4361 20.6043C61.3167 20.5349 61.2192 20.4325 61.1552 20.309C61.085 20.1731 61.0499 20.0213 61.0532 19.8679C61.0499 19.7153 61.084 19.5641 61.1523 19.428C61.2152 19.3056 61.312 19.2044 61.4308 19.1369C61.5571 19.0673 61.6991 19.0323 61.8429 19.0353C61.9833 19.0323 62.122 19.067 62.245 19.1357C62.3588 19.1998 62.4522 19.2955 62.5142 19.4115C62.5788 19.5336 62.6115 19.6704 62.6092 19.8089C62.6095 19.8635 62.6069 19.9181 62.6016 19.9725ZM62.2695 19.4894C62.2259 19.4169 62.1628 19.3585 62.0876 19.3211C62.0082 19.2817 61.9208 19.2614 61.8324 19.2621C61.7061 19.259 61.5835 19.3055 61.4903 19.392C61.3925 19.4865 61.3345 19.6155 61.3283 19.7522H62.3365C62.3387 19.66 62.3155 19.569 62.2695 19.4894Z" fill="#808080"/>
<path id="Vector_21" d="M63.5428 19.43C63.6056 19.3089 63.701 19.2081 63.8179 19.1395C63.9561 19.0652 64.1115 19.0298 64.2678 19.0371C64.4241 19.0443 64.5757 19.094 64.7066 19.1809C64.8357 19.2796 64.9253 19.4221 64.959 19.5824H64.6722C64.6483 19.4871 64.592 19.4035 64.5131 19.3462C64.4275 19.287 64.3254 19.257 64.2217 19.2606C64.1529 19.258 64.0843 19.2708 64.0209 19.298C63.9574 19.3253 63.9006 19.3663 63.8546 19.4182C63.7613 19.5239 63.7147 19.6727 63.7147 19.8658C63.7147 20.0589 63.7613 20.2113 63.8546 20.3176C63.9003 20.37 63.957 20.4116 64.0205 20.4391C64.084 20.4667 64.1527 20.4796 64.2217 20.477C64.325 20.4808 64.4268 20.4519 64.5131 20.3943C64.5922 20.3371 64.649 20.2535 64.6734 20.1581H64.959C64.921 20.3163 64.8305 20.4564 64.7025 20.5549C64.5634 20.6582 64.394 20.7108 64.2217 20.7043C64.0804 20.7071 63.941 20.6714 63.8179 20.601C63.7006 20.532 63.6052 20.4306 63.5428 20.3087C63.4742 20.1716 63.4402 20.0195 63.4437 19.8658C63.4409 19.7145 63.4749 19.5648 63.5428 19.43Z" fill="#808080"/>
<path id="Vector_22" d="M67.0132 19.1112C67.1112 19.1646 67.1909 19.247 67.2416 19.3474C67.3002 19.4654 67.3288 19.5963 67.325 19.7283V20.6819H67.0616V19.7666C67.0715 19.6324 67.0297 19.4995 66.945 19.3958C66.9026 19.3523 66.8516 19.3183 66.7954 19.2963C66.7391 19.2742 66.6789 19.2644 66.6186 19.2677C66.5569 19.2647 66.4952 19.275 66.4376 19.2979C66.3801 19.3208 66.328 19.3558 66.2847 19.4005C66.2023 19.4891 66.1612 19.618 66.1612 19.7873V20.6819H65.896V18.4971H66.1612V19.2942C66.2143 19.211 66.2894 19.1446 66.378 19.1023C66.475 19.0558 66.5813 19.0326 66.6886 19.0344C66.8014 19.0327 66.9128 19.059 67.0132 19.1112Z" fill="#808080"/>
<path id="Vector_23" d="M69.7377 19.1114C69.8234 18.9547 69.9498 18.8246 70.1031 18.7352C70.2595 18.644 70.4372 18.597 70.6177 18.5994C70.8235 18.5944 71.0261 18.6509 71.2005 18.7618C71.3669 18.8717 71.4937 19.0333 71.5618 19.2224H71.2442C71.193 19.1044 71.1082 19.0047 71.0006 18.936C70.8859 18.8667 70.7541 18.8319 70.6206 18.8356C70.4867 18.8336 70.3549 18.8683 70.2389 18.936C70.1255 19.0033 70.0335 19.1021 69.9737 19.2206C69.9071 19.3547 69.8741 19.5034 69.8775 19.6535C69.8742 19.8024 69.9073 19.9499 69.9737 20.0828C70.0333 20.2016 70.1254 20.3005 70.2389 20.368C70.3549 20.4357 70.4867 20.4704 70.6206 20.4683C70.7539 20.4722 70.8856 20.4378 71.0006 20.3691C71.1083 20.3014 71.1933 20.2022 71.2442 20.0845H71.5618C71.4932 20.2721 71.3664 20.4321 71.2005 20.5404C71.026 20.6509 70.8233 20.7069 70.6177 20.7016C70.4374 20.7038 70.2598 20.6573 70.1031 20.567C69.9498 20.4789 69.8234 20.3498 69.7377 20.1938C69.6497 20.0273 69.6036 19.8414 69.6036 19.6526C69.6036 19.4637 69.6497 19.2778 69.7377 19.1114Z" fill="#808080"/>
<path id="Vector_24" d="M72.8247 20.6041C72.7038 20.5351 72.6048 20.4327 72.5391 20.3088C72.4683 20.1731 72.4328 20.0213 72.436 19.8677C72.4331 19.7146 72.4696 19.5634 72.5421 19.429C72.6099 19.3055 72.7109 19.2042 72.8335 19.1367C72.9604 19.07 73.1013 19.0352 73.2443 19.0352C73.3873 19.0352 73.5282 19.07 73.6552 19.1367C73.7776 19.2038 73.8786 19.3048 73.9466 19.4278C74.0198 19.5624 74.0566 19.7141 74.0532 19.8677C74.0563 20.0221 74.0185 20.1744 73.9436 20.3088C73.8742 20.4332 73.7719 20.5355 73.6482 20.6041C73.5212 20.6737 73.3788 20.7093 73.2344 20.7074C73.0913 20.71 72.95 20.6744 72.8247 20.6041ZM73.4996 20.4033C73.5847 20.3562 73.6548 20.2856 73.7018 20.1996C73.7561 20.0983 73.7829 19.9842 73.7793 19.8689C73.7827 19.7539 73.7566 19.64 73.7035 19.5382C73.658 19.4529 73.5892 19.3826 73.5054 19.3357C73.4233 19.2922 73.332 19.2695 73.2394 19.2695C73.1467 19.2695 73.0554 19.2922 72.9733 19.3357C72.8906 19.3825 72.8233 19.4529 72.7798 19.5382C72.7284 19.6405 72.7033 19.7542 72.707 19.8689C72.7035 19.9843 72.7279 20.0989 72.7781 20.2026C72.8207 20.2875 72.8872 20.3578 72.9692 20.4045C73.0496 20.4492 73.1399 20.4721 73.2315 20.4712C73.325 20.4717 73.4172 20.4483 73.4996 20.4033Z" fill="#808080"/>
<path id="Vector_25" d="M77.2352 19.1116C77.3344 19.1649 77.4156 19.2472 77.4683 19.3478C77.5275 19.4655 77.5566 19.5965 77.5528 19.7286V20.6823H77.2905V19.767C77.2999 19.6328 77.2582 19.5001 77.174 19.3962C77.133 19.353 77.0833 19.3192 77.0283 19.2971C76.9733 19.275 76.9143 19.2651 76.8552 19.268C76.794 19.2652 76.733 19.2756 76.6762 19.2988C76.6194 19.3219 76.5681 19.3571 76.5259 19.4021C76.4443 19.4918 76.4035 19.6214 76.4035 19.7906V20.6823H76.1413V19.767C76.1507 19.6328 76.109 19.5001 76.0247 19.3962C75.9837 19.353 75.9341 19.3192 75.8791 19.2971C75.8241 19.275 75.765 19.2651 75.706 19.268C75.6448 19.2652 75.5837 19.2756 75.5269 19.2988C75.4701 19.3219 75.4189 19.3571 75.3767 19.4021C75.2951 19.4918 75.2543 19.6214 75.2543 19.7906V20.6823H74.9891V19.0643H75.2543V19.2976C75.3056 19.2142 75.3786 19.1468 75.4653 19.1027C75.5558 19.0571 75.6556 19.0338 75.7567 19.0348C75.8811 19.0324 76.0039 19.064 76.1122 19.1263C76.2167 19.1877 76.2986 19.282 76.3453 19.395C76.3876 19.2838 76.4656 19.1902 76.5667 19.1293C76.6704 19.0659 76.7895 19.0332 76.9106 19.0348C77.0233 19.0335 77.1346 19.0598 77.2352 19.1116Z" fill="#808080"/>
<path id="Vector_26" d="M79.0668 19.129C79.1774 19.0654 79.3028 19.0334 79.4299 19.0363C79.5654 19.0345 79.6988 19.0703 79.8157 19.1397C79.9315 19.2089 80.026 19.3095 80.0884 19.4302C80.1566 19.5649 80.1906 19.7146 80.1875 19.866C80.19 20.0176 80.156 20.1676 80.0884 20.3029C80.027 20.426 79.9328 20.5292 79.8163 20.6007C79.6999 20.6722 79.566 20.7092 79.4299 20.7074C79.3037 20.7098 79.1793 20.6776 79.0697 20.6141C78.9725 20.5587 78.8908 20.4791 78.8325 20.3826V21.4485H78.5674V19.0629H78.8337V19.3611C78.89 19.2644 78.9704 19.1843 79.0668 19.129ZM79.8437 19.5471C79.7987 19.4606 79.7304 19.389 79.6467 19.3404C79.5637 19.293 79.4698 19.2686 79.3745 19.2696C79.2799 19.269 79.1868 19.2938 79.1047 19.3416C79.0207 19.3915 78.9521 19.4641 78.9066 19.5512C78.8579 19.6503 78.8326 19.7594 78.8326 19.8701C78.8326 19.9807 78.8579 20.0899 78.9066 20.189C78.9521 20.2761 79.0207 20.3487 79.1047 20.3986C79.1873 20.4462 79.2807 20.4713 79.3757 20.4713C79.4707 20.4713 79.5641 20.4462 79.6467 20.3986C79.7307 20.3491 79.799 20.2764 79.8437 20.189C79.8941 20.0891 79.9191 19.9781 79.9165 19.866C79.9189 19.7551 79.8936 19.6454 79.8431 19.5471H79.8437Z" fill="#808080"/>
<path id="Vector_27" d="M81.1194 19.4302C81.1816 19.3096 81.2759 19.2089 81.3915 19.1397C81.5087 19.0703 81.6422 19.0346 81.7779 19.0363C81.9052 19.0332 82.031 19.0649 82.1421 19.1279C82.2392 19.1815 82.3199 19.2612 82.3753 19.3582V19.0629H82.6433V20.6809H82.3753V20.3797C82.3199 20.4783 82.2394 20.5599 82.1421 20.6159C82.0319 20.6798 81.9066 20.712 81.7797 20.7092C81.6441 20.7111 81.5108 20.6742 81.395 20.6029C81.2791 20.531 81.1853 20.4277 81.124 20.3047C81.0562 20.1695 81.0221 20.0194 81.0249 19.8678C81.0198 19.7162 81.0522 19.5657 81.1194 19.4302ZM82.2995 19.5483C82.2543 19.4616 82.186 19.3894 82.1025 19.3399C82.0195 19.293 81.926 19.2684 81.8309 19.2684C81.7359 19.2684 81.6424 19.293 81.5594 19.3399C81.4763 19.3886 81.4086 19.4603 81.3641 19.5465C81.3134 19.6448 81.2883 19.7545 81.2913 19.8654C81.2884 19.9776 81.3134 20.0886 81.3641 20.1884C81.4083 20.2756 81.476 20.3482 81.5594 20.398C81.6415 20.4467 81.7352 20.4718 81.8304 20.4707C81.9259 20.4716 82.0199 20.4465 82.1025 20.398C82.1865 20.3485 82.2548 20.2758 82.2995 20.1884C82.3497 20.0895 82.3748 19.9795 82.3723 19.8683C82.3748 19.7577 82.3498 19.6483 82.2995 19.5501V19.5483Z" fill="#808080"/>
<path id="Vector_28" d="M84.9221 19.2117C85.0422 19.3298 85.1028 19.5028 85.1028 19.7272V20.6808H84.8405V19.7655C84.8502 19.6313 84.8084 19.4985 84.724 19.3947C84.6816 19.3512 84.6306 19.3174 84.5743 19.2953C84.5181 19.2732 84.4579 19.2634 84.3976 19.2666C84.3359 19.2636 84.2742 19.2739 84.2166 19.2968C84.1591 19.3197 84.107 19.3547 84.0637 19.3994C83.9809 19.488 83.9401 19.6167 83.9401 19.7862V20.6808H83.6709V19.0629H83.9361V19.2931C83.9885 19.2104 84.0625 19.1439 84.1499 19.1012C84.243 19.0552 84.3454 19.032 84.4489 19.0333C84.5355 19.0295 84.6221 19.0433 84.7033 19.074C84.7846 19.1046 84.859 19.1514 84.9221 19.2117Z" fill="#808080"/>
<path id="Vector_29" d="M87.495 19.063L86.5334 21.4427H86.2595L86.5742 20.6632L85.9331 19.063H86.2245L86.7257 20.3739L87.2211 19.063H87.495Z" fill="#808080"/>
<path id="Vector_30" d="M2.43835 8.98242H9.05407L11.2966 12.2461L9.05407 19.097L2.43835 8.98242Z" fill="#808080"/>
<path id="Vector_31" d="M25.7129 19.0711H19.0977L16.9397 15.8518L19.0977 8.95654L25.7129 19.0711Z" fill="#808080"/>
<path id="Vector_32" d="M15.9064 19.097H9.05408L12.3648 8.98242H19.1315L15.9064 19.097Z" fill="#808080"/>
<path id="Vector_33" d="M4.46289 14.5851L9.69392 5.58887L9.70499 5.61249L13.9377 14.6116H13.9173L4.46289 14.5851ZM9.69159 5.64792L4.51243 14.5549L13.8952 14.5862L9.69159 5.64792Z" fill="#808080"/>
<path id="Vector (Stroke)" fill-rule="evenodd" clip-rule="evenodd" d="M9.69769 5.50302C9.72914 5.50443 9.75725 5.52333 9.77075 5.55213L9.78178 5.57565L9.78183 5.57575L14.0145 14.5748C14.0271 14.6015 14.0252 14.6328 14.0096 14.6578C13.9941 14.6828 13.9669 14.698 13.9377 14.698H13.9171L4.46264 14.6714C4.43216 14.6714 4.40405 14.6548 4.38896 14.6279C4.37387 14.6011 4.37411 14.5682 4.38957 14.5416L9.6206 5.54537C9.63658 5.51789 9.66623 5.5016 9.69769 5.50302ZM9.68363 5.83159L4.66094 14.4695L13.7602 14.4999L9.68363 5.83159Z" fill="#808080"/>
<path id="Vector_34" d="M13.9121 14.6263L13.9016 14.605L9.67004 5.60352H9.69452L18.7707 6.62921L18.7579 6.6481L13.9121 14.6263ZM9.71608 5.63658L13.9185 14.5714L18.7224 6.65165L9.71608 5.63658Z" fill="#808080"/>
<path id="Vector (Stroke)_2" fill-rule="evenodd" clip-rule="evenodd" d="M9.5981 5.55773C9.61369 5.53274 9.64084 5.51758 9.67003 5.51758H9.69451C9.69766 5.51758 9.70081 5.51776 9.70394 5.51811L18.7801 6.5438C18.8099 6.54716 18.8357 6.56606 18.8481 6.5936C18.8605 6.62114 18.8578 6.65326 18.8408 6.67821L18.8292 6.69532L13.9845 14.6716C13.9684 14.6983 13.9392 14.7139 13.9083 14.7126C13.8775 14.7112 13.8498 14.693 13.836 14.665L13.8255 14.6438L13.8248 14.6423L9.59322 5.64077C9.58067 5.61407 9.58252 5.58273 9.5981 5.55773ZM18.5797 6.72247L9.85862 5.73955L13.928 14.3914L18.5797 6.72247Z" fill="#808080"/>
<path id="Vector_35" d="M18.7678 6.65938H18.745L9.65369 5.63251L9.68457 5.61125L16.555 0.497559L16.5614 0.513502L18.7678 6.65938ZM9.7312 5.61007L18.7252 6.62631L16.5421 0.539484L9.7312 5.61007Z" fill="#808080"/>
<path id="Vector (Stroke)_3" fill-rule="evenodd" clip-rule="evenodd" d="M16.5781 0.414863C16.6033 0.42208 16.6239 0.440686 16.6337 0.465287L16.6402 0.48123C16.6406 0.482239 16.6409 0.483256 16.6413 0.48428L18.8477 6.63016C18.8572 6.65657 18.8534 6.68601 18.8374 6.70902C18.8215 6.73204 18.7955 6.74575 18.7678 6.74575H18.745C18.7419 6.74575 18.7387 6.74557 18.7356 6.74522L9.64425 5.71835C9.60886 5.71435 9.57967 5.68845 9.57111 5.65345C9.56254 5.61844 9.57641 5.58174 9.60586 5.56147L9.63545 5.5411L16.5046 0.428354C16.5257 0.412623 16.5528 0.407646 16.5781 0.414863ZM9.95699 5.54911L18.5985 6.52552L16.501 0.677273L9.95699 5.54911Z" fill="#808080"/>
<path id="Vector_36" d="M9.68753 5.64055L9.68054 5.62638L7.7428 1.6795H7.7632L16.5987 0.501465L9.68753 5.64055ZM7.78534 1.7043L9.69802 5.60157L16.4991 0.538076L7.78534 1.7043Z" fill="#808080"/>
<path id="Vector (Stroke)_4" fill-rule="evenodd" clip-rule="evenodd" d="M16.6776 0.469072C16.6921 0.505569 16.6804 0.547365 16.649 0.570643L9.73786 5.70973C9.71765 5.72476 9.69192 5.72999 9.66754 5.72402C9.64317 5.71806 9.62263 5.70151 9.61142 5.67879L9.60443 5.66462L7.66661 1.71759C7.6535 1.69089 7.65496 1.65921 7.67047 1.63386C7.68598 1.60851 7.71333 1.59308 7.74278 1.59308H7.7576L16.5876 0.415781C16.6261 0.410647 16.6632 0.432576 16.6776 0.469072ZM16.1816 0.667191L7.91449 1.77365L9.72915 5.47119L16.1816 0.667191Z" fill="#808080"/>
<path id="Vector_37" d="M7.76497 1.70593L7.76147 1.67818L13.7058 0.304688L16.6576 0.523761L7.76497 1.70593ZM13.7029 0.333622L7.99808 1.66047L16.4402 0.530847L13.7029 0.333622Z" fill="#808080"/>
<path id="Vector (Stroke)_5" fill-rule="evenodd" clip-rule="evenodd" d="M13.6869 0.22042C13.6951 0.218516 13.7036 0.217867 13.712 0.218492L16.6638 0.437566C16.7073 0.440796 16.7414 0.476847 16.7426 0.521019C16.7439 0.565191 16.7119 0.603159 16.6687 0.608911L7.77603 1.79108C7.75361 1.79406 7.73094 1.78788 7.71303 1.7739C7.69512 1.75991 7.68344 1.73928 7.68058 1.71657L7.67708 1.68881C7.67154 1.64483 7.69986 1.60377 7.74254 1.59391L13.6869 0.22042ZM13.7096 0.4202L9.7728 1.33582L15.5985 0.556301L13.7096 0.4202Z" fill="#808080"/>
<path id="Vector_38" d="M23.2022 6.94728L18.7352 6.65203L18.7323 6.64377L16.5177 0.467773L23.2022 6.94728ZM18.7544 6.62782L23.1253 6.91421L16.5824 0.569929L18.7544 6.62782Z" fill="#808080"/>
<path id="Vector (Stroke)_6" fill-rule="evenodd" clip-rule="evenodd" d="M16.4712 0.395336C16.5043 0.37347 16.548 0.377583 16.5765 0.405263L23.261 6.88477C23.2868 6.90981 23.2944 6.94854 23.28 6.98169C23.2657 7.01485 23.2323 7.03534 23.1966 7.03298L18.7296 6.73773C18.6958 6.7355 18.6665 6.7131 18.6551 6.68074L18.6523 6.6729L18.6521 6.67247L16.4377 0.496911C16.4242 0.459283 16.4381 0.417201 16.4712 0.395336ZM16.7867 0.887025L18.8154 6.54521L22.8978 6.81271L16.7867 0.887025Z" fill="#808080"/>
<path id="Vector_39" d="M23.1946 6.99158L16.4833 0.479004L21.1181 2.45244V2.45716L23.1946 6.99158ZM16.6138 0.558721L23.1002 6.87053L21.0989 2.47488L16.6138 0.558721Z" fill="#808080"/>
<path id="Vector (Stroke)_7" fill-rule="evenodd" clip-rule="evenodd" d="M16.4122 0.431454C16.4347 0.396736 16.4784 0.383224 16.5162 0.399321L21.1511 2.37276C21.1768 2.38372 21.1953 2.40659 21.2012 2.43347L23.2717 6.95507C23.2889 6.99265 23.2773 7.03732 23.244 7.06141C23.2107 7.0855 23.1652 7.08219 23.1357 7.05352L16.4244 0.540949C16.3948 0.512214 16.3896 0.466173 16.4122 0.431454ZM22.8343 6.49209L21.0354 2.54102L17.004 0.81866L22.8343 6.49209Z" fill="#808080"/>
<path id="Vector_40" d="M23.1567 6.9473L21.0535 2.38867L24.9517 6.18497L23.1567 6.9473ZM21.163 2.53866L23.1695 6.91364L24.9021 6.17434L21.163 2.53866Z" fill="#808080"/>
<path id="Vector (Stroke)_8" fill-rule="evenodd" clip-rule="evenodd" d="M21.004 2.31833C21.0373 2.29418 21.0829 2.29753 21.1124 2.3263L25.0106 6.1226C25.0313 6.1427 25.0405 6.17198 25.0353 6.20049C25.03 6.22901 25.011 6.25293 24.9846 6.26415L23.1896 7.02648C23.1475 7.04436 23.099 7.02539 23.0796 6.9835L20.9764 2.42487C20.959 2.38727 20.9706 2.34249 21.004 2.31833ZM21.4312 2.91856L23.2121 6.80171L24.7499 6.14552L21.4312 2.91856Z" fill="#808080"/>
<path id="Vector_41" d="M26.0806 8.17354L23.1294 6.92878L24.9325 6.16113L26.0806 8.17354ZM23.197 6.9335L26.0054 8.10327L24.9209 6.19656L23.197 6.9335Z" fill="#808080"/>
<path id="Vector (Stroke)_9" fill-rule="evenodd" clip-rule="evenodd" d="M24.8995 6.08194C24.939 6.06512 24.9847 6.08069 25.0062 6.11826L26.1542 8.13067C26.1725 8.16266 26.1686 8.20287 26.1445 8.23063C26.1204 8.25838 26.0815 8.26751 26.0479 8.2533L23.0967 7.00854C23.065 6.99518 23.0444 6.96388 23.0443 6.92915C23.0443 6.89441 23.0648 6.86304 23.0964 6.84958L24.8995 6.08194ZM23.4182 6.9327L25.8073 7.92783L24.8847 6.30577L23.4182 6.9327Z" fill="#808080"/>
<path id="Vector_42" d="M23.838 14.7414H23.8112L13.8917 14.6109L13.9051 14.5908L18.7474 6.61914L18.7585 6.63745L23.838 14.7414ZM13.9413 14.5867L23.7867 14.7119L18.7492 6.66815L13.9413 14.5867Z" fill="#808080"/>
<path id="Vector (Stroke)_10" fill-rule="evenodd" clip-rule="evenodd" d="M18.7475 6.5332C18.7771 6.53323 18.8045 6.54881 18.82 6.57435L18.8307 6.59208L23.9098 14.6954C23.9265 14.722 23.9275 14.7556 23.9126 14.7831C23.8976 14.8107 23.869 14.8278 23.838 14.8278H23.8101L13.8906 14.6973C13.8593 14.6969 13.8308 14.6791 13.8163 14.651C13.8018 14.623 13.8037 14.5891 13.8212 14.5629L13.8336 14.5443L18.675 6.57421C18.6905 6.5487 18.7179 6.53318 18.7475 6.5332ZM14.0923 14.5027L23.6308 14.624L18.7503 6.831L14.0923 14.5027Z" fill="#808080"/>
<path id="Vector_43" d="M18.0167 23.58L18.0067 23.5576L13.8947 14.582L23.8369 14.7167L23.8241 14.7362L18.0167 23.58ZM13.9372 14.6145L18.0207 23.5233L23.7879 14.7415L13.9372 14.6145Z" fill="#808080"/>
<path id="Vector (Stroke)_11" fill-rule="evenodd" clip-rule="evenodd" d="M13.8232 14.5354C13.8391 14.5105 13.8665 14.4957 13.8958 14.4961L23.838 14.6307C23.8692 14.6312 23.8976 14.6488 23.9121 14.6767C23.9266 14.7047 23.9249 14.7384 23.9077 14.7647L23.8949 14.7841L23.8948 14.7841L18.0875 23.6279C18.0703 23.6541 18.0405 23.6687 18.0096 23.6661C17.9787 23.6635 17.9516 23.644 17.939 23.6154L17.9296 23.594L17.9291 23.5929L13.8175 14.6185C13.8052 14.5916 13.8073 14.5603 13.8232 14.5354ZM18.034 23.3478L23.6305 14.8258L14.0713 14.7026L18.034 23.3478Z" fill="#808080"/>
<path id="Vector_44" d="M9.44158 22.2998L9.42876 22.2803L4.46289 14.5566H4.48678L13.9401 14.5944L13.9284 14.6163L9.44158 22.2998ZM4.51184 14.5826L9.43925 22.2461L13.8928 14.6234L4.51184 14.5826Z" fill="#808080"/>
<path id="Vector (Stroke)_12" fill-rule="evenodd" clip-rule="evenodd" d="M4.38809 14.5158C4.40297 14.488 4.43167 14.4707 4.46288 14.4707H4.48711L13.9404 14.5085C13.9703 14.5086 13.9979 14.5246 14.0132 14.5507C14.0285 14.5767 14.0291 14.609 14.0149 14.6356L14.0032 14.6575C14.0027 14.6584 14.0022 14.6594 14.0016 14.6604L9.51478 22.3439C9.49989 22.3694 9.4731 22.3854 9.44385 22.3861C9.4146 22.3869 9.387 22.3725 9.37077 22.3478L9.35745 22.3276L4.39159 14.6039C4.37456 14.5774 4.37322 14.5436 4.38809 14.5158ZM4.66918 14.6697L9.43577 22.083L13.744 14.7091L4.66918 14.6697Z" fill="#808080"/>
<path id="Vector_45" d="M3.48499 22.9096V22.8937L4.47571 14.5293L4.49727 14.563L9.46314 22.286H9.43925L3.48499 22.9096ZM4.49786 14.6114L3.51529 22.8783L9.41594 22.2595L4.49786 14.6114Z" fill="#808080"/>
<path id="Vector (Stroke)_13" fill-rule="evenodd" clip-rule="evenodd" d="M4.45646 14.4451C4.49135 14.4369 4.52757 14.4517 4.54706 14.4821L9.53441 22.2388C9.55144 22.2653 9.55278 22.2991 9.53791 22.3268C9.52304 22.3546 9.49433 22.3719 9.46313 22.3719H9.44362L3.49372 22.995C3.46976 22.9975 3.44588 22.9897 3.428 22.9733C3.41011 22.957 3.3999 22.9337 3.3999 22.9093V22.8934C3.3999 22.89 3.4001 22.8865 3.40051 22.8831L4.39123 14.5188C4.3955 14.4828 4.42158 14.4533 4.45646 14.4451ZM9.26864 22.188L4.55432 14.8568L3.61246 22.7812L9.26864 22.188Z" fill="#808080"/>
<path id="Vector_46" d="M11.4219 27.5494L3.45532 22.8845H3.49903L9.44979 22.2627L9.45329 22.2716L11.4219 27.5494ZM3.54507 22.9063L11.3654 27.4827L9.43173 22.2863L3.54507 22.9063Z" fill="#808080"/>
<path id="Vector (Stroke)_14" fill-rule="evenodd" clip-rule="evenodd" d="M9.44106 22.1772C9.47886 22.1733 9.51466 22.1952 9.52877 22.2309L9.53227 22.2398L9.53286 22.2413L11.5015 27.5192C11.5142 27.5532 11.5044 27.5917 11.477 27.6153C11.4496 27.6389 11.4105 27.6424 11.3793 27.6242L3.41274 22.9593C3.37941 22.9398 3.36318 22.9 3.37315 22.8624C3.38313 22.8247 3.41682 22.7986 3.45531 22.7986H3.49465L9.44106 22.1772ZM3.8146 22.9648L11.2018 27.2877L9.37526 22.3791L3.8146 22.9648Z" fill="#808080"/>
<path id="Vector_47" d="M11.4982 27.5635L7.22234 25.9609L3.40222 22.8188L11.4982 27.5635ZM7.23866 25.9367L11.2896 27.4684L3.59687 22.9706L7.23866 25.9367Z" fill="#808080"/>
<path id="Vector (Stroke)_15" fill-rule="evenodd" clip-rule="evenodd" d="M3.33216 22.7702C3.35735 22.7332 3.4064 22.722 3.44482 22.7445L11.5408 27.4891C11.579 27.5115 11.594 27.5599 11.5752 27.6004C11.5564 27.6409 11.5101 27.66 11.4687 27.6445L7.19281 26.0419C7.18407 26.0386 7.17593 26.0339 7.1687 26.028L3.34858 22.886C3.31413 22.8576 3.30698 22.8072 3.33216 22.7702ZM4.51099 23.6048L7.28126 25.861L10.3627 27.0262L4.51099 23.6048Z" fill="#808080"/>
<path id="Vector_48" d="M3.55612 22.9867L1.93541 20.7192L0.216797 14.5745L0.242439 14.5645L3.55612 22.9867ZM1.96047 20.7056L3.44423 22.8007L0.324028 14.8178L1.96047 20.7056Z" fill="#808080"/>
<path id="Vector (Stroke)_16" fill-rule="evenodd" clip-rule="evenodd" d="M0.211767 14.4843C0.255269 14.4673 0.304201 14.4889 0.321465 14.5328L3.63515 22.955C3.65104 22.9954 3.63473 23.0415 3.59712 23.0624C3.55951 23.0834 3.51239 23.0727 3.48722 23.0374L1.86651 20.7699C1.86066 20.7618 1.85628 20.7526 1.85357 20.7429L0.13495 14.5982C0.122978 14.5554 0.145153 14.5104 0.186124 14.4944L0.211767 14.4843ZM0.8551 16.4108L2.03831 20.6679L3.11112 22.1828L0.8551 16.4108Z" fill="#808080"/>
<path id="Vector_49" d="M13.7029 27.7596L11.2721 27.5128L19.4258 26.5137L19.4293 26.5414L13.7029 27.7596ZM11.518 27.5199L13.7023 27.7325L19.0988 26.5674L11.518 27.5199Z" fill="#808080"/>
<path id="Vector (Stroke)_17" fill-rule="evenodd" clip-rule="evenodd" d="M19.4155 26.4284C19.462 26.4227 19.5042 26.456 19.5101 26.503L19.5136 26.5307C19.5192 26.5753 19.4901 26.6167 19.4467 26.626L13.7203 27.8442C13.7118 27.846 13.703 27.8464 13.6944 27.8456L11.2636 27.5987C11.2204 27.5944 11.1875 27.5578 11.187 27.5139C11.1866 27.47 11.2188 27.4328 11.2619 27.4275L19.4155 26.4284ZM12.2956 27.5092L13.6974 27.6457L17.1607 26.898L12.2956 27.5092Z" fill="#808080"/>
<path id="Vector_50" d="M11.3869 27.536L9.41882 22.2563L9.44213 22.2599L18.0609 23.5442L18.0259 23.5643L11.3869 27.536ZM9.4637 22.2906L11.4003 27.4964L17.9781 23.5596L9.4637 22.2906Z" fill="#808080"/>
<path id="Vector (Stroke)_18" fill-rule="evenodd" clip-rule="evenodd" d="M9.35263 22.2019C9.37159 22.1782 9.40158 22.1663 9.43143 22.1709L9.45474 22.1744L18.0732 23.4587C18.1092 23.4641 18.1378 23.4919 18.1445 23.5281C18.1511 23.5643 18.1344 23.6008 18.1028 23.6189L18.0685 23.6386L11.4301 27.6099C11.4085 27.6228 11.3823 27.6254 11.3586 27.617C11.3349 27.6085 11.3161 27.5899 11.3073 27.5661L9.33922 22.2865C9.32856 22.2579 9.33366 22.2257 9.35263 22.2019ZM17.7277 23.6091L9.59422 22.3969L11.4442 27.3698L17.7277 23.6091Z" fill="#808080"/>
<path id="Vector_51" d="M11.3333 27.5351L11.3869 27.5038L18.0247 23.5327L18.0311 23.5451L19.4485 26.5389H19.4275L11.3333 27.5351ZM18.0137 23.5711L11.4545 27.4961L19.4024 26.5141L18.0137 23.5711Z" fill="#808080"/>
<path id="Vector (Stroke)_19" fill-rule="evenodd" clip-rule="evenodd" d="M18.048 23.4501C18.0705 23.4565 18.0893 23.4721 18.1001 23.493L18.1065 23.5054C18.107 23.5063 18.1074 23.5072 18.1078 23.5081L19.5252 26.5019C19.5378 26.5286 19.536 26.56 19.5204 26.585C19.5049 26.6101 19.4777 26.6253 19.4485 26.6253H19.4326L11.3435 27.6208C11.3034 27.6258 11.2653 27.6014 11.2525 27.5626C11.2398 27.5237 11.2557 27.4811 11.2908 27.4607L11.3436 27.4298L11.3444 27.4294L17.9815 23.4588C18.0015 23.4467 18.0256 23.4436 18.048 23.4501ZM11.848 27.3609L19.2746 26.4433L17.977 23.6933L11.848 27.3609Z" fill="#808080"/>
<path id="Vector_52" d="M19.4211 26.5515L19.4124 26.5349L17.9991 23.5606L18.0155 23.5559L25.0001 21.896L24.961 21.9344L19.4211 26.5515ZM18.0394 23.5783L19.4281 26.506L24.9063 21.9521L18.0394 23.5783Z" fill="#808080"/>
<path id="Vector (Stroke)_20" fill-rule="evenodd" clip-rule="evenodd" d="M25.0747 21.8549C25.093 21.8889 25.0868 21.9311 25.0593 21.958L25.0203 21.9964C25.0186 21.9981 25.0169 21.9996 25.0151 22.0011L19.4752 26.6182C19.4555 26.6346 19.4296 26.6412 19.4046 26.6362C19.3796 26.6312 19.3581 26.6151 19.3461 26.5924L19.3374 26.5758C19.3368 26.5747 19.3362 26.5736 19.3357 26.5725L17.9225 23.5982C17.9116 23.5753 17.9113 23.5487 17.9215 23.5255C17.9318 23.5024 17.9516 23.485 17.9757 23.478L17.9921 23.4733C17.9934 23.4729 17.9947 23.4725 17.996 23.4722L24.9806 21.8123C25.0179 21.8035 25.0563 21.8209 25.0747 21.8549ZM18.1619 23.638L19.4579 26.37L24.5699 22.1204L18.1619 23.638Z" fill="#808080"/>
<path id="Vector_53" d="M3.50884 22.9495L0.207397 14.5562H4.50248V14.5715L3.50884 22.9495ZM0.24994 14.5839L3.49078 22.8408L4.47101 14.5839H0.24994Z" fill="#808080"/>
<path id="Vector (Stroke)_21" fill-rule="evenodd" clip-rule="evenodd" d="M0.137097 14.508C0.152926 14.4844 0.179298 14.4702 0.207505 14.4702H4.50259C4.54957 14.4702 4.58766 14.5088 4.58766 14.5564V14.5717C4.58766 14.5752 4.58746 14.5786 4.58705 14.582L3.59341 22.9599C3.58877 22.9991 3.55853 23.03 3.51996 23.0351C3.48139 23.0402 3.44432 23.0182 3.42992 22.9816L0.128477 14.5883C0.118038 14.5617 0.121267 14.5317 0.137097 14.508ZM0.375406 14.6703L3.44636 22.4944L4.37521 14.6703H0.375406Z" fill="#808080"/>
<path id="Vector_54" d="M2.59741 7.62745L2.62655 7.59321L7.76725 1.66699L7.77658 1.68589L9.71257 5.62922L2.59741 7.62745ZM7.76084 1.71659L2.67667 7.57667L9.67294 5.6115L7.76084 1.71659Z" fill="#808080"/>
<path id="Vector (Stroke)_22" fill-rule="evenodd" clip-rule="evenodd" d="M7.77815 1.58128C7.80624 1.58496 7.83067 1.60255 7.84333 1.62821L7.85273 1.64726L9.78873 5.59059C9.80003 5.61361 9.80059 5.64055 9.79025 5.66403C9.77991 5.68752 9.75975 5.7051 9.73529 5.71197L2.62013 7.7102C2.58402 7.72035 2.54562 7.70536 2.52555 7.67331C2.50549 7.64126 2.50849 7.59969 2.53295 7.57095L2.56263 7.53607L7.70333 1.60986C7.72202 1.58831 7.75007 1.5776 7.77815 1.58128ZM2.92895 7.41613L9.55086 5.55611L7.74108 1.86961L2.92895 7.41613Z" fill="#808080"/>
<path id="Vector_55" d="M4.50551 14.5839H0.209839L0.216832 14.5645L2.63886 7.55469L4.50551 14.5839ZM0.248302 14.5562H4.47112L2.63653 7.6474L0.248302 14.5562Z" fill="#808080"/>
<path id="Vector (Stroke)_23" fill-rule="evenodd" clip-rule="evenodd" d="M2.64199 7.46881C2.67928 7.4702 2.71131 7.49604 2.721 7.53253L4.58764 14.5618C4.59451 14.5877 4.58911 14.6153 4.57301 14.6366C4.55691 14.6578 4.53195 14.6703 4.50549 14.6703H0.209824C0.182076 14.6703 0.156072 14.6566 0.140151 14.6336C0.124231 14.6106 0.120395 14.5811 0.129874 14.5547L0.136524 14.5362L0.136868 14.5352L2.55856 7.52645C2.57088 7.49078 2.60471 7.46741 2.64199 7.46881ZM0.3682 14.4703H4.36014L2.62586 7.93919L0.3682 14.4703Z" fill="#808080"/>
<path id="Vector_56" d="M0.241856 14.5746L0.216797 14.5646L1.36895 8.59464L2.6703 7.54297L0.241856 14.5746ZM1.39285 8.61058L0.309459 14.2953L2.60211 7.66048L1.39285 8.61058Z" fill="#808080"/>
<path id="Vector (Stroke)_24" fill-rule="evenodd" clip-rule="evenodd" d="M2.7195 7.47242C2.75043 7.49464 2.76311 7.5349 2.75059 7.57114L0.322148 14.6028C0.314503 14.6249 0.298279 14.6429 0.277221 14.6527C0.256163 14.6624 0.232091 14.6631 0.210559 14.6544L0.1855 14.6444C0.147383 14.6291 0.125439 14.5885 0.133302 14.5478L1.28546 8.57784C1.28933 8.55779 1.30011 8.53977 1.31589 8.52703L2.61723 7.47535C2.64687 7.45141 2.68858 7.45021 2.7195 7.47242ZM1.47029 8.6585L0.613472 13.1544L2.42667 7.90708L1.47029 8.6585Z" fill="#808080"/>
<path id="Vector_57" d="M1.32935 8.68066L2.14932 7.05857L7.75449 1.68506L7.77431 1.70336L2.64585 7.61363L1.32935 8.68066ZM2.17088 7.07628L1.43191 8.52713L2.6272 7.59238L7.47068 2.01574L2.17088 7.07628Z" fill="#808080"/>
<path id="Vector (Stroke)_25" fill-rule="evenodd" clip-rule="evenodd" d="M7.696 1.62271C7.72837 1.59168 7.77889 1.59121 7.81181 1.62163L7.83163 1.63993C7.86588 1.67158 7.8688 1.72518 7.8382 1.76045L2.70973 7.67072C2.70646 7.6745 2.70286 7.67797 2.69899 7.68111L1.38249 8.74814C1.35118 8.77352 1.30662 8.7733 1.27555 8.74762C1.24448 8.72194 1.23534 8.67777 1.25361 8.64161L2.07359 7.01952C2.07798 7.01082 2.08382 7.00294 2.09083 6.99622L7.696 1.62271ZM6.20433 3.34353L2.23981 7.12908L1.68313 8.22203L2.56872 7.52947L6.20433 3.34353Z" fill="#808080"/>
<path id="Vector_58" d="M4.48268 14.6057L4.47452 14.5738L2.62012 7.59235L2.63352 7.58822L9.72187 5.59766L9.70439 5.62718L4.48268 14.6057ZM2.65392 7.61125L4.49259 14.5342L9.66359 5.64253L2.65392 7.61125Z" fill="#808080"/>
<path id="Vector_59" d="M18.0422 23.5696L18.0172 23.5655L9.41943 22.2847L9.42817 22.267L13.9197 14.5781L13.9313 14.6035L18.0422 23.5696ZM9.46139 22.2628L17.9962 23.5348L13.9167 14.6407L9.46139 22.2628Z" fill="#808080"/>
<path id="Vector (Stroke)_26" fill-rule="evenodd" clip-rule="evenodd" d="M13.9239 14.4918C13.9554 14.4934 13.9835 14.5125 13.9968 14.5415L14.0084 14.5669L18.1194 23.533C18.1326 23.562 18.129 23.596 18.11 23.6214C18.091 23.6468 18.0596 23.6595 18.0286 23.6544L18.0035 23.6502L9.40704 22.3696C9.38005 22.3656 9.3566 22.3487 9.34399 22.3242C9.33138 22.2997 9.33113 22.2706 9.34332 22.2459L9.35207 22.2282C9.35296 22.2264 9.35392 22.2246 9.35495 22.2228L13.8464 14.534C13.8625 14.5065 13.8923 14.4902 13.9239 14.4918ZM17.8526 23.426L13.9076 14.8251L9.59914 22.196L17.8526 23.426Z" fill="#808080"/>
<path id="Vector_60" d="M17.9869 23.5753L18.0079 23.544L23.8194 14.7231L23.8235 14.7598L24.9646 21.9325L24.9529 21.936L17.9869 23.5753ZM23.8031 14.8005L18.0499 23.5286L24.9348 21.9124L23.8031 14.8005Z" fill="#808080"/>
<path id="Vector (Stroke)_27" fill-rule="evenodd" clip-rule="evenodd" d="M23.8394 14.6396C23.8742 14.6482 23.8999 14.6778 23.9039 14.7137L23.9078 14.7483L25.0485 21.919C25.0553 21.9617 25.0299 22.0028 24.989 22.0152L24.9773 22.0188C24.9756 22.0193 24.9739 22.0198 24.9721 22.0202L18.0062 23.6594C17.9721 23.6674 17.9366 23.6535 17.9168 23.6242C17.897 23.595 17.8969 23.5564 17.9165 23.5271L17.9371 23.4964L17.9375 23.4958L23.7486 14.6755C23.7684 14.6455 23.8047 14.6311 23.8394 14.6396ZM18.2398 23.3958L24.8382 21.8469L23.7535 15.031L18.2398 23.3958Z" fill="#808080"/>
<path id="Vector_61" d="M24.9447 21.9775L23.7972 14.7144L27.3674 14.8118L27.372 14.8307L24.9447 21.9775ZM23.8281 14.7415L24.9593 21.867L27.3388 14.8401L23.8281 14.7415Z" fill="#808080"/>
<path id="Vector (Stroke)_28" fill-rule="evenodd" clip-rule="evenodd" d="M23.7332 14.6578C23.7499 14.6385 23.7742 14.6278 23.7995 14.6284L27.3696 14.7259C27.4078 14.7269 27.4406 14.7536 27.4499 14.7911L27.4545 14.81C27.4585 14.8262 27.4578 14.8432 27.4524 14.8589L25.0252 22.0057C25.0125 22.0431 24.9763 22.0669 24.9374 22.0635C24.8985 22.0601 24.8669 22.0303 24.8607 21.9913L23.7132 14.7282C23.7092 14.7029 23.7166 14.6771 23.7332 14.6578ZM23.9284 14.8307L24.9892 21.5132L27.2208 14.9232L23.9284 14.8307Z" fill="#808080"/>
<path id="Vector_62" d="M23.8304 14.8176L23.8007 14.7692L18.7212 6.62744L23.1783 6.91737V6.92918L23.8304 14.8176ZM18.7725 6.65815L23.7943 14.706L23.1503 6.94336L18.7725 6.65815Z" fill="#808080"/>
<path id="Vector (Stroke)_29" fill-rule="evenodd" clip-rule="evenodd" d="M18.648 6.58368C18.6643 6.55583 18.6947 6.53961 18.7266 6.54168L23.1837 6.83162C23.2285 6.83453 23.2633 6.87215 23.2633 6.91759V6.9258L23.9152 14.8106C23.9185 14.8503 23.8945 14.8871 23.8572 14.8996C23.8198 14.9121 23.7789 14.8971 23.7582 14.8633L23.7288 14.8154L23.7284 14.8149L18.6493 6.67368C18.6322 6.6463 18.6317 6.61153 18.648 6.58368ZM23.6804 14.3624L23.0717 7.02478L18.9335 6.75519L23.6804 14.3624Z" fill="#808080"/>
<path id="Vector_63" d="M27.3604 14.8398L23.7996 14.7418L23.1445 6.86572L27.3604 14.8398ZM23.8252 14.7146L27.3359 14.812L23.1824 6.99563L23.8252 14.7146Z" fill="#808080"/>
<path id="Vector (Stroke)_30" fill-rule="evenodd" clip-rule="evenodd" d="M23.1204 6.78285C23.1591 6.77125 23.2005 6.78877 23.2195 6.82479L27.4353 14.7988C27.4497 14.8259 27.4487 14.8587 27.4327 14.8848C27.4168 14.9109 27.3883 14.9265 27.358 14.9256L23.7973 14.8276C23.7539 14.8264 23.7184 14.7924 23.7148 14.7487L23.0598 6.87269C23.0564 6.83198 23.0817 6.79445 23.1204 6.78285ZM23.3016 7.40147L23.9036 14.6303L27.1913 14.7216L23.3016 7.40147Z" fill="#808080"/>
<path id="Vector_64" d="M27.3743 14.8308H27.3492L23.1299 6.89746L26.0549 8.12805V8.13455L27.3743 14.8308ZM23.1963 6.9636L27.3201 14.7233L26.0339 8.14754L23.1963 6.9636Z" fill="#808080"/>
<path id="Vector (Stroke)_31" fill-rule="evenodd" clip-rule="evenodd" d="M23.0668 6.83989C23.0909 6.81285 23.1293 6.80413 23.1625 6.81812L26.0875 8.04871C26.1186 8.06179 26.139 8.09217 26.1399 8.12612L27.4577 14.8141C27.4627 14.8394 27.4562 14.8657 27.44 14.8856C27.4239 14.9056 27.3997 14.9171 27.3743 14.9171H27.3492C27.3179 14.9171 27.2891 14.8997 27.2743 14.8718L23.055 6.93854C23.0379 6.90644 23.0426 6.86693 23.0668 6.83989ZM27.1266 14.1776L25.9593 8.20982L23.3841 7.13533L27.1266 14.1776Z" fill="#808080"/>
<path id="Vector_65" d="M27.503 14.8325C27.503 14.8687 27.4925 14.9041 27.4726 14.9342C27.4527 14.9643 27.4245 14.9877 27.3915 15.0016C27.3585 15.0154 27.3222 15.0191 27.2871 15.012C27.2521 15.0049 27.2199 14.9875 27.1946 14.9619C27.1694 14.9363 27.1522 14.9037 27.1452 14.8682C27.1382 14.8327 27.1418 14.7959 27.1555 14.7624C27.1691 14.729 27.1923 14.7004 27.222 14.6803C27.2517 14.6602 27.2867 14.6494 27.3224 14.6494C27.3461 14.6493 27.3697 14.654 27.3916 14.6632C27.4136 14.6724 27.4335 14.6858 27.4503 14.7029C27.4671 14.7199 27.4804 14.7401 27.4895 14.7623C27.4985 14.7846 27.5031 14.8084 27.503 14.8325Z" fill="#808080"/>
<path id="Vector (Stroke)_32" fill-rule="evenodd" clip-rule="evenodd" d="M27.3754 14.7031C27.3587 14.6961 27.3407 14.6925 27.3226 14.6926L27.3224 14.6926C27.2951 14.6926 27.2684 14.7008 27.2457 14.7162C27.223 14.7316 27.2053 14.7534 27.1948 14.779C27.1844 14.8046 27.1816 14.8327 27.187 14.8599C27.1923 14.887 27.2055 14.912 27.2248 14.9316C27.2441 14.9511 27.2687 14.9645 27.2955 14.9699C27.3223 14.9753 27.3501 14.9725 27.3753 14.9619C27.4005 14.9513 27.4221 14.9334 27.4373 14.9104C27.4525 14.8873 27.4606 14.8603 27.4606 14.8326V14.8324H27.4606C27.4606 14.8141 27.4571 14.7958 27.4502 14.7788C27.4433 14.7619 27.4331 14.7464 27.4203 14.7334C27.4074 14.7204 27.3922 14.7101 27.3754 14.7031ZM27.3223 14.6064C27.3517 14.6064 27.3807 14.6121 27.4079 14.6235C27.435 14.6348 27.4597 14.6515 27.4804 14.6725C27.5012 14.6935 27.5176 14.7185 27.5288 14.746C27.54 14.7735 27.5457 14.8029 27.5456 14.8326C27.5456 14.8773 27.5325 14.921 27.508 14.9582C27.4835 14.9954 27.4486 15.0244 27.4079 15.0415C27.3671 15.0586 27.3222 15.0631 27.2789 15.0544C27.2356 15.0456 27.1958 15.0241 27.1646 14.9925C27.1334 14.9608 27.1121 14.9205 27.1035 14.8767C27.0949 14.8328 27.0993 14.7874 27.1162 14.746C27.1331 14.7047 27.1617 14.6694 27.1984 14.6446C27.2351 14.6197 27.2783 14.6064 27.3224 14.6064V14.6495L27.3223 14.6064ZM27.5456 14.8326C27.5456 14.8327 27.5456 14.8327 27.5456 14.8327L27.5031 14.8326H27.5456C27.5456 14.8326 27.5456 14.8326 27.5456 14.8326Z" fill="#808080"/>
<path id="Vector_66" d="M24.0187 14.7147C24.0186 14.7591 24.0055 14.8024 23.9811 14.8392C23.9567 14.876 23.9221 14.9047 23.8816 14.9216C23.8411 14.9385 23.7966 14.9429 23.7537 14.9341C23.7108 14.9254 23.6714 14.904 23.6405 14.8726C23.6095 14.8412 23.5885 14.8012 23.58 14.7577C23.5715 14.7142 23.5759 14.6691 23.5927 14.6281C23.6095 14.5872 23.6379 14.5522 23.6743 14.5275C23.7107 14.5029 23.7535 14.4897 23.7973 14.4897C23.856 14.4899 23.9124 14.5137 23.9539 14.5558C23.9954 14.598 24.0187 14.6552 24.0187 14.7147Z" fill="#808080"/>
<path id="Vector (Stroke)_33" fill-rule="evenodd" clip-rule="evenodd" d="M23.7971 14.5324C23.7618 14.5325 23.7272 14.5431 23.6978 14.563C23.6684 14.5829 23.6455 14.6111 23.6319 14.6443C23.6184 14.6774 23.6148 14.7138 23.6217 14.749C23.6285 14.7841 23.6455 14.8164 23.6705 14.8418C23.6955 14.8672 23.7273 14.8845 23.762 14.8915C23.7967 14.8986 23.8326 14.8951 23.8653 14.8814C23.898 14.8678 23.926 14.8446 23.9457 14.8148C23.9654 14.7851 23.976 14.7501 23.9761 14.7143C23.9761 14.6661 23.9573 14.62 23.9237 14.5859C23.8901 14.5518 23.8446 14.5326 23.7971 14.5324ZM23.6506 14.4913C23.694 14.462 23.745 14.4463 23.7972 14.4463H23.7973C23.8674 14.4465 23.9345 14.4748 23.9839 14.5251C24.0334 14.5753 24.0612 14.6434 24.0612 14.7143L24.0612 14.7145C24.061 14.7673 24.0454 14.819 24.0164 14.8629C23.9873 14.9067 23.946 14.9409 23.8977 14.9611C23.8495 14.9812 23.7964 14.9864 23.7453 14.976C23.6941 14.9656 23.6471 14.9401 23.6103 14.9026C23.5734 14.8652 23.5484 14.8175 23.5382 14.7657C23.5281 14.7138 23.5334 14.6601 23.5534 14.6112C23.5734 14.5624 23.6072 14.5207 23.6506 14.4913Z" fill="#808080"/>
<path id="Vector_67" d="M18.2083 23.5803C18.2083 23.6247 18.1953 23.6681 18.171 23.705C18.1466 23.7419 18.1121 23.7707 18.0716 23.7877C18.0311 23.8046 17.9866 23.8091 17.9436 23.8004C17.9007 23.7918 17.8612 23.7704 17.8302 23.739C17.7993 23.7076 17.7782 23.6676 17.7696 23.6241C17.7611 23.5806 17.7655 23.5355 17.7822 23.4945C17.799 23.4535 17.8274 23.4184 17.8638 23.3938C17.9002 23.3691 17.943 23.356 17.9868 23.356C18.0456 23.356 18.1019 23.3796 18.1434 23.4217C18.185 23.4638 18.2083 23.5208 18.2083 23.5803Z" fill="#808080"/>
<path id="Vector (Stroke)_34" fill-rule="evenodd" clip-rule="evenodd" d="M17.9869 23.3987C17.9515 23.3987 17.9169 23.4093 17.8875 23.4292C17.8581 23.4491 17.8351 23.4774 17.8216 23.5106C17.808 23.5437 17.8045 23.5802 17.8114 23.6153C17.8183 23.6505 17.8354 23.6828 17.8604 23.7082C17.8854 23.7335 17.9173 23.7508 17.952 23.7578C17.9867 23.7648 18.0227 23.7612 18.0554 23.7475C18.088 23.7338 18.116 23.7105 18.1357 23.6807C18.1553 23.6509 18.1658 23.6158 18.1658 23.58C18.1658 23.5319 18.147 23.4858 18.1134 23.4518C18.0798 23.4178 18.0343 23.3987 17.9869 23.3987ZM17.8402 23.3576C17.8836 23.3282 17.9347 23.3125 17.9869 23.3125C18.0569 23.3125 18.1241 23.3407 18.1736 23.3908C18.2231 23.441 18.2509 23.509 18.2509 23.58C18.2509 23.6329 18.2354 23.6846 18.2064 23.7286C18.1774 23.7725 18.1362 23.8068 18.0879 23.8271C18.0397 23.8473 17.9866 23.8526 17.9354 23.8423C17.8842 23.832 17.8371 23.8065 17.8002 23.7691C17.7633 23.7317 17.7382 23.684 17.728 23.6321C17.7178 23.5803 17.723 23.5265 17.743 23.4776C17.763 23.4287 17.7968 23.387 17.8402 23.3576Z" fill="#808080"/>
<path id="Vector_68" d="M25.1405 21.7158C25.1758 21.76 25.1938 21.8159 25.1909 21.8727C25.188 21.9296 25.1644 21.9833 25.1248 22.0235C25.0851 22.0638 25.0321 22.0878 24.9761 22.0908C24.92 22.0939 24.8648 22.0758 24.8211 22.04C24.81 22.0323 24.8004 22.0227 24.7925 22.0117C24.7581 21.9673 24.741 21.9116 24.7443 21.8553C24.7476 21.7989 24.7712 21.7457 24.8106 21.7058C24.85 21.6659 24.9025 21.642 24.9581 21.6386C25.0138 21.6352 25.0687 21.6526 25.1125 21.6875C25.1237 21.6947 25.1333 21.7044 25.1405 21.7158Z" fill="#808080"/>
<path id="Vector (Stroke)_35" fill-rule="evenodd" clip-rule="evenodd" d="M25.0863 21.7215C25.0506 21.6931 25.006 21.679 24.9607 21.6817C24.9155 21.6845 24.8728 21.7039 24.8408 21.7364C24.8087 21.7688 24.7895 21.8121 24.7868 21.8579C24.7841 21.9038 24.7981 21.9491 24.8261 21.9852L24.8266 21.9859L24.8271 21.9866C24.8321 21.9936 24.8383 21.9997 24.8453 22.0046L24.8466 22.0056L24.8479 22.0066C24.8834 22.0357 24.9283 22.0504 24.9738 22.0479C25.0194 22.0454 25.0625 22.026 25.0947 21.9932C25.127 21.9605 25.1461 21.9168 25.1485 21.8706C25.1508 21.8244 25.1362 21.779 25.1075 21.7431L25.106 21.7411L25.1046 21.7391C25.1008 21.733 25.0957 21.7278 25.0897 21.7239L25.0879 21.7228L25.0863 21.7215ZM25.1373 21.6525C25.0855 21.6119 25.021 21.5917 24.9556 21.5957C24.8896 21.5997 24.8274 21.6281 24.7806 21.6755C24.7339 21.7228 24.7059 21.7859 24.7019 21.8528C24.698 21.9194 24.7181 21.9851 24.7586 22.0377C24.7689 22.052 24.7814 22.0644 24.7957 22.0746C24.8473 22.1164 24.9123 22.1375 24.9784 22.1339C25.045 22.1303 25.1078 22.1019 25.1549 22.0541C25.202 22.0063 25.23 21.9425 25.2334 21.8751C25.2368 21.8084 25.216 21.7428 25.175 21.6906C25.1651 21.6755 25.1522 21.6625 25.1373 21.6525Z" fill="#808080"/>
<path id="Vector_69" d="M19.5884 26.5518C19.5884 26.5841 19.5789 26.6157 19.5612 26.6426C19.5434 26.6695 19.5182 26.6905 19.4887 26.7029C19.4592 26.7152 19.4268 26.7185 19.3954 26.7122C19.3641 26.7059 19.3354 26.6903 19.3128 26.6674C19.2902 26.6445 19.2748 26.6154 19.2686 26.5837C19.2624 26.5519 19.2656 26.519 19.2778 26.4892C19.29 26.4593 19.3107 26.4337 19.3372 26.4157C19.3638 26.3978 19.395 26.3882 19.4269 26.3882C19.4697 26.3882 19.5108 26.4054 19.5411 26.4361C19.5714 26.4668 19.5884 26.5084 19.5884 26.5518Z" fill="#808080"/>
<path id="Vector (Stroke)_36" fill-rule="evenodd" clip-rule="evenodd" d="M19.427 26.4309C19.4035 26.4309 19.3805 26.4379 19.3609 26.4512C19.3414 26.4644 19.3261 26.4832 19.3171 26.5053C19.3081 26.5273 19.3058 26.5515 19.3104 26.5749C19.315 26.5983 19.3263 26.6197 19.3429 26.6366C19.3596 26.6534 19.3807 26.6649 19.4038 26.6695C19.4269 26.6742 19.4508 26.6718 19.4725 26.6627C19.4942 26.6536 19.5128 26.6381 19.5258 26.6183C19.5389 26.5985 19.5459 26.5752 19.5459 26.5514C19.5459 26.5194 19.5334 26.4888 19.5111 26.4662C19.4888 26.4436 19.4585 26.4309 19.427 26.4309ZM19.3137 26.3796C19.3472 26.3568 19.3866 26.3447 19.427 26.3447C19.4811 26.3447 19.533 26.3665 19.5712 26.4053C19.6095 26.444 19.6309 26.4966 19.6309 26.5514C19.6309 26.5922 19.619 26.6322 19.5966 26.6662C19.5742 26.7002 19.5423 26.7266 19.505 26.7423C19.4678 26.7579 19.4268 26.762 19.3872 26.754C19.3476 26.7461 19.3113 26.7264 19.2828 26.6975C19.2542 26.6686 19.2348 26.6318 19.2269 26.5917C19.2191 26.5516 19.2231 26.5101 19.2385 26.4723C19.254 26.4345 19.2801 26.4023 19.3137 26.3796Z" fill="#808080"/>
<path id="Vector_70" d="M13.6731 27.8844C13.7411 27.8844 13.7961 27.8287 13.7961 27.7598C13.7961 27.691 13.7411 27.6353 13.6731 27.6353C13.6052 27.6353 13.5502 27.691 13.5502 27.7598C13.5502 27.8287 13.6052 27.8844 13.6731 27.8844Z" fill="#808080"/>
<path id="Vector (Stroke)_37" fill-rule="evenodd" clip-rule="evenodd" d="M13.6732 27.6784C13.6288 27.6784 13.5928 27.7149 13.5928 27.76C13.5928 27.805 13.6288 27.8415 13.6732 27.8415C13.7176 27.8415 13.7536 27.805 13.7536 27.76C13.7536 27.7149 13.7176 27.6784 13.6732 27.6784ZM13.5077 27.76C13.5077 27.6674 13.5818 27.5923 13.6732 27.5923C13.7646 27.5923 13.8387 27.6674 13.8387 27.76C13.8387 27.8525 13.7646 27.9276 13.6732 27.9276C13.5818 27.9276 13.5077 27.8525 13.5077 27.76Z" fill="#808080"/>
<path id="Vector_71" d="M11.5763 27.5354C11.5763 27.5798 11.5633 27.6232 11.539 27.6601C11.5147 27.697 11.4801 27.7257 11.4396 27.7427C11.3992 27.7597 11.3546 27.7642 11.3117 27.7555C11.2687 27.7468 11.2293 27.7255 11.1983 27.6941C11.1673 27.6627 11.1462 27.6227 11.1377 27.5792C11.1291 27.5357 11.1335 27.4906 11.1503 27.4496C11.167 27.4086 11.1954 27.3735 11.2318 27.3489C11.2683 27.3242 11.3111 27.311 11.3549 27.311C11.4136 27.311 11.4699 27.3347 11.5115 27.3768C11.553 27.4188 11.5763 27.4759 11.5763 27.5354Z" fill="#808080"/>
<path id="Vector (Stroke)_38" fill-rule="evenodd" clip-rule="evenodd" d="M11.3548 27.3542C11.3194 27.3542 11.2848 27.3649 11.2554 27.3848C11.226 27.4047 11.2031 27.433 11.1895 27.4661C11.176 27.4993 11.1724 27.5357 11.1793 27.5709C11.1862 27.6061 11.2033 27.6384 11.2283 27.6637C11.2533 27.6891 11.2852 27.7064 11.3199 27.7134C11.3546 27.7204 11.3906 27.7168 11.4233 27.703C11.456 27.6893 11.4839 27.6661 11.5036 27.6363C11.5232 27.6065 11.5337 27.5714 11.5337 27.5355C11.5337 27.4874 11.5149 27.4413 11.4813 27.4073C11.4478 27.3733 11.4023 27.3542 11.3548 27.3542ZM11.2081 27.3131C11.2516 27.2838 11.3026 27.2681 11.3548 27.2681C11.4248 27.2681 11.492 27.2963 11.5415 27.3464C11.591 27.3966 11.6188 27.4646 11.6188 27.5355C11.6188 27.5884 11.6033 27.6401 11.5743 27.6841C11.5453 27.7281 11.5041 27.7624 11.4558 27.7826C11.4076 27.8029 11.3545 27.8082 11.3033 27.7979C11.2521 27.7875 11.2051 27.7621 11.1681 27.7247C11.1312 27.6872 11.1061 27.6396 11.0959 27.5877C11.0857 27.5358 11.0909 27.4821 11.1109 27.4332C11.1309 27.3843 11.1647 27.3425 11.2081 27.3131Z" fill="#808080"/>
<path id="Vector_72" d="M7.3185 25.9612C7.3185 25.9893 7.31026 26.0168 7.29483 26.0402C7.27939 26.0636 7.25746 26.0819 7.2318 26.0926C7.20613 26.1034 7.17789 26.1062 7.15065 26.1007C7.1234 26.0952 7.09838 26.0817 7.07874 26.0618C7.05909 26.0419 7.04572 26.0165 7.0403 25.9889C7.03488 25.9613 7.03766 25.9327 7.04829 25.9067C7.05892 25.8807 7.07692 25.8585 7.10002 25.8428C7.12311 25.8272 7.15027 25.8188 7.17805 25.8188C7.2153 25.8188 7.25102 25.8338 7.27736 25.8605C7.3037 25.8872 7.3185 25.9234 7.3185 25.9612Z" fill="#808080"/>
<path id="Vector (Stroke)_39" fill-rule="evenodd" clip-rule="evenodd" d="M7.1781 25.862C7.15874 25.862 7.13981 25.8679 7.12371 25.8788C7.10761 25.8897 7.09505 25.9051 7.08764 25.9233C7.08023 25.9414 7.07829 25.9614 7.08207 25.9806C7.08585 25.9999 7.09518 26.0176 7.10887 26.0314C7.12257 26.0453 7.14001 26.0548 7.159 26.0586C7.17799 26.0624 7.19768 26.0605 7.21557 26.0529C7.23345 26.0454 7.24875 26.0327 7.25951 26.0164C7.27027 26.0001 7.27602 25.9809 7.27602 25.9613C7.27602 25.9349 7.2657 25.9097 7.24733 25.8911C7.22897 25.8725 7.20406 25.862 7.1781 25.862ZM7.07643 25.8071C7.10652 25.7868 7.14191 25.7759 7.1781 25.7759C7.22664 25.7759 7.27318 25.7954 7.3075 25.8302C7.34181 25.865 7.36109 25.9121 7.36109 25.9613C7.36109 25.9979 7.35036 26.0338 7.33025 26.0643C7.31015 26.0947 7.28157 26.1185 7.24813 26.1325C7.21469 26.1466 7.1779 26.1502 7.1424 26.1431C7.1069 26.1359 7.0743 26.1183 7.04871 26.0923C7.02312 26.0664 7.00569 26.0334 6.99863 25.9974C6.99157 25.9615 6.9952 25.9242 7.00904 25.8903C7.02289 25.8565 7.04634 25.8275 7.07643 25.8071Z" fill="#808080"/>
<path id="Vector_73" d="M9.6403 22.3001C9.6403 22.3445 9.62731 22.3878 9.60298 22.4247C9.57864 22.4616 9.54406 22.4904 9.50359 22.5074C9.46313 22.5244 9.4186 22.5288 9.37564 22.5201C9.33268 22.5115 9.29322 22.4901 9.26225 22.4587C9.23128 22.4274 9.21019 22.3874 9.20164 22.3438C9.1931 22.3003 9.19748 22.2552 9.21424 22.2142C9.23101 22.1732 9.25939 22.1382 9.29581 22.1135C9.33223 22.0888 9.37504 22.0757 9.41884 22.0757C9.47753 22.0758 9.53377 22.0995 9.57527 22.1416C9.61677 22.1836 9.64015 22.2406 9.6403 22.3001Z" fill="#808080"/>
<path id="Vector (Stroke)_40" fill-rule="evenodd" clip-rule="evenodd" d="M9.41884 22.1189C9.38348 22.1189 9.34891 22.1295 9.3195 22.1494C9.29008 22.1693 9.26714 22.1977 9.2536 22.2308C9.24005 22.2639 9.23651 22.3004 9.24341 22.3356C9.25032 22.3707 9.26736 22.403 9.29239 22.4284C9.31741 22.4537 9.34929 22.471 9.384 22.478C9.4187 22.485 9.45467 22.4814 9.48736 22.4677C9.52005 22.454 9.548 22.4307 9.56766 22.4009C9.58731 22.3711 9.59781 22.3361 9.59782 22.3002C9.59768 22.2522 9.57877 22.2061 9.54524 22.1721C9.5117 22.1382 9.46626 22.119 9.41884 22.1189ZM9.27222 22.0778C9.31564 22.0484 9.36668 22.0327 9.4189 22.0327H9.41901C9.48894 22.0329 9.55596 22.0611 9.6054 22.1112C9.65485 22.1613 9.6827 22.2292 9.68289 22.3001L9.68289 22.3002C9.68289 22.3531 9.66741 22.4048 9.6384 22.4488C9.6094 22.4928 9.56817 22.527 9.51993 22.5473C9.47169 22.5675 9.41861 22.5728 9.36739 22.5625C9.31618 22.5522 9.26914 22.5267 9.23222 22.4893C9.1953 22.4519 9.17016 22.4042 9.15998 22.3524C9.14979 22.3005 9.15502 22.2467 9.175 22.1978C9.19498 22.149 9.22881 22.1072 9.27222 22.0778Z" fill="#808080"/>
<path id="Vector_74" d="M3.69596 22.9094C3.69596 22.9538 3.68298 22.9972 3.65864 23.0341C3.63431 23.071 3.59972 23.0998 3.55926 23.1168C3.51879 23.1337 3.47426 23.1382 3.4313 23.1295C3.38835 23.1209 3.34889 23.0995 3.31791 23.0681C3.28694 23.0367 3.26585 22.9968 3.25731 22.9532C3.24876 22.9097 3.25315 22.8646 3.26991 22.8236C3.28667 22.7826 3.31506 22.7475 3.35147 22.7229C3.38789 22.6982 3.43071 22.6851 3.47451 22.6851C3.53319 22.6852 3.58943 22.7089 3.63093 22.751C3.67243 22.793 3.69581 22.85 3.69596 22.9094Z" fill="#808080"/>
<path id="Vector (Stroke)_41" fill-rule="evenodd" clip-rule="evenodd" d="M3.47451 22.7282C3.43914 22.7283 3.40457 22.7389 3.37517 22.7588C3.34574 22.7787 3.32281 22.807 3.30926 22.8402C3.29572 22.8733 3.29217 22.9098 3.29908 22.9449C3.30598 22.9801 3.32303 23.0124 3.34805 23.0378C3.37308 23.0631 3.40496 23.0804 3.43966 23.0874C3.47436 23.0944 3.51033 23.0908 3.54303 23.0771C3.57572 23.0633 3.60366 23.0401 3.62332 23.0103C3.64298 22.9805 3.65347 22.9455 3.65348 22.9096C3.65334 22.8615 3.63444 22.8155 3.6009 22.7815C3.56736 22.7475 3.52192 22.7284 3.47451 22.7282ZM3.32789 22.6872C3.3713 22.6578 3.42234 22.6421 3.47456 22.6421H3.47467C3.54461 22.6423 3.61162 22.6705 3.66107 22.7206C3.71051 22.7707 3.73837 22.8386 3.73855 22.9094L3.73855 22.9096C3.73855 22.9625 3.72307 23.0142 3.69407 23.0581C3.66506 23.1021 3.62383 23.1364 3.57559 23.1567C3.52735 23.1769 3.47427 23.1822 3.42306 23.1719C3.37184 23.1616 3.3248 23.1361 3.28789 23.0987C3.25097 23.0613 3.22583 23.0136 3.21564 22.9617C3.20546 22.9099 3.21069 22.8561 3.23066 22.8072C3.25064 22.7583 3.28447 22.7166 3.32789 22.6872Z" fill="#808080"/>
<path id="Vector_75" d="M2.1161 20.7545C2.1161 20.7813 2.10824 20.8076 2.09351 20.8299C2.07878 20.8523 2.05785 20.8697 2.03336 20.8799C2.00886 20.8902 1.98191 20.8929 1.95591 20.8877C1.92991 20.8824 1.90603 20.8695 1.88728 20.8505C1.86854 20.8315 1.85577 20.8073 1.8506 20.781C1.84543 20.7546 1.84808 20.7273 1.85823 20.7025C1.86837 20.6777 1.88555 20.6565 1.90759 20.6415C1.92964 20.6266 1.95555 20.6187 1.98206 20.6187C2.01761 20.6187 2.0517 20.633 2.07684 20.6584C2.10198 20.6839 2.1161 20.7184 2.1161 20.7545Z" fill="#808080"/>
<path id="Vector (Stroke)_42" fill-rule="evenodd" clip-rule="evenodd" d="M1.98199 20.6618C1.9639 20.6618 1.94621 20.6673 1.93116 20.6775C1.91612 20.6877 1.90438 20.7021 1.89746 20.7191C1.89053 20.736 1.88871 20.7547 1.89225 20.7727C1.89578 20.7907 1.9045 20.8072 1.9173 20.8202C1.93009 20.8331 1.9464 20.842 1.96415 20.8455C1.98189 20.8491 2.00029 20.8473 2.017 20.8403C2.03372 20.8332 2.04802 20.8214 2.05807 20.8061C2.06813 20.7909 2.0735 20.7729 2.0735 20.7546C2.0735 20.73 2.06385 20.7064 2.04669 20.689C2.02953 20.6716 2.00626 20.6618 1.98199 20.6618ZM1.88389 20.6058C1.91292 20.5862 1.94707 20.5757 1.98199 20.5757C2.02883 20.5757 2.07374 20.5945 2.10686 20.6281C2.13997 20.6616 2.15857 20.7071 2.15857 20.7546C2.15857 20.79 2.14821 20.8245 2.12881 20.854C2.10941 20.8834 2.08184 20.9063 2.04957 20.9198C2.0173 20.9334 1.9818 20.9369 1.94754 20.93C1.91329 20.9231 1.88182 20.9061 1.85713 20.8811C1.83244 20.856 1.81562 20.8242 1.80881 20.7895C1.802 20.7548 1.8055 20.7188 1.81886 20.6861C1.83222 20.6534 1.85485 20.6255 1.88389 20.6058Z" fill="#808080"/>
<path id="Vector_76" d="M14.1592 14.5838C14.1592 14.6281 14.1462 14.6715 14.1219 14.7084C14.0976 14.7453 14.063 14.7741 14.0225 14.7911C13.982 14.8081 13.9375 14.8125 13.8946 14.8038C13.8516 14.7952 13.8121 14.7738 13.7812 14.7424C13.7502 14.711 13.7291 14.6711 13.7206 14.6275C13.712 14.584 13.7164 14.5389 13.7332 14.4979C13.7499 14.4569 13.7783 14.4218 13.8147 14.3972C13.8511 14.3725 13.894 14.3594 13.9378 14.3594C13.9965 14.3594 14.0528 14.383 14.0944 14.4251C14.1359 14.4672 14.1592 14.5243 14.1592 14.5838Z" fill="#808080"/>
<path id="Vector (Stroke)_43" fill-rule="evenodd" clip-rule="evenodd" d="M13.9377 14.4026C13.9023 14.4026 13.8677 14.4132 13.8383 14.4331C13.8089 14.453 13.7859 14.4813 13.7724 14.5145C13.7589 14.5476 13.7553 14.5841 13.7622 14.6192C13.7691 14.6544 13.7862 14.6867 13.8112 14.7121C13.8362 14.7374 13.8681 14.7547 13.9028 14.7617C13.9375 14.7687 13.9735 14.7651 14.0062 14.7514C14.0389 14.7377 14.0668 14.7144 14.0865 14.6846C14.1061 14.6548 14.1166 14.6197 14.1166 14.5839C14.1166 14.5358 14.0978 14.4897 14.0642 14.4557C14.0307 14.4217 13.9851 14.4026 13.9377 14.4026ZM13.791 14.3615C13.8344 14.3321 13.8855 14.3164 13.9377 14.3164C14.0077 14.3164 14.0749 14.3446 14.1244 14.3948C14.1739 14.4449 14.2017 14.5129 14.2017 14.5839C14.2017 14.6368 14.1862 14.6885 14.1572 14.7325C14.1282 14.7764 14.087 14.8107 14.0387 14.831C13.9905 14.8512 13.9374 14.8565 13.8862 14.8462C13.835 14.8359 13.7879 14.8104 13.751 14.773C13.7141 14.7356 13.689 14.6879 13.6788 14.636C13.6686 14.5842 13.6738 14.5304 13.6938 14.4815C13.7138 14.4327 13.7476 14.3909 13.791 14.3615Z" fill="#808080"/>
<path id="Vector_77" d="M4.72685 14.6111C4.72685 14.6555 4.71386 14.6989 4.68953 14.7358C4.66519 14.7727 4.63061 14.8014 4.59014 14.8184C4.54967 14.8354 4.50515 14.8398 4.46219 14.8312C4.41923 14.8225 4.37977 14.8012 4.3488 14.7698C4.31783 14.7384 4.29674 14.6984 4.28819 14.6549C4.27965 14.6114 4.28403 14.5662 4.30079 14.5252C4.31755 14.4842 4.34594 14.4492 4.38236 14.4245C4.41878 14.3999 4.46159 14.3867 4.50539 14.3867C4.56413 14.3867 4.62045 14.4104 4.66199 14.4524C4.70352 14.4945 4.72685 14.5516 4.72685 14.6111Z" fill="#808080"/>
<path id="Vector (Stroke)_44" fill-rule="evenodd" clip-rule="evenodd" d="M4.50545 14.4299C4.47006 14.4299 4.43547 14.4405 4.40605 14.4605C4.37663 14.4804 4.35369 14.5087 4.34015 14.5418C4.3266 14.575 4.32306 14.6114 4.32996 14.6466C4.33687 14.6818 4.35391 14.7141 4.37894 14.7394C4.40396 14.7648 4.43584 14.7821 4.47054 14.789C4.50525 14.796 4.54122 14.7924 4.57391 14.7787C4.6066 14.765 4.63455 14.7418 4.65421 14.712C4.67387 14.6821 4.68437 14.6471 4.68437 14.6112C4.68437 14.5631 4.66551 14.517 4.63196 14.483C4.5984 14.449 4.55289 14.4299 4.50545 14.4299ZM4.35877 14.3888C4.40219 14.3594 4.45323 14.3438 4.50545 14.3438C4.57547 14.3438 4.64262 14.3719 4.69212 14.4221C4.74163 14.4723 4.76944 14.5403 4.76944 14.6112C4.76944 14.6641 4.75396 14.7158 4.72495 14.7598C4.69595 14.8038 4.65472 14.8381 4.60648 14.8583C4.55824 14.8786 4.50515 14.8839 4.45394 14.8735C4.40273 14.8632 4.35569 14.8377 4.31877 14.8003C4.28185 14.7629 4.25671 14.7153 4.24653 14.6634C4.23634 14.6115 4.24157 14.5577 4.26155 14.5089C4.28153 14.46 4.31536 14.4182 4.35877 14.3888Z" fill="#808080"/>
<path id="Vector_78" d="M0.379395 14.5643C0.379395 14.5909 0.371602 14.617 0.357002 14.6391C0.342401 14.6613 0.321649 14.6785 0.29737 14.6887C0.27309 14.6989 0.246374 14.7016 0.220599 14.6964C0.194824 14.6912 0.171148 14.6784 0.152565 14.6595C0.133983 14.6407 0.121328 14.6167 0.116201 14.5906C0.111074 14.5645 0.113705 14.5374 0.123762 14.5128C0.133819 14.4882 0.15085 14.4672 0.172701 14.4524C0.194552 14.4376 0.220241 14.4297 0.246521 14.4297C0.263992 14.4296 0.281305 14.433 0.297461 14.4398C0.313617 14.4465 0.328295 14.4564 0.340649 14.4689C0.353003 14.4815 0.362788 14.4963 0.369438 14.5127C0.376088 14.5291 0.379472 14.5466 0.379395 14.5643Z" fill="#808080"/>
<path id="Vector (Stroke)_45" fill-rule="evenodd" clip-rule="evenodd" d="M0.281196 14.4797C0.270235 14.4751 0.258491 14.4728 0.246641 14.4729L0.246453 14.4729C0.228589 14.4729 0.211126 14.4782 0.19627 14.4883C0.181414 14.4984 0.169832 14.5127 0.162992 14.5294C0.156152 14.5461 0.154362 14.5645 0.157849 14.5823C0.161337 14.6001 0.169945 14.6164 0.18258 14.6292C0.195214 14.642 0.21131 14.6507 0.228832 14.6542C0.246353 14.6578 0.264514 14.6559 0.281018 14.649C0.297523 14.6421 0.311633 14.6304 0.321562 14.6153C0.331492 14.6002 0.336793 14.5825 0.336793 14.5644V14.5642H0.336793C0.336845 14.5522 0.334548 14.5403 0.330034 14.5292C0.325521 14.5181 0.318881 14.508 0.310498 14.4995C0.302115 14.491 0.292156 14.4843 0.281196 14.4797ZM0.246358 14.3867C0.269418 14.3866 0.292267 14.3912 0.313589 14.4001C0.334941 14.409 0.354339 14.4221 0.370664 14.4386C0.386988 14.4551 0.399917 14.4748 0.408704 14.4964C0.417479 14.518 0.42195 14.5412 0.42186 14.5645C0.421842 14.5996 0.411558 14.634 0.392304 14.6632C0.373032 14.6924 0.345639 14.7152 0.313585 14.7286C0.28153 14.7421 0.246257 14.7456 0.212229 14.7387C0.1782 14.7319 0.146945 14.7149 0.122414 14.6901C0.0978835 14.6652 0.0811812 14.6336 0.0744147 14.5991C0.0676481 14.5646 0.0711208 14.5289 0.0843944 14.4964C0.0976683 14.464 0.120148 14.4362 0.148994 14.4167C0.177814 14.3972 0.211695 14.3867 0.246358 14.3867ZM0.246358 14.3867C0.24639 14.3867 0.246421 14.3867 0.246453 14.3867V14.4298L0.246265 14.3867C0.246296 14.3867 0.246327 14.3867 0.246358 14.3867ZM0.42186 14.5645C0.42186 14.5646 0.42186 14.5646 0.42186 14.5646L0.379326 14.5644H0.42186C0.42186 14.5645 0.42186 14.5645 0.42186 14.5645Z" fill="#808080"/>
<path id="Vector_79" d="M2.88127 7.62722C2.88127 7.6716 2.86828 7.71498 2.84394 7.75188C2.81961 7.78878 2.78502 7.81754 2.74456 7.83453C2.70409 7.85151 2.65957 7.85595 2.61661 7.8473C2.57365 7.83864 2.53419 7.81727 2.50322 7.78589C2.47225 7.75451 2.45115 7.71452 2.44261 7.671C2.43406 7.62747 2.43845 7.58235 2.45521 7.54135C2.47197 7.50035 2.50036 7.4653 2.53678 7.44065C2.57319 7.41599 2.61601 7.40283 2.65981 7.40283C2.71854 7.40283 2.77487 7.42647 2.8164 7.46855C2.85794 7.51063 2.88127 7.56771 2.88127 7.62722Z" fill="#808080"/>
<path id="Vector (Stroke)_46" fill-rule="evenodd" clip-rule="evenodd" d="M2.65974 7.44602C2.62436 7.44602 2.58977 7.45665 2.56035 7.47657C2.53092 7.49649 2.50799 7.5248 2.49444 7.55794C2.4809 7.59107 2.47735 7.62753 2.48426 7.6627C2.49116 7.69788 2.50821 7.73019 2.53323 7.75554C2.55826 7.7809 2.59014 7.79816 2.62484 7.80516C2.65954 7.81215 2.69552 7.80856 2.72821 7.79484C2.7609 7.78112 2.78884 7.75788 2.80851 7.72807C2.82817 7.69825 2.83866 7.66319 2.83866 7.62733C2.83866 7.57924 2.81981 7.53312 2.78625 7.49911C2.7527 7.46511 2.70719 7.44602 2.65974 7.44602ZM2.51307 7.40494C2.55648 7.37555 2.60753 7.35986 2.65974 7.35986C2.72976 7.35986 2.79691 7.38805 2.84642 7.43821C2.89592 7.48837 2.92373 7.5564 2.92373 7.62733C2.92373 7.68022 2.90825 7.73193 2.87925 7.77592C2.85024 7.8199 2.80901 7.85419 2.76077 7.87443C2.71253 7.89468 2.65945 7.89998 2.60824 7.88965C2.55702 7.87933 2.50998 7.85385 2.47307 7.81645C2.43615 7.77904 2.41101 7.73138 2.40082 7.6795C2.39064 7.62763 2.39587 7.57385 2.41584 7.52498C2.43582 7.47611 2.46966 7.43434 2.51307 7.40494Z" fill="#808080"/>
<path id="Vector_80" d="M9.934 5.6404C9.934 5.68478 9.92101 5.72817 9.89668 5.76507C9.87235 5.80197 9.83776 5.83073 9.79729 5.84771C9.75683 5.8647 9.7123 5.86914 9.66934 5.86048C9.62638 5.85182 9.58692 5.83045 9.55595 5.79907C9.52498 5.76769 9.50389 5.72771 9.49534 5.68418C9.4868 5.64065 9.49119 5.59554 9.50795 5.55453C9.52471 5.51353 9.55309 5.47849 9.58951 5.45383C9.62593 5.42918 9.66875 5.41602 9.71255 5.41602C9.77128 5.41602 9.82761 5.43966 9.86914 5.48174C9.91067 5.52382 9.934 5.58089 9.934 5.6404Z" fill="#808080"/>
<path id="Vector (Stroke)_47" fill-rule="evenodd" clip-rule="evenodd" d="M9.7126 5.4592C9.67722 5.4592 9.64263 5.46983 9.6132 5.48975C9.58378 5.50967 9.56084 5.53799 9.5473 5.57112C9.53375 5.60425 9.53021 5.64071 9.53711 5.67589C9.54402 5.71106 9.56106 5.74337 9.58609 5.76873C9.61111 5.79408 9.64299 5.81135 9.6777 5.81834C9.7124 5.82533 9.74837 5.82175 9.78106 5.80802C9.81375 5.7943 9.8417 5.77107 9.86136 5.74125C9.88102 5.71143 9.89152 5.67638 9.89152 5.64051C9.89152 5.59242 9.87267 5.5463 9.83911 5.5123C9.80555 5.4783 9.76005 5.4592 9.7126 5.4592ZM9.56593 5.41813C9.60934 5.38874 9.66038 5.37305 9.7126 5.37305C9.78262 5.37305 9.84977 5.40123 9.89927 5.45139C9.94878 5.50155 9.97659 5.56958 9.97659 5.64051C9.97659 5.69341 9.96111 5.74512 9.9321 5.7891C9.9031 5.83308 9.86187 5.86737 9.81363 5.88762C9.76539 5.90786 9.71231 5.91316 9.66109 5.90284C9.60988 5.89252 9.56284 5.86704 9.52592 5.82963C9.489 5.79222 9.46386 5.74457 9.45368 5.69269C9.4435 5.64081 9.44872 5.58703 9.4687 5.53816C9.48868 5.48929 9.52251 5.44752 9.56593 5.41813Z" fill="#808080"/>
<path id="Vector_81" d="M7.99577 1.72195C7.99577 1.76633 7.98278 1.80971 7.95845 1.84661C7.93411 1.88351 7.89953 1.91227 7.85906 1.92925C7.81859 1.94624 7.77407 1.95068 7.73111 1.94202C7.68815 1.93337 7.64869 1.91199 7.61772 1.88061C7.58675 1.84923 7.56566 1.80925 7.55711 1.76572C7.54857 1.7222 7.55295 1.67708 7.56971 1.63608C7.58647 1.59508 7.61486 1.56003 7.65128 1.53537C7.6877 1.51072 7.73051 1.49756 7.77431 1.49756C7.833 1.49771 7.88924 1.52141 7.93074 1.56345C7.97223 1.6055 7.99562 1.66248 7.99577 1.72195Z" fill="#808080"/>
<path id="Vector (Stroke)_48" fill-rule="evenodd" clip-rule="evenodd" d="M7.77419 1.54074C7.73882 1.54075 7.70426 1.55139 7.67485 1.57129C7.64542 1.59122 7.62249 1.61953 7.60894 1.65266C7.5954 1.6858 7.59186 1.72226 7.59876 1.75743C7.60567 1.79261 7.62271 1.82491 7.64773 1.85027C7.67276 1.87562 7.70464 1.89289 7.73934 1.89988C7.77405 1.90688 7.81002 1.90329 7.84271 1.88957C7.8754 1.87585 7.90334 1.85261 7.92301 1.82279C7.94266 1.79299 7.95316 1.75795 7.95317 1.72211C7.95303 1.67404 7.93412 1.62799 7.90058 1.59401C7.86705 1.56003 7.82161 1.54088 7.77419 1.54074ZM7.62757 1.49967C7.67098 1.47028 7.72203 1.45459 7.77424 1.45459H7.77436C7.84429 1.45478 7.9113 1.48301 7.96075 1.53311C8.0102 1.58321 8.03805 1.6511 8.03823 1.72194L8.03823 1.72206C8.03823 1.77495 8.02275 1.82666 7.99375 1.87064C7.96474 1.91463 7.92352 1.94891 7.87528 1.96916C7.82704 1.9894 7.77395 1.9947 7.72274 1.98438C7.67153 1.97406 7.62449 1.94858 7.58757 1.91117C7.55065 1.87377 7.52551 1.82611 7.51533 1.77423C7.50514 1.72235 7.51037 1.66858 7.53035 1.61971C7.55032 1.57084 7.58416 1.52906 7.62757 1.49967Z" fill="#808080"/>
<path id="Vector_82" d="M13.9069 0.279882C13.907 0.312491 13.8975 0.344401 13.8797 0.371571C13.8619 0.398741 13.8366 0.419949 13.8069 0.432509C13.7772 0.445069 13.7445 0.448416 13.7129 0.442126C13.6813 0.435836 13.6523 0.420192 13.6295 0.397176C13.6067 0.374159 13.5912 0.344805 13.5848 0.312831C13.5785 0.280857 13.5817 0.247701 13.594 0.217563C13.6063 0.187424 13.6271 0.161659 13.6539 0.14353C13.6806 0.125401 13.7121 0.115724 13.7443 0.115724C13.7656 0.115646 13.7867 0.119835 13.8064 0.12805C13.8262 0.136265 13.8441 0.148344 13.8592 0.163595C13.8743 0.178846 13.8863 0.196969 13.8945 0.216924C13.9026 0.236879 13.9069 0.258274 13.9069 0.279882Z" fill="#808080"/>
<path id="Vector (Stroke)_49" fill-rule="evenodd" clip-rule="evenodd" d="M13.7903 0.167997C13.7758 0.16194 13.7602 0.158851 13.7445 0.158909L13.7443 0.158909C13.7206 0.158909 13.6973 0.166053 13.6776 0.17944C13.6578 0.192826 13.6424 0.211853 13.6334 0.234113C13.6243 0.256374 13.6219 0.280864 13.6266 0.304482C13.6313 0.3281 13.6427 0.349779 13.6596 0.366776C13.6764 0.383773 13.6978 0.395323 13.7212 0.399967C13.7445 0.404611 13.7686 0.40214 13.7906 0.392867C13.8125 0.383594 13.8312 0.367934 13.8443 0.347867C13.8575 0.327801 13.8645 0.304231 13.8644 0.280144L13.8644 0.279989C13.8644 0.264051 13.8613 0.248268 13.8552 0.233546C13.8492 0.218825 13.8404 0.205458 13.8292 0.194211C13.8181 0.182963 13.8049 0.174055 13.7903 0.167997ZM13.7442 0.0727552C13.7711 0.0726571 13.7978 0.0779461 13.8227 0.0883183C13.8476 0.0986903 13.8702 0.113941 13.8893 0.133196C13.9084 0.152451 13.9235 0.175329 13.9338 0.200519C13.9441 0.225684 13.9494 0.252663 13.9494 0.279913C13.9496 0.321017 13.9377 0.361239 13.9152 0.395491C13.8928 0.429765 13.8608 0.456522 13.8233 0.472368C13.7859 0.488215 13.7446 0.492438 13.7047 0.484502C13.6649 0.476566 13.6283 0.456828 13.5995 0.427791C13.5708 0.398754 13.5512 0.361726 13.5432 0.321396C13.5352 0.281065 13.5392 0.239244 13.5547 0.201228C13.5702 0.163212 13.5965 0.130709 13.6303 0.107837C13.664 0.0849658 13.7037 0.0727552 13.7443 0.072755L13.7443 0.11583L13.7442 0.0727552ZM13.9494 0.279913C13.9494 0.279938 13.9494 0.279964 13.9494 0.27999L13.9069 0.27999L13.9494 0.279835C13.9494 0.279861 13.9494 0.279887 13.9494 0.279913Z" fill="#808080"/>
<path id="Vector_83" d="M16.7928 0.569604C16.7929 0.614151 16.78 0.657729 16.7557 0.694817C16.7313 0.731905 16.6966 0.760833 16.656 0.777934C16.6154 0.795035 16.5707 0.79954 16.5276 0.790878C16.4845 0.782216 16.4449 0.760777 16.4138 0.729278C16.3827 0.697778 16.3615 0.657637 16.353 0.61394C16.3444 0.570244 16.3489 0.524959 16.3658 0.483826C16.3826 0.442692 16.4112 0.407561 16.4478 0.382885C16.4844 0.358209 16.5274 0.345099 16.5714 0.345216C16.6301 0.345216 16.6864 0.368856 16.728 0.410937C16.7695 0.453018 16.7928 0.510092 16.7928 0.569604Z" fill="#808080"/>
<path id="Vector (Stroke)_50" fill-rule="evenodd" clip-rule="evenodd" d="M16.5712 0.388401C16.5357 0.388306 16.5009 0.398904 16.4713 0.418852C16.4417 0.438801 16.4186 0.467204 16.405 0.500464C16.3913 0.533725 16.3877 0.570343 16.3946 0.605676C16.4016 0.641009 16.4187 0.673466 16.4438 0.698933C16.4689 0.724399 16.501 0.74173 16.5358 0.748732C16.5707 0.755734 16.6068 0.752093 16.6396 0.738268C16.6724 0.724444 16.7005 0.701058 16.7202 0.671071C16.7399 0.641084 16.7503 0.605846 16.7502 0.569825L16.7502 0.569712C16.7502 0.521618 16.7314 0.475499 16.6978 0.441498C16.6643 0.407498 16.6188 0.388401 16.5713 0.388401L16.5712 0.388401ZM16.5714 0.302247C16.519 0.302119 16.4678 0.317741 16.4242 0.347134C16.3805 0.376538 16.3465 0.418397 16.3264 0.467403C16.3063 0.516409 16.301 0.57036 16.3112 0.622421C16.3214 0.67448 16.3466 0.722307 16.3836 0.759839C16.4207 0.797371 16.4679 0.822918 16.5193 0.83324C16.5707 0.843562 16.6239 0.838194 16.6723 0.817815C16.7207 0.797437 16.762 0.762968 16.791 0.718779C16.82 0.674622 16.8354 0.622745 16.8353 0.569712" fill="#808080"/>
<path id="Vector_84" d="M18.9572 6.61745C18.9572 6.66183 18.9442 6.70522 18.9199 6.74212C18.8955 6.77902 18.861 6.80778 18.8205 6.82476C18.78 6.84175 18.7355 6.84619 18.6925 6.83753C18.6496 6.82887 18.6101 6.8075 18.5791 6.77612C18.5482 6.74474 18.5271 6.70476 18.5185 6.66123C18.51 6.6177 18.5144 6.57259 18.5311 6.53159C18.5479 6.49058 18.5763 6.45554 18.6127 6.43088C18.6491 6.40623 18.6919 6.39307 18.7357 6.39307C18.7945 6.39307 18.8508 6.41671 18.8923 6.45879C18.9339 6.50087 18.9572 6.55794 18.9572 6.61745Z" fill="#808080"/>
<path id="Vector (Stroke)_51" fill-rule="evenodd" clip-rule="evenodd" d="M18.7358 6.43625C18.7004 6.43625 18.6658 6.44688 18.6364 6.4668C18.607 6.48672 18.584 6.51504 18.5705 6.54817C18.5569 6.5813 18.5534 6.61776 18.5603 6.65294C18.5672 6.68811 18.5843 6.72042 18.6093 6.74578C18.6343 6.77113 18.6662 6.7884 18.7009 6.79539C18.7356 6.80239 18.7716 6.7988 18.8043 6.78508C18.8369 6.77135 18.8649 6.74812 18.8846 6.7183C18.9042 6.68849 18.9147 6.65343 18.9147 6.61756C18.9147 6.56947 18.8959 6.52335 18.8623 6.48935C18.8287 6.45535 18.7832 6.43625 18.7358 6.43625ZM18.5891 6.39518C18.6325 6.36579 18.6836 6.3501 18.7358 6.3501C18.8058 6.3501 18.873 6.37828 18.9225 6.42844C18.972 6.4786 18.9998 6.54663 18.9998 6.61756C18.9998 6.67046 18.9843 6.72217 18.9553 6.76615C18.9263 6.81014 18.8851 6.84442 18.8368 6.86467C18.7886 6.88491 18.7355 6.89021 18.6843 6.87989C18.6331 6.86957 18.586 6.84409 18.5491 6.80668C18.5122 6.76928 18.4871 6.72162 18.4769 6.66974C18.4667 6.61786 18.4719 6.56409 18.4919 6.51522C18.5119 6.46634 18.5457 6.42457 18.5891 6.39518Z" fill="#808080"/>
<path id="Vector_85" d="M21.2429 2.38869C21.2429 2.42665 21.2318 2.46375 21.211 2.49531C21.1902 2.52687 21.1606 2.55147 21.126 2.56599C21.0914 2.58052 21.0533 2.58432 21.0166 2.57691C20.9798 2.56951 20.9461 2.55123 20.9196 2.52439C20.8931 2.49755 20.8751 2.46336 20.8678 2.42613C20.8605 2.3889 20.8642 2.35031 20.8786 2.31525C20.8929 2.28018 20.9172 2.25021 20.9483 2.22912C20.9795 2.20803 21.0161 2.19678 21.0535 2.19678C21.1038 2.19678 21.1519 2.217 21.1875 2.25299C21.223 2.28898 21.2429 2.33779 21.2429 2.38869Z" fill="#808080"/>
<path id="Vector (Stroke)_52" fill-rule="evenodd" clip-rule="evenodd" d="M21.0535 2.23947C21.0244 2.23947 20.996 2.2482 20.9719 2.26455C20.9477 2.2809 20.9289 2.30415 20.9178 2.33135C20.9067 2.35854 20.9038 2.38847 20.9094 2.41735C20.9151 2.44622 20.9291 2.47274 20.9496 2.49356C20.9702 2.51437 20.9963 2.52854 21.0248 2.53428C21.0533 2.54002 21.0828 2.53708 21.1097 2.52582C21.1365 2.51455 21.1594 2.49548 21.1756 2.471C21.1917 2.44653 21.2003 2.41775 21.2003 2.38831C21.2003 2.34883 21.1849 2.31097 21.1573 2.28306C21.1298 2.25515 21.0924 2.23947 21.0535 2.23947ZM20.9246 2.19293C20.9627 2.1671 21.0076 2.15332 21.0535 2.15332C21.115 2.15332 21.174 2.17808 21.2175 2.22215C21.261 2.26622 21.2854 2.32599 21.2854 2.38831C21.2854 2.43478 21.2718 2.48021 21.2463 2.51885C21.2208 2.5575 21.1846 2.58762 21.1422 2.60541C21.0999 2.62319 21.0532 2.62785 21.0082 2.61878C20.9632 2.60971 20.9219 2.58733 20.8895 2.55446C20.857 2.5216 20.8349 2.47973 20.826 2.43415C20.817 2.38857 20.8216 2.34133 20.8392 2.29839C20.8567 2.25545 20.8865 2.21875 20.9246 2.19293Z" fill="#808080"/>
<path id="Vector_86" d="M23.366 6.94704C23.366 6.99142 23.353 7.03481 23.3287 7.07171C23.3044 7.10861 23.2698 7.13737 23.2293 7.15435C23.1888 7.17134 23.1443 7.17578 23.1013 7.16712C23.0584 7.15846 23.0189 7.13709 22.988 7.10571C22.957 7.07433 22.9359 7.03435 22.9274 6.99082C22.9188 6.94729 22.9232 6.90218 22.94 6.86118C22.9567 6.82017 22.9851 6.78513 23.0215 6.76047C23.0579 6.73582 23.1008 6.72266 23.1446 6.72266C23.1736 6.72266 23.2024 6.72846 23.2293 6.73974C23.2562 6.75101 23.2806 6.76754 23.3011 6.78838C23.3217 6.80921 23.338 6.83395 23.3492 6.86118C23.3603 6.8884 23.366 6.91758 23.366 6.94704Z" fill="#808080"/>
<path id="Vector (Stroke)_53" fill-rule="evenodd" clip-rule="evenodd" d="M23.1445 6.76584C23.1091 6.76584 23.0745 6.77647 23.0451 6.79639C23.0157 6.81631 22.9927 6.84463 22.9792 6.87776C22.9656 6.91089 22.9621 6.94735 22.969 6.98253C22.9759 7.0177 22.9929 7.05001 23.018 7.07537C23.043 7.10072 23.0749 7.11799 23.1096 7.12498C23.1443 7.13198 23.1803 7.12839 23.2129 7.11467C23.2456 7.10095 23.2736 7.07771 23.2932 7.04789C23.3129 7.01807 23.3234 6.98302 23.3234 6.94715C23.3234 6.92334 23.3188 6.89976 23.3098 6.87776C23.3008 6.85576 23.2876 6.83577 23.271 6.81894C23.2544 6.8021 23.2347 6.78875 23.2129 6.77964C23.1912 6.77053 23.168 6.76584 23.1445 6.76584ZM22.9978 6.72477C23.0412 6.69538 23.0923 6.67969 23.1445 6.67969C23.1792 6.67969 23.2135 6.68661 23.2455 6.70005C23.2775 6.71349 23.3066 6.7332 23.3312 6.75803C23.3557 6.78287 23.3751 6.81236 23.3884 6.84481C23.4016 6.87725 23.4085 6.91203 23.4085 6.94715C23.4085 7.00005 23.393 7.05176 23.364 7.09574C23.335 7.13972 23.2938 7.17401 23.2455 7.19426C23.1973 7.2145 23.1442 7.2198 23.093 7.20948C23.0418 7.19916 22.9947 7.17368 22.9578 7.13627C22.9209 7.09887 22.8957 7.05121 22.8856 6.99933C22.8754 6.94745 22.8806 6.89368 22.9006 6.84481C22.9206 6.79594 22.9544 6.75416 22.9978 6.72477Z" fill="#808080"/>
<path id="Vector_87" d="M24.9517 6.34385C25.038 6.34385 25.1079 6.273 25.1079 6.1856C25.1079 6.0982 25.038 6.02734 24.9517 6.02734C24.8655 6.02734 24.7955 6.0982 24.7955 6.1856C24.7955 6.273 24.8655 6.34385 24.9517 6.34385Z" fill="#808080"/>
<path id="Vector (Stroke)_54" fill-rule="evenodd" clip-rule="evenodd" d="M24.9516 6.07004C24.8889 6.07004 24.838 6.12159 24.838 6.18522C24.838 6.24885 24.8889 6.30039 24.9516 6.30039C25.0144 6.30039 25.0653 6.24885 25.0653 6.18522C25.0653 6.12159 25.0144 6.07004 24.9516 6.07004ZM24.7529 6.18522C24.7529 6.07404 24.8419 5.98389 24.9516 5.98389C25.0614 5.98389 25.1504 6.07404 25.1504 6.18522C25.1504 6.29639 25.0614 6.38655 24.9516 6.38655C24.8419 6.38655 24.7529 6.29639 24.7529 6.18522Z" fill="#808080"/>
<path id="Vector_88" d="M26.0811 8.35698C26.2034 8.35698 26.3025 8.25652 26.3025 8.13259C26.3025 8.00867 26.2034 7.9082 26.0811 7.9082C25.9588 7.9082 25.8596 8.00867 25.8596 8.13259C25.8596 8.25652 25.9588 8.35698 26.0811 8.35698Z" fill="#808080"/>
<path id="Vector (Stroke)_55" fill-rule="evenodd" clip-rule="evenodd" d="M26.0811 7.95139C25.9823 7.95139 25.9022 8.03255 25.9022 8.1327C25.9022 8.23285 25.9823 8.31401 26.0811 8.31401C26.1799 8.31401 26.2601 8.23285 26.2601 8.1327C26.2601 8.03255 26.1799 7.95139 26.0811 7.95139ZM25.8171 8.1327C25.8171 7.985 25.9353 7.86523 26.0811 7.86523C26.2269 7.86523 26.3451 7.985 26.3451 8.1327C26.3451 8.2804 26.2269 8.40017 26.0811 8.40017C25.9353 8.40017 25.8171 8.2804 25.8171 8.1327Z" fill="#808080"/>
<path id="Vector_89" d="M2.31068 7.01545C2.31068 7.04593 2.30176 7.07573 2.28505 7.10107C2.26833 7.12642 2.24458 7.14617 2.21678 7.15784C2.18899 7.1695 2.15841 7.17255 2.1289 7.16661C2.0994 7.16066 2.07229 7.14598 2.05102 7.12443C2.02975 7.10287 2.01526 7.07541 2.00939 7.04552C2.00352 7.01562 2.00654 6.98463 2.01805 6.95647C2.02956 6.92831 2.04906 6.90424 2.07407 6.8873C2.09908 6.87037 2.12849 6.86133 2.15858 6.86133C2.17857 6.86125 2.19839 6.86518 2.21687 6.8729C2.23536 6.88062 2.25216 6.89197 2.2663 6.9063C2.28044 6.92062 2.29164 6.93764 2.29926 6.95638C2.30688 6.97511 2.31076 6.99519 2.31068 7.01545Z" fill="#808080"/>
<path id="Vector (Stroke)_56" fill-rule="evenodd" clip-rule="evenodd" d="M2.20072 6.91284C2.18742 6.90729 2.17317 6.90446 2.15879 6.90451L2.15863 6.90451C2.13696 6.90451 2.11578 6.91102 2.09776 6.92322C2.07974 6.93542 2.0657 6.95276 2.0574 6.97306C2.0491 6.99335 2.04693 7.01568 2.05116 7.03722C2.05539 7.05877 2.06583 7.07855 2.08116 7.09408C2.09648 7.10961 2.116 7.12018 2.13726 7.12447C2.15851 7.12875 2.18053 7.12655 2.20055 7.11815C2.22057 7.10975 2.23769 7.09552 2.24973 7.07726C2.26177 7.05899 2.2682 7.03752 2.2682 7.01556V7.01539H2.2682C2.26826 7.00081 2.26546 6.98637 2.25998 6.97289C2.2545 6.95941 2.24644 6.94716 2.23627 6.93686C2.2261 6.92655 2.21402 6.91839 2.20072 6.91284ZM2.15846 6.81836C2.18408 6.81826 2.20946 6.8233 2.23314 6.83318C2.25682 6.84307 2.27833 6.8576 2.29644 6.87595C2.31455 6.8943 2.32889 6.9161 2.33864 6.94008C2.34839 6.96405 2.35336 6.98972 2.35327 7.01564C2.35325 7.05461 2.34184 7.0927 2.32047 7.1251C2.29909 7.15753 2.26869 7.18281 2.23312 7.19774C2.19755 7.21267 2.15841 7.21657 2.12065 7.20896C2.08289 7.20135 2.04821 7.18257 2.02099 7.15499C1.99377 7.12741 1.97524 7.09227 1.96773 7.05402C1.96022 7.01578 1.96407 6.97613 1.9788 6.9401C1.99353 6.90407 2.01848 6.87327 2.05049 6.8516C2.08249 6.82993 2.12013 6.81836 2.15863 6.81836V6.86144L2.15846 6.81836ZM2.35327 7.01564C2.35327 7.01567 2.35327 7.0157 2.35327 7.01572L2.31074 7.01556H2.35327C2.35327 7.01558 2.35327 7.01561 2.35327 7.01564Z" fill="#808080"/>
<path id="Vector_90" d="M1.46339 8.62947C1.46339 8.65633 1.45553 8.68259 1.4408 8.70492C1.42607 8.72725 1.40514 8.74466 1.38065 8.75494C1.35615 8.76522 1.3292 8.76791 1.3032 8.76267C1.2772 8.75743 1.25332 8.7445 1.23457 8.7255C1.21583 8.70651 1.20306 8.68231 1.19789 8.65596C1.19272 8.62962 1.19537 8.60231 1.20552 8.57749C1.21566 8.55268 1.23284 8.53146 1.25488 8.51654C1.27693 8.50162 1.30284 8.49365 1.32935 8.49365C1.3649 8.49365 1.39899 8.50796 1.42413 8.53343C1.44927 8.5589 1.46339 8.59345 1.46339 8.62947Z" fill="#808080"/>
<path id="Vector (Stroke)_57" fill-rule="evenodd" clip-rule="evenodd" d="M1.32928 8.53684C1.31119 8.53684 1.2935 8.54227 1.27845 8.55246C1.26341 8.56265 1.25167 8.57713 1.24475 8.59408C1.23782 8.61103 1.236 8.62968 1.23954 8.64767C1.24307 8.66566 1.25179 8.68219 1.26459 8.69516C1.27738 8.70812 1.29369 8.71695 1.31144 8.72053C1.32918 8.72411 1.34758 8.72227 1.36429 8.71526C1.38101 8.70824 1.3953 8.69636 1.40536 8.6811C1.41542 8.66585 1.42079 8.64792 1.42079 8.62957C1.42079 8.60497 1.41114 8.58138 1.39398 8.56399C1.37682 8.5466 1.35355 8.53684 1.32928 8.53684ZM1.23118 8.48084C1.26021 8.46118 1.29436 8.45068 1.32928 8.45068C1.37612 8.45068 1.42103 8.46953 1.45415 8.50309C1.48726 8.53664 1.50586 8.58214 1.50586 8.62957C1.50586 8.66495 1.4955 8.69953 1.4761 8.72895C1.4567 8.75837 1.42913 8.7813 1.39686 8.79485C1.36459 8.80839 1.32909 8.81193 1.29483 8.80503C1.26058 8.79812 1.22911 8.78108 1.20442 8.75606C1.17973 8.73104 1.16291 8.69917 1.1561 8.66447C1.14929 8.62977 1.15279 8.59381 1.16615 8.56112C1.17951 8.52844 1.20214 8.5005 1.23118 8.48084Z" fill="#808080"/>
</g>
<defs>
<clipPath id="clip0_877_1649">
<rect width="94" height="28" fill="white"/>
</clipPath>
</defs>
</svg>
