<svg width="130" height="28" viewBox="0 0 130 28" fill="none" xmlns="http://www.w3.org/2000/svg">
<g clip-path="url(#clip0_863_1607)">
<path d="M34.2745 2.44775V21.8058H30.8704L28.8504 13.0058V21.8058H25.6194V2.44775H28.8645L31.0435 11.1615V2.44775H34.2745Z" fill="#808080"/>
<path d="M42.5462 2.44775L44.7906 21.8058H40.8208L40.615 18.328H39.2123L38.9785 21.8058H34.9712L36.9538 2.44775H42.5462ZM40.4888 14.9028C40.2924 12.7088 40.0944 9.99426 39.8949 6.75913C39.5022 10.4669 39.2543 13.1815 39.1515 14.9028H40.4888Z" fill="#808080"/>
<path d="M54.0958 2.44775V21.8058H50.6917L48.6717 13.0058V21.8058H45.4266V2.44775H48.6717L50.8694 11.1615V2.44775H54.0958Z" fill="#808080"/>
<path d="M64.5277 13.7822C64.5277 15.7271 64.495 17.1067 64.4202 17.9163C64.3594 18.6964 64.1328 19.4534 63.7562 20.1343C63.4045 20.7822 62.883 21.3165 62.2506 21.6768C61.5703 22.0466 60.8088 22.2314 60.0388 22.2133C59.2907 22.2265 58.5507 22.0522 57.8832 21.7055C57.2393 21.3582 56.7056 20.8297 56.3449 20.1822C55.9601 19.505 55.7254 18.7494 55.6575 17.969C55.5827 17.1706 55.5453 15.775 55.5453 13.7822V10.472C55.5453 8.52707 55.578 7.14743 55.6528 6.33784C55.7136 5.55776 55.9402 4.80074 56.3168 4.11988C56.6673 3.47102 57.1891 2.93643 57.8225 2.57736C58.5042 2.20691 59.2674 2.02216 60.0388 2.04084C60.7855 2.02822 61.5238 2.20252 62.1898 2.54862C62.8337 2.89593 63.3675 3.42445 63.7282 4.07199C64.1131 4.74943 64.3492 5.50468 64.4202 6.28516C64.4903 7.08037 64.5277 8.47917 64.5277 10.472V13.7822ZM60.6467 7.42048C60.6743 6.84133 60.635 6.26087 60.5298 5.69114C60.5061 5.58307 60.4465 5.48679 60.3612 5.41866C60.276 5.35054 60.1703 5.31478 60.0622 5.31748C59.9641 5.31579 59.8676 5.34344 59.7846 5.39704C59.7015 5.45064 59.6355 5.52787 59.5946 5.61928C59.4413 6.20593 59.386 6.81493 59.431 7.42048V16.46C59.4036 17.1565 59.4396 17.8542 59.5385 18.5438C59.559 18.6606 59.6211 18.7653 59.7126 18.8379C59.8042 18.9104 59.9188 18.9456 60.0342 18.9367C60.1625 18.9393 60.2869 18.8909 60.3811 18.8016C60.4753 18.7122 60.5319 18.5889 60.5392 18.4576C60.6408 17.7409 60.6784 17.0161 60.6514 16.2923L60.6467 7.42048Z" fill="#808080"/>
<path d="M73.7813 2.44775V6.31842H71.4901V21.8058H67.6091V6.31842H65.3132V2.44775H73.7813Z" fill="#808080"/>
<path d="M80.6409 2.44775L82.862 21.8058H78.8921L78.6817 18.328H77.2789L77.0452 21.8058H73.0332L75.0111 2.44775H80.6409ZM78.5835 14.9028C78.3871 12.7088 78.1892 9.99426 77.9897 6.75913C77.5969 10.4669 77.3491 13.1815 77.2462 14.9028H78.5835Z" fill="#808080"/>
<path d="M91.7462 8.30641H88.1411V6.86929C88.1733 6.43769 88.1257 6.00374 88.0008 5.59024C87.9598 5.50092 87.8929 5.42675 87.8092 5.37788C87.7255 5.329 87.6291 5.3078 87.5332 5.31718C87.4185 5.3166 87.3062 5.3515 87.2111 5.41731C87.116 5.48311 87.0425 5.57677 87.0002 5.68605C86.8633 6.04404 86.8027 6.42787 86.8225 6.8118C86.7992 7.30745 86.8674 7.80315 87.0235 8.27287C87.2906 8.75286 87.6677 9.15898 88.1224 9.45611C89.8494 10.7815 90.9404 11.8721 91.3955 12.728C91.8507 13.5838 92.0751 14.9603 92.0689 16.8573C92.1183 17.8874 91.9917 18.9185 91.6948 19.904C91.4083 20.603 90.9012 21.1832 90.2546 21.5519C89.4995 22.004 88.6368 22.2328 87.7623 22.213C86.8199 22.2419 85.8914 21.9745 85.1017 21.4465C84.4089 20.9936 83.8965 20.3023 83.6569 19.4968C83.3966 18.3998 83.2818 17.2719 83.3155 16.1435V14.8741H86.9253V17.231C86.8905 17.7027 86.9413 18.1769 87.075 18.6298C87.1249 18.7311 87.2031 18.8148 87.2998 18.8703C87.3964 18.9258 87.507 18.9504 87.6174 18.9411C87.7408 18.9433 87.862 18.9068 87.9648 18.8366C88.0675 18.7665 88.147 18.6659 88.1925 18.5483C88.3371 18.1756 88.4009 17.7751 88.3796 17.3747C88.3796 16.2346 88.2627 15.4872 88.0195 15.1375C87.4745 14.49 86.8666 13.901 86.2053 13.3795C85.5244 12.824 84.8823 12.2205 84.2835 11.5735C83.927 11.1138 83.6632 10.5863 83.5072 10.0214C83.2803 9.19578 83.1763 8.33985 83.1986 7.48246C83.1425 6.37985 83.29 5.27629 83.6335 4.22976C83.9184 3.55287 84.4109 2.98951 85.0363 2.62497C85.7522 2.22428 86.5587 2.02433 87.3742 2.04533C88.2742 2.01752 89.1651 2.23578 89.9553 2.67767C90.593 3.02187 91.0903 3.58734 91.3581 4.27287C91.6416 5.33788 91.7584 6.44223 91.7041 7.54474L91.7462 8.30641Z" fill="#808080"/>
<path d="M102.543 2.44775L100.317 11.1855L102.772 21.8058H98.7555L97.161 13.5088V21.8058H93.28V2.44775H97.161V9.96872L98.8911 2.44775H102.543Z" fill="#808080"/>
<path d="M103.427 2.44775H109.898V6.31842H107.308V9.99266H109.735V13.6765H107.308V17.9304H110.16V21.8058H103.427V2.44775Z" fill="#808080"/>
<path d="M111.273 2.44773H114.022C115.275 2.39572 116.53 2.48731 117.763 2.72079C118.107 2.83061 118.426 3.01192 118.698 3.25341C118.971 3.4949 119.192 3.7914 119.348 4.12438C119.76 4.88126 119.966 6.07887 119.966 7.73156C119.966 9.23575 119.821 10.2513 119.531 10.7687C119.241 11.2861 118.67 11.5974 117.824 11.7028C118.435 11.842 118.982 12.1921 119.372 12.6944C119.608 13.0379 119.776 13.4251 119.867 13.8346C119.96 14.7895 119.993 15.7496 119.966 16.7088V21.8154H116.332V15.3531C116.379 14.7081 116.316 14.0597 116.145 13.437C116.019 13.1926 115.678 13.0681 115.154 13.0681V21.7962H111.268L111.273 2.44773ZM115.159 5.75791V10.0693C115.488 10.1065 115.819 10.0234 116.094 9.83456C116.272 9.68127 116.356 9.17348 116.356 8.32079V7.25732C116.404 6.8374 116.315 6.41296 116.103 6.05012C115.973 5.93902 115.822 5.85692 115.66 5.80908C115.497 5.76124 115.326 5.7487 115.159 5.77228V5.75791Z" fill="#808080"/>
<path d="M129.677 8.30641H126.068V6.86929C126.098 6.43805 126.052 6.00473 125.932 5.59024C125.891 5.50092 125.824 5.42675 125.74 5.37788C125.657 5.329 125.56 5.3078 125.464 5.31718C125.35 5.31624 125.238 5.35105 125.144 5.41697C125.049 5.48289 124.977 5.57677 124.936 5.68605C124.795 6.04293 124.733 6.42737 124.754 6.8118C124.733 7.30734 124.801 7.80261 124.955 8.27287C125.222 8.75286 125.599 9.15898 126.053 9.45611C127.784 10.7815 128.875 11.8721 129.327 12.728C129.779 13.5838 130.003 14.9603 130 16.8573C130.047 17.8874 129.92 18.918 129.626 19.904C129.338 20.6033 128.829 21.1835 128.181 21.5519C127.426 22.004 126.563 22.2328 125.689 22.213C124.746 22.2419 123.818 21.9745 123.028 21.4465C122.335 20.995 121.824 20.3029 121.588 19.4968C121.325 18.4003 121.21 17.272 121.247 16.1435V14.8741H124.852V17.231C124.819 17.7027 124.87 18.1765 125.001 18.6298C125.052 18.7307 125.13 18.8141 125.227 18.8695C125.323 18.9249 125.434 18.9498 125.544 18.9411C125.667 18.9433 125.788 18.9068 125.891 18.8366C125.994 18.7665 126.073 18.6659 126.119 18.5483C126.265 18.1761 126.331 17.7755 126.311 17.3747C126.311 16.2346 126.189 15.4872 125.951 15.1375C125.402 14.4916 124.793 13.9027 124.132 13.3795C123.452 12.8244 122.811 12.2209 122.215 11.5735C121.856 11.1142 121.591 10.5866 121.434 10.0214C121.207 9.19578 121.103 8.33985 121.125 7.48246C121.068 6.37942 121.217 5.2753 121.565 4.22976C121.847 3.55133 122.34 2.98728 122.967 2.62497C123.69 2.22015 124.505 2.02008 125.329 2.04533C126.229 2.01752 127.12 2.23578 127.91 2.67767C128.547 3.02254 129.044 3.58779 129.313 4.27287C129.594 5.33834 129.71 6.44231 129.659 7.54474L129.677 8.30641Z" fill="#808080"/>
<path d="M18.54 22.7068L6.44808 11.4541V5.32715L2.10415 7.43493C1.22757 7.86203 0.552417 8.62827 0.227113 9.5652C-0.0981915 10.5021 -0.0470202 11.533 0.369382 12.4313L6.57901 25.8445C6.78501 26.2896 7.07457 26.6888 7.43116 27.0192C7.78774 27.3496 8.20436 27.6049 8.65724 27.7704C9.11011 27.9358 9.59037 28.0083 10.0706 27.9836C10.5508 27.959 11.0216 27.8376 11.456 27.6265L18.6055 24.1583L18.54 22.7068ZM6.41535 22.4529L6.51822 15.4062L13.1253 22.3954L6.41535 22.4529Z" fill="#808080"/>
<path d="M20.2889 24.1292V18.7303L6.8877 4.33514L14.8882 0.454901C15.9343 -0.053607 17.1347 -0.115715 18.2255 0.282234C19.3162 0.680183 20.2081 1.50561 20.705 2.57705L26.91 15.9902C27.4033 17.0622 27.4618 18.2908 27.0726 19.4069C26.6835 20.5229 25.8785 21.4355 24.8339 21.9447L20.2889 24.1292ZM9.25371 4.7615L21.7057 18.1747V21.8777L24.2167 20.6226C24.9255 20.2764 25.4713 19.6562 25.7343 18.8982C25.9973 18.1402 25.956 17.3063 25.6194 16.5795L21.5233 7.68844L21.4111 15.8753L12.4801 6.43335L20.9248 6.36628L19.4472 3.17108C19.1093 2.44491 18.504 1.88574 17.7641 1.61631C17.0242 1.34688 16.2102 1.38919 15.5007 1.73395L9.25371 4.7615ZM15.7719 7.84651L20.0644 12.3783L20.1299 7.8082L15.7719 7.84651Z" fill="white"/>
<path d="M26.274 16.2778L20.0691 2.86466C19.864 2.41873 19.575 2.01866 19.2186 1.68738C18.8623 1.35609 18.4457 1.1001 17.9926 0.934107C17.5395 0.76811 17.0589 0.69536 16.5784 0.720024C16.0978 0.744688 15.6267 0.866288 15.1921 1.07784L8.06128 4.53653L20.9902 18.4287V23.018L24.5299 21.2982C24.9681 21.0882 25.3613 20.7911 25.6866 20.4243C26.012 20.0575 26.2631 19.6281 26.4253 19.1612C26.5875 18.6942 26.6577 18.1989 26.6317 17.704C26.6057 17.209 26.4842 16.7243 26.274 16.2778ZM20.7284 14.1269L14.1166 7.13772L20.8312 7.08502L20.7284 14.1269Z" fill="#808080"/>
</g>
<defs>
<clipPath id="clip0_863_1607">
<rect width="130" height="28" fill="white"/>
</clipPath>
</defs>
</svg>
