<svg width="124" height="28" viewBox="0 0 124 28" fill="none" xmlns="http://www.w3.org/2000/svg">
<g clip-path="url(#clip0_879_419)">
<path d="M34.4706 10.6899H34.0541L34.118 7.68402H46.0231L46.0871 10.6899H45.6981C45.5593 9.86648 45.3694 9.27196 45.1286 8.9063C44.8864 8.54064 44.6267 8.31562 44.3494 8.23379C44.0722 8.15196 43.5967 8.10594 42.9292 8.10594H40.957V16.9279C40.943 17.5722 40.966 18.2168 41.026 18.8584C41.0381 18.9917 41.0769 19.121 41.1399 19.2384C41.2029 19.3558 41.2888 19.4588 41.3923 19.5412C41.5922 19.6886 41.9686 19.7624 42.5215 19.7624H43.1174V20.1869H37.0024V19.7624H37.6297C38.1541 19.7624 38.5167 19.6946 38.72 19.5591C38.8237 19.4865 38.9117 19.393 38.9786 19.2843C39.0455 19.1757 39.0899 19.0543 39.1089 18.9275C39.1649 18.642 39.1934 17.9767 39.1942 16.9317V8.10977H37.375C36.5846 8.10977 36.0539 8.14813 35.7829 8.22484C35.5107 8.30283 35.256 8.53425 35.0176 8.92164C34.7792 9.30904 34.5973 9.89717 34.4706 10.6899ZM49.4971 12.3315V17.5953C49.4971 18.4007 49.5093 18.9079 49.5335 19.1167C49.5406 19.2112 49.5676 19.303 49.6129 19.3858C49.6582 19.4686 49.7206 19.5404 49.7957 19.5962C49.9463 19.7078 50.2148 19.7632 50.6012 19.7624H50.7919V20.1869H46.7972V19.7624H47.1046C47.5328 19.7624 47.8118 19.6993 47.9414 19.5732C48.067 19.4549 48.1471 19.2949 48.1672 19.1218C48.189 18.9462 48.1994 18.4374 48.1986 17.5953V15.3092C48.1986 14.4245 48.1568 13.8837 48.0731 13.6868C48.0472 13.6053 48.0048 13.5303 47.9486 13.4667C47.8924 13.403 47.8237 13.3521 47.7469 13.3173C47.5151 13.2573 47.2758 13.2327 47.0368 13.2444H46.7972V12.8199C47.8703 12.7082 48.7025 12.5455 49.2939 12.3315H49.4971ZM47.752 8.47799C47.7502 8.35107 47.7738 8.22511 47.8212 8.10775C47.8686 7.99039 47.939 7.88407 48.028 7.79525C48.1133 7.70324 48.2165 7.63029 48.331 7.58099C48.4454 7.5317 48.5687 7.50714 48.6929 7.50886C48.8164 7.50698 48.939 7.5315 49.0526 7.58082C49.1663 7.63015 49.2686 7.7032 49.3528 7.79525C49.4404 7.8849 49.5095 7.99148 49.556 8.10873C49.6026 8.22598 49.6256 8.35153 49.6238 8.47799C49.6263 8.60569 49.6035 8.73259 49.557 8.85118C49.5104 8.96977 49.441 9.07763 49.3528 9.1684C49.2688 9.26077 49.1666 9.33403 49.0529 9.38339C48.9392 9.43274 48.8165 9.45707 48.6929 9.4548C48.5686 9.45683 48.4453 9.43241 48.3308 9.3831C48.2163 9.33378 48.1132 9.26066 48.028 9.1684C47.9384 9.07841 47.8678 8.9708 47.8203 8.85211C47.7729 8.73342 47.7496 8.60613 47.752 8.47799ZM58.228 18.3419H58.6257C58.2159 19.7756 57.1904 20.492 55.5494 20.4911C55.0554 20.5029 54.5642 20.4115 54.1062 20.2227C53.6481 20.0338 53.2328 19.7514 52.8858 19.3929C52.1649 18.6616 51.8044 17.6937 51.8044 16.4893C51.8044 15.2542 52.1933 14.2523 52.9712 13.4835C53.3325 13.1136 53.7629 12.8212 54.237 12.6236C54.7111 12.4259 55.2192 12.3271 55.7313 12.3328C56.3448 12.3269 56.9503 12.474 57.4953 12.7611C58.0323 13.0475 58.3008 13.3965 58.3008 13.8082C58.2994 13.9652 58.2469 14.1172 58.1515 14.2404C58.1017 14.3078 58.0364 14.3616 57.9614 14.3971C57.8863 14.4326 57.8038 14.4486 57.7211 14.4437C57.323 14.4437 57.0788 14.2071 56.9884 13.7341C56.9157 13.3769 56.804 13.128 56.6535 12.9874C56.5029 12.8468 56.1984 12.776 55.7401 12.7752C54.9321 12.7752 54.3245 13.0611 53.9171 13.6331C53.5098 14.205 53.3061 15.0655 53.3061 16.2144C53.3061 17.3992 53.5249 18.327 53.9623 18.9978C54.3997 19.6686 55.0618 20.0036 55.9484 20.0027C57.1428 20.0019 57.9026 19.4483 58.228 18.3419ZM64.5789 10.6899H64.1623L64.2263 7.68402H76.1314L76.1954 10.6899H75.8064C75.6667 9.86648 75.4769 9.27196 75.2368 8.9063C74.9947 8.54064 74.735 8.31562 74.4577 8.23379C74.1804 8.15196 73.7049 8.10594 73.0375 8.10594H71.0652V16.9279C71.0521 17.5723 71.076 18.2169 71.1367 18.8584C71.1489 18.9917 71.1877 19.121 71.2507 19.2384C71.3137 19.3558 71.3996 19.4588 71.5031 19.5412C71.703 19.6886 72.0773 19.7624 72.626 19.7624H73.2219V20.1869H67.1069V19.7624H67.7342C68.2587 19.7624 68.6212 19.6946 68.8245 19.5591C68.9282 19.4865 69.0163 19.393 69.0832 19.2843C69.15 19.1757 69.1944 19.0543 69.2134 18.9275C69.2703 18.642 69.2987 17.9767 69.2987 16.9317V8.10977H67.4808C66.6904 8.10977 66.1597 8.14813 65.8887 8.22484C65.6164 8.30283 65.3617 8.53425 65.1234 8.92164C64.885 9.30904 64.7056 9.89717 64.5789 10.6899ZM83.225 18.8035H83.5574C83.5023 19.8544 82.9954 20.3799 82.0369 20.3799C81.683 20.3996 81.3352 20.2807 81.0645 20.0475C80.8042 19.7822 80.64 19.4346 80.5991 19.0617C80.0826 19.4461 79.5295 19.7763 78.948 20.0475C78.5298 20.2496 78.0756 20.3627 77.6131 20.3799C77.1444 20.3909 76.6868 20.2344 76.3196 19.9375C76.1446 19.8 76.0042 19.6221 75.9097 19.4185C75.8153 19.215 75.7696 18.9915 75.7763 18.7664C75.7763 18.1339 76.0795 17.5799 76.6859 17.1043C77.2923 16.6287 78.1287 16.1675 79.1951 15.7209L80.5978 15.1405V14.7722C80.6118 14.3914 80.578 14.0103 80.4974 13.6382C80.4055 13.3724 80.2223 13.1495 79.9818 13.0104C79.6512 12.8121 79.271 12.7161 78.8878 12.7342C77.9836 12.7342 77.4818 13.0415 77.3822 13.6561C77.286 14.2843 77.0326 14.5979 76.6219 14.5971C76.2539 14.5971 76.0699 14.4185 76.0699 14.0614C76.0699 13.7042 76.3141 13.3279 76.8026 12.9324C77.2911 12.5293 78.0509 12.3281 79.0822 12.3289C79.8492 12.3289 80.4435 12.4517 80.865 12.6972C81.2866 12.9426 81.5655 13.2222 81.7019 13.5359C81.8374 13.8504 81.9051 14.3299 81.9051 14.9742V18.0274C81.9051 18.7408 81.9415 19.199 82.0143 19.4018C82.0472 19.4991 82.1115 19.5822 82.1967 19.6375C82.282 19.6927 82.383 19.7169 82.4835 19.7061C82.8816 19.707 83.1288 19.4061 83.225 18.8035ZM80.6016 15.5764L79.6154 15.9817C78.0614 16.6278 77.2844 17.4376 77.2844 18.411C77.2688 18.7496 77.375 19.0823 77.583 19.3469C77.6778 19.4622 77.7971 19.5541 77.9318 19.6157C78.0665 19.6772 78.2132 19.7069 78.3608 19.7023C78.7067 19.6848 79.044 19.5868 79.347 19.4159C79.7935 19.1755 80.214 18.888 80.6016 18.558V15.5764ZM90.8342 18.3419H91.2319C90.8229 19.7756 89.7979 20.492 88.1569 20.4911C87.6627 20.5029 87.1714 20.4115 86.7131 20.2226C86.2549 20.0337 85.8393 19.7514 85.4921 19.3929C84.7719 18.6616 84.4114 17.6937 84.4106 16.4893C84.4106 15.2542 84.7999 14.2523 85.5786 13.4835C85.9398 13.1133 86.3702 12.8208 86.8443 12.6231C87.3184 12.4255 87.8266 12.3268 88.3388 12.3328C88.9523 12.3269 89.5578 12.474 90.1028 12.7611C90.6398 13.0475 90.9082 13.3965 90.9082 13.8082C90.9069 13.9652 90.8544 14.1172 90.7589 14.2404C90.71 14.3079 90.6455 14.3622 90.5711 14.3983C90.4967 14.4344 90.4147 14.4513 90.3324 14.4475C89.9351 14.4475 89.6909 14.211 89.5997 13.7379C89.5278 13.3808 89.4161 13.1319 89.2647 12.9912C89.1079 12.8493 88.8043 12.779 88.3513 12.779C87.5434 12.779 86.9357 13.065 86.5284 13.6369C86.121 14.2088 85.9174 15.0693 85.9174 16.2183C85.9174 17.403 86.1361 18.3308 86.5735 19.0016C87.011 19.6725 87.673 20.0074 88.5596 20.0066C89.7498 20.0032 90.508 19.4483 90.8342 18.3419ZM97.1851 10.6899H96.7698L96.8326 7.68402H108.739L108.802 10.6899H108.413C108.274 9.86648 108.084 9.27196 107.843 8.9063C107.601 8.54064 107.341 8.31562 107.065 8.23379C106.789 8.15196 106.312 8.10594 105.644 8.10594H103.671V16.9279C103.657 17.5709 103.68 18.2143 103.739 18.8546C103.751 18.9879 103.79 19.1173 103.853 19.2348C103.916 19.3522 104.002 19.4552 104.106 19.5374C104.304 19.6848 104.678 19.7585 105.227 19.7585H105.824V20.183H99.7081V19.7585H100.335C100.86 19.7585 101.223 19.6908 101.426 19.5553C101.529 19.4826 101.617 19.3891 101.684 19.2805C101.751 19.1719 101.796 19.0504 101.815 18.9237C101.872 18.6381 101.901 17.9728 101.9 16.9279V8.10594H100.088C99.2979 8.10594 98.7672 8.14429 98.4962 8.221C98.2252 8.29899 97.9692 8.53041 97.7321 8.91781C97.495 9.30521 97.3106 9.89717 97.1838 10.6899H97.1851ZM108.022 16.3973C108.022 15.2415 108.403 14.2749 109.163 13.4975C109.527 13.1177 109.964 12.8183 110.446 12.6177C110.928 12.4171 111.446 12.3197 111.967 12.3315C112.49 12.3193 113.01 12.417 113.494 12.6185C113.978 12.82 114.416 13.121 114.781 13.5026C115.155 13.8805 115.449 14.3321 115.646 14.8298C115.843 15.3274 115.939 15.8608 115.927 16.3973C115.927 17.669 115.541 18.6692 114.769 19.398C114.013 20.1206 113.009 20.5129 111.973 20.4911C110.935 20.5123 109.931 20.1127 109.182 19.3801C108.409 18.6385 108.022 17.6443 108.022 16.3973ZM109.528 16.4433C109.528 17.7832 109.742 18.7208 110.17 19.2561C110.599 19.7914 111.197 20.0637 111.967 20.0731C112.757 20.0731 113.362 19.8041 113.781 19.2663C114.2 18.7285 114.409 17.7909 114.408 16.4535C114.408 15.1264 114.199 14.1798 113.781 13.6139C113.363 13.0479 112.757 12.7649 111.963 12.7649C111.173 12.7649 110.568 13.0462 110.149 13.6088C109.73 14.1713 109.523 15.1162 109.528 16.4433ZM124 15.189H118.833C118.81 15.5521 118.797 15.8219 118.797 16.0009C118.797 17.328 119.001 18.3253 119.408 18.9927C119.815 19.6601 120.423 19.9934 121.231 19.9925C122.329 19.9925 123.107 19.4918 123.565 18.4902H124C123.812 19.1099 123.401 19.6348 122.851 19.9605C122.287 20.3111 121.638 20.4948 120.978 20.4911C120.354 20.4915 119.74 20.3244 119.2 20.0066C118.635 19.678 118.163 19.2063 117.83 18.6373C117.473 18.0483 117.295 17.3323 117.295 16.4893C117.295 15.296 117.639 14.3047 118.327 13.5154C118.644 13.1361 119.039 12.8331 119.485 12.6284C119.931 12.4236 120.416 12.3222 120.905 12.3315C121.876 12.3315 122.629 12.6324 123.163 13.2342C123.698 13.8359 123.977 14.4875 124 15.189ZM122.417 14.8208C122.433 14.6937 122.442 14.5656 122.443 14.4373C122.443 13.8969 122.288 13.4775 121.978 13.1792C121.669 12.8821 121.258 12.7213 120.833 12.7317C119.736 12.7317 119.081 13.4264 118.87 14.8157L122.417 14.8208ZM10.1285 11.9096H9.86003L9.90143 9.9726H17.5722L17.6136 11.9096H17.3626C17.274 11.3794 17.1514 10.9959 16.995 10.7589C16.8826 10.5588 16.7051 10.4051 16.4932 10.3242C16.1923 10.2595 15.8846 10.2328 15.5773 10.2449H14.3064V15.9293C14.2974 16.3437 14.3121 16.7582 14.3503 17.1708C14.3581 17.2566 14.383 17.3399 14.4236 17.4156C14.4642 17.4912 14.5195 17.5576 14.5862 17.6106C14.715 17.7052 14.9559 17.7525 15.3088 17.7525H15.694V18.0274H11.7558V17.7538H12.1698C12.5073 17.7538 12.7419 17.7103 12.8711 17.6259C12.9381 17.5793 12.9949 17.5192 13.0381 17.4492C13.0812 17.3793 13.1098 17.301 13.122 17.2194C13.1711 16.7917 13.1883 16.3609 13.1735 15.9306V10.2462H12.0017C11.6583 10.2318 11.3145 10.2567 10.9766 10.3204C10.801 10.3702 10.6379 10.5185 10.4836 10.7691C10.3293 11.0197 10.2113 11.3982 10.1298 11.9096H10.1285ZM24.6821 14.3196H27.4761L14.0517 28V25.1335L24.6821 14.3196ZM2.78148 14.3196H0L13.4244 28V25.1335L2.78148 14.3196ZM24.6821 13.6804H27.4761L14.0517 0V2.86649L24.6821 13.6804ZM13.4244 2.86649V0L0 13.6804H2.78775L13.4244 2.86649Z" fill="#808080"/>
</g>
<defs>
<clipPath id="clip0_879_419">
<rect width="124" height="28" fill="white"/>
</clipPath>
</defs>
</svg>
