<svg width="160" height="28" viewBox="0 0 160 28" fill="none" xmlns="http://www.w3.org/2000/svg">
<g clip-path="url(#clip0_877_1630)">
<path d="M27.986 1.17497e-07H3.28034C2.70646 -0.000153835 2.14266 0.150984 1.64564 0.438213C1.14861 0.725442 0.735884 1.13863 0.448956 1.63624C0.162028 2.13385 0.0110164 2.69834 0.0111084 3.27293C0.0112005 3.84751 0.162392 4.41192 0.449479 4.90944L12.8023 26.3372C13.0891 26.8348 13.5017 27.2481 13.9987 27.5354C14.4956 27.8228 15.0593 27.974 15.6332 27.974C16.207 27.974 16.7707 27.8228 17.2677 27.5354C17.7646 27.2481 18.1772 26.8348 18.464 26.3372L30.8168 4.90944C31.1039 4.41192 31.2551 3.84751 31.2552 3.27293C31.2553 2.69834 31.1043 2.13385 30.8174 1.63624C30.5304 1.13863 30.1177 0.725442 29.6207 0.438213C29.1237 0.150984 28.5599 -0.000153835 27.986 1.17497e-07ZM9.17881 18.109L1.89922 5.4832C1.54544 4.86998 1.44945 4.14116 1.63236 3.45708C1.81528 2.77299 2.26212 2.18969 2.87458 1.83547C3.48704 1.48125 4.21496 1.38514 4.8982 1.56828C5.58143 1.75142 6.16402 2.1988 6.5178 2.81202L13.7991 15.4378C13.98 15.7418 14.0988 16.0787 14.1486 16.4291C14.1983 16.7794 14.1781 17.1362 14.089 17.4786C13.9999 17.8211 13.8437 18.1424 13.6295 18.4239C13.4153 18.7054 13.1474 18.9414 12.8413 19.1184C12.5353 19.2953 12.1971 19.4096 11.8466 19.4546C11.496 19.4996 11.14 19.4744 10.7992 19.3805C10.4585 19.2866 10.1398 19.1258 9.86159 18.9076C9.58341 18.6893 9.35132 18.4178 9.17881 18.109ZM29.6725 5.20664L18.3748 24.7998C17.9732 25.4963 17.3118 26.0047 16.5359 26.213C15.76 26.4212 14.9332 26.3124 14.2375 25.9103C13.5417 25.5082 13.034 24.8459 12.826 24.0691C12.618 23.2922 12.7267 22.4644 13.1283 21.7678L24.4277 2.17473C24.6252 1.82747 24.8894 1.52272 25.205 1.27805C25.5206 1.03337 25.8814 0.853599 26.2667 0.749039C26.6519 0.644478 27.054 0.617201 27.4498 0.66879C27.8456 0.720379 28.2274 0.849804 28.573 1.04963C28.9187 1.24946 29.2215 1.51575 29.4641 1.83316C29.7066 2.15058 29.884 2.51286 29.9862 2.89919C30.0884 3.28552 30.1133 3.68827 30.0594 4.08426C30.0056 4.48026 29.8741 4.86171 29.6725 5.20664ZM56.2791 2.29841L49.4422 20.9467H44.9111L38.0793 2.29841H42.0819L47.2118 17.1264L52.3091 2.29841H56.2791ZM58.7737 3.75337C58.5666 3.54925 58.4022 3.30592 58.2899 3.03755C58.1777 2.76918 58.1199 2.48114 58.1199 2.19018C58.1199 1.89923 58.1777 1.61119 58.2899 1.34282C58.4022 1.07445 58.5666 0.83112 58.7737 0.626998C59.2252 0.223281 59.8094 0.000125932 60.4147 0.000125932C61.0201 0.000125932 61.6043 0.223281 62.0558 0.626998C62.2629 0.83112 62.4273 1.07445 62.5396 1.34282C62.6518 1.61119 62.7096 1.89923 62.7096 2.19018C62.7096 2.48114 62.6518 2.76918 62.5396 3.03755C62.4273 3.30592 62.2629 3.54925 62.0558 3.75337C61.6048 4.15815 61.0204 4.382 60.4147 4.382C59.8091 4.382 59.2247 4.15815 58.7737 3.75337ZM62.2565 6.14454V20.9467H58.5198V6.14454H62.2565ZM79.5745 14.6682H68.7658C68.8527 15.7367 69.2261 16.5738 69.8861 17.1796C70.5465 17.7871 71.4173 18.113 72.3138 18.0884C73.7012 18.0884 74.6888 17.4917 75.2767 16.2984H79.3051C78.89 17.7055 78.0281 18.9387 76.85 19.8113C75.641 20.7274 74.1541 21.1855 72.3893 21.1855C71.0523 21.2073 69.7326 20.8805 68.5599 20.2373C67.4396 19.6154 66.5223 18.6831 65.9178 17.5524C65.268 16.3185 64.9421 14.9394 64.9707 13.5448C64.9707 12.0125 65.2818 10.6675 65.904 9.50969C66.4972 8.38277 67.4067 7.45425 68.5204 6.83854C69.7015 6.22806 71.0105 5.90721 72.3396 5.90243C73.6688 5.89766 74.98 6.20908 76.1655 6.81105C77.26 7.39944 78.1592 8.29497 78.7527 9.38773C79.3828 10.5656 79.7001 11.8859 79.674 13.2218C79.68 13.7059 79.6467 14.1896 79.5745 14.6682ZM75.812 12.1568C75.8193 11.7184 75.7298 11.2838 75.5497 10.884C75.3697 10.4843 75.1036 10.1294 74.7706 9.84467C74.0766 9.26391 73.1938 8.9583 72.2897 8.98578C71.433 8.96025 70.5986 9.26104 69.9547 9.82748C69.3233 10.3886 68.9362 11.1679 68.7932 12.1654L75.812 12.1568ZM102.896 6.14454L98.5738 20.9467H94.5437L91.8484 10.6074L89.1531 20.9467H85.0972L80.748 6.14454H84.5362L87.1526 17.4201L89.98 6.14454H93.9261L96.702 17.3926L99.3167 6.14454H102.896ZM110.647 6.58601C111.54 6.11852 112.536 5.8823 113.543 5.89889C114.752 5.88398 115.94 6.20831 116.974 6.8351C118.015 7.4778 118.855 8.39803 119.402 9.49252C119.998 10.6377 120.296 11.9696 120.296 13.4881C120.323 14.8802 120.017 16.2586 119.402 17.5077C118.857 18.6181 118.017 19.5566 116.974 20.2201C115.946 20.8622 114.755 21.196 113.543 21.1821C112.546 21.2028 111.56 20.9731 110.674 20.5139C109.89 20.1046 109.203 19.5304 108.66 18.8304V28H104.924V6.14454H108.66V8.28319C109.182 7.57043 109.862 6.9893 110.647 6.58601ZM115.931 11.1811C115.597 10.5632 115.098 10.0501 114.49 9.69864C113.902 9.35918 113.234 9.1814 112.555 9.18331C111.884 9.1798 111.225 9.35786 110.647 9.69864C110.038 10.0597 109.54 10.5815 109.208 11.2069C108.848 11.9289 108.66 12.7249 108.66 13.5319C108.66 14.3389 108.848 15.1349 109.208 15.8569C109.541 16.4825 110.038 17.0047 110.647 17.3669C111.23 17.7094 111.894 17.8888 112.57 17.8864C113.246 17.884 113.909 17.6998 114.49 17.3531C115.098 16.9833 115.596 16.4572 115.931 15.8295C116.311 15.1058 116.5 14.2968 116.479 13.4795C116.496 12.679 116.308 11.8874 115.931 11.1811ZM122.95 9.51141C123.493 8.41067 124.334 7.48503 125.378 6.84024C126.412 6.21293 127.6 5.88859 128.809 5.90405C129.815 5.88134 130.811 6.11106 131.705 6.57227C132.485 6.97775 133.165 7.55298 133.694 8.25572V6.14454H137.456V20.9467H133.694V18.7823C133.177 19.5055 132.495 20.0945 131.705 20.5001C130.806 20.9695 129.803 21.2057 128.788 21.1872C127.586 21.1991 126.405 20.8653 125.386 20.2253C124.34 19.5665 123.497 18.6307 122.95 17.5215C122.334 16.2728 122.027 14.8942 122.054 13.5018C122.027 12.1188 122.334 10.7495 122.95 9.51141ZM133.157 11.2086C132.825 10.5848 132.326 10.0665 131.715 9.7124C131.123 9.36997 130.45 9.19206 129.766 9.19706C129.092 9.19402 128.429 9.37197 127.847 9.7124C127.244 10.0664 126.749 10.5791 126.417 11.1949C126.039 11.9054 125.851 12.702 125.872 13.507C125.853 14.3194 126.041 15.1233 126.417 15.8432C126.75 16.4766 127.248 17.0079 127.859 17.3806C128.434 17.7305 129.094 17.9153 129.766 17.9149C130.45 17.9191 131.123 17.7413 131.715 17.3995C132.325 17.0447 132.825 16.5266 133.157 15.9033C133.508 15.1741 133.69 14.3749 133.69 13.5654C133.69 12.7558 133.508 11.9567 133.157 11.2275V11.2086ZM144.844 1.17496V20.9467H141.109V1.17496H144.844ZM150.928 20.5328C150.029 20.1444 149.243 19.5331 148.646 18.7566C148.098 18.0389 147.777 17.173 147.726 16.2709H151.489C151.523 16.5524 151.615 16.8237 151.76 17.0674C151.905 17.3111 152.098 17.5219 152.329 17.6864C152.858 18.0738 153.502 18.2717 154.156 18.2481C154.869 18.2481 155.425 18.1055 155.824 17.8204C156.009 17.7036 156.161 17.5418 156.266 17.3501C156.371 17.1584 156.425 16.9431 156.425 16.7244C156.425 16.2434 156.181 15.8844 155.69 15.6439C154.937 15.3119 154.157 15.0481 153.357 14.8555C152.435 14.6447 151.53 14.368 150.648 14.0275C149.946 13.7435 149.323 13.2938 148.833 12.7168C148.326 12.1293 148.073 11.3368 148.073 10.3394C148.067 9.53584 148.315 8.75103 148.779 8.09595C149.295 7.38434 149.997 6.82912 150.807 6.49154C151.791 6.08044 152.85 5.8803 153.916 5.90405C155.678 5.90405 157.083 6.34494 158.133 7.22674C159.183 8.10854 159.761 9.29783 159.868 10.7946H156.291C156.274 10.5222 156.201 10.2563 156.074 10.0144C155.948 9.77249 155.772 9.56011 155.558 9.39117C155.12 9.04762 154.537 8.87584 153.81 8.87584C153.134 8.87584 152.613 9.00008 152.249 9.24858C152.076 9.36078 151.935 9.51564 151.839 9.69825C151.743 9.88085 151.696 10.0851 151.701 10.2913C151.701 10.7895 151.95 11.1691 152.449 11.4268C152.949 11.6844 153.721 11.9421 154.771 12.2152C155.67 12.4286 156.553 12.7053 157.413 13.0432C158.111 13.3323 158.729 13.7861 159.214 14.3659C159.72 14.9614 159.982 15.7493 160 16.7296C160.011 17.551 159.764 18.355 159.293 19.028C158.78 19.7382 158.077 20.289 157.265 20.6169C156.286 21.0198 155.235 21.2157 154.177 21.1924C153.059 21.2083 151.951 20.9834 150.928 20.5328Z" fill="#808080"/>
</g>
<defs>
<clipPath id="clip0_877_1630">
<rect width="160" height="28" fill="white"/>
</clipPath>
</defs>
</svg>
