<svg width="32" height="32" viewBox="0 0 32 32" fill="none" xmlns="http://www.w3.org/2000/svg">
<g clip-path="url(#clip0_1039_644)">
<path d="M32 0H0V32H32V0Z" fill="url(#paint0_linear_1039_644)"/>
<path fill-rule="evenodd" clip-rule="evenodd" d="M18.6261 18.6919C18.1964 18.6919 17.8458 19.0412 17.8458 19.4722C17.8458 19.9019 18.1964 20.2526 18.6261 20.2526C19.0558 20.2526 19.4051 19.9019 19.4051 19.4722C19.4051 19.0412 19.0558 18.6919 18.6261 18.6919ZM12.7608 19.4722C12.7608 19.0412 12.4101 18.6919 11.9804 18.6919C11.5507 18.6919 11.2001 19.0412 11.2001 19.4722C11.2001 19.9019 11.5507 20.2526 11.9804 20.2526C12.4101 20.2526 12.7608 19.9019 12.7608 19.4722ZM14.4526 13.3914C14.4526 13.8772 14.8475 14.2721 15.3334 14.2721C15.8193 14.2721 16.2141 13.8772 16.2141 13.3914C16.2141 12.9055 15.8193 12.5106 15.3334 12.5106C14.8475 12.5106 14.4526 12.9055 14.4526 13.3914ZM17.135 17.9691L15.7737 15.5664C15.6319 15.5959 15.4846 15.6106 15.3334 15.6106C15.1835 15.6106 15.0362 15.5959 14.8957 15.5664L13.517 18.0226C13.7258 18.2421 13.8824 18.5085 13.9801 18.8029H16.6264C16.7321 18.4857 16.9021 18.1993 17.135 17.9691ZM18.6261 17.3533C19.7933 17.3533 20.7436 18.3037 20.7436 19.4722C20.7436 20.6407 19.7933 21.5911 18.6261 21.5911C17.6932 21.5911 16.9075 20.9794 16.6264 20.1415H13.9801C13.6991 20.9794 12.9134 21.5911 11.9804 21.5911C10.8119 21.5911 9.86155 20.6407 9.86155 19.4722C9.86155 18.3037 10.8119 17.3533 11.9804 17.3533C12.1036 17.3533 12.2213 17.3694 12.3391 17.3895L13.7285 14.9146C13.3497 14.517 13.1141 13.9816 13.1141 13.3914C13.1141 12.168 14.11 11.1721 15.3334 11.1721C16.5568 11.1721 17.5526 12.168 17.5526 13.3914C17.5526 13.9803 17.317 14.513 16.9423 14.9119L18.3397 17.3815C18.4334 17.3694 18.5284 17.3533 18.6261 17.3533ZM24.0243 11.7182L22.8611 12.3808C23.6027 13.6805 23.9949 15.1622 23.9949 16.6667C23.9949 21.4425 20.1092 25.3282 15.3334 25.3282C13.5424 25.3282 11.8238 24.7847 10.3635 23.7594L9.59519 24.8543C11.2804 26.0403 13.2654 26.6667 15.3334 26.6667C20.8467 26.6667 25.3334 22.18 25.3334 16.6667C25.3334 14.9306 24.881 13.22 24.0243 11.7182ZM6.67188 16.6667C6.67188 18.222 7.0895 19.7479 7.87922 21.0771L6.7281 21.7611C5.81658 20.2244 5.33337 18.4616 5.33337 16.6667C5.33337 11.152 9.82006 6.66669 15.3334 6.66669C16.8392 6.66669 18.2875 6.99328 19.638 7.63844L19.0598 8.84712C17.8913 8.28762 16.6384 8.0052 15.3334 8.0052C10.5576 8.0052 6.67188 11.8895 6.67188 16.6667Z" fill="white"/>
</g>
<defs>
<linearGradient id="paint0_linear_1039_644" x1="0" y1="3200" x2="3200" y2="0" gradientUnits="userSpaceOnUse">
<stop stop-color="#BD0816"/>
<stop offset="1" stop-color="#FF5252"/>
</linearGradient>
<clipPath id="clip0_1039_644">
<rect width="32" height="32" fill="white"/>
</clipPath>
</defs>
</svg>
