<svg width="32" height="32" viewBox="0 0 32 32" fill="none" xmlns="http://www.w3.org/2000/svg">
<g clip-path="url(#clip0_1039_640)">
<path d="M16.0764 16.837C15.9563 17.0038 15.8551 17.1411 15.7577 17.2799C14.2037 19.5149 12.6502 21.7496 11.0973 23.9841C9.65257 26.0626 8.20637 28.1399 6.75865 30.216C6.73462 30.2486 6.70385 30.2759 6.66832 30.2961C6.6328 30.3163 6.59332 30.329 6.55244 30.3333C4.50852 30.3161 2.4651 30.2944 0.422183 30.2684C0.399523 30.2684 0.376107 30.2617 0.331543 30.2551C0.348043 30.2134 0.367216 30.1727 0.388948 30.1333C1.81451 27.9736 3.24007 25.8144 4.66563 23.6557C5.93005 21.7425 7.19523 19.8298 8.46116 17.9176C9.86407 15.7928 11.2662 13.6666 12.6676 11.5389C12.8746 11.2252 13.0898 10.9174 13.2862 10.5978C13.3366 10.5122 13.3517 10.4111 13.3285 10.3151C12.9508 9.13853 12.5656 7.96493 12.1812 6.79134C12.0165 6.28869 11.8443 5.78899 11.6902 5.28338C11.6404 5.121 11.558 5.07155 11.3881 5.07228C10.104 5.07745 8.8275 5.07597 7.54721 5.07597C7.304 5.07597 7.30324 5.07597 7.30324 4.84126C7.30324 3.30304 7.30324 1.76482 7.29871 0.2266C7.29871 0.0553583 7.35612 0.0169767 7.52078 0.0169767C10.0985 0.0214053 12.6767 0.0214053 15.2554 0.0169767C15.3152 0.00949334 15.3759 0.02357 15.4259 0.0565773C15.476 0.0895845 15.512 0.139265 15.5273 0.196337C16.8869 3.538 18.2465 6.87844 19.6061 10.2176C21.1923 14.1119 22.7785 18.0067 24.3646 21.9019C24.8571 23.1109 25.3534 24.3192 25.8406 25.5312C25.8987 25.6788 25.9592 25.7069 26.1117 25.6611C27.463 25.2529 28.8173 24.8558 30.1679 24.4469C30.3378 24.3952 30.3997 24.4299 30.4526 24.5945C30.9134 26.0095 31.3832 27.4215 31.85 28.835C31.8658 28.8837 31.8779 28.9331 31.8968 29.001C31.8001 29.0357 31.7095 29.0748 31.6166 29.0999C28.5449 30.0511 25.475 31.0028 22.4068 31.9549C22.2603 32 22.2165 31.9513 22.1674 31.8309C21.2303 29.5103 20.2909 27.1907 19.3493 24.8721C18.4283 22.6016 17.5068 20.3312 16.5847 18.0608C16.4465 17.7198 16.3106 17.3773 16.1723 17.0363C16.1504 16.978 16.1202 16.9271 16.0764 16.837Z" fill="#FA7E14"/>
</g>
<defs>
<clipPath id="clip0_1039_640">
<rect width="32" height="32" fill="white"/>
</clipPath>
</defs>
</svg>
