<svg width="27" height="32" viewBox="0 0 27 32" fill="none" xmlns="http://www.w3.org/2000/svg">
<g clip-path="url(#clip0_1039_651)">
<path d="M17.4286 31.9447H17.7985L23.8365 28.7742L23.937 28.6251V3.31781L23.8365 3.16789L17.7985 0H17.4241L17.4286 31.9447Z" fill="#5294CF"/>
<path d="M9.57117 31.9447H9.1961L3.16329 28.7742L3.04087 28.5531L2.97876 3.4467L3.16329 3.16789L9.1961 0H9.57581L9.57117 31.9447Z" fill="#1F5B98"/>
<path d="M9.20679 0H17.7929V31.9447H9.20679V0Z" fill="#2D72B8"/>
<path d="M26.9972 15.2547L26.7932 15.2072L23.8799 14.922L23.8367 14.9446L17.7933 14.6908H9.20683L3.16337 14.9446V10.1054L3.15705 10.1089L3.16337 10.0947L9.20683 8.6243H17.7933L23.8367 10.0947L26.0583 11.3348V10.5375L26.9972 10.4297L26.9 10.2306L23.9273 7.99847L23.8367 8.02936L17.7933 6.06297H9.20683L3.16337 8.02936V3.16791L0.00292969 7.05585V10.4514L0.0273933 10.4328L0.941825 10.5375V11.3512L0.00292969 11.8788V15.2574L0.0273933 15.2547L0.941825 15.2689V16.687L0.152875 16.6994L0.00292969 16.6843V20.0642L0.941825 20.5944V21.4174L0.0422612 21.5217L0.00292969 21.4907V24.8857L3.16337 28.7742V23.9132L9.20683 25.8796H17.7933L23.8545 23.9075L23.9351 23.9445L26.8687 21.7453L26.9972 21.5262L26.0583 21.4174V20.6109L25.9353 20.5593L23.9273 21.6959L23.8545 21.8554L17.7933 23.3173V23.3191H9.20683V23.3173L3.16337 21.8492V16.9922L9.20683 17.2451V17.2513H17.7933L23.8367 16.9922L23.9743 17.0587L26.798 16.8033L26.9972 16.7011L26.0583 16.687V15.2689L26.9972 15.2547Z" fill="#1A476F"/>
<path d="M23.8367 23.9132V28.7742L26.9972 24.8857V21.5129L23.8549 23.9075L23.8367 23.9132ZM23.8367 21.8598L23.8549 21.8554L26.9972 20.0806V16.687L23.8367 16.9922V21.8598ZM23.8549 10.0992L23.8367 10.0947V14.9446L26.9972 15.2547V11.8627L23.8549 10.0992ZM23.8549 8.04841L26.9972 10.4297V7.05674L23.8367 3.16791V8.02936L23.8549 8.036V8.04841Z" fill="#2D72B8"/>
</g>
<defs>
<clipPath id="clip0_1039_651">
<rect width="27" height="32" fill="white"/>
</clipPath>
</defs>
</svg>
