<svg width="32" height="32" viewBox="0 0 32 32" fill="none" xmlns="http://www.w3.org/2000/svg">
<path d="M9.12173 13.2636C9.12173 13.6752 9.16345 14.0089 9.23645 14.2536C9.31989 14.4983 9.42418 14.7653 9.57019 15.0545C9.62234 15.1435 9.6432 15.2325 9.6432 15.3103C9.6432 15.4216 9.58062 15.5328 9.44504 15.644L8.78799 16.1112C8.69413 16.178 8.60026 16.2113 8.51683 16.2113C8.41253 16.2113 8.30824 16.1557 8.20395 16.0556C8.05794 15.8888 7.93278 15.7108 7.82849 15.5328C7.7242 15.3437 7.6199 15.1324 7.50518 14.8765C6.69169 15.8999 5.66961 16.4116 4.43895 16.4116C3.56288 16.4116 2.86411 16.1446 2.35307 15.6107C1.84203 15.0768 1.5813 14.3649 1.5813 13.475C1.5813 12.5295 1.89418 11.762 2.53037 11.1835C3.16656 10.6051 4.01134 10.3159 5.08557 10.3159C5.44016 10.3159 5.80519 10.3493 6.19108 10.4049C6.57696 10.4605 6.97328 10.5495 7.39046 10.6496V9.8376C7.39046 8.99221 7.22359 8.40267 6.90028 8.05784C6.56654 7.71301 6.00335 7.54616 5.20029 7.54616C4.83526 7.54616 4.4598 7.59066 4.07392 7.69077C3.68803 7.79088 3.31257 7.91324 2.94755 8.06897C2.78068 8.14683 2.65552 8.19132 2.58252 8.21357C2.50951 8.23582 2.45737 8.24694 2.41565 8.24694C2.26964 8.24694 2.19663 8.13571 2.19663 7.90211V7.35706C2.19663 7.17909 2.21749 7.04561 2.26964 6.96774C2.32178 6.88988 2.41565 6.81201 2.56166 6.73415C2.92669 6.53393 3.36472 6.36707 3.87576 6.23359C4.3868 6.08899 4.92913 6.02225 5.50274 6.02225C6.74383 6.02225 7.65119 6.32258 8.23523 6.92325C8.80885 7.52392 9.10087 8.43604 9.10087 9.65962V13.2636H9.12173ZM4.88741 14.9544C5.23158 14.9544 5.58618 14.8877 5.96163 14.7542C6.33709 14.6207 6.67083 14.376 6.95242 14.0423C7.11929 13.8309 7.24444 13.5973 7.30702 13.3304C7.3696 13.0634 7.41131 12.7408 7.41131 12.3626V11.8954C7.10886 11.8176 6.78555 11.7508 6.45181 11.7063C6.11807 11.6618 5.79476 11.6396 5.47145 11.6396C4.77269 11.6396 4.26165 11.7842 3.91748 12.0845C3.57331 12.3849 3.40644 12.8076 3.40644 13.3637C3.40644 13.8865 3.53159 14.2759 3.79232 14.5428C4.04263 14.8209 4.40766 14.9544 4.88741 14.9544ZM13.2622 16.1557C13.0745 16.1557 12.9493 16.1224 12.8659 16.0445C12.7824 15.9778 12.7094 15.822 12.6469 15.6107L10.196 7.01224C10.1334 6.78977 10.1021 6.64516 10.1021 6.5673C10.1021 6.38932 10.1855 6.28921 10.3524 6.28921H11.3745C11.5726 6.28921 11.7082 6.32258 11.7812 6.40044C11.8647 6.46719 11.9272 6.62291 11.9898 6.83426L13.7419 14.198L15.3689 6.83426C15.4211 6.61179 15.4836 6.46719 15.5671 6.40044C15.6505 6.3337 15.7965 6.28921 15.9843 6.28921H16.8186C17.0168 6.28921 17.1523 6.32258 17.2358 6.40044C17.3192 6.46719 17.3922 6.62291 17.4339 6.83426L19.0818 14.287L20.8861 6.83426C20.9486 6.61179 21.0216 6.46719 21.0946 6.40044C21.1781 6.3337 21.3137 6.28921 21.5014 6.28921H22.4713C22.6382 6.28921 22.7321 6.3782 22.7321 6.5673C22.7321 6.62291 22.7216 6.67853 22.7112 6.74527C22.7008 6.81201 22.6799 6.901 22.6382 7.02336L20.1247 15.6218C20.0621 15.8443 19.9891 15.9889 19.9057 16.0556C19.8223 16.1224 19.6867 16.1669 19.5094 16.1669H18.6125C18.4143 16.1669 18.2787 16.1335 18.1953 16.0556C18.1118 15.9778 18.0388 15.8331 17.9971 15.6107L16.3806 8.43604L14.7744 15.5996C14.7223 15.822 14.6597 15.9666 14.5763 16.0445C14.4929 16.1224 14.3468 16.1557 14.1591 16.1557H13.2622ZM26.6639 16.4561C26.1216 16.4561 25.5793 16.3893 25.0578 16.2558C24.5363 16.1224 24.1296 15.9778 23.8584 15.8109C23.6916 15.7108 23.5768 15.5996 23.5351 15.4994C23.4934 15.3993 23.4725 15.2881 23.4725 15.188V14.6207C23.4725 14.3871 23.556 14.2759 23.7124 14.2759C23.775 14.2759 23.8376 14.287 23.9001 14.3092C23.9627 14.3315 24.0566 14.376 24.1609 14.4205C24.5155 14.5873 24.9014 14.7208 25.3081 14.8098C25.7253 14.8988 26.132 14.9433 26.5492 14.9433C27.2063 14.9433 27.7173 14.8209 28.0719 14.5762C28.4265 14.3315 28.6142 13.9755 28.6142 13.5195C28.6142 13.208 28.5204 12.9522 28.3326 12.7408C28.1449 12.5295 27.7903 12.3404 27.2793 12.1624L25.767 11.6618C25.0057 11.406 24.4425 11.0278 24.0983 10.5273C23.7541 10.0378 23.5768 9.49277 23.5768 8.91435C23.5768 8.44716 23.6707 8.0356 23.8584 7.67964C24.0462 7.32369 24.2965 7.01224 24.6093 6.76752C24.9222 6.51168 25.2768 6.32258 25.694 6.1891C26.1112 6.05562 26.5492 6 27.0081 6C27.2375 6 27.4774 6.01112 27.7069 6.04449C27.9467 6.07786 28.1658 6.12236 28.3848 6.16685C28.5934 6.22247 28.7915 6.27809 28.9792 6.34483C29.167 6.41157 29.313 6.47831 29.4173 6.54505C29.5633 6.63404 29.6676 6.72303 29.7302 6.82314C29.7927 6.91212 29.824 7.03448 29.824 7.19021V7.71301C29.824 7.94661 29.7406 8.06897 29.5841 8.06897C29.5007 8.06897 29.3651 8.02447 29.1878 7.93548C28.5934 7.64627 27.9259 7.50167 27.1854 7.50167C26.5909 7.50167 26.1216 7.60178 25.7983 7.81313C25.475 8.02447 25.3081 8.34705 25.3081 8.80311C25.3081 9.11457 25.4124 9.38154 25.621 9.59288C25.8296 9.80423 26.2155 10.0156 26.7682 10.2047L28.2492 10.7052C29.0001 10.9611 29.5424 11.317 29.8657 11.7731C30.189 12.2291 30.3455 12.7519 30.3455 13.3304C30.3455 13.8087 30.2516 14.2425 30.0743 14.6207C29.8866 14.9989 29.6363 15.3326 29.313 15.5996C28.9897 15.8776 28.6038 16.0779 28.1553 16.2225C27.686 16.3782 27.1958 16.4561 26.6639 16.4561Z" fill="#252F3E"/>
<path fill-rule="evenodd" clip-rule="evenodd" d="M28.6353 21.862C25.204 24.565 20.2188 26 15.9323 26C9.92498 26 4.51214 23.6307 0.423833 19.693C0.100523 19.3815 0.392545 18.9588 0.778431 19.2035C5.20048 21.9399 10.655 23.5973 16.2973 23.5973C20.104 23.5973 24.2862 22.7519 28.1347 21.0166C28.7083 20.7386 29.1985 21.4171 28.6353 21.862Z" fill="#FF9900"/>
<path fill-rule="evenodd" clip-rule="evenodd" d="M30.0642 20.1268C29.6261 19.5261 27.1648 19.8376 26.0489 19.9822C25.7151 20.0267 25.663 19.7152 25.9654 19.4816C27.9261 18.0133 31.1488 18.436 31.5243 18.9254C31.8997 19.426 31.42 22.8631 29.5844 24.5094C29.3028 24.7653 29.0317 24.6318 29.1568 24.2981C29.574 23.1968 30.5022 20.7163 30.0642 20.1268Z" fill="#FF9900"/>
</svg>
