<svg width="32" height="32" viewBox="0 0 32 32" fill="none" xmlns="http://www.w3.org/2000/svg">
<g clip-path="url(#clip0_1039_670)">
<path d="M15.9381 0C7.13687 0 0 7.33514 0 16.3838C0 23.6227 4.56675 29.764 10.8995 31.9304C11.696 32.082 11.9885 31.575 11.9885 31.1422C11.9885 30.7516 11.9736 29.4608 11.9669 28.0919C7.53275 29.0829 6.59713 26.1588 6.59713 26.1588C5.87213 24.265 4.8275 23.7616 4.8275 23.7616C3.3815 22.7447 4.9365 22.7655 4.9365 22.7655C6.537 22.8811 7.37975 24.4539 7.37975 24.4539C8.80125 26.9587 11.1082 26.2345 12.0177 25.8159C12.1607 24.7569 12.5739 24.0342 13.0296 23.6251C9.48962 23.2107 5.76813 21.8059 5.76813 15.5281C5.76813 13.7395 6.39075 12.2778 7.41038 11.1305C7.24487 10.7178 6.69938 9.05145 7.56475 6.79469C7.56475 6.79469 8.90313 6.35434 11.9489 8.47412C13.2201 8.11099 14.5836 7.92905 15.9381 7.92288C17.2926 7.92905 18.6571 8.11099 19.9309 8.47412C22.973 6.35434 24.3095 6.79469 24.3095 6.79469C25.177 9.05145 24.6313 10.7178 24.4657 11.1305C25.4876 12.2778 26.106 13.7393 26.106 15.5281C26.106 21.8208 22.3775 23.2065 18.8285 23.612C19.4001 24.1205 19.9095 25.1176 19.9095 26.646C19.9095 28.8382 19.891 30.6025 19.891 31.1422C19.891 31.5782 20.1779 32.0891 20.9859 31.9282C27.3151 29.7593 31.8761 23.6202 31.8761 16.3838C31.8761 7.33514 24.7402 0 15.9381 0Z" fill="#161614"/>
<path d="M5.96936 23.339C5.93436 23.4204 5.80961 23.4448 5.69624 23.389C5.58061 23.3356 5.51561 23.2246 5.55311 23.1428C5.58749 23.0591 5.71224 23.0357 5.82761 23.0919C5.94349 23.1453 6.00949 23.2573 5.96936 23.339ZM6.75336 24.0581C6.67736 24.1306 6.52874 24.0969 6.42786 23.9824C6.32361 23.8682 6.30411 23.7155 6.38124 23.6419C6.45961 23.5696 6.60374 23.6034 6.70824 23.7177C6.81249 23.8332 6.83274 23.985 6.75324 24.0582M7.29124 24.9781C7.19349 25.0479 7.03374 24.9825 6.93511 24.8368C6.83749 24.6912 6.83749 24.5164 6.93724 24.4464C7.03624 24.3764 7.19349 24.4393 7.29349 24.5839C7.39099 24.7321 7.39099 24.9068 7.29111 24.9783M8.20074 26.0437C8.11336 26.1427 7.92736 26.1162 7.79111 25.981C7.65186 25.8489 7.61299 25.6615 7.70061 25.5624C7.78899 25.4632 7.97611 25.4911 8.11336 25.6251C8.25174 25.7569 8.29386 25.9458 8.20074 26.0437ZM9.37624 26.4035C9.33786 26.5318 9.15861 26.5901 8.97811 26.5356C8.79786 26.4795 8.67986 26.3291 8.71624 26.1995C8.75374 26.0703 8.93374 26.0096 9.11561 26.0679C9.29561 26.1238 9.41374 26.273 9.37624 26.4035ZM10.7142 26.556C10.7187 26.6912 10.5656 26.8033 10.3761 26.8057C10.1855 26.81 10.0314 26.7006 10.0294 26.5677C10.0294 26.4313 10.179 26.3203 10.3695 26.317C10.559 26.3132 10.7142 26.4218 10.7142 26.556ZM12.0285 26.5043C12.0512 26.6361 11.9195 26.7715 11.7314 26.8075C11.5464 26.8422 11.3751 26.7609 11.3515 26.6302C11.3285 26.495 11.4627 26.3597 11.6474 26.3246C11.8359 26.291 12.0045 26.3702 12.0285 26.5043Z" fill="#161614"/>
</g>
<defs>
<clipPath id="clip0_1039_670">
<rect width="32" height="32" fill="white"/>
</clipPath>
</defs>
</svg>
