<svg width="24" height="24" viewBox="0 0 24 24" fill="none" xmlns="http://www.w3.org/2000/svg">
<g clip-path="url(#clip0_1039_665)">
<path d="M11.215 0.0187206C11.1634 0.0234076 10.9994 0.0398123 10.8517 0.0515299C7.44659 0.358531 4.25706 2.19585 2.23694 5.01979C1.11205 6.58995 0.39259 8.37103 0.120741 10.2576C0.0246571 10.9161 0.0129395 11.1106 0.0129395 12.0035C0.0129395 12.8964 0.0246571 13.0909 0.120741 13.7494C0.77224 18.2513 3.97583 22.0338 8.32072 23.4352C9.09877 23.6859 9.919 23.857 10.8517 23.9601C11.215 24 12.7851 24 13.1484 23.9601C14.7584 23.782 16.1223 23.3836 17.4675 22.697C17.6737 22.5915 17.7136 22.5634 17.6854 22.54C17.6667 22.5259 16.7879 21.3471 15.7333 19.9222L13.8163 17.3327L11.4142 13.7775C10.0924 11.823 9.00503 10.2248 8.99566 10.2248C8.98628 10.2224 8.97691 11.8019 8.97222 13.7307C8.96519 17.1077 8.96285 17.2436 8.92066 17.3233C8.85973 17.4381 8.81286 17.485 8.71443 17.5365C8.63944 17.574 8.57382 17.5811 8.21995 17.5811H7.81452L7.70672 17.5131C7.63641 17.4686 7.58486 17.41 7.5497 17.342L7.50049 17.2366L7.50518 12.5378L7.51221 7.83671L7.58486 7.74531C7.62235 7.6961 7.70203 7.63282 7.75828 7.60236C7.85436 7.55549 7.89186 7.5508 8.29729 7.5508C8.77536 7.5508 8.85504 7.56955 8.97925 7.70547C9.0144 7.74297 10.3151 9.70215 11.8712 12.0621C13.4273 14.422 15.5552 17.6443 16.6004 19.2262L18.4986 22.1017L18.5947 22.0384C19.4454 21.4854 20.3453 20.698 21.0578 19.8777C22.574 18.1365 23.5513 16.0133 23.8794 13.7494C23.9754 13.0909 23.9872 12.8964 23.9872 12.0035C23.9872 11.1106 23.9754 10.9161 23.8794 10.2576C23.2279 5.75566 20.0243 1.97322 15.6794 0.571792C14.913 0.323378 14.0975 0.152301 13.1835 0.0491863C12.9585 0.0257511 11.4095 -2.76063e-05 11.215 0.0187206ZM16.1223 7.26958C16.2348 7.32582 16.3262 7.43362 16.359 7.54611C16.3777 7.60704 16.3824 8.91004 16.3777 11.8465L16.3707 16.0601L15.6278 14.9212L14.8826 13.7822V10.7192C14.8826 8.73896 14.892 7.62579 14.906 7.57189C14.9435 7.44065 15.0255 7.33754 15.138 7.27661C15.2341 7.22739 15.2693 7.2227 15.6372 7.2227C15.984 7.2227 16.045 7.22739 16.1223 7.26958Z" fill="black"/>
<path d="M18.3815 22.1533C18.2994 22.2048 18.2737 22.24 18.3463 22.2001C18.3979 22.1697 18.4822 22.1064 18.4682 22.1041C18.4611 22.1041 18.4213 22.1275 18.3815 22.1533ZM18.2198 22.2587C18.1776 22.2915 18.1776 22.2939 18.2291 22.2681C18.2572 22.2541 18.2807 22.2376 18.2807 22.233C18.2807 22.2142 18.269 22.2189 18.2198 22.2587ZM18.1026 22.329C18.0604 22.3619 18.0604 22.3642 18.1119 22.3384C18.1401 22.3244 18.1635 22.308 18.1635 22.3033C18.1635 22.2845 18.1518 22.2892 18.1026 22.329ZM17.9854 22.3993C17.9432 22.4322 17.9432 22.4345 17.9948 22.4087C18.0229 22.3947 18.0463 22.3783 18.0463 22.3736C18.0463 22.3548 18.0346 22.3595 17.9854 22.3993ZM17.8073 22.4931C17.7182 22.54 17.7229 22.5587 17.812 22.5142C17.8518 22.4931 17.8823 22.472 17.8823 22.4673C17.8823 22.4509 17.8799 22.4532 17.8073 22.4931Z" fill="black"/>
</g>
<defs>
<clipPath id="clip0_1039_665">
<rect width="24" height="24" fill="white"/>
</clipPath>
</defs>
</svg>
