<svg width="32" height="32" viewBox="0 0 32 32" fill="none" xmlns="http://www.w3.org/2000/svg">
<g clip-path="url(#clip0_1039_659)">
<path fill-rule="evenodd" clip-rule="evenodd" d="M0 0H32V32H0V0Z" fill="url(#paint0_linear_1039_659)"/>
<path fill-rule="evenodd" clip-rule="evenodd" d="M24.3344 17.1572L24.488 16.0756C25.904 16.9236 25.9228 17.2744 25.9224 17.2836C25.92 17.286 25.6784 17.4876 24.3344 17.1572ZM23.5572 16.9412C21.1092 16.2 17.7 14.636 16.32 13.984C16.32 13.9784 16.3216 13.9732 16.3216 13.9676C16.3212 13.7127 16.2198 13.4683 16.0395 13.2881C15.8593 13.1079 15.6149 13.0066 15.36 13.0064C14.8304 13.0064 14.3992 13.4376 14.3992 13.9676C14.3992 14.4976 14.8304 14.9288 15.36 14.9288C15.5928 14.9288 15.804 14.842 15.9708 14.704C17.594 15.472 20.9768 17.0136 23.4428 17.7416L22.468 24.624C22.4652 24.6425 22.4639 24.6612 22.464 24.68C22.464 25.2864 19.7812 26.3996 15.3976 26.3996C10.9676 26.3996 8.25635 25.2864 8.25635 24.6804C8.25635 24.662 8.25515 24.644 8.25235 24.626L6.21515 9.74319C7.97875 10.9572 11.772 11.5992 15.4 11.5992C19.0224 11.5992 22.8092 10.9592 24.576 9.74919L23.5572 16.9412ZM5.99995 8.19119C6.02875 7.66479 9.05355 5.59999 15.4 5.59999C21.7456 5.59999 24.7708 7.66399 24.8 8.19119V8.37079C24.452 9.55079 20.532 10.8 15.4 10.8C10.2592 10.8 6.33715 9.54719 5.99995 8.36519V8.19119ZM25.6 8.19999C25.6 6.81399 21.6264 4.79999 15.4 4.79999C9.17355 4.79999 5.19995 6.81399 5.19995 8.19999L5.23755 8.50159L7.45675 24.7112C7.50995 26.524 12.344 27.2 15.3976 27.2C19.1864 27.2 23.2116 26.3288 23.2636 24.712L24.222 17.9536C24.7552 18.0812 25.194 18.1464 25.546 18.1464C26.0196 18.1464 26.3396 18.0304 26.5336 17.7996C26.6113 17.7095 26.6675 17.6029 26.6977 17.4878C26.728 17.3727 26.7315 17.2522 26.708 17.1356C26.604 16.5824 25.9472 15.9856 24.6088 15.222L25.5592 8.51719L25.6 8.19999Z" fill="white"/>
</g>
<defs>
<linearGradient id="paint0_linear_1039_659" x1="8.9407e-06" y1="2560" x2="32" y2="4.77582e-06" gradientUnits="userSpaceOnUse">
<stop stop-color="#1B660F"/>
<stop offset="1" stop-color="#6CAE3E"/>
</linearGradient>
<clipPath id="clip0_1039_659">
<rect width="32" height="32" fill="white"/>
</clipPath>
</defs>
</svg>
