<svg width="32" height="32" viewBox="0 0 32 32" fill="none" xmlns="http://www.w3.org/2000/svg">
<path d="M16 7.02393C11.7334 7.02393 9.06662 9.01865 8 13.008C9.6 11.0132 11.4666 10.2652 13.6 10.764C14.8171 11.0484 15.6871 11.8742 16.6501 12.788C18.2189 14.2769 20.0344 16 24 16C28.2666 16 30.9334 14.0053 32 10.0159C30.4 12.0107 28.5334 12.7587 26.4 12.26C25.1829 11.9755 24.3129 11.1498 23.3499 10.2359C21.7811 8.74703 19.9656 7.02393 16 7.02393ZM8 16C3.73338 16 1.06662 17.9947 0 21.984C1.6 19.9893 3.46662 19.2413 5.6 19.74C6.81712 20.0245 7.68712 20.8502 8.65012 21.7641C10.2189 23.253 12.0344 24.9761 16 24.9761C20.2666 24.9761 22.9334 22.9813 24 18.992C22.4 20.9867 20.5334 21.7347 18.4 21.236C17.1829 20.9516 16.3129 20.1258 15.3499 19.212C13.7811 17.7231 11.9656 16 8 16Z" fill="url(#paint0_linear_2147_1787)"/>
<defs>
<linearGradient id="paint0_linear_2147_1787" x1="-227.574" y1="889.407" x2="-144.653" y2="1884.56" gradientUnits="userSpaceOnUse">
<stop stop-color="#2298BD"/>
<stop offset="1" stop-color="#0ED7B5"/>
</linearGradient>
</defs>
</svg>
