<svg width="126" height="50" viewBox="0 0 126 50" fill="none" xmlns="http://www.w3.org/2000/svg">
<g id="objects" clip-path="url(#clip0_1101_6846)">
<path id="Vector" d="M106.314 22.3882L100.438 25.3104L100.539 24.1275L104.642 19.8103L106.314 22.3882Z" fill="#0753B9"/>
<path id="Vector_2" d="M100.826 17.2778L114.271 29.7441C114.417 29.8791 114.594 29.9758 114.787 30.0255C114.979 30.0752 115.181 30.0763 115.374 30.0287C115.567 29.9811 115.745 29.8863 115.893 29.7529C116.04 29.6195 116.151 29.4517 116.217 29.2646L125.931 1.58861C126.002 1.38402 126.017 1.16381 125.973 0.951626C125.928 0.739441 125.827 0.543296 125.679 0.384257C125.531 0.225217 125.343 0.109291 125.134 0.0489235C124.925 -0.0114439 124.704 -0.0139701 124.493 0.0416159L93.7179 8.19266C93.5111 8.2475 93.3229 8.35658 93.1727 8.50854C93.0226 8.6605 92.9161 8.84979 92.8642 9.0567C92.8124 9.26361 92.8172 9.48059 92.8781 9.68504C92.939 9.88949 93.0537 10.0739 93.2104 10.2192L100.826 17.2778Z" fill="#2F80ED"/>
<path id="Vector_3" d="M121.807 3.96729L104.608 20.7829L100.523 25.2425C100.456 25.3129 100.369 25.3602 100.273 25.3772C100.178 25.3942 100.08 25.3801 99.9928 25.3368C99.9061 25.2936 99.8357 25.2236 99.792 25.1373C99.7484 25.051 99.7339 24.953 99.7507 24.8578L100.897 17.3453L121.807 3.96729Z" fill="#196BDA"/>
<path id="Vector_4" d="M0.193025 46.6727C0.169473 46.6729 0.146114 46.6685 0.124192 46.6599C0.0764476 46.6417 0.0379127 46.6053 0.017047 46.5588C-0.00381875 46.5123 -0.00530971 46.4594 0.0129012 46.4118C0.0843075 46.2272 0.157643 46.0406 0.231623 45.8585C0.251696 45.8125 0.289 45.7762 0.335583 45.7572C0.382166 45.7382 0.434342 45.7382 0.480991 45.757C0.527639 45.7758 0.565069 45.812 0.585301 45.8579C0.605533 45.9038 0.606967 45.9558 0.589298 46.0028C0.516605 46.1829 0.443912 46.3669 0.373793 46.5497C0.359718 46.586 0.334898 46.6172 0.302618 46.6392C0.270338 46.6612 0.23212 46.6729 0.193025 46.6727ZM42.757 46.5259H42.7448C42.4804 46.5093 42.2115 46.4823 41.9451 46.4452C41.8952 46.4372 41.8503 46.4101 41.8202 46.3695C41.7902 46.3289 41.7773 46.2782 41.7844 46.2283C41.7915 46.1783 41.8179 46.1332 41.8581 46.1025C41.8983 46.0718 41.9489 46.0581 41.9992 46.0643C42.2565 46.1002 42.5138 46.1284 42.7711 46.1419C42.7965 46.1427 42.8214 46.1484 42.8445 46.1588C42.8677 46.1691 42.8885 46.1839 42.9059 46.2023C42.9233 46.2207 42.9369 46.2423 42.9459 46.266C42.9549 46.2896 42.9591 46.3148 42.9583 46.34C42.9576 46.3653 42.9518 46.3901 42.9414 46.4132C42.931 46.4362 42.9162 46.457 42.8977 46.4743C42.8793 46.4916 42.8576 46.5052 42.8338 46.5141C42.8101 46.5231 42.7849 46.5273 42.7596 46.5266L42.757 46.5259ZM44.7242 46.4484C44.6988 46.4501 44.6734 46.4469 44.6493 46.4389C44.6252 46.4308 44.6029 46.4182 44.5838 46.4015C44.545 46.368 44.5213 46.3205 44.5177 46.2695C44.5141 46.2185 44.531 46.1681 44.5647 46.1295C44.5983 46.091 44.646 46.0673 44.6972 46.0637C44.9493 46.0284 45.206 45.9829 45.4588 45.9271C45.5089 45.9163 45.5613 45.9256 45.6044 45.9532C45.6475 45.9808 45.6779 46.0244 45.6888 46.0743C45.6997 46.1242 45.6903 46.1764 45.6626 46.2193C45.6349 46.2623 45.5913 46.2926 45.5412 46.3035C45.2787 46.3605 45.013 46.408 44.7512 46.4452C44.7423 46.4469 44.7333 46.4479 44.7242 46.4484ZM40.0551 45.9996C40.0348 45.9995 40.0146 45.9963 39.9953 45.99C39.7457 45.9085 39.4922 45.8175 39.2426 45.7181C39.1976 45.6977 39.1622 45.6607 39.1437 45.6149C39.1252 45.5692 39.1251 45.5181 39.1433 45.4722C39.1616 45.4264 39.1968 45.3892 39.2418 45.3686C39.2867 45.3479 39.3379 45.3452 39.3848 45.361C39.6273 45.4566 39.8731 45.5457 40.1149 45.6245C40.1585 45.6388 40.1956 45.6681 40.2194 45.7071C40.2433 45.7461 40.2525 45.7923 40.2453 45.8374C40.2381 45.8826 40.215 45.9237 40.1801 45.9534C40.1453 45.9831 40.101 45.9995 40.0551 45.9996ZM47.3784 45.7207C47.3336 45.7209 47.2901 45.7055 47.2554 45.6772C47.2207 45.6489 47.197 45.6094 47.1883 45.5656C47.1796 45.5217 47.1865 45.4763 47.2079 45.4369C47.2292 45.3976 47.2636 45.3669 47.3051 45.3501C47.5412 45.2533 47.7799 45.1463 48.0127 45.0296C48.0356 45.0176 48.0606 45.0104 48.0864 45.0082C48.1121 45.0061 48.138 45.0091 48.1625 45.0171C48.1871 45.0251 48.2098 45.038 48.2292 45.0549C48.2487 45.0718 48.2645 45.0924 48.2759 45.1155C48.2872 45.1387 48.2937 45.1638 48.2951 45.1895C48.2965 45.2152 48.2927 45.2409 48.284 45.2651C48.2752 45.2893 48.2617 45.3116 48.2441 45.3305C48.2266 45.3493 48.2055 45.3645 48.1819 45.3751C47.9413 45.4925 47.6956 45.6027 47.4518 45.7028C47.4286 45.7131 47.4038 45.7189 47.3784 45.7201V45.7207ZM37.536 44.8873C37.503 44.887 37.4707 44.8784 37.442 44.8623C37.2137 44.734 36.9827 44.5994 36.755 44.459C36.7331 44.4458 36.7141 44.4285 36.6991 44.408C36.684 44.3874 36.6732 44.3641 36.6672 44.3394C36.6612 44.3147 36.6602 44.289 36.6643 44.2639C36.6683 44.2388 36.6773 44.2147 36.6908 44.1931C36.7042 44.1715 36.7218 44.1527 36.7426 44.1379C36.7634 44.1231 36.7869 44.1126 36.8117 44.1069C36.8366 44.1012 36.8624 44.1005 36.8875 44.1048C36.9127 44.1092 36.9367 44.1184 36.9583 44.132C37.1815 44.2692 37.4086 44.4026 37.6305 44.527C37.6679 44.5477 37.6973 44.5803 37.714 44.6195C37.7308 44.6587 37.734 44.7024 37.7232 44.7436C37.7124 44.7848 37.6881 44.8213 37.6542 44.8473C37.6203 44.8733 37.5787 44.8874 37.536 44.8873ZM59.376 44.5513C59.3248 44.5513 59.2757 44.5311 59.2395 44.495C59.2033 44.4589 59.183 44.41 59.183 44.359C59.183 44.308 59.2033 44.2591 59.2395 44.223C59.2757 44.1869 59.3248 44.1667 59.376 44.1667C59.6333 44.1667 59.8958 44.1602 60.157 44.1487C60.2082 44.1465 60.2581 44.1646 60.2959 44.1991C60.3336 44.2337 60.3561 44.2817 60.3583 44.3327C60.3605 44.3837 60.3423 44.4335 60.3077 44.4711C60.2731 44.5088 60.2249 44.5312 60.1737 44.5334C59.9074 44.5449 59.6391 44.5507 59.3766 44.5513H59.376ZM57.4081 44.4455C57.4009 44.4462 57.3935 44.4462 57.3863 44.4455C57.2299 44.4282 57.0711 44.4084 56.9147 44.3866C56.8079 44.3718 56.7012 44.3558 56.5931 44.3385C56.5681 44.3343 56.5441 44.3252 56.5227 44.3118C56.5012 44.2983 56.4826 44.2808 56.4679 44.2602C56.4532 44.2396 56.4427 44.2163 56.437 44.1917C56.4314 44.1671 56.4306 44.1416 56.4348 44.1167C56.4391 44.0917 56.4482 44.0679 56.4616 44.0465C56.4751 44.0251 56.4927 44.0065 56.5133 43.9918C56.534 43.9772 56.5574 43.9668 56.5821 43.9611C56.6068 43.9555 56.6324 43.9547 56.6574 43.9589C56.761 43.9756 56.8652 43.991 56.9688 44.0057C57.1219 44.0269 57.2769 44.0468 57.4294 44.0634C57.4806 44.0662 57.5286 44.089 57.5628 44.127C57.5971 44.165 57.6148 44.215 57.6121 44.266C57.6093 44.317 57.5864 44.3649 57.5483 44.399C57.5101 44.4332 57.46 44.4508 57.4088 44.4481L57.4081 44.4455ZM49.7998 44.4116C49.7586 44.4116 49.7184 44.3984 49.6852 44.374C49.6519 44.3496 49.6274 44.3152 49.6153 44.2759C49.6031 44.2366 49.6039 44.1944 49.6176 44.1556C49.6312 44.1168 49.657 44.0834 49.6911 44.0602C49.9028 43.916 50.115 43.7628 50.3222 43.6057C50.3421 43.5888 50.3653 43.5762 50.3903 43.5685C50.4154 43.5608 50.4417 43.5583 50.4677 43.5611C50.4937 43.5639 50.5189 43.5719 50.5417 43.5847C50.5645 43.5975 50.5845 43.6148 50.6004 43.6355C50.6163 43.6562 50.6278 43.6799 50.6342 43.7052C50.6406 43.7305 50.6418 43.7568 50.6376 43.7826C50.6335 43.8083 50.6242 43.833 50.6102 43.855C50.5962 43.8771 50.5779 43.8961 50.5564 43.9109C50.3441 44.0724 50.126 44.2314 49.9085 44.3776C49.8763 44.3985 49.8383 44.409 49.7998 44.4077V44.4116ZM62.1274 44.3558C62.1021 44.3575 62.0766 44.3542 62.0526 44.346C62.0285 44.3379 62.0063 44.3252 61.9872 44.3085C61.968 44.2918 61.9524 44.2716 61.9412 44.2489C61.9299 44.2262 61.9232 44.2015 61.9215 44.1763C61.9198 44.151 61.9232 44.1257 61.9313 44.1017C61.9394 44.0777 61.9522 44.0556 61.969 44.0365C61.9857 44.0175 62.006 44.0019 62.0288 43.9907C62.0516 43.9794 62.0763 43.9728 62.1017 43.9711C62.359 43.9365 62.6163 43.8967 62.8736 43.8531C62.9229 43.8471 62.9727 43.8602 63.0126 43.8898C63.0524 43.9194 63.0793 43.9631 63.0876 44.0119C63.0959 44.0608 63.0849 44.1109 63.0571 44.1519C63.0292 44.1929 62.9865 44.2216 62.938 44.232C62.6742 44.2769 62.4098 44.3173 62.1518 44.3519C62.1437 44.3525 62.1355 44.3525 62.1274 44.3519V44.3558ZM1.20687 44.3308C1.17769 44.3307 1.14891 44.3241 1.12259 44.3115C1.07668 44.2893 1.04149 44.2498 1.02473 44.2017C1.00797 44.1537 1.01101 44.1009 1.03317 44.0551C1.14833 43.8179 1.26734 43.5794 1.38828 43.3499C1.39919 43.3262 1.41481 43.3051 1.43418 43.2876C1.45355 43.2702 1.47628 43.2568 1.50097 43.2484C1.52567 43.2399 1.55183 43.2366 1.57787 43.2385C1.60391 43.2404 1.62928 43.2476 1.65246 43.2596C1.67563 43.2716 1.69613 43.2881 1.7127 43.3082C1.72928 43.3283 1.74159 43.3516 1.74888 43.3766C1.75618 43.4015 1.75832 43.4277 1.75516 43.4536C1.752 43.4794 1.74362 43.5043 1.73051 43.5268C1.61215 43.7551 1.49442 43.9897 1.38056 44.2244C1.36403 44.2556 1.3392 44.2817 1.30879 44.2997C1.27839 44.3178 1.24357 44.3272 1.20815 44.3269L1.20687 44.3308ZM54.7018 43.8993C54.6832 43.8993 54.6648 43.8965 54.6471 43.891C54.3936 43.8166 54.1382 43.7345 53.8874 43.6467C53.8635 43.6383 53.8414 43.6253 53.8226 43.6084C53.8037 43.5915 53.7884 43.571 53.7775 43.5482C53.7665 43.5254 53.7602 43.5007 53.7589 43.4755C53.7575 43.4503 53.7612 43.425 53.7696 43.4012C53.7781 43.3773 53.7912 43.3554 53.8081 43.3366C53.8251 43.3178 53.8456 43.3025 53.8685 43.2917C53.8913 43.2808 53.9161 43.2745 53.9415 43.2731C53.9668 43.2718 53.9921 43.2754 54.016 43.2838C54.2605 43.3691 54.5101 43.4493 54.7571 43.5223C54.8018 43.5353 54.8402 43.5639 54.8654 43.6029C54.8905 43.6419 54.9007 43.6886 54.8941 43.7345C54.8874 43.7804 54.8644 43.8223 54.8292 43.8526C54.7939 43.8829 54.7489 43.8995 54.7024 43.8993H54.7018ZM64.835 43.8352C64.7881 43.8349 64.7428 43.8175 64.7077 43.7863C64.6727 43.7552 64.6503 43.7123 64.6447 43.6658C64.6391 43.6193 64.6507 43.5724 64.6773 43.5338C64.7039 43.4952 64.7438 43.4677 64.7894 43.4563C65.037 43.396 65.2924 43.3281 65.5485 43.264C65.5731 43.2569 65.5989 43.2547 65.6243 43.2576C65.6498 43.2606 65.6744 43.2685 65.6967 43.281C65.7191 43.2935 65.7387 43.3103 65.7545 43.3305C65.7702 43.3506 65.7818 43.3737 65.7885 43.3984C65.7952 43.423 65.7969 43.4487 65.7935 43.4741C65.7901 43.4994 65.7817 43.5238 65.7688 43.5458C65.7559 43.5679 65.7386 43.5871 65.7181 43.6025C65.6977 43.6178 65.6743 43.6289 65.6495 43.6352C65.3921 43.7051 65.1348 43.7711 64.8814 43.8326C64.8668 43.8341 64.8521 43.8339 64.8376 43.832L64.835 43.8352ZM35.231 43.3717C35.189 43.3716 35.1481 43.3579 35.1146 43.3326C34.9081 43.1761 34.6977 43.012 34.4886 42.8434C34.4514 42.8106 34.4284 42.7647 34.4243 42.7153C34.4202 42.666 34.4353 42.617 34.4666 42.5784C34.4978 42.5399 34.5428 42.5149 34.5921 42.5086C34.6413 42.5024 34.6912 42.5152 34.7312 42.5446C34.937 42.7101 35.1442 42.8723 35.3475 43.0261C35.3796 43.0505 35.4033 43.0842 35.4152 43.1227C35.4271 43.1612 35.4266 43.2024 35.4137 43.2406C35.4009 43.2787 35.3763 43.3119 35.3436 43.3354C35.3108 43.359 35.2714 43.3716 35.231 43.3717ZM67.488 43.0742C67.4422 43.0741 67.3978 43.0577 67.363 43.028C67.3281 42.9983 67.3051 42.9572 67.2979 42.9121C67.2907 42.8669 67.2998 42.8207 67.3237 42.7817C67.3476 42.7427 67.3846 42.7134 67.4282 42.6992C67.6701 42.6203 67.9203 42.5357 68.1725 42.4491C68.2209 42.4321 68.274 42.435 68.3203 42.457C68.3666 42.4791 68.4021 42.5186 68.4192 42.5668C68.4363 42.615 68.4334 42.668 68.4113 42.7141C68.3891 42.7602 68.3495 42.7956 68.3011 42.8126C68.0438 42.9005 67.7942 42.9851 67.5504 43.0646C67.5309 43.0698 67.5107 43.0719 67.4906 43.071L67.488 43.0742ZM52.135 42.8979C52.1053 42.8979 52.0761 42.8911 52.0495 42.878C51.8114 42.7607 51.5741 42.6363 51.3418 42.5075C51.3197 42.4951 51.3002 42.4786 51.2845 42.4587C51.2688 42.4389 51.2571 42.4162 51.2502 42.3919C51.2433 42.3675 51.2413 42.3421 51.2443 42.317C51.2472 42.2919 51.2551 42.2676 51.2675 42.2456C51.2799 42.2235 51.2965 42.2041 51.3164 42.1884C51.3363 42.1728 51.3591 42.1612 51.3835 42.1543C51.4079 42.1474 51.4335 42.1454 51.4586 42.1484C51.4838 42.1513 51.5082 42.1592 51.5303 42.1715C51.6191 42.2207 51.7087 42.2694 51.7992 42.3177C51.9787 42.1408 52.1562 41.9568 52.3274 41.7715C52.3625 41.7363 52.4099 41.716 52.4597 41.7149C52.5095 41.7137 52.5578 41.7318 52.5945 41.7653C52.6313 41.7989 52.6535 41.8453 52.6567 41.8948C52.6599 41.9443 52.6438 41.9932 52.6117 42.0311C52.465 42.1908 52.3132 42.3517 52.1614 42.503L52.2219 42.5331C52.2609 42.5523 52.2923 42.5842 52.3109 42.6234C52.3295 42.6627 52.3343 42.7071 52.3243 42.7493C52.3144 42.7916 52.2904 42.8293 52.2563 42.8563C52.2222 42.8833 52.1799 42.8979 52.1363 42.8979H52.135ZM70.087 42.1459C70.0419 42.1459 69.9982 42.1302 69.9635 42.1015C69.9288 42.0728 69.9053 42.0329 69.897 41.9888C69.8888 41.9446 69.8963 41.8989 69.9183 41.8597C69.9403 41.8205 69.9754 41.7902 70.0175 41.774C70.2628 41.6796 70.507 41.5843 70.7502 41.4881C70.7739 41.4777 70.7995 41.4721 70.8254 41.4718C70.8514 41.4714 70.8771 41.4763 70.9011 41.4861C70.9251 41.4958 70.9469 41.5103 70.9651 41.5287C70.9834 41.547 70.9977 41.5689 71.0073 41.5929C71.0169 41.6169 71.0216 41.6426 71.021 41.6684C71.0204 41.6942 71.0146 41.7197 71.0039 41.7432C70.9933 41.7668 70.978 41.788 70.9589 41.8055C70.9398 41.823 70.9174 41.8365 70.893 41.8452C70.6485 41.9418 70.403 42.0377 70.1564 42.1331C70.1348 42.14 70.1122 42.1433 70.0895 42.1427L70.087 42.1459ZM2.53013 41.9151C2.49422 41.9151 2.45902 41.9051 2.42849 41.8862C2.40679 41.8731 2.38791 41.8558 2.37293 41.8354C2.35795 41.8149 2.34716 41.7918 2.34118 41.7672C2.3352 41.7426 2.33416 41.717 2.3381 41.692C2.34205 41.667 2.3509 41.643 2.36416 41.6215C2.5044 41.3964 2.64915 41.1727 2.79389 40.9553C2.80791 40.9343 2.82596 40.9162 2.847 40.9021C2.86803 40.888 2.89165 40.8782 2.9165 40.8732C2.94135 40.8682 2.96695 40.8681 2.99183 40.873C3.01671 40.8778 3.04038 40.8875 3.0615 40.9015C3.08262 40.9155 3.10077 40.9335 3.11492 40.9544C3.12906 40.9754 3.13893 40.9989 3.14394 41.0237C3.14896 41.0485 3.14904 41.074 3.14416 41.0988C3.13929 41.1236 3.12956 41.1471 3.11554 41.1682C2.97273 41.3817 2.83056 41.6022 2.69225 41.824C2.67511 41.8516 2.65127 41.8744 2.62293 41.8903C2.59458 41.9062 2.56267 41.9148 2.53013 41.9151ZM33.1197 41.5945C33.072 41.5941 33.0262 41.576 32.991 41.5439C32.8058 41.3753 32.6154 41.1996 32.4121 41.0079C32.3747 40.973 32.3528 40.9247 32.3512 40.8736C32.3495 40.8226 32.3683 40.773 32.4034 40.7358C32.4384 40.6985 32.4869 40.6767 32.5381 40.6751C32.5893 40.6735 32.6391 40.6922 32.6765 40.7271C32.8804 40.9194 33.0689 41.0925 33.2554 41.2599C33.2842 41.2859 33.3044 41.32 33.3134 41.3577C33.3224 41.3953 33.3197 41.4349 33.3058 41.471C33.2919 41.5072 33.2674 41.5383 33.2355 41.5603C33.2035 41.5824 33.1656 41.5943 33.1268 41.5945H33.1197ZM49.7773 41.4663C49.7364 41.4663 49.6965 41.4532 49.6635 41.4291C49.4492 41.2733 49.2363 41.1086 49.0304 40.9444C49.0107 40.9286 48.9943 40.909 48.9822 40.8868C48.9701 40.8646 48.9624 40.8403 48.9597 40.8151C48.9571 40.79 48.9594 40.7646 48.9665 40.7404C48.9737 40.7161 48.9856 40.6936 49.0015 40.6739C49.0174 40.6542 49.0371 40.6379 49.0593 40.6258C49.0816 40.6137 49.106 40.6061 49.1312 40.6034C49.1564 40.6008 49.1819 40.6031 49.2063 40.6102C49.2306 40.6173 49.2532 40.6292 49.273 40.6451C49.4737 40.8073 49.6815 40.9656 49.8905 41.1182C49.9236 41.142 49.9482 41.1757 49.9608 41.2143C49.9735 41.253 49.9735 41.2946 49.9609 41.3333C49.9484 41.3719 49.9238 41.4056 49.8908 41.4295C49.8578 41.4534 49.8181 41.4663 49.7773 41.4663ZM72.6499 41.1111C72.6052 41.1113 72.5619 41.0959 72.5273 41.0678C72.4927 41.0396 72.4689 41.0004 72.4601 40.9567C72.4513 40.9131 72.458 40.8677 72.479 40.8284C72.5 40.7891 72.534 40.7583 72.5752 40.7412C72.8178 40.6406 73.059 40.5386 73.3009 40.436C73.3243 40.4257 73.3495 40.4202 73.375 40.4196C73.4006 40.4191 73.426 40.4237 73.4498 40.433C73.4736 40.4424 73.4953 40.4564 73.5136 40.4741C73.5319 40.4919 73.5465 40.5131 73.5565 40.5366C73.5665 40.56 73.5718 40.5852 73.5719 40.6107C73.5721 40.6362 73.5672 40.6615 73.5575 40.685C73.5477 40.7086 73.5334 40.73 73.5153 40.748C73.4972 40.766 73.4757 40.7803 73.452 40.7899C73.2102 40.8925 72.9677 40.9947 72.7245 41.0964C72.7008 41.1062 72.6755 41.1112 72.6499 41.1111ZM53.7175 40.5681C53.6769 40.5681 53.6372 40.5553 53.6043 40.5316C53.5838 40.5168 53.5664 40.4981 53.5531 40.4765C53.5398 40.455 53.5309 40.4311 53.5269 40.4062C53.5229 40.3812 53.5239 40.3557 53.5298 40.3312C53.5357 40.3066 53.5463 40.2834 53.5612 40.2629C53.7124 40.0552 53.861 39.8398 54.0038 39.6218C54.0334 39.5831 54.0767 39.5571 54.1249 39.5489C54.173 39.5408 54.2225 39.5511 54.2633 39.5779C54.3041 39.6046 54.3332 39.6458 54.3447 39.6931C54.3563 39.7404 54.3494 39.7903 54.3255 39.8328C54.1794 40.0546 54.027 40.2745 53.8751 40.4873C53.8572 40.5125 53.8334 40.5329 53.8059 40.547C53.7784 40.561 53.7478 40.5683 53.7169 40.5681H53.7175ZM75.1845 40.0206C75.1403 40.0206 75.0974 40.0054 75.0631 39.9777C75.0287 39.95 75.005 39.9113 74.9958 39.8683C74.9866 39.8252 74.9925 39.7803 75.0126 39.741C75.0326 39.7018 75.0656 39.6705 75.106 39.6526C75.3461 39.5462 75.5857 39.4393 75.8245 39.3321C75.8712 39.311 75.9244 39.3092 75.9723 39.3272C76.0203 39.3452 76.0591 39.3814 76.0803 39.4279C76.1014 39.4744 76.1032 39.5274 76.0851 39.5752C76.0671 39.623 76.0307 39.6617 75.9841 39.6827C75.7439 39.7905 75.5035 39.8973 75.2629 40.0033C75.2382 40.0148 75.2111 40.0207 75.1838 40.0206H75.1845ZM31.1184 39.7039C31.0685 39.7039 31.0205 39.6846 30.9846 39.6501L30.4166 39.1051C30.3974 39.0878 30.382 39.0669 30.3711 39.0436C30.3602 39.0203 30.3542 38.995 30.3532 38.9693C30.3523 38.9436 30.3566 38.918 30.3658 38.894C30.375 38.87 30.3889 38.848 30.4068 38.8295C30.4246 38.8109 30.446 38.7961 30.4697 38.7859C30.4934 38.7758 30.5189 38.7704 30.5447 38.7702C30.5705 38.77 30.5961 38.775 30.62 38.7849C30.6438 38.7947 30.6654 38.8092 30.6835 38.8275C30.8765 39.0089 31.0631 39.191 31.2528 39.3731C31.2806 39.3997 31.2997 39.434 31.3077 39.4716C31.3157 39.5091 31.3123 39.5482 31.2978 39.5838C31.2833 39.6194 31.2585 39.6498 31.2265 39.6712C31.1946 39.6926 31.1569 39.704 31.1184 39.7039ZM4.12166 39.6686C4.07791 39.6685 4.03549 39.6536 4.00136 39.6263C3.9616 39.5944 3.93616 39.5481 3.93062 39.4975C3.92507 39.4469 3.93987 39.3962 3.97177 39.3564C4.13774 39.15 4.30886 38.9455 4.48126 38.7474C4.49759 38.7274 4.51778 38.7109 4.54062 38.6989C4.56346 38.6868 4.5885 38.6795 4.61425 38.6773C4.64 38.675 4.66593 38.678 4.69051 38.686C4.71509 38.6939 4.73782 38.7067 4.75734 38.7236C4.77686 38.7405 4.79278 38.7611 4.80416 38.7842C4.81553 38.8073 4.82213 38.8325 4.82356 38.8582C4.82499 38.8839 4.82123 38.9097 4.81249 38.9339C4.80375 38.9582 4.79021 38.9804 4.77268 38.9993C4.60349 39.1917 4.43559 39.3949 4.27283 39.5968C4.2546 39.6194 4.23147 39.6376 4.20518 39.6501C4.17889 39.6625 4.15012 39.6689 4.12102 39.6686H4.12166ZM47.7014 39.6635C47.6753 39.6636 47.6495 39.6584 47.6255 39.6483C47.6015 39.6381 47.5799 39.6232 47.5618 39.6045C47.3778 39.4122 47.1964 39.2154 47.0233 39.0166C46.9898 38.978 46.9731 38.9277 46.9767 38.8768C46.9804 38.8259 47.0042 38.7785 47.043 38.7451C47.0817 38.7117 47.1322 38.695 47.1833 38.6987C47.2343 38.7023 47.2819 38.7261 47.3154 38.7647C47.484 38.957 47.6602 39.1493 47.8403 39.3378C47.858 39.3561 47.8718 39.3776 47.881 39.4012C47.8903 39.4248 47.8948 39.4499 47.8942 39.4753C47.8937 39.5006 47.8881 39.5255 47.8779 39.5487C47.8677 39.5719 47.8529 39.5928 47.8345 39.6103C47.7985 39.6446 47.7506 39.6637 47.7007 39.6635H47.7014ZM77.6953 38.8756C77.6512 38.8758 77.6085 38.861 77.574 38.8337C77.5396 38.8063 77.5156 38.7681 77.506 38.7253C77.4964 38.6824 77.5017 38.6376 77.5212 38.5983C77.5406 38.5589 77.573 38.5274 77.6129 38.5089C77.8501 38.3973 78.086 38.2851 78.3205 38.1723C78.3434 38.1614 78.3683 38.1551 78.3936 38.1537C78.4189 38.1524 78.4443 38.1561 78.4682 38.1645C78.4921 38.1729 78.5142 38.1859 78.533 38.2028C78.5519 38.2198 78.5673 38.2402 78.5782 38.263C78.5891 38.2858 78.5955 38.3106 78.5968 38.3358C78.5982 38.3611 78.5945 38.3863 78.586 38.4102C78.5776 38.434 78.5645 38.456 78.5475 38.4748C78.5306 38.4936 78.5101 38.5089 78.4872 38.5198C78.2496 38.6326 78.0118 38.745 77.7737 38.857C77.7491 38.8689 77.722 38.8753 77.6946 38.8756H77.6953ZM55.1521 38.2217C55.1191 38.2216 55.0867 38.2132 55.0579 38.1971C55.0291 38.181 55.005 38.1578 54.9878 38.1298C54.9705 38.1017 54.9608 38.0698 54.9595 38.0369C54.9582 38.0041 54.9654 37.9714 54.9803 37.9421C55.0974 37.712 55.2106 37.4761 55.3181 37.2408C55.328 37.217 55.3426 37.1954 55.3611 37.1773C55.3795 37.1593 55.4015 37.1451 55.4255 37.1356C55.4496 37.1262 55.4753 37.1216 55.5012 37.1223C55.5271 37.123 55.5525 37.1288 55.5761 37.1395C55.5996 37.1501 55.6208 37.1654 55.6383 37.1844C55.6558 37.2033 55.6693 37.2256 55.678 37.2499C55.6867 37.2742 55.6904 37.3 55.6889 37.3257C55.6874 37.3515 55.6808 37.3766 55.6693 37.3998C55.5599 37.6402 55.4441 37.8812 55.3245 38.1159C55.3084 38.1477 55.2838 38.1744 55.2533 38.1931C55.2229 38.2118 55.1878 38.2217 55.1521 38.2217ZM29.11 37.8158C29.0624 37.8156 29.0166 37.7977 28.9814 37.7658C28.7813 37.585 28.5838 37.4107 28.3947 37.2465C28.3746 37.2303 28.3581 37.2102 28.346 37.1874C28.3339 37.1646 28.3265 37.1397 28.3243 37.114C28.3221 37.0883 28.325 37.0625 28.333 37.038C28.341 37.0135 28.3539 36.9909 28.3708 36.9714C28.3877 36.9519 28.4084 36.9361 28.4316 36.9247C28.4548 36.9134 28.4801 36.9068 28.5059 36.9054C28.5317 36.904 28.5575 36.9077 28.5818 36.9164C28.6062 36.9252 28.6285 36.9386 28.6475 36.9561C28.8405 37.1222 29.0386 37.2985 29.2406 37.4805C29.2696 37.5065 29.29 37.5407 29.2991 37.5785C29.3083 37.6162 29.3057 37.6559 29.2918 37.6922C29.2778 37.7285 29.2532 37.7598 29.2211 37.7818C29.189 37.8039 29.1509 37.8158 29.1119 37.8158H29.11ZM80.1765 37.6761C80.1328 37.6763 80.0905 37.6617 80.0562 37.6348C80.0219 37.6078 79.9979 37.5702 79.9879 37.5278C79.9779 37.4855 79.9825 37.4411 80.0011 37.4017C80.0197 37.3624 80.0512 37.3305 80.0903 37.3113C80.3249 37.1955 80.5594 37.0784 80.794 36.96C80.8167 36.9476 80.8417 36.94 80.8674 36.9374C80.8931 36.9349 80.919 36.9375 80.9437 36.9451C80.9684 36.9528 80.9913 36.9653 81.011 36.9819C81.0308 36.9985 81.0469 37.0189 81.0586 37.0419C81.0703 37.0649 81.0772 37.0899 81.079 37.1156C81.0807 37.1413 81.0773 37.1671 81.0689 37.1915C81.0605 37.2158 81.0473 37.2382 81.03 37.2574C81.0127 37.2765 80.9918 37.292 80.9684 37.303C80.7338 37.4213 80.4979 37.5391 80.2607 37.6562C80.2345 37.6691 80.2057 37.6759 80.1765 37.6761ZM5.98787 37.6485C5.94911 37.6486 5.91121 37.6371 5.8791 37.6155C5.84699 37.5938 5.82217 37.563 5.80787 37.5271C5.79357 37.4912 5.79045 37.4519 5.79892 37.4142C5.80739 37.3765 5.82706 37.3422 5.85535 37.3158C6.04834 37.1343 6.24841 36.9555 6.44719 36.7843C6.48611 36.7524 6.53598 36.737 6.58615 36.7413C6.63632 36.7456 6.68283 36.7693 6.71574 36.8072C6.74865 36.8452 6.76536 36.8945 6.7623 36.9446C6.75924 36.9947 6.73665 37.0416 6.69936 37.0754C6.50637 37.2427 6.30952 37.4184 6.12039 37.5959C6.08523 37.6291 6.03884 37.6478 5.99045 37.6485H5.98787ZM45.9786 37.5158C45.9465 37.5159 45.9148 37.508 45.8865 37.4927C45.8582 37.4775 45.8341 37.4555 45.8165 37.4286C45.6705 37.2068 45.5296 36.9798 45.3977 36.7503C45.3721 36.7061 45.3652 36.6536 45.3785 36.6043C45.3918 36.555 45.4241 36.513 45.4685 36.4875C45.5128 36.462 45.5656 36.4551 45.615 36.4683C45.6645 36.4815 45.7067 36.5138 45.7322 36.558C45.8609 36.7798 45.9979 37.0023 46.1395 37.2183C46.1584 37.2473 46.1692 37.2808 46.1707 37.3154C46.1721 37.3499 46.1642 37.3842 46.1478 37.4147C46.1313 37.4452 46.1069 37.4706 46.0771 37.4884C46.0474 37.5062 46.0133 37.5157 45.9786 37.5158ZM82.6345 36.4259C82.5913 36.4261 82.5492 36.4118 82.5151 36.3853C82.4809 36.3588 82.4567 36.3216 82.4464 36.2798C82.436 36.2379 82.44 36.1938 82.4578 36.1545C82.4756 36.1152 82.5061 36.083 82.5445 36.0631C82.7769 35.9412 83.0089 35.819 83.2405 35.6963C83.2629 35.6832 83.2878 35.6747 83.3136 35.6714C83.3394 35.668 83.3657 35.67 83.3907 35.677C83.4157 35.684 83.4391 35.696 83.4594 35.7123C83.4797 35.7286 83.4964 35.7487 83.5087 35.7716C83.5209 35.7945 83.5284 35.8196 83.5306 35.8455C83.5329 35.8713 83.5299 35.8974 83.5218 35.922C83.5137 35.9466 83.5006 35.9694 83.4835 35.9889C83.4663 36.0084 83.4454 36.0243 83.4219 36.0355C83.1899 36.159 82.9572 36.2817 82.7239 36.4035C82.697 36.4169 82.6672 36.4237 82.6371 36.4234L82.6345 36.4259ZM26.9891 36.0579C26.9473 36.0579 26.9067 36.0444 26.8733 36.0195C26.6616 35.8611 26.4487 35.7079 26.2402 35.5636C26.2193 35.5492 26.2013 35.5308 26.1875 35.5094C26.1736 35.4881 26.1641 35.4642 26.1595 35.4392C26.1549 35.4142 26.1553 35.3886 26.1607 35.3637C26.166 35.3388 26.1762 35.3153 26.1907 35.2944C26.2052 35.2734 26.2237 35.2556 26.2451 35.2418C26.2665 35.228 26.2905 35.2185 26.3155 35.2139C26.3406 35.2093 26.3664 35.2097 26.3913 35.2151C26.4163 35.2204 26.4399 35.2306 26.4609 35.245C26.6732 35.3918 26.89 35.5482 27.1042 35.7092C27.1366 35.7334 27.1605 35.7671 27.1726 35.8057C27.1847 35.8442 27.1843 35.8855 27.1715 35.9238C27.1587 35.9621 27.1341 35.9955 27.1012 36.0191C27.0684 36.0427 27.0289 36.0554 26.9884 36.0554L26.9891 36.0579ZM8.13585 35.9252C8.09476 35.925 8.05479 35.9118 8.02177 35.8874C7.98875 35.863 7.96441 35.8288 7.95228 35.7897C7.94014 35.7505 7.94086 35.7086 7.95433 35.6699C7.96779 35.6312 7.9933 35.5978 8.02713 35.5745C8.24586 35.4251 8.47101 35.279 8.69488 35.1405C8.73837 35.1143 8.79047 35.1063 8.83987 35.1181C8.88927 35.13 8.932 35.1607 8.95876 35.2038C8.98553 35.2468 8.99417 35.2987 8.98283 35.348C8.97148 35.3974 8.94106 35.4403 8.89816 35.4675C8.6788 35.6027 8.45943 35.7457 8.24521 35.8919C8.21268 35.9128 8.17458 35.9236 8.13585 35.9226V35.9252ZM56.2097 35.6854C56.1893 35.6855 56.1691 35.682 56.1498 35.6752C56.1012 35.6593 56.0609 35.6249 56.0378 35.5795C56.0146 35.534 56.0105 35.4813 56.0263 35.4328C56.1074 35.1879 56.1839 34.9373 56.2541 34.6885C56.2609 34.6642 56.2726 34.6414 56.2883 34.6216C56.304 34.6017 56.3235 34.5852 56.3456 34.5728C56.3677 34.5605 56.3921 34.5526 56.4173 34.5496C56.4425 34.5466 56.468 34.5486 56.4924 34.5555C56.5168 34.5623 56.5396 34.5739 56.5596 34.5896C56.5795 34.6052 56.5961 34.6246 56.6085 34.6467C56.6209 34.6688 56.6288 34.693 56.6318 34.7181C56.6348 34.7432 56.6328 34.7687 56.6259 34.793C56.5538 35.0495 56.476 35.3027 56.393 35.5527C56.38 35.5908 56.3552 35.6239 56.3224 35.6472C56.2895 35.6705 56.2501 35.683 56.2097 35.6829V35.6854ZM85.0656 35.1174C85.0227 35.1175 84.981 35.1034 84.9471 35.0772C84.9131 35.0511 84.8889 35.0144 84.8782 34.9731C84.8675 34.9317 84.871 34.8879 84.888 34.8487C84.905 34.8095 84.9347 34.777 84.9723 34.7565C85.2021 34.6283 85.4314 34.5 85.66 34.3718C85.7045 34.3474 85.757 34.3415 85.8059 34.3555C85.8548 34.3694 85.8962 34.402 85.9211 34.4461C85.946 34.4903 85.9524 34.5425 85.9389 34.5914C85.9255 34.6403 85.8932 34.6818 85.8491 34.7071C85.6197 34.8353 85.3896 34.9636 85.1588 35.0918C85.1305 35.1082 85.0984 35.1171 85.0656 35.1174ZM44.7062 35.0796C44.6676 35.0797 44.6299 35.0682 44.5979 35.0468C44.5659 35.0253 44.5411 34.9947 44.5267 34.9591C44.4283 34.7129 44.3337 34.4609 44.2507 34.2109C44.2427 34.1869 44.2394 34.1616 44.2411 34.1364C44.2429 34.1112 44.2496 34.0866 44.2609 34.064C44.2722 34.0414 44.2878 34.0212 44.3069 34.0046C44.3261 33.988 44.3483 33.9753 44.3723 33.9673C44.3963 33.9592 44.4217 33.956 44.447 33.9577C44.4723 33.9595 44.497 33.9662 44.5197 33.9774C44.5424 33.9887 44.5627 34.0042 44.5793 34.0233C44.596 34.0424 44.6087 34.0645 44.6168 34.0884C44.6985 34.3321 44.7892 34.5763 44.885 34.8161C44.904 34.8635 44.9034 34.9164 44.8833 34.9633C44.8631 35.0102 44.8251 35.0472 44.7776 35.0661C44.7552 35.0748 44.7315 35.0794 44.7075 35.0796H44.7062ZM24.6597 34.5891C24.6302 34.5891 24.6012 34.5823 24.5747 34.5693C24.3457 34.4564 24.1077 34.3474 23.8671 34.2487C23.8199 34.2288 23.7826 34.1911 23.7634 34.1438C23.7441 34.0964 23.7445 34.0435 23.7645 33.9964C23.7845 33.9494 23.8224 33.9122 23.8698 33.8931C23.9173 33.8739 23.9705 33.8743 24.0176 33.8942C24.2647 33.9987 24.5091 34.1109 24.7452 34.2269C24.7843 34.2462 24.8158 34.2781 24.8344 34.3174C24.853 34.3567 24.8576 34.4012 24.8476 34.4435C24.8376 34.4858 24.8135 34.5235 24.7793 34.5504C24.745 34.5773 24.7026 34.5919 24.659 34.5917L24.6597 34.5891ZM10.5315 34.5597C10.4875 34.5597 10.4449 34.5448 10.4106 34.5174C10.3762 34.49 10.3523 34.4518 10.3428 34.409C10.3333 34.3662 10.3387 34.3215 10.3582 34.2822C10.3776 34.2429 10.4099 34.2114 10.4498 34.1929C10.6898 34.0814 10.9355 33.9743 11.1806 33.8724C11.2042 33.8618 11.2297 33.856 11.2557 33.8554C11.2816 33.8549 11.3073 33.8595 11.3314 33.8691C11.3555 33.8787 11.3774 33.893 11.3958 33.9111C11.4142 33.9293 11.4287 33.951 11.4385 33.9749C11.4483 33.9988 11.4532 34.0245 11.4529 34.0503C11.4525 34.0761 11.447 34.1016 11.4365 34.1252C11.4261 34.1489 11.411 34.1702 11.3921 34.1879C11.3732 34.2056 11.3509 34.2193 11.3266 34.2282C11.088 34.3263 10.8474 34.4308 10.6132 34.5398C10.5872 34.5526 10.5586 34.5594 10.5296 34.5597H10.5315ZM87.4702 33.7589C87.4278 33.7589 87.3867 33.7449 87.353 33.7192C87.3194 33.6935 87.2952 33.6575 87.2841 33.6167C87.2731 33.576 87.2758 33.5327 87.2919 33.4936C87.308 33.4546 87.3365 33.4218 87.3731 33.4005C87.5995 33.2685 87.826 33.136 88.0524 33.003C88.0743 32.9877 88.0991 32.9771 88.1254 32.9718C88.1516 32.9666 88.1786 32.9668 88.2048 32.9725C88.2309 32.9783 88.2556 32.9893 88.2772 33.005C88.2988 33.0208 88.3169 33.0408 88.3303 33.0639C88.3437 33.0869 88.3522 33.1125 88.3552 33.139C88.3581 33.1655 88.3556 33.1923 88.3476 33.2178C88.3396 33.2432 88.3264 33.2668 88.3088 33.2868C88.2912 33.3069 88.2696 33.3232 88.2454 33.3345C88.0181 33.4678 87.791 33.6006 87.5641 33.7326C87.5348 33.7497 87.5016 33.7588 87.4676 33.7589H87.4702ZM22.08 33.6153C22.0624 33.6155 22.0449 33.6131 22.0279 33.6083C21.7802 33.5397 21.5255 33.4755 21.2727 33.4159C21.2473 33.411 21.2232 33.4011 21.2017 33.3868C21.1802 33.3724 21.1619 33.3539 21.1477 33.3323C21.1336 33.3108 21.1239 33.2866 21.1193 33.2612C21.1148 33.2359 21.1153 33.2099 21.121 33.1847C21.1267 33.1596 21.1374 33.1359 21.1525 33.1149C21.1675 33.094 21.1867 33.0763 21.2087 33.0629C21.2308 33.0495 21.2554 33.0406 21.2809 33.0368C21.3065 33.033 21.3326 33.0344 21.3576 33.0409C21.6149 33.0992 21.8774 33.1646 22.1296 33.2332C22.1745 33.2457 22.2134 33.2739 22.239 33.3127C22.2646 33.3516 22.2753 33.3983 22.269 33.4444C22.2627 33.4904 22.2399 33.5326 22.2049 33.5632C22.1698 33.5938 22.1247 33.6107 22.0781 33.6108L22.08 33.6153ZM13.1163 33.6102C13.0697 33.6099 13.0248 33.5929 12.9898 33.5623C12.9548 33.5316 12.9321 33.4894 12.926 33.4434C12.9198 33.3974 12.9305 33.3507 12.9561 33.312C12.9818 33.2732 13.0206 33.245 13.0655 33.2326C13.3228 33.1627 13.5801 33.0973 13.8374 33.0402C13.8624 33.0338 13.8885 33.0324 13.9141 33.0362C13.9397 33.04 13.9642 33.0488 13.9863 33.0623C14.0083 33.0757 14.0275 33.0934 14.0426 33.1143C14.0576 33.1352 14.0683 33.159 14.074 33.1841C14.0797 33.2092 14.0803 33.2352 14.0757 33.2606C14.0711 33.2859 14.0614 33.3101 14.0473 33.3317C14.0331 33.3533 14.0148 33.3718 13.9933 33.3861C13.9719 33.4005 13.9477 33.4104 13.9223 33.4153C13.6689 33.4723 13.4148 33.5358 13.1658 33.6038C13.1497 33.6083 13.133 33.6104 13.1163 33.6102ZM19.3704 33.1043H19.3499C19.0925 33.0774 18.8307 33.0563 18.5728 33.0402C18.5475 33.0388 18.5227 33.0323 18.4999 33.0213C18.4771 33.0103 18.4567 32.9949 18.4398 32.9761C18.423 32.9572 18.41 32.9352 18.4017 32.9113C18.3934 32.8875 18.3899 32.8622 18.3913 32.837C18.3928 32.8118 18.3993 32.7871 18.4103 32.7644C18.4214 32.7416 18.4368 32.7213 18.4557 32.7045C18.4747 32.6877 18.4967 32.6748 18.5207 32.6665C18.5446 32.6582 18.57 32.6547 18.5953 32.6562C18.8597 32.6716 19.1273 32.6934 19.3904 32.7203C19.4416 32.723 19.4896 32.7457 19.5239 32.7837C19.5583 32.8216 19.5761 32.8716 19.5734 32.9226C19.5708 32.9736 19.5479 33.0215 19.5098 33.0557C19.4718 33.0899 19.4216 33.1076 19.3704 33.105V33.1043ZM15.8265 33.1043C15.7753 33.107 15.7252 33.0892 15.6871 33.055C15.6491 33.0208 15.6262 32.973 15.6235 32.9219C15.6209 32.8709 15.6387 32.821 15.673 32.783C15.7073 32.7451 15.7554 32.7223 15.8066 32.7197C16.0703 32.6927 16.3379 32.6709 16.6017 32.6556C16.6529 32.6527 16.7031 32.6702 16.7414 32.7042C16.7796 32.7382 16.8027 32.786 16.8056 32.837C16.8085 32.888 16.791 32.9381 16.7568 32.9762C16.7227 33.0143 16.6747 33.0373 16.6236 33.0402C16.3662 33.055 16.1038 33.0761 15.8464 33.1043H15.8265ZM56.8729 33.0139C56.862 33.0149 56.851 33.0149 56.8401 33.0139C56.8151 33.0097 56.7912 33.0007 56.7697 32.9873C56.7482 32.9738 56.7295 32.9563 56.7148 32.9357C56.7001 32.9151 56.6897 32.8918 56.684 32.8672C56.6783 32.8426 56.6776 32.817 56.6819 32.7921C56.7256 32.5357 56.7636 32.2792 56.7957 32.0228C56.8021 31.9718 56.8286 31.9254 56.8693 31.8938C56.8895 31.8782 56.9125 31.8667 56.9371 31.8599C56.9618 31.8532 56.9875 31.8513 57.0128 31.8545C57.0382 31.8577 57.0626 31.8658 57.0849 31.8783C57.1071 31.8909 57.1266 31.9077 57.1422 31.9278C57.1579 31.9479 57.1695 31.9709 57.1762 31.9954C57.183 32.02 57.1849 32.0456 57.1817 32.0709C57.1482 32.3324 57.1096 32.5966 57.0653 32.8562C57.0571 32.9009 57.0332 32.9413 56.998 32.9702C56.9628 32.999 56.9185 33.0145 56.8729 33.0139ZM43.9361 32.4421C43.8912 32.4421 43.8476 32.4265 43.813 32.398C43.7783 32.3694 43.7548 32.3297 43.7464 32.2856C43.6975 32.0292 43.6544 31.7612 43.6177 31.4996C43.6143 31.4746 43.6159 31.4491 43.6224 31.4247C43.6289 31.4003 43.6402 31.3774 43.6556 31.3573C43.671 31.3372 43.6902 31.3203 43.7121 31.3076C43.734 31.2949 43.7582 31.2866 43.7834 31.2833C43.8085 31.2799 43.834 31.2815 43.8586 31.288C43.8831 31.2945 43.9061 31.3057 43.9262 31.321C43.9464 31.3363 43.9633 31.3555 43.9761 31.3773C43.9888 31.3992 43.9971 31.4233 44.0005 31.4484C44.0346 31.7048 44.0764 31.9612 44.1246 32.2138C44.1294 32.2387 44.1292 32.2642 44.124 32.289C44.1189 32.3137 44.1089 32.3372 44.0946 32.3581C44.0803 32.379 44.062 32.3969 44.0408 32.4108C44.0196 32.4246 43.9958 32.4342 43.9709 32.4389C43.9594 32.4408 43.9478 32.4419 43.9361 32.4421ZM89.8382 32.3478C89.7963 32.3477 89.7556 32.334 89.7222 32.3087C89.6888 32.2834 89.6646 32.248 89.6532 32.2079C89.6417 32.1677 89.6438 32.1249 89.6589 32.0859C89.6741 32.047 89.7016 32.014 89.7372 31.992C89.9611 31.8557 90.1845 31.7183 90.4075 31.5798C90.4291 31.5662 90.4531 31.5569 90.4783 31.5526C90.5034 31.5483 90.5292 31.549 90.5541 31.5547C90.5789 31.5604 90.6024 31.5709 90.6232 31.5857C90.644 31.6005 90.6616 31.6192 90.675 31.6408C90.6885 31.6625 90.6975 31.6865 90.7015 31.7117C90.7056 31.7368 90.7046 31.7624 90.6986 31.7872C90.6926 31.8119 90.6818 31.8352 90.6667 31.8557C90.6516 31.8762 90.6326 31.8936 90.6108 31.9067C90.3874 32.0452 90.1633 32.1829 89.9386 32.3196C89.9083 32.338 89.8736 32.3478 89.8382 32.3478ZM92.1766 30.8861C92.1347 30.8864 92.0939 30.873 92.0603 30.8482C92.0267 30.8233 92.0022 30.7882 91.9903 30.7482C91.9785 30.7081 91.98 30.6654 91.9947 30.6263C92.0094 30.5872 92.0364 30.554 92.0717 30.5316C92.293 30.3905 92.5135 30.2484 92.733 30.1052C92.7756 30.0822 92.8253 30.0759 92.8723 30.0876C92.9193 30.0994 92.9601 30.1283 92.9867 30.1687C93.0133 30.209 93.0236 30.2579 93.0157 30.3055C93.0078 30.3532 92.9822 30.3961 92.944 30.4258C92.7232 30.569 92.5021 30.7115 92.2808 30.8534C92.25 30.8741 92.2138 30.8854 92.1766 30.8861ZM57.127 30.2771H57.1238C57.0732 30.2762 57.0249 30.2556 56.9894 30.2196C56.9539 30.1836 56.934 30.1352 56.934 30.0847C56.934 29.9834 56.934 29.8828 56.934 29.7815C56.934 29.6244 56.934 29.4648 56.9276 29.3071C56.9269 29.2818 56.9312 29.2567 56.9403 29.2331C56.9494 29.2095 56.963 29.1879 56.9805 29.1695C56.9979 29.1512 57.0188 29.1365 57.042 29.1262C57.0651 29.1159 57.0901 29.1103 57.1154 29.1096C57.1408 29.1089 57.166 29.1132 57.1897 29.1223C57.2134 29.1313 57.235 29.1449 57.2534 29.1623C57.2718 29.1797 57.2866 29.2005 57.2969 29.2236C57.3073 29.2467 57.3129 29.2715 57.3136 29.2968C57.3181 29.4577 57.32 29.6174 57.32 29.7815C57.32 29.8847 57.32 29.9879 57.32 30.0911C57.3183 30.141 57.2973 30.1883 57.2613 30.223C57.2252 30.2577 57.1771 30.2771 57.127 30.2771ZM43.6788 29.7065C43.6276 29.7065 43.5786 29.6862 43.5424 29.6501C43.5062 29.6141 43.4858 29.5651 43.4858 29.5141C43.4858 29.25 43.4936 28.982 43.5077 28.7179C43.5091 28.6926 43.5154 28.6679 43.5263 28.6451C43.5373 28.6222 43.5526 28.6018 43.5715 28.5849C43.5904 28.568 43.6124 28.5549 43.6364 28.5465C43.6603 28.5381 43.6857 28.5345 43.711 28.5358C43.7363 28.5372 43.7612 28.5435 43.7841 28.5544C43.807 28.5653 43.8275 28.5806 43.8444 28.5994C43.8614 28.6182 43.8745 28.6402 43.8829 28.664C43.8914 28.6879 43.895 28.7131 43.8937 28.7384C43.8795 28.9948 43.8725 29.2564 43.8725 29.5141C43.8725 29.5394 43.8674 29.5645 43.8577 29.5879C43.848 29.6113 43.8337 29.6325 43.8157 29.6504C43.7977 29.6682 43.7764 29.6824 43.7529 29.692C43.7294 29.7016 43.7042 29.7066 43.6788 29.7065ZM94.4822 29.3725C94.441 29.3723 94.4009 29.3591 94.3678 29.3346C94.3346 29.3102 94.3103 29.2758 94.2982 29.2365C94.2861 29.1972 94.287 29.1551 94.3006 29.1164C94.3143 29.0776 94.34 29.0442 94.3741 29.0211C94.5915 28.875 94.8088 28.7279 95.0258 28.58C95.0466 28.5644 95.0704 28.5532 95.0957 28.547C95.1211 28.5408 95.1474 28.5398 95.1731 28.5441C95.1989 28.5483 95.2235 28.5577 95.2454 28.5717C95.2674 28.5856 95.2863 28.6039 95.301 28.6254C95.3158 28.6468 95.3259 28.671 95.331 28.6965C95.3361 28.722 95.3359 28.7483 95.3305 28.7737C95.3251 28.7991 95.3145 28.8232 95.2995 28.8444C95.2845 28.8657 95.2654 28.8837 95.2432 28.8974C95.0262 29.0457 94.8085 29.1932 94.5903 29.3398C94.5583 29.3612 94.5207 29.3725 94.4822 29.3725ZM96.7537 27.8088C96.7127 27.8088 96.6728 27.7958 96.6398 27.7716C96.6067 27.7475 96.5822 27.7136 96.5698 27.6746C96.5574 27.6357 96.5578 27.5939 96.5708 27.5552C96.5839 27.5165 96.6089 27.4829 96.6424 27.4594C96.8568 27.3089 97.0712 27.1572 97.2857 27.0042C97.3273 26.9753 97.3788 26.9639 97.4288 26.9725C97.4788 26.9811 97.5234 27.009 97.553 27.0501C97.5825 27.0913 97.5946 27.1424 97.5866 27.1923C97.5786 27.2423 97.5511 27.2871 97.5102 27.3171C97.2958 27.4696 97.0813 27.6218 96.8669 27.7735C96.8338 27.7968 96.7942 27.8092 96.7537 27.8088ZM56.9617 27.5331C56.9148 27.5336 56.8693 27.5169 56.8338 27.4864C56.7982 27.4558 56.7751 27.4134 56.7687 27.3671C56.7327 27.1106 56.6909 26.8542 56.6439 26.5977C56.635 26.5477 56.6463 26.4963 56.6753 26.4546C56.7044 26.4128 56.7488 26.3843 56.7989 26.375C56.849 26.3658 56.9007 26.3767 56.9428 26.4053C56.9848 26.434 57.0138 26.478 57.0234 26.5279C57.0717 26.7843 57.1142 27.0504 57.1521 27.3126C57.1591 27.3631 57.1456 27.4143 57.1148 27.4549C57.0839 27.4955 57.0381 27.5223 56.9874 27.5293L56.9617 27.5331ZM43.9368 26.9709C43.9248 26.9718 43.9128 26.9718 43.9008 26.9709C43.8758 26.9662 43.8521 26.9566 43.8309 26.9428C43.8096 26.9289 43.7914 26.911 43.7771 26.8901C43.7628 26.8692 43.7528 26.8457 43.7476 26.821C43.7425 26.7962 43.7423 26.7707 43.747 26.7458C43.7966 26.4894 43.8538 26.224 43.9168 25.9682C43.9229 25.9436 43.9337 25.9205 43.9487 25.9001C43.9637 25.8798 43.9826 25.8625 44.0043 25.8495C44.026 25.8364 44.05 25.8276 44.0751 25.8238C44.1002 25.82 44.1257 25.8211 44.1504 25.8271C44.175 25.8331 44.1982 25.8439 44.2186 25.8589C44.2391 25.8738 44.2564 25.8927 44.2695 25.9143C44.2826 25.9359 44.2914 25.9599 44.2952 25.9848C44.2991 26.0098 44.2979 26.0353 44.2919 26.0598C44.2276 26.3092 44.1742 26.5644 44.1259 26.8176C44.1169 26.861 44.0932 26.8999 44.0587 26.9278C44.0243 26.9557 43.9812 26.9709 43.9368 26.9709ZM56.3673 24.8494C56.3261 24.8493 56.286 24.8361 56.2529 24.8116C56.2198 24.7872 56.1954 24.7528 56.1833 24.7135C56.1067 24.4654 56.0238 24.2179 55.9363 23.9762C55.9264 23.9522 55.9216 23.9263 55.9221 23.9003C55.9225 23.8743 55.9283 23.8487 55.939 23.825C55.9496 23.8012 55.965 23.7799 55.9842 23.7623C56.0034 23.7447 56.026 23.7311 56.0506 23.7224C56.0752 23.7137 56.1013 23.7101 56.1274 23.7118C56.1534 23.7135 56.1789 23.7204 56.2021 23.7321C56.2254 23.7438 56.2461 23.7602 56.2629 23.7801C56.2796 23.8 56.2922 23.8231 56.2997 23.848C56.3892 24.0949 56.4734 24.3487 56.5519 24.602C56.5609 24.6308 56.5629 24.6613 56.5579 24.691C56.5529 24.7208 56.5409 24.7489 56.5229 24.7732C56.5049 24.7975 56.4815 24.8172 56.4544 24.8308C56.4274 24.8444 56.3976 24.8514 56.3673 24.8514V24.8494ZM44.7049 24.3327C44.6805 24.3326 44.6563 24.328 44.6335 24.3192C44.586 24.3003 44.548 24.2633 44.5278 24.2164C44.5077 24.1695 44.507 24.1166 44.5261 24.0692C44.6245 23.823 44.7306 23.5768 44.8426 23.3377C44.853 23.3145 44.868 23.2936 44.8867 23.2762C44.9054 23.2588 44.9273 23.2453 44.9512 23.2364C44.9752 23.2275 45.0006 23.2235 45.0262 23.2245C45.0517 23.2255 45.0768 23.2315 45.0999 23.2423C45.1231 23.253 45.1439 23.2682 45.1611 23.287C45.1783 23.3058 45.1916 23.3278 45.2002 23.3518C45.2088 23.3758 45.2126 23.4012 45.2113 23.4266C45.2099 23.452 45.2036 23.477 45.1925 23.4999C45.0838 23.7326 44.9802 23.9724 44.8844 24.2115C44.8701 24.2473 44.8453 24.278 44.8133 24.2996C44.7813 24.3212 44.7435 24.3327 44.7049 24.3327ZM55.3277 22.3074C55.2929 22.3075 55.2588 22.2981 55.2289 22.2804C55.199 22.2627 55.1745 22.2373 55.1579 22.2068C55.0292 21.9766 54.9006 21.7529 54.7635 21.5432C54.7416 21.5009 54.7363 21.452 54.7485 21.406C54.7607 21.3599 54.7896 21.32 54.8297 21.294C54.8697 21.268 54.918 21.2577 54.9652 21.2652C55.0124 21.2726 55.0552 21.2972 55.0852 21.3342C55.2267 21.5522 55.365 21.783 55.495 22.0241C55.5192 22.069 55.5245 22.1216 55.5098 22.1704C55.495 22.2192 55.4615 22.2602 55.4165 22.2844C55.3893 22.2993 55.3588 22.3072 55.3277 22.3074ZM45.9838 21.9035C45.9486 21.9036 45.914 21.8941 45.8838 21.8761C45.8536 21.858 45.829 21.832 45.8126 21.801C45.7961 21.7699 45.7885 21.735 45.7906 21.7C45.7926 21.6649 45.8043 21.6311 45.8242 21.6022C45.978 21.381 46.1414 21.1656 46.3099 20.9611C46.3425 20.9218 46.3895 20.8969 46.4404 20.892C46.4914 20.8872 46.5422 20.9027 46.5817 20.9352C46.6212 20.9676 46.6462 21.0144 46.651 21.0652C46.6559 21.116 46.6404 21.1667 46.6078 21.206C46.4457 21.4016 46.2861 21.608 46.1414 21.8202C46.1234 21.8451 46.0998 21.8654 46.0723 21.8793C46.0449 21.8933 46.0146 21.9005 45.9838 21.9003V21.9035ZM53.6603 20.1277C53.6128 20.1277 53.567 20.1104 53.5316 20.079C53.3429 19.9101 53.1421 19.7552 52.9308 19.6154C52.9081 19.6023 52.8884 19.5846 52.8728 19.5636C52.8572 19.5425 52.8461 19.5186 52.8401 19.4931C52.8341 19.4676 52.8334 19.4412 52.838 19.4155C52.8427 19.3897 52.8525 19.3652 52.8669 19.3434C52.8814 19.3215 52.9002 19.3029 52.9221 19.2885C52.944 19.2742 52.9687 19.2644 52.9945 19.2599C53.0204 19.2553 53.0469 19.2561 53.0724 19.2621C53.098 19.2681 53.122 19.2793 53.1431 19.2949C53.3692 19.4452 53.5841 19.6114 53.7864 19.7924C53.8156 19.8183 53.8362 19.8525 53.8455 19.8904C53.8548 19.9283 53.8522 19.9681 53.8383 20.0046C53.8243 20.041 53.7996 20.0724 53.7673 20.0945C53.7351 20.1166 53.6968 20.1284 53.6577 20.1283L53.6603 20.1277ZM47.8828 19.92C47.8422 19.9198 47.8027 19.9068 47.7698 19.883C47.737 19.8591 47.7126 19.8255 47.7001 19.787C47.6875 19.7485 47.6875 19.7071 47.7 19.6685C47.7125 19.63 47.7368 19.5964 47.7696 19.5725C47.9904 19.4127 48.2217 19.2677 48.4618 19.1384C48.4841 19.1264 48.5085 19.1189 48.5338 19.1162C48.559 19.1136 48.5845 19.116 48.6088 19.1232C48.6331 19.1304 48.6558 19.1423 48.6755 19.1582C48.6952 19.1742 48.7115 19.1938 48.7236 19.216C48.7357 19.2383 48.7432 19.2626 48.7459 19.2878C48.7485 19.3129 48.7461 19.3383 48.7389 19.3626C48.7317 19.3868 48.7197 19.4094 48.7037 19.429C48.6878 19.4486 48.6681 19.4649 48.6457 19.477C48.4226 19.5982 48.2077 19.734 48.0024 19.8834C47.9677 19.9085 47.9256 19.9214 47.8828 19.92ZM51.2087 18.9583H51.1842L51.1289 18.9519C50.8984 18.9265 50.6661 18.9215 50.4348 18.9371C50.4094 18.9389 50.384 18.9356 50.3599 18.9275C50.3358 18.9195 50.3136 18.9067 50.2944 18.8901C50.2753 18.8735 50.2596 18.8532 50.2483 18.8306C50.237 18.8079 50.2303 18.7832 50.2286 18.758C50.2269 18.7327 50.2301 18.7073 50.2382 18.6833C50.2463 18.6594 50.2591 18.6372 50.2758 18.6181C50.2925 18.599 50.3128 18.5834 50.3355 18.5721C50.3583 18.5609 50.383 18.5542 50.4084 18.5525C50.6629 18.5351 50.9184 18.5404 51.172 18.5685L51.2363 18.5756C51.2617 18.5772 51.2864 18.5837 51.3092 18.5949C51.332 18.606 51.3524 18.6215 51.3692 18.6405C51.386 18.6595 51.3989 18.6816 51.4071 18.7055C51.4153 18.7295 51.4187 18.7548 51.4171 18.7801C51.4155 18.8053 51.4089 18.83 51.3977 18.8527C51.3865 18.8755 51.371 18.8958 51.3519 18.9125C51.3329 18.9292 51.3107 18.9421 51.2867 18.9502C51.2626 18.9584 51.2372 18.9618 51.2119 18.9602L51.2087 18.9583Z" fill="#121212"/>
<path id="Vector_5" d="M109.865 50.0001C115.407 50.0001 119.9 49.3571 119.9 48.564C119.9 47.7709 115.407 47.1279 109.865 47.1279C104.322 47.1279 99.8293 47.7709 99.8293 48.564C99.8293 49.3571 104.322 50.0001 109.865 50.0001Z" fill="#DDDDDD"/>
</g>
<defs>
<clipPath id="clip0_1101_6846">
<rect width="126" height="50" fill="white"/>
</clipPath>
</defs>
</svg>
