<svg width="46" height="32" viewBox="0 0 46 32" fill="none" xmlns="http://www.w3.org/2000/svg">
<rect x="0.25" y="0.25" width="45.5" height="31.5" rx="2.75" fill="white"/>
<rect x="0.25" y="0.25" width="45.5" height="31.5" rx="2.75" stroke="black" stroke-width="0.5"/>
<path d="M31 16C31 17.5822 30.5308 19.129 29.6518 20.4446C28.7727 21.7602 27.5233 22.7855 26.0615 23.391C24.5997 23.9965 22.9911 24.155 21.4393 23.8463C19.8874 23.5376 18.462 22.7757 17.3431 21.6569C16.2243 20.538 15.4624 19.1126 15.1537 17.5607C14.845 16.0089 15.0035 14.4003 15.609 12.9385C16.2145 11.4767 17.2398 10.2273 18.5554 9.34824C19.871 8.46919 21.4178 8 23 8C25.1217 8 27.1566 8.84285 28.6569 10.3431C30.1571 11.8434 31 13.8783 31 16Z" fill="#BE0026"/>
</svg>
