<svg width="46" height="32" viewBox="0 0 46 32" fill="none" xmlns="http://www.w3.org/2000/svg">
<rect x="0.25" y="0.25" width="45.5" height="31.5" rx="2.75" fill="white"/>
<rect x="0.25" y="0.25" width="45.5" height="31.5" rx="2.75" stroke="#808080" stroke-width="0.5"/>
<path d="M10 0H43C44.6569 0 46 1.34315 46 3V29C46 30.6569 44.6569 32 43 32H10V0Z" fill="#0B6330"/>
<path d="M36 17.0913C35.8154 18.8 35.0786 20.445 33.7849 21.7386C30.7013 24.8222 25.622 24.7423 22.4399 21.5601C19.2577 18.378 19.1778 13.2987 22.2614 10.2151C23.555 8.92144 25.2 8.18458 26.9087 8C26.3691 8.31996 25.8577 8.71393 25.3904 9.18132C22.5871 11.9846 22.4253 16.3676 25.0288 18.9712C27.6324 21.5747 32.0154 21.4129 34.8187 18.6097C35.2861 18.1423 35.68 17.6309 36 17.0913ZM32.4999 13.4975L32.0511 16.0923L30.8495 13.7677L28.2476 14.1697L30.0997 12.2844L28.9404 9.93806L31.2867 11.0974L33.1721 9.24529L32.77 11.8472L35.0946 13.0488L32.4999 13.4975Z" fill="white"/>
</svg>
