<svg>
<!---->
<symbol id="home-icon" xmlns="http://www.w3.org/2000/svg" width="20" height="20" viewBox="0 0 20 20" fill="none">
  <path d="M18.3333 4.77286V1.6701C18.3333 1.21019 17.9608 0.836926 17.5 0.836926C17.0392 0.836926 16.6667 1.21019 16.6667 1.6701V3.6414L12.3308 0.716116C10.915 -0.238705 9.085 -0.238705 7.66917 0.716116L1.83583 4.65204C0.686667 5.42773 0 6.71832 0 8.10556V15.8341C0 18.1312 1.86917 20 4.16667 20H5.83333C6.29417 20 6.66667 19.6267 6.66667 19.1668V11.6682C6.66667 11.2091 7.04 10.8351 7.5 10.8351H12.5C12.96 10.8351 13.3333 11.2091 13.3333 11.6682V19.1668C13.3333 19.6267 13.7058 20 14.1667 20H15.8333C18.1308 20 20 18.1312 20 15.8341V8.10556C20 6.78831 19.38 5.55771 18.3333 4.77286Z" fill="#808080"/>
</symbol>
<!---->
  <symbol id="vectoricon" xmlns="http://www.w3.org/2000/svg" width="95" height="56" viewBox="0 0 95 56" fill="none">
  <path d="M36.6189 56H0L23.4361 0H47.5L36.6189 56ZM84.1189 56H47.7092L71.1454 0H95L84.1189 56Z" fill="#2F80ED"/>
</symbol>
<!---->
<symbol id="emailicon" xmlns="http://www.w3.org/2000/svg" width="40" height="40" viewBox="0 0 40 40" fill="none">
  <path d="M20.0017 0C14.6992 0.0057334 9.61543 2.11407 5.86594 5.86243C2.11646 9.61078 0.00747847 14.693 0.00174333 19.994C-0.208257 35.9441 18.6001 45.7012 31.5017 36.3507C31.6871 36.2274 31.846 36.0682 31.9688 35.8825C32.0916 35.6969 32.176 35.4885 32.2169 35.2697C32.2579 35.0509 32.2545 34.8261 32.2071 34.6086C32.1597 34.3911 32.0691 34.1853 31.9408 34.0033C31.8125 33.8214 31.6491 33.667 31.4601 33.5493C31.2711 33.4316 31.0604 33.3529 30.8405 33.3179C30.6206 33.283 30.3959 33.2924 30.1797 33.3457C29.9635 33.399 29.7602 33.495 29.5817 33.6282C18.8351 41.4142 3.16841 33.2866 3.33508 19.994C4.25008 -2.10936 35.7567 -2.10436 36.6684 19.994V23.3263C36.6684 24.2101 36.3172 25.0577 35.6921 25.6826C35.067 26.3075 34.2191 26.6586 33.3351 26.6586C32.451 26.6586 31.6032 26.3075 30.9781 25.6826C30.3529 25.0577 30.0017 24.2101 30.0017 23.3263V19.994C29.5817 6.78295 10.4201 6.78462 10.0017 19.994C10.0211 22.02 10.6542 23.9926 11.8174 25.6518C12.9806 27.3111 14.6194 28.579 16.5178 29.2885C18.4163 29.998 20.4852 30.1159 22.4519 29.6265C24.4186 29.1371 26.1909 28.0634 27.5351 26.547C28.2581 27.8226 29.3817 28.8244 30.7319 29.3969C32.0821 29.9695 33.5834 30.081 35.0034 29.7142C36.4234 29.3473 37.6828 28.5226 38.5864 27.3678C39.49 26.2129 39.9875 24.7924 40.0017 23.3263V19.994C39.996 14.693 37.887 9.61078 34.1376 5.86243C30.3881 2.11407 25.3043 0.0057334 20.0017 0ZM20.0017 26.6586C18.2336 26.6586 16.5379 25.9564 15.2877 24.7066C14.0375 23.4567 13.3351 21.7615 13.3351 19.994C13.3351 18.2264 14.0375 16.5312 15.2877 15.2813C16.5379 14.0315 18.2336 13.3293 20.0017 13.3293C21.7699 13.3293 23.4655 14.0315 24.7158 15.2813C25.966 16.5312 26.6684 18.2264 26.6684 19.994C26.6684 21.7615 25.966 23.4567 24.7158 24.7066C23.4655 25.9564 21.7699 26.6586 20.0017 26.6586Z" fill="#121212"/>
</symbol>
<!---->
<symbol id="maplocationicon" xmlns="http://www.w3.org/2000/svg" width="40" height="40" viewBox="0 0 40 40" fill="none">
  <g clip-path="url(#clip0_787_671)">
    <path d="M19.9317 40.0133L18.7699 39.0174C17.1683 37.6763 3.18335 25.5984 3.18335 16.7637C3.18335 7.5139 10.6819 0.0153809 19.9317 0.0153809C29.1816 0.0153809 36.6801 7.5139 36.6801 16.7637C36.6801 25.5985 22.6951 37.6764 21.1001 39.024L19.9317 40.0133ZM19.9317 3.63686C12.6854 3.64507 6.81312 9.51733 6.80491 16.7637C6.80491 22.3138 15.409 31.1801 19.9317 35.2381C24.4545 31.1784 33.0585 22.3071 33.0585 16.7637C33.0503 9.51733 27.1781 3.64515 19.9317 3.63686Z" fill="#121212"/>
    <path d="M19.9316 23.4026C16.2651 23.4026 13.2927 20.4302 13.2927 16.7637C13.2927 13.0971 16.2651 10.1248 19.9316 10.1248C23.5982 10.1248 26.5705 13.0971 26.5705 16.7637C26.5705 20.4302 23.5983 23.4026 19.9316 23.4026ZM19.9316 13.4441C18.0983 13.4441 16.6122 14.9303 16.6122 16.7636C16.6122 18.5969 18.0983 20.083 19.9316 20.083C21.7649 20.083 23.2511 18.5969 23.2511 16.7636C23.2511 14.9303 21.765 13.4441 19.9316 13.4441Z" fill="#121212"/>
  </g>
  <defs>
    <clipPath id="clip0_787_671">
      <rect width="40" height="40" fill="white" transform="translate(0.00170898)"/>
    </clipPath>
  </defs>
</symbol>
</svg>
