<svg width="36" height="36" viewBox="0 0 36 36" fill="none" xmlns="http://www.w3.org/2000/svg">
<g id="facebook" clip-path="url(#clip0_2142_1674)">
<path id="fb_white" d="M36 17.9992C35.9996 13.2254 34.1029 8.6472 30.7271 5.27174C27.3513 1.89629 22.773 -1.96693e-08 17.9992 0C13.2256 0.000433309 8.64772 1.89691 5.27232 5.27232C1.89691 8.64773 0.000433309 13.2256 0 17.9992C0.00011126 22.2858 1.52968 26.4318 4.31361 29.6914C7.09753 32.951 10.9531 35.1103 15.187 35.781V23.1988H10.6116V17.9992H15.187V14.0333C15.187 9.52331 17.875 7.03136 21.9863 7.03136C23.3363 7.05015 24.683 7.16758 26.0159 7.38269V11.8126H23.7462C21.5091 11.8126 20.813 13.1999 20.813 14.6232V17.9992H25.8051L25.006 23.202H20.813V35.7843C25.0474 35.1135 28.9035 32.9537 31.6875 29.6934C34.4715 26.4331 36.0007 22.2864 36 17.9992Z" fill="#121212"/>
</g>
<defs>
<clipPath id="clip0_2142_1674">
<rect width="36" height="36" fill="white"/>
</clipPath>
</defs>
</svg>
