<svg width="200" height="60" viewBox="0 0 200 60" fill="none" xmlns="http://www.w3.org/2000/svg">
<g id="footer_logo" clip-path="url(#clip0_574_532)">
<path id="Vector" d="M0 60.0021V26.3796C0.00374516 21.7362 1.20585 17.1757 3.48521 13.1577C5.76458 9.13968 9.04069 5.80598 12.9835 3.49245L13.5271 3.18383C13.7098 3.08391 13.8925 2.984 14.0773 2.88852C14.6296 2.59988 15.1993 2.329 15.7733 2.08254C20.5078 0.038192 25.7321 -0.51634 30.7771 0.489987C35.8221 1.49631 40.458 4.01767 44.091 7.73106C44.8999 8.55785 45.6553 9.43748 46.3524 10.3644C49.1941 14.1554 50.9718 18.6647 51.4949 23.4088C51.602 24.3953 51.6558 25.3871 51.6558 26.3796V54.9486C50.52 54.9489 49.3953 54.7207 48.3458 54.2771C47.2964 53.8335 46.3428 53.1831 45.5396 52.3631C44.7363 51.5431 44.0991 50.5696 43.6644 49.4981C43.2297 48.4266 43.0059 47.2782 43.0059 46.1184V46.0762C38.2774 50.3817 32.1633 52.761 25.8279 52.761C19.4925 52.761 13.3784 50.3817 8.64989 46.0762V60.0021H0ZM25.8279 8.83901C23.5712 8.83289 21.3357 9.28383 19.2508 10.1657C17.1659 11.0476 15.2729 12.343 13.6815 13.9769C13.3271 14.3388 12.9857 14.7184 12.6661 15.1048C10.1008 18.1958 8.67942 22.1083 8.64989 26.1598V26.3818C8.64989 29.851 9.65737 33.2423 11.5449 36.1269C13.4325 39.0114 16.1153 41.2597 19.2542 42.5873C22.393 43.9149 25.847 44.2622 29.1792 43.5854C32.5114 42.9086 35.5722 41.238 37.9746 38.7849C40.377 36.3318 42.013 33.2064 42.6759 29.8039C43.3387 26.4013 42.9985 22.8745 41.6983 19.6693C40.3982 16.4642 38.1964 13.7247 35.3715 11.7974C32.5466 9.86997 29.2254 8.84123 25.8279 8.84123V8.83901Z" fill="#121212"/>
<path id="Vector_2" d="M47.9179 12.6959C47.7201 12.3628 47.5135 12.0298 47.3004 11.7078C47.5113 12.0409 47.7179 12.3717 47.9179 12.6959ZM46.2827 10.2757C46.3654 10.3823 46.4458 10.4977 46.5263 10.5999L46.3523 10.3645C46.3306 10.3334 46.298 10.3046 46.2827 10.2757ZM45.3586 9.12113C45.0912 8.80584 44.815 8.49499 44.5302 8.19303C44.815 8.49499 45.089 8.80584 45.3586 9.12113ZM41.773 5.63077C42.0861 5.88166 42.3905 6.13922 42.6906 6.40344C42.3905 6.137 42.0846 5.87944 41.773 5.63077ZM42.7297 46.3228C42.2622 46.7358 41.7773 47.1332 41.2816 47.5151C41.7773 47.1376 42.2622 46.7402 42.7297 46.3228ZM40.2683 4.5095C40.6118 4.74633 40.9496 4.99131 41.2816 5.24443C40.9496 4.98983 40.6118 4.74485 40.2683 4.5095ZM41.2816 47.5151C40.9481 47.7682 40.6104 48.0132 40.2683 48.25C40.6118 48.0169 40.951 47.7771 41.2816 47.5151ZM40.2509 4.49618C39.9117 4.26378 39.5681 4.04175 39.2202 3.83008C39.5681 4.04323 39.9117 4.26526 40.2509 4.49618ZM39.7486 48.5986C39.3992 48.828 39.0441 49.0501 38.6831 49.2647C39.0441 49.0516 39.4007 48.8295 39.7486 48.5986Z" fill="#121212"/>
<path id="Vector_3" d="M74.3939 22.5701C73.8364 23.5853 72.9923 24.4055 71.9716 24.9236C70.8713 25.5157 69.4847 25.8118 67.8119 25.8118H64.398V33.8049H60.3123V13.0049H67.8119C69.3891 13.0049 70.7321 13.2824 71.8411 13.8375C72.8792 14.3299 73.7483 15.1298 74.3352 16.1333C74.8716 17.1159 75.158 18.2203 75.1683 19.3452C75.1785 20.4701 74.9123 21.5796 74.3939 22.5723V22.5701ZM70.1472 21.662C70.6923 21.1365 70.9648 20.3964 70.9648 19.4416C70.9648 17.4152 69.8558 16.402 67.6379 16.402H64.398V22.4502H67.6379C68.7657 22.4502 69.6022 22.1874 70.1472 21.662Z" fill="#121212"/>
<path id="Vector_4" d="M90.5478 29.8415H82.435L81.089 33.8048H76.801L84.1332 12.9736H88.8909L96.2165 33.8048H91.8894L90.5478 29.8415ZM89.4388 26.511L86.4903 17.8029L83.5439 26.5043L89.4388 26.511Z" fill="#121212"/>
<path id="Vector_5" d="M110.444 33.8049L103.031 24.5373V33.8049H98.9519V13.0049H103.038V22.3303L110.45 13.0049H115.384L106.978 23.3161L115.617 33.8049H110.444Z" fill="#121212"/>
<path id="Vector_6" d="M122.388 13.0049V33.8049H118.302V13.0049H122.388Z" fill="#121212"/>
<path id="Vector_7" d="M129.611 33.2669C128.534 32.8219 127.599 32.0801 126.911 31.1243C126.239 30.1582 125.881 29.0009 125.889 27.816H130.266C130.276 28.1973 130.36 28.5728 130.513 28.9207C130.666 29.2687 130.885 29.5822 131.157 29.8432C131.692 30.3405 132.427 30.5885 133.36 30.587C134.294 30.5855 135.043 30.3524 135.608 29.8876C135.873 29.6665 136.084 29.3863 136.225 29.0687C136.367 28.7511 136.435 28.4045 136.424 28.0558C136.434 27.7775 136.39 27.5 136.295 27.239C136.2 26.978 136.055 26.7387 135.869 26.5349C135.48 26.1234 135.007 25.803 134.484 25.5957C133.732 25.3014 132.966 25.0472 132.188 24.8341C131.088 24.5184 130.01 24.1252 128.963 23.6573C128.123 23.2585 127.391 22.6546 126.832 21.8988C126.238 21.1143 125.942 20.0663 125.943 18.7549C125.918 17.6129 126.233 16.49 126.848 15.5354C127.478 14.6 128.36 13.8706 129.387 13.4349C130.57 12.9261 131.844 12.6743 133.127 12.6956C135.228 12.6956 136.935 13.2137 138.248 14.2498C139.562 15.286 140.286 16.741 140.423 18.615H135.928C135.915 18.2708 135.828 17.9338 135.675 17.6271C135.521 17.3204 135.304 17.0515 135.039 16.8387C134.484 16.3724 133.749 16.1386 132.836 16.1371C132.145 16.1 131.465 16.3228 130.925 16.7632C130.446 17.1806 130.209 17.7868 130.209 18.5817C130.201 18.838 130.245 19.0933 130.338 19.3317C130.431 19.57 130.57 19.7863 130.749 19.9672C131.134 20.3504 131.59 20.6522 132.09 20.8553C132.625 21.0847 133.38 21.3475 134.354 21.6435C135.46 21.9603 136.542 22.3588 137.592 22.8358C138.443 23.2455 139.184 23.8595 139.753 24.6254C140.355 25.4173 140.656 26.4601 140.658 27.7539C140.664 28.8505 140.37 29.9272 139.809 30.8623C139.212 31.8467 138.352 32.6369 137.331 33.1404C136.122 33.7407 134.791 34.039 133.447 34.0108C132.132 34.0322 130.827 33.7791 129.611 33.2669Z" fill="#121212"/>
<path id="Vector_8" d="M158.051 13.0049V16.3709H152.628V33.8049H148.535V16.3709H143.099V13.0049H158.051Z" fill="#121212"/>
<path id="Vector_9" d="M173.518 29.8415H165.405L164.063 33.8048H159.773L167.099 12.9736H171.854L179.18 33.8048H174.861L173.518 29.8415ZM172.409 26.511L169.462 17.8029L166.514 26.5043L172.409 26.511Z" fill="#121212"/>
<path id="Vector_10" d="M199.346 33.8048H195.26L186.01 19.5303V33.8048H181.924V12.9736H186.01L195.26 27.2792V12.9736H199.346V33.8048Z" fill="#121212"/>
<g id="Vector_11" filter="url(#filter0_d_574_532)">
<path d="M51.6558 26.3793C51.6548 31.8668 49.9789 37.2176 46.8611 41.6873C43.7434 46.157 39.3389 49.5234 34.2603 51.3181C32.8025 51.8206 31.3054 52.1957 29.7854 52.4393C27.7672 52.7586 25.7192 52.8331 23.6839 52.6614H23.6665C23.9688 52.6369 24.2688 52.6059 24.5689 52.5681C30.8765 51.7959 36.6842 48.677 40.8816 43.8077C45.0791 38.9385 47.3718 32.6604 47.3214 26.1737C47.2711 19.6869 44.8813 13.4467 40.6089 8.64594C36.3364 3.84515 30.4811 0.820615 24.1623 0.150538L23.6665 0.101691H23.6839C28.7523 -0.32325 33.8315 0.77995 38.2917 3.27454C40.4313 4.4912 42.3942 6.00676 44.1236 7.77737C47.8351 11.572 50.3209 16.4353 51.247 21.7144C51.5156 23.2543 51.6524 24.8152 51.6558 26.3793Z" fill="#121212"/>
</g>
<path id="Vector_12" d="M51.6559 26.3794V54.9484C50.5202 54.9487 49.3956 54.7205 48.3463 54.2768C47.2969 53.8332 46.3435 53.1828 45.5404 52.3628C44.7374 51.5427 44.1004 50.5692 43.6659 49.4977C43.2314 48.4262 43.0079 47.2779 43.0082 46.1182V46.0738L42.7299 46.3224C41.627 47.2943 40.4474 48.1713 39.203 48.9446C34.5701 51.7995 29.1787 53.103 23.7841 52.6726L23.6558 52.6615C23.8732 52.6437 24.0798 52.6237 24.2907 52.5993C30.5888 51.8909 36.4122 48.8435 40.6532 44.0366C44.8943 39.2297 47.2571 32.9988 47.2923 26.529C47.3274 20.0592 45.0325 13.8018 40.844 8.94717C36.6554 4.09252 30.8655 0.979236 24.5755 0.1995C24.2711 0.163975 23.9624 0.13067 23.6558 0.104026H23.684C23.8406 0.0907043 23.9971 0.0840429 24.1537 0.070721C27.6786 -0.1644 31.2133 0.341562 34.5391 1.5573C37.8648 2.77304 40.9109 4.6727 43.4888 7.13874C46.0667 9.60478 48.1216 12.5847 49.5264 15.8942C50.9312 19.2038 51.656 22.7724 51.6559 26.3794Z" fill="#121212"/>
<path id="Vector_13" d="M62.7019 48.4118C62.1414 48.0925 61.6751 47.6256 61.3516 47.0596C61.0244 46.463 60.8525 45.7907 60.8525 45.1069C60.8525 44.4231 61.0244 43.7507 61.3516 43.1541C61.6751 42.5881 62.1414 42.1212 62.7019 41.8019C63.276 41.4814 63.9198 41.3135 64.5741 41.3135C65.2284 41.3135 65.8722 41.4814 66.4463 41.8019C67.0042 42.1215 67.4676 42.5886 67.7879 43.1541C68.1117 43.7518 68.2816 44.4238 68.2816 45.1069C68.2816 45.79 68.1117 46.4619 67.7879 47.0596C67.4665 47.6258 67.0015 48.0929 66.4419 48.4118C65.8686 48.7323 65.2255 48.9003 64.5719 48.9003C63.9183 48.9003 63.2752 48.7323 62.7019 48.4118ZM65.7243 47.2706C66.0608 47.0657 66.3319 46.7657 66.505 46.4069C66.6988 46.0006 66.7949 45.5531 66.7855 45.1013C66.7955 44.6516 66.6993 44.2061 66.505 43.8024C66.3322 43.4457 66.0608 43.1485 65.7243 42.9476C65.3733 42.7445 64.9752 42.6418 64.5719 42.6501C64.1666 42.6424 63.7665 42.7451 63.4129 42.9476C63.0747 43.1476 62.8017 43.4449 62.628 43.8024C62.4336 44.2061 62.3374 44.6516 62.3475 45.1013C62.338 45.5531 62.4341 46.0006 62.628 46.4069C62.802 46.7664 63.0747 47.0665 63.4129 47.2706C63.7653 47.4765 64.1659 47.5809 64.5719 47.5725C64.9759 47.5815 65.3745 47.4771 65.7243 47.2706Z" fill="#121212"/>
<path id="Vector_14" d="M73.8395 41.4199V42.6189H70.817V44.5173H73.1328V45.6963H70.817V48.8247H69.3623V41.4199H73.8395Z" fill="#121212"/>
<path id="Vector_15" d="M79.3494 41.4199V42.6189H76.327V44.5173H78.6449V45.6963H76.3226V48.8247H74.8679V41.4199H79.3494Z" fill="#121212"/>
<path id="Vector_16" d="M81.5238 48.6339C81.1398 48.476 80.8069 48.2114 80.5627 47.8701C80.3231 47.5268 80.196 47.1149 80.1995 46.6933H81.7412C81.7451 46.829 81.7751 46.9626 81.8296 47.0864C81.884 47.2103 81.9619 47.3219 82.0587 47.415C82.2783 47.601 82.5587 47.6954 82.8436 47.6792C83.1309 47.6961 83.4146 47.608 83.6438 47.4305C83.7377 47.3515 83.8126 47.2516 83.8627 47.1384C83.9128 47.0252 83.9369 46.9019 83.933 46.7777C83.9402 46.5779 83.8699 46.3832 83.7373 46.236C83.5977 46.0905 83.4295 45.977 83.2437 45.9029C82.9767 45.7983 82.7045 45.7078 82.4283 45.632C82.0366 45.5195 81.6529 45.3793 81.2802 45.2124C80.9804 45.0711 80.7196 44.8559 80.5214 44.5863C80.2972 44.2627 80.1855 43.8719 80.2039 43.4761C80.1945 43.0697 80.3068 42.67 80.5257 42.3304C80.7503 41.9972 81.0644 41.7373 81.4303 41.5821C81.8507 41.4023 82.3031 41.3139 82.7588 41.3224C83.4112 41.2922 84.0543 41.4886 84.5832 41.8797C84.8155 42.0653 85.0052 42.3006 85.139 42.5692C85.2727 42.8377 85.3472 43.1328 85.3573 43.4339H83.7569C83.752 43.3116 83.721 43.1918 83.6662 43.0829C83.6114 42.974 83.534 42.8786 83.4394 42.8033C83.216 42.6274 82.9385 42.5384 82.6566 42.5524C82.4108 42.5392 82.1688 42.6182 81.976 42.7745C81.889 42.8559 81.821 42.9562 81.777 43.068C81.7329 43.1798 81.714 43.3003 81.7216 43.4206C81.7188 43.5117 81.7343 43.6025 81.7672 43.6873C81.8001 43.7721 81.8497 43.8491 81.913 43.9135C82.0519 44.048 82.2151 44.1536 82.3935 44.2243C82.657 44.3312 82.9255 44.4246 83.1981 44.5041C83.5926 44.6173 83.9785 44.7598 84.3527 44.9304C84.6548 45.076 84.9181 45.2938 85.1203 45.5654C85.346 45.8884 85.4593 46.2792 85.4421 46.6756C85.4451 47.0669 85.3412 47.4514 85.142 47.7857C84.9291 48.1361 84.6229 48.4172 84.2592 48.5962C83.8284 48.8081 83.3543 48.9124 82.8763 48.9004C82.4124 48.9061 81.9522 48.8155 81.5238 48.6339Z" fill="#121212"/>
<path id="Vector_17" d="M92.7178 41.4199V48.8247H91.2631V45.6741H88.1559V48.8247H86.7012V41.4199H88.1559V44.464H91.2631V41.4199H92.7178Z" fill="#121212"/>
<path id="Vector_18" d="M95.6577 48.4119C95.0973 48.0926 94.6309 47.6256 94.3074 47.0597C93.9802 46.4631 93.8083 45.7907 93.8083 45.1069C93.8083 44.4231 93.9802 43.7507 94.3074 43.1541C94.6309 42.5882 95.0973 42.1212 95.6577 41.8019C96.2324 41.4821 96.8765 41.3145 97.531 41.3145C98.1855 41.3145 98.8296 41.4821 99.4042 41.8019C99.9615 42.1217 100.424 42.5887 100.744 43.1541C101.068 43.7519 101.237 44.4238 101.237 45.1069C101.237 45.79 101.068 46.4619 100.744 47.0597C100.424 47.6268 99.9583 48.0942 99.3977 48.4119C98.8244 48.7323 98.1813 48.9003 97.5277 48.9003C96.8741 48.9003 96.231 48.7323 95.6577 48.4119ZM98.6823 47.2706C99.0181 47.0656 99.2885 46.7656 99.4608 46.4069C99.6546 46.0007 99.7508 45.5531 99.7413 45.1013C99.7513 44.6517 99.6551 44.2061 99.4608 43.8024C99.2888 43.4459 99.0181 43.1487 98.6823 42.9476C98.3271 42.7523 97.93 42.6501 97.5266 42.6501C97.1232 42.6501 96.7261 42.7523 96.3709 42.9476C96.0322 43.147 95.7591 43.4445 95.5859 43.8024C95.3916 44.2061 95.2954 44.6517 95.3054 45.1013C95.296 45.5531 95.3921 46.0007 95.5859 46.4069C95.7594 46.7669 96.0323 47.0672 96.3709 47.2706C96.7252 47.4686 97.1227 47.5724 97.5266 47.5724C97.9306 47.5724 98.328 47.4686 98.6823 47.2706Z" fill="#121212"/>
<path id="Vector_19" d="M106.047 48.8252L104.447 45.9387H103.762V48.8252H102.307V41.4204H105.03C105.524 41.4054 106.014 41.5088 106.462 41.7223C106.831 41.8998 107.14 42.184 107.352 42.5394C107.564 42.9202 107.666 43.3551 107.645 43.7928C107.624 44.2306 107.48 44.6531 107.232 45.0106C106.927 45.4223 106.488 45.7102 105.995 45.8233L107.735 48.8252H106.047ZM103.762 44.8286H104.977C105.136 44.8415 105.296 44.8223 105.447 44.772C105.599 44.7217 105.739 44.6413 105.86 44.5355C105.961 44.428 106.038 44.3006 106.088 44.1612C106.138 44.0218 106.16 43.8733 106.152 43.7251C106.16 43.5798 106.138 43.4344 106.088 43.2982C106.038 43.162 105.96 43.0381 105.86 42.9346C105.612 42.7284 105.296 42.6275 104.977 42.6527H103.762V44.8286Z" fill="#121212"/>
<path id="Vector_20" d="M110.422 42.6193V44.4755H112.864V45.6522H110.422V47.615H113.175V48.8251H108.967V41.4092H113.175V42.6193H110.422Z" fill="#121212"/>
<path id="Vector_21" d="M121.414 47.4152H118.526L118.048 48.8251H116.526L119.135 41.4092H120.829L123.438 48.8251H121.901L121.414 47.4152ZM121.018 46.2229L119.97 43.1255L118.924 46.2229H121.018Z" fill="#121212"/>
<path id="Vector_22" d="M125.839 41.4199V46.0005C125.825 46.209 125.852 46.4183 125.918 46.6161C125.984 46.8139 126.088 46.9964 126.224 47.1528C126.53 47.4105 126.914 47.5515 127.311 47.5515C127.708 47.5515 128.092 47.4105 128.398 47.1528C128.534 46.9964 128.638 46.8139 128.704 46.6161C128.77 46.4183 128.797 46.209 128.783 46.0005V41.4199H130.246V46.0005C130.265 46.5614 130.126 47.1159 129.846 47.5991C129.59 48.0247 129.219 48.3649 128.777 48.5783C128.311 48.8027 127.802 48.9159 127.287 48.9091C126.778 48.9159 126.274 48.8027 125.815 48.5783C125.38 48.3639 125.017 48.0233 124.771 47.5991C124.502 47.1124 124.369 46.5593 124.386 46.0005V41.4199H125.839Z" fill="#121212"/>
<path id="Vector_23" d="M136.698 43.647C136.541 43.3474 136.302 43.1006 136.011 42.9365C135.697 42.7686 135.347 42.6845 134.993 42.6923C134.593 42.6848 134.198 42.7876 133.849 42.9898C133.515 43.1901 133.245 43.4846 133.071 43.838C132.885 44.2395 132.788 44.6782 132.788 45.1224C132.788 45.5667 132.885 46.0054 133.071 46.4069C133.251 46.7619 133.527 47.0564 133.867 47.2551C134.229 47.4589 134.638 47.5616 135.052 47.5526C135.543 47.5746 136.026 47.4172 136.413 47.1085C136.78 46.7829 137.025 46.3384 137.109 45.8496H134.619V44.715H138.546V46.0006C138.448 46.5204 138.235 47.0102 137.922 47.4327C137.597 47.8774 137.176 48.2392 136.691 48.4896C136.172 48.7572 135.597 48.8935 135.015 48.887C134.352 48.8965 133.699 48.7297 133.119 48.403C132.563 48.0927 132.103 47.6316 131.788 47.0708C131.471 46.47 131.305 45.7982 131.305 45.1158C131.305 44.4334 131.471 43.7616 131.788 43.1608C132.101 42.5943 132.561 42.1277 133.119 41.813C133.741 41.4759 134.439 41.3105 135.143 41.3331C135.847 41.3557 136.533 41.5655 137.133 41.9418C137.734 42.3442 138.176 42.9505 138.381 43.6537L136.698 43.647Z" fill="#121212"/>
<path id="Vector_24" d="M147.533 41.4199V48.8247H146.078V44.0022L144.147 48.8247H143.045L141.088 44.0088V48.8247H139.633V41.4199H141.286L143.591 46.9263L145.887 41.4199H147.533Z" fill="#121212"/>
<path id="Vector_25" d="M150.421 42.6193V44.4755H152.863V45.6522H150.421V47.615H153.176V48.8251H148.966V41.4092H153.176V42.6193H150.421Z" fill="#121212"/>
<path id="Vector_26" d="M160.697 48.8251H159.242L155.948 43.7427V48.8251H154.493V41.4092H155.948L159.242 46.5026V41.4092H160.697V48.8251Z" fill="#121212"/>
<path id="Vector_27" d="M167.066 41.4199V42.6189H165.133V48.8247H163.678V42.6189H161.747V41.4199H167.066Z" fill="#121212"/>
<path id="Vector_28" d="M172.572 47.4152H169.684L169.206 48.8251H167.684L170.293 41.4092H171.98L174.59 48.8251H173.052L172.572 47.4152ZM172.178 46.2229L171.128 43.1255L170.08 46.2229H172.178Z" fill="#121212"/>
<path id="Vector_29" d="M180.5 41.4199V42.6189H178.567V48.8247H177.112V42.6189H175.181V41.4199H180.5Z" fill="#121212"/>
<path id="Vector_30" d="M183.013 41.4199V48.8247H181.559V41.4199H183.013Z" fill="#121212"/>
<path id="Vector_31" d="M185.945 48.4118C185.384 48.0925 184.918 47.6256 184.594 47.0596C184.267 46.463 184.095 45.7907 184.095 45.1069C184.095 44.4231 184.267 43.7507 184.594 43.1541C184.918 42.5881 185.384 42.1212 185.945 41.8019C186.519 41.4814 187.162 41.3135 187.817 41.3135C188.471 41.3135 189.115 41.4814 189.689 41.8019C190.247 42.1215 190.71 42.5886 191.031 43.1541C191.354 43.7518 191.524 44.4238 191.524 45.1069C191.524 45.79 191.354 46.4619 191.031 47.0596C190.709 47.6258 190.244 48.0929 189.685 48.4118C189.111 48.7323 188.468 48.9003 187.815 48.9003C187.161 48.9003 186.518 48.7323 185.945 48.4118ZM188.967 47.2706C189.303 47.0657 189.575 46.7657 189.748 46.4069C189.94 46.004 190.036 45.5604 190.028 45.1124C190.038 44.6627 189.942 44.2172 189.748 43.8135C189.575 43.4568 189.303 43.1596 188.967 42.9587C188.616 42.7556 188.218 42.6529 187.815 42.6612C187.409 42.6535 187.009 42.7562 186.656 42.9587C186.317 43.1587 186.044 43.456 185.871 43.8135C185.676 44.2172 185.58 44.6627 185.59 45.1124C185.581 45.5642 185.677 46.0117 185.871 46.418C186.045 46.7775 186.317 47.0776 186.656 47.2817C187.008 47.4876 187.409 47.592 187.815 47.5836C188.22 47.5892 188.618 47.4809 188.967 47.2706Z" fill="#121212"/>
<path id="Vector_32" d="M198.806 48.8251H197.351L194.057 43.7427V48.8251H192.603V41.4092H194.057L197.351 46.5026V41.4092H198.806V48.8251Z" fill="#121212"/>
<path id="Vector_33" d="M199.345 38.2052H60.3122C60.1392 38.2052 59.9733 38.1351 59.851 38.0101C59.7286 37.8852 59.6599 37.7158 59.6599 37.5391C59.6599 37.3625 59.7286 37.1931 59.851 37.0681C59.9733 36.9432 60.1392 36.873 60.3122 36.873H199.345C199.518 36.873 199.684 36.9432 199.807 37.0681C199.929 37.1931 199.998 37.3625 199.998 37.5391C199.998 37.7158 199.929 37.8852 199.807 38.0101C199.684 38.1351 199.518 38.2052 199.345 38.2052Z" fill="#121212"/>
</g>
<defs>
<filter id="filter0_d_574_532" x="5.6665" y="-13.9873" width="55.9893" height="80.7388" filterUnits="userSpaceOnUse" color-interpolation-filters="sRGB">
<feFlood flood-opacity="0" result="BackgroundImageFix"/>
<feColorMatrix in="SourceAlpha" type="matrix" values="0 0 0 0 0 0 0 0 0 0 0 0 0 0 0 0 0 0 127 0" result="hardAlpha"/>
<feOffset dx="-4"/>
<feGaussianBlur stdDeviation="7"/>
<feComposite in2="hardAlpha" operator="out"/>
<feColorMatrix type="matrix" values="0 0 0 0 0 0 0 0 0 0 0 0 0 0 0 0 0 0 0.15 0"/>
<feBlend mode="normal" in2="BackgroundImageFix" result="effect1_dropShadow_574_532"/>
<feBlend mode="normal" in="SourceGraphic" in2="effect1_dropShadow_574_532" result="shape"/>
</filter>
<clipPath id="clip0_574_532">
<rect width="200" height="60" fill="white"/>
</clipPath>
</defs>
</svg>
