<svg width="1440" height="855" viewBox="0 0 1440 855" fill="none" xmlns="http://www.w3.org/2000/svg">
<g opacity="0.1" clip-path="url(#clip0_676_622)">
<path d="M-95.9912 232.598L-29.258 144.552L223.827 843.408L753.033 485.347L847.294 868H846.151L752.337 487.16L223.268 845.127L-29.6069 146.854L-95.9912 234.44V232.598ZM-95.9912 219.321L-37.0363 136.346L237.234 826.507L755.025 452.43L871.096 868H872.25L755.674 450.597L237.745 824.773L-36.7577 134.035L-96 217.4L-95.9912 219.321ZM-95.9912 204.768L-43.7702 126.263L251.643 807.659L757.651 417.828L898.481 868H899.646L758.237 415.975L252.093 805.912L-43.5683 123.948L-95.9912 202.762V204.768ZM1374.7 868L1440 830.771V829.493L1372.46 868H1374.7ZM-95.9912 190.884L-49.8129 116.588L266.464 788.572L760.221 383.355L928.388 868H929.562L760.749 381.487L266.864 786.812L-49.6747 114.269L-95.9912 188.781V190.884ZM1304.42 868L1440 785.076V783.773L1302.29 868H1304.42ZM-95.9912 177.789L-55.1338 107.31L281.703 769.231L762.737 349.013L960.938 868H962.125L763.205 347.13L282.045 767.458L-55.0701 104.975L-95.9912 175.57V177.789ZM1244.55 868L1440 740.031V738.715L1242.53 868H1244.55ZM-95.9912 165.627L-59.7305 98.3696L297.347 749.625L765.204 314.804L996.249 868H997.438L765.612 312.907L297.637 747.842L-59.7371 96.0479L-95.9912 163.286V165.627ZM1193.63 868L1440 695.622V694.269L1191.7 868H1193.63ZM-95.9912 154.578L-63.5901 89.7711L313.391 729.727L767.622 280.727L1034.43 867.998H1035.65L767.975 278.82L313.623 727.949L-63.6581 87.4603L-95.9912 152.098V154.578ZM1150.51 868L1440 651.882V650.496L1148.66 868H1150.51ZM-95.9912 144.892L-66.7014 81.5102L329.823 709.557L770.002 246.791L1075.66 868H1076.9L770.294 244.869L330.001 707.766L-66.8528 79.1885L-95.9912 142.248V144.892ZM-95.9912 136.874L-69.0579 73.5321L346.637 689.086L772.341 212.983L1118.36 864.727L1440 608.815V607.392L1118.72 863.023L772.576 211.062L346.76 687.284L-69.2795 71.217L-95.9912 134.033V136.874ZM-95.9912 130.926L-70.6487 65.8128L363.821 668.279L774.652 179.323L1140.59 820.11L1440 566.44V564.989L1140.9 818.402L774.825 177.387L363.887 666.488L-70.9427 63.5151L-95.9912 127.861V130.926ZM-95.9912 127.601L-71.4649 58.3609L381.364 647.179L776.925 145.797L1162.44 775.021L1440 524.787V523.29L1162.7 773.3L777.045 143.857L381.377 645.37L-71.8313 56.0632L-95.9912 124.27V127.601ZM-95.9912 127.673L-71.5022 51.1194L399.259 625.725L779.187 112.41L1183.91 729.472L1440 483.88V482.345L1184.11 727.754L779.24 110.469L399.211 623.925L-71.9388 48.8372L-95.9912 124.029V127.673ZM-95.9912 132.246L-70.7584 44.0775L417.495 603.926L781.421 79.1643L1204.97 683.481L1440 443.764V442.174L1205.12 681.749L781.425 77.2219L417.396 602.13L-71.2586 41.8084L-95.9912 128.217V132.246ZM-95.9912 142.989L-69.2115 37.2088L436.06 581.77L783.639 46.0572L1225.62 637.053L1440 404.476V402.843L1225.71 635.323L783.584 44.1192L435.906 579.97L-69.7864 34.9616L-95.9912 138.462V142.989ZM-95.9912 162.475L-66.8725 30.4935L454.943 559.247L785.846 13.0926L1245.83 590.21L1440 366.088V364.391L1245.87 588.472L785.723 11.1545L454.734 557.452L-67.5154 28.2595L-95.9912 157.329V162.475ZM797.157 -9L1265.61 542.958L1440 328.657V326.903L1265.58 541.228L798.61 -9H797.157ZM-95.9912 195.04L-63.7371 23.8988L474.131 536.346L781.991 -9H780.714L473.867 534.559L-64.4436 21.6845L-95.9912 189.038V195.04ZM829.453 -9L1284.91 495.317L1440 292.279V290.451L1284.84 493.581L830.949 -9H829.453ZM-95.9912 248.374L-59.7876 17.405L493.615 513.058L767.472 -9H766.219L493.297 511.282L-60.5665 15.217L-95.9912 241.19V248.374Z" fill="black"/>
</g>
<defs>
<clipPath id="clip0_676_622">
<rect width="1440" height="855" fill="white"/>
</clipPath>
</defs>
</svg>
