<svg width="625" height="513" viewBox="0 0 625 513" fill="none" xmlns="http://www.w3.org/2000/svg">
<g clip-path="url(#clip0_2061_888)">
<path d="M116.919 486.268V275.402C116.935 246.33 124.613 217.775 139.177 192.619C153.74 167.463 174.676 146.594 199.872 132.118C201.029 131.452 202.198 130.8 203.336 130.184C204.474 129.569 205.693 128.925 206.851 128.332C210.371 126.533 214.017 124.835 217.688 123.279C247.934 110.48 281.31 107.008 313.54 113.31C345.77 119.612 375.386 135.401 398.591 158.652C403.761 163.826 408.586 169.334 413.036 175.14C431.187 198.87 442.542 227.095 445.886 256.791C446.575 262.971 446.92 269.184 446.921 275.402V454.359C417.607 453.612 393.989 429.52 393.989 400.014V396.626L391.66 398.707C361.452 425.664 322.391 440.561 281.916 440.561C241.44 440.561 202.379 425.664 172.171 398.707L169.842 396.626V486.268H116.919ZM281.924 163.254C251.987 163.254 223.842 174.921 202.673 196.104C200.369 198.409 198.144 200.835 196.058 203.311C179.237 223.296 170.178 247.737 169.856 273.995C169.856 274.459 169.856 274.929 169.856 275.394C169.856 305.35 181.516 333.513 202.682 354.695C223.848 375.877 251.995 387.541 281.932 387.541C296.656 387.581 311.241 384.699 324.844 379.061C338.447 373.423 350.798 365.141 361.18 354.695C382.349 333.513 394.006 305.353 394.006 275.396C394.006 245.44 382.349 217.277 361.18 196.098C340.012 174.919 311.858 163.254 281.924 163.254Z" fill="white"/>
<path d="M281.924 111.693C303.413 111.669 324.695 115.893 344.548 124.121C364.401 132.35 382.434 144.421 397.613 159.642C402.739 164.772 407.524 170.233 411.937 175.99C429.936 199.517 441.196 227.504 444.508 256.947C445.191 263.079 445.534 269.244 445.534 275.413V452.918C431.995 452.212 419.244 446.33 409.914 436.487C400.584 426.644 395.389 413.591 395.401 400.025V393.514L390.743 397.675C360.79 424.402 322.06 439.172 281.928 439.172C241.796 439.172 203.066 424.402 173.114 397.675L168.45 393.514V484.88H118.317V275.402C118.333 246.574 125.944 218.26 140.384 193.314C154.824 168.369 175.582 147.675 200.565 133.318C201.714 132.66 202.869 132.017 204.001 131.401C205.134 130.786 206.333 130.156 207.488 129.569C210.977 127.784 214.593 126.096 218.23 124.558C238.38 116.023 260.044 111.646 281.924 111.688M281.924 388.951C312.233 388.951 340.727 377.142 362.17 355.693C383.613 334.245 395.407 305.736 395.407 275.396C395.407 245.057 383.604 216.553 362.17 195.099C340.736 173.645 312.233 161.855 281.924 161.855C251.615 161.855 223.118 173.668 201.678 195.113C199.343 197.449 197.09 199.903 194.981 202.41C177.948 222.646 168.774 247.393 168.45 273.978C168.45 274.448 168.45 274.923 168.45 275.399C168.45 305.73 180.255 334.243 201.686 355.696C223.118 377.15 251.612 388.951 281.932 388.951M281.932 108.89C259.678 108.85 237.644 113.304 217.151 121.987C213.458 123.55 209.781 125.263 206.224 127.081C205.037 127.689 203.855 128.311 202.679 128.947C201.503 129.583 200.338 130.236 199.184 130.906C173.749 145.477 152.616 166.516 137.925 191.892C123.235 217.268 115.508 246.078 115.529 275.405V487.669H171.254V399.751C201.719 426.937 241.112 441.96 281.931 441.96C322.75 441.96 362.143 426.937 392.608 399.751V400.014C392.608 430.809 417.557 455.774 448.333 455.774V275.402C448.332 269.132 447.984 262.868 447.29 256.637C443.92 226.688 432.467 198.221 414.159 174.289C409.673 168.434 404.807 162.88 399.592 157.664C384.155 142.184 365.814 129.906 345.622 121.537C325.43 113.168 303.785 108.872 281.93 108.896L281.932 108.89ZM281.932 386.153C267.398 386.154 253.005 383.289 239.577 377.724C226.149 372.158 213.948 364.001 203.67 353.717C193.393 343.433 185.24 331.224 179.678 317.787C174.116 304.35 171.254 289.949 171.254 275.405C171.254 274.94 171.254 274.476 171.254 274.006C171.57 248.076 180.517 223.942 197.126 204.206C199.187 201.761 201.384 199.366 203.663 197.085C213.94 186.801 226.141 178.643 239.569 173.078C252.996 167.512 267.388 164.647 281.923 164.647C296.457 164.647 310.849 167.512 324.277 173.078C337.704 178.643 349.905 186.801 360.182 197.085C381.088 218.002 392.599 245.812 392.599 275.396C392.599 304.768 380.938 332.936 360.182 353.705C339.427 374.473 311.277 386.141 281.924 386.142L281.932 386.153Z" fill="black"/>
<path d="M448.319 275.405V455.774C417.562 455.774 392.605 430.815 392.605 400.025V399.745C392.015 400.265 391.414 400.797 390.813 401.318C383.713 407.454 376.115 412.988 368.098 417.864C338.251 435.895 303.513 444.127 268.755 441.405L267.916 441.337C269.286 441.224 270.651 441.093 272.012 440.946C310.726 436.749 345.447 419.266 371.551 393.145C401.673 363.004 420.289 321.384 420.289 275.407C420.289 229.431 401.673 187.808 371.551 157.667C345.858 131.961 311.822 114.625 273.846 110.09C271.878 109.855 269.9 109.655 267.913 109.489C267.955 109.489 267.983 109.475 268.025 109.475C269.032 109.391 270.044 109.338 271.05 109.265C304.382 106.783 339.863 115.635 368.19 132.996C393.092 148.261 413.908 169.849 427.933 195.51C441.286 220.022 448.294 247.488 448.319 275.405Z" fill="black"/>
<path d="M38.177 332.332L56.7594 337.15C73.558 341.503 92.0286 336.064 109.126 333.099L120.794 331.076L119.46 310.82L50.5075 313.497L38.177 332.332Z" fill="white"/>
<path d="M70.516 339.396C65.8279 339.44 61.1535 338.886 56.6057 337.746L38.0233 332.928C37.9282 332.904 37.8403 332.857 37.7668 332.792C37.6934 332.727 37.6365 332.646 37.6009 332.554C37.5653 332.463 37.5521 332.364 37.5623 332.267C37.5726 332.169 37.606 332.075 37.6598 331.993L49.9903 313.153C50.0448 313.07 50.118 313.002 50.2041 312.953C50.2901 312.905 50.3865 312.877 50.4852 312.873L119.438 310.204C119.518 310.2 119.598 310.211 119.673 310.238C119.748 310.265 119.817 310.306 119.876 310.36C119.936 310.413 119.984 310.478 120.018 310.55C120.052 310.622 120.072 310.701 120.076 310.78L121.412 331.034C121.422 331.186 121.375 331.337 121.281 331.456C121.186 331.576 121.051 331.657 120.901 331.683L109.233 333.708C106.012 334.268 102.67 334.928 99.4466 335.566C89.8674 337.46 80.0756 339.396 70.516 339.396ZM39.1613 331.963L56.9105 336.565C70.4042 340.062 85.0414 337.169 99.1977 334.369C102.436 333.728 105.785 333.065 109.017 332.505L120.14 330.575L118.882 311.474L50.8459 314.11L39.1613 331.963Z" fill="black"/>
<path d="M63.8195 469.067L65.7012 482.476L74.833 483.224L74.2738 467.268L63.8195 469.067Z" fill="white"/>
<path d="M74.833 483.842H74.7827L65.6509 483.095C65.5112 483.083 65.3798 483.024 65.2782 482.927C65.1766 482.831 65.1108 482.702 65.0916 482.563L63.2071 469.156C63.1859 468.997 63.227 468.836 63.3218 468.706C63.4166 468.576 63.5578 468.488 63.716 468.46L74.1704 466.661C74.2572 466.645 74.3464 466.649 74.4318 466.671C74.5172 466.693 74.5968 466.734 74.6652 466.789C74.7336 466.845 74.7893 466.915 74.8283 466.994C74.8674 467.073 74.8891 467.16 74.8918 467.248L75.451 483.196C75.4536 483.279 75.4395 483.361 75.4097 483.439C75.3798 483.516 75.3348 483.587 75.2772 483.647C75.2196 483.706 75.1506 483.754 75.0743 483.787C74.998 483.819 74.916 483.836 74.833 483.836V483.842ZM66.2436 481.9L74.1927 482.549L73.681 468.001L64.5128 469.579L66.2436 481.9Z" fill="black"/>
<path d="M75.23 507.17C69.4704 507.797 63.6522 507.634 57.9366 506.686C57.3735 506.595 56.836 506.386 56.3588 506.074C55.8816 505.761 55.4754 505.351 55.1667 504.871C54.8579 504.392 54.6535 503.852 54.5666 503.288C54.4798 502.724 54.5124 502.148 54.6624 501.597C56.4491 495.109 59.5611 482.785 64.4737 477.169L65.5669 480.317L67.2781 477.43C67.3935 477.234 67.5533 477.068 67.7448 476.946C67.9362 476.824 68.1538 476.749 68.3798 476.727L70.927 476.613C71.2882 476.577 71.6496 476.678 71.9393 476.897C72.229 477.116 72.4256 477.436 72.4899 477.793L72.9848 480.51L75.8508 476.769L76.5889 487.27C76.8236 490.606 77.2352 493.928 77.822 497.221L78.8006 502.711C78.913 503.775 78.6009 504.84 77.9323 505.676C77.2636 506.511 76.2925 507.048 75.23 507.17Z" fill="white"/>
<path d="M68.391 508.164C64.8547 508.164 61.3244 507.873 57.836 507.293C57.1875 507.188 56.5684 506.948 56.0188 506.588C55.4693 506.228 55.0016 505.756 54.6461 505.203C54.2907 504.65 54.0554 504.029 53.9556 503.379C53.8558 502.73 53.8938 502.066 54.0669 501.432L54.4527 500.033C56.2813 493.318 59.3403 482.11 64.0096 476.772C64.0802 476.69 64.1711 476.628 64.2733 476.593C64.3754 476.558 64.4851 476.55 64.5912 476.571C64.6976 476.592 64.7968 476.64 64.8787 476.711C64.9607 476.782 65.0225 476.874 65.0581 476.976L65.7236 478.848L66.7581 477.102C66.9236 476.825 67.1515 476.589 67.4238 476.416C67.6962 476.242 68.0053 476.134 68.3267 476.101L70.9074 475.983C71.4167 475.941 71.9235 476.089 72.3299 476.399C72.7363 476.709 73.0135 477.159 73.1079 477.662L73.3511 479.008L75.3671 476.375C75.4442 476.276 75.5491 476.203 75.6682 476.165C75.7873 476.126 75.9151 476.124 76.0353 476.159C76.1571 476.196 76.2647 476.27 76.3433 476.37C76.4219 476.47 76.4676 476.592 76.4743 476.719L77.2125 487.216C77.4477 490.532 77.8574 493.832 78.4399 497.104L79.4185 502.593C79.554 503.825 79.1979 505.06 78.4276 506.031C77.6574 507.001 76.5353 507.628 75.3056 507.775C73.0098 508.034 70.7013 508.164 68.391 508.164ZM64.2528 478.417C60.1483 483.831 57.3494 494.085 55.6439 500.352L55.258 501.751C55.128 502.214 55.0979 502.699 55.1698 503.174C55.2416 503.649 55.4137 504.103 55.6746 504.507C55.9379 504.918 56.2845 505.269 56.692 505.537C57.0994 505.806 57.5587 505.986 58.0401 506.065C63.6982 507.005 69.4584 507.167 75.1602 506.544C76.06 506.438 76.8821 505.982 77.4488 505.275C78.0155 504.568 78.2812 503.666 78.1883 502.764L77.2153 497.319C76.6256 494.004 76.2111 490.659 75.9738 487.3L75.3475 478.428L73.4742 480.877C73.4012 480.971 73.3025 481.042 73.19 481.081C73.0775 481.121 72.956 481.127 72.8401 481.099C72.7243 481.071 72.619 481.01 72.537 480.923C72.4551 480.836 72.3999 480.728 72.3781 480.611L71.8832 477.891C71.8433 477.688 71.7299 477.507 71.5648 477.383C71.3997 477.258 71.1945 477.199 70.9885 477.217L68.4078 477.334C68.2845 477.351 68.1666 477.396 68.0629 477.464C67.9593 477.533 67.8726 477.624 67.8094 477.732L66.0983 480.622C66.0374 480.722 65.9495 480.804 65.8447 480.857C65.7399 480.91 65.6224 480.932 65.5055 480.921C65.3887 480.909 65.2778 480.864 65.1857 480.791C65.0936 480.718 65.0241 480.621 64.9854 480.51L64.2528 478.417Z" fill="black"/>
<path d="M65.9445 503.771C62.9701 503.793 60.0046 503.443 57.1174 502.727C57.0373 502.709 56.9619 502.674 56.8954 502.625C56.829 502.577 56.7728 502.516 56.7303 502.446C56.6878 502.375 56.6597 502.297 56.6477 502.216C56.6357 502.134 56.6401 502.051 56.6605 501.972C56.681 501.892 56.7172 501.817 56.7669 501.752C56.8166 501.686 56.8789 501.631 56.95 501.59C57.0212 501.549 57.0998 501.522 57.1814 501.512C57.2629 501.502 57.3458 501.508 57.4249 501.53C66.2632 503.804 75.6355 501.457 75.7278 501.432C75.8852 501.395 76.0508 501.421 76.1892 501.505C76.3276 501.588 76.4277 501.723 76.4679 501.88C76.5082 502.037 76.4854 502.203 76.4045 502.343C76.3236 502.483 76.1911 502.586 76.0353 502.629C72.7262 503.394 69.3406 503.777 65.9445 503.771Z" fill="black"/>
<path d="M62.9023 493.676C62.7459 493.666 62.5994 493.596 62.4924 493.482C62.3854 493.367 62.3259 493.216 62.3259 493.06C62.3259 492.903 62.3854 492.752 62.4924 492.637C62.5994 492.523 62.7459 492.453 62.9023 492.443L71.4358 492.395C71.5996 492.395 71.7568 492.46 71.8727 492.576C71.9886 492.692 72.0537 492.849 72.0537 493.013C72.0537 493.177 71.9886 493.335 71.8727 493.451C71.7568 493.567 71.5996 493.632 71.4358 493.632L62.9023 493.676Z" fill="black"/>
<path d="M106.16 460.41L108.209 480L119.153 479.617L118.974 459.962L106.16 460.41Z" fill="white"/>
<path d="M108.223 480.619C108.069 480.619 107.921 480.561 107.808 480.458C107.694 480.354 107.623 480.212 107.608 480.059L105.559 460.474C105.55 460.39 105.558 460.305 105.584 460.224C105.609 460.143 105.651 460.068 105.707 460.004C105.762 459.94 105.83 459.888 105.907 459.852C105.983 459.815 106.067 459.795 106.151 459.792L118.966 459.344C119.048 459.341 119.13 459.355 119.207 459.384C119.284 459.414 119.355 459.458 119.414 459.515C119.473 459.572 119.521 459.641 119.553 459.717C119.586 459.793 119.603 459.874 119.603 459.957L119.782 479.612C119.783 479.772 119.721 479.928 119.61 480.044C119.499 480.16 119.347 480.229 119.186 480.235L108.243 480.619H108.223ZM106.856 461.003L108.777 479.362L118.541 479.021L118.376 460.6L106.856 461.003Z" fill="black"/>
<path d="M105.74 491.186C105.757 492.089 106.082 492.959 106.662 493.651C107.241 494.344 108.04 494.817 108.925 494.992C115.269 496.237 129.551 499.001 133.617 499.468C138.89 500.064 145.282 498.231 147.946 495.064C150.611 491.897 141.373 484.877 137.02 482.359C130.55 478.619 124.194 471 121.641 470.737C119.089 470.474 114.576 478.045 114.576 478.045L106.683 475.046C106.683 475.046 105.55 481.761 105.74 491.186Z" fill="white"/>
<path d="M135.666 500.193C134.958 500.193 134.251 500.154 133.547 500.075C129.423 499.608 114.872 496.788 108.808 495.599C107.786 495.392 106.866 494.845 106.196 494.046C105.527 493.248 105.148 492.245 105.122 491.203C104.935 481.828 106.053 475.009 106.065 474.942C106.079 474.851 106.115 474.764 106.167 474.688C106.22 474.612 106.289 474.549 106.37 474.503C106.45 474.457 106.54 474.43 106.633 474.424C106.725 474.418 106.817 474.432 106.903 474.467L114.319 477.281C115.518 475.323 119.158 469.867 121.706 470.119C123.188 470.273 125.34 472.17 128.301 474.797C131.05 477.231 134.173 479.987 137.338 481.822C140.85 483.853 148.318 489.295 148.995 493.159C149.083 493.559 149.079 493.975 148.982 494.374C148.885 494.772 148.698 495.143 148.436 495.459C146.04 498.284 140.73 500.193 135.666 500.193ZM107.172 475.891C106.515 480.958 106.243 486.067 106.358 491.175C106.377 491.936 106.652 492.667 107.141 493.25C107.629 493.833 108.3 494.233 109.045 494.384C115.096 495.57 129.607 498.385 133.687 498.847C138.94 499.44 144.997 497.605 147.474 494.65C147.617 494.471 147.716 494.262 147.765 494.038C147.813 493.814 147.809 493.582 147.753 493.36C147.233 490.395 140.998 485.37 136.695 482.882C133.415 480.986 130.25 478.182 127.468 475.712C124.994 473.518 122.653 471.451 121.566 471.339H121.485C119.955 471.339 116.849 475.404 115.096 478.35C115.022 478.475 114.906 478.571 114.769 478.619C114.632 478.667 114.482 478.665 114.346 478.613L107.172 475.891Z" fill="black"/>
<path d="M135.468 496.125C124.203 496.125 109.249 491.298 108.385 491.016C108.309 490.991 108.237 490.951 108.176 490.898C108.114 490.845 108.064 490.781 108.027 490.709C107.991 490.636 107.969 490.558 107.963 490.477C107.956 490.396 107.966 490.315 107.991 490.238C108.016 490.161 108.056 490.09 108.109 490.028C108.162 489.967 108.226 489.916 108.298 489.88C108.37 489.843 108.449 489.821 108.53 489.815C108.61 489.809 108.692 489.818 108.768 489.843C109.048 489.936 137.467 499.107 144.988 492.535C145.048 492.477 145.12 492.432 145.198 492.402C145.276 492.372 145.36 492.358 145.443 492.362C145.527 492.365 145.609 492.386 145.684 492.422C145.76 492.458 145.827 492.509 145.882 492.572C145.937 492.635 145.979 492.709 146.005 492.788C146.031 492.868 146.041 492.952 146.033 493.035C146.026 493.119 146.001 493.2 145.961 493.273C145.922 493.347 145.867 493.412 145.802 493.464C143.571 495.414 139.79 496.125 135.468 496.125Z" fill="black"/>
<path d="M123.601 485.109C123.478 485.109 123.358 485.072 123.256 485.003C123.154 484.934 123.076 484.836 123.03 484.722C122.984 484.608 122.973 484.483 122.998 484.362C123.024 484.242 123.085 484.132 123.174 484.046L128.562 478.828C128.679 478.714 128.838 478.652 129.002 478.655C129.166 478.658 129.322 478.726 129.435 478.844C129.549 478.962 129.611 479.12 129.609 479.284C129.606 479.448 129.538 479.604 129.42 479.718L124.032 484.936C123.916 485.047 123.762 485.109 123.601 485.109Z" fill="black"/>
<path d="M57.2684 315C57.2684 315 54.752 395.495 53.7119 416.75C52.873 433.845 57.3215 459.095 59.0914 468.322C59.2768 469.294 59.8161 470.163 60.605 470.759C61.3939 471.356 62.376 471.638 63.361 471.551L72.9877 470.712C73.9837 470.621 74.9096 470.161 75.5826 469.421C76.2555 468.68 76.6266 467.714 76.6225 466.714C76.5834 458.67 76.5359 439.2 76.8378 426.425C76.959 421.141 77.9023 415.908 79.6339 410.914C81.6889 405.011 84.4514 395.951 85.4272 387.564C87.0545 373.575 93.491 351.363 93.491 351.363C93.491 351.363 101.879 446.301 103.744 466.269C103.821 467.131 104.228 467.93 104.88 468.5C105.531 469.069 106.378 469.364 107.242 469.324C110.796 469.179 115.664 469.777 119.293 468.348C119.837 468.135 120.316 467.784 120.684 467.33C121.051 466.876 121.295 466.334 121.39 465.757C122.676 457.951 128.727 423.462 126.982 404.381C125.025 382.67 123.523 310.545 123.523 310.545L57.2684 315Z" fill="black"/>
<path d="M51.626 319.722C51.626 319.722 71.8245 325.161 94.9365 326.157C108.584 326.739 117.733 323.759 117.733 323.759L104.711 218.092C104.711 218.092 103.998 209.81 89.5122 205.96C81.7337 203.893 75.8312 212.882 75.8312 212.882L51.626 319.722Z" fill="white"/>
<path d="M98.4203 326.837C97.287 326.837 96.1164 326.813 94.9085 326.764C71.981 325.788 51.6707 320.374 51.4666 320.329C51.3127 320.288 51.1808 320.188 51.0984 320.052C51.0161 319.915 50.9897 319.752 51.0248 319.596L75.2301 212.756C75.246 212.683 75.2755 212.614 75.3168 212.552C75.5656 212.171 81.5519 203.218 89.6715 205.375C104.407 209.292 105.296 217.686 105.329 218.05L118.348 323.673C118.365 323.815 118.332 323.959 118.255 324.08C118.178 324.201 118.062 324.291 117.925 324.336C117.839 324.364 110.091 326.837 98.4203 326.837ZM52.3613 319.283C55.8144 320.162 74.3326 324.66 94.9617 325.539C106.585 326.031 114.998 323.899 117.05 323.315L104.093 218.187C104.093 218.089 103.179 210.255 89.3472 206.579C82.4969 204.757 77.0447 212.247 76.4016 213.153L52.3613 319.283Z" fill="black"/>
<path d="M28.6984 195.513C28.7599 199.539 48.9053 203.21 54.5953 203.067C64.2332 202.807 68.0498 206.061 68.0498 206.061C68.0498 206.061 73.2336 200.535 86.2491 200.72C98.4314 200.896 104.854 209.813 111.346 219.124C111.346 219.124 127.563 220.856 131.251 238.608C134.939 256.36 145.201 244.025 144.421 265.07C144.004 276.261 139.234 287.961 130.365 284.498C121.496 281.034 118.795 277.148 118.795 277.148C118.795 277.148 123.028 291.215 123.677 299.659C123.956 303.179 124.032 306.209 124.035 308.545C124.044 312.39 124.54 316.219 125.511 319.94L126.744 324.683C127.18 326.321 127.167 328.047 126.707 329.679C126.246 331.311 125.355 332.789 124.127 333.957C120.347 337.494 115.012 340.392 106.56 339.998C106.56 339.998 107.247 322.909 105.335 313.268C104.423 308.682 101.826 289.05 101.177 270.215C100.738 257.51 103.694 230.827 103.243 218.584C103.146 215.845 76.2477 209.231 76.888 211.939C77.7492 215.562 79.7176 223.995 79.9385 227.498C81.2191 247.799 76.5833 265.685 70.021 277.142C58.2777 297.608 54.5925 300.202 50.3956 341.979C50.3956 341.979 41.9041 335.41 37.5758 332.38C37.5758 332.38 43.1931 275.41 46.4392 265.453C49.6854 255.495 51.4162 242.072 47.9547 237.092C44.4932 232.111 33.8906 226.267 25.6675 219.988C17.4444 213.71 0.0866184 207.261 7.9239 189.433C15.188 172.904 28.5363 184.011 28.6984 195.513Z" fill="white"/>
<path d="M50.3956 342.594C50.2588 342.595 50.1258 342.55 50.0182 342.466C49.9343 342.401 41.4875 335.874 37.2235 332.886C37.1348 332.824 37.064 332.739 37.0183 332.641C36.9727 332.543 36.9537 332.434 36.9635 332.326C37.1927 329.999 42.6226 275.178 45.852 265.271C49.0815 255.364 50.7507 242.203 47.4458 237.453C45.2257 234.26 39.849 230.606 34.1535 226.74C31.1785 224.72 28.1 222.632 25.2928 220.489C23.8948 219.426 22.2367 218.352 20.4697 217.213C12.1067 211.824 0.654203 204.444 7.35909 189.193C11.198 180.467 16.256 180.069 18.9318 180.615C24.4568 181.734 29.2101 188.561 29.3163 195.524C29.3163 195.843 29.5959 196.179 29.8308 196.403C33.3342 199.76 49.6826 202.583 54.5785 202.457C62.6171 202.262 66.7132 204.416 67.9994 205.269C69.4589 203.985 74.956 199.953 86.2575 200.11C98.862 200.292 105.41 209.539 111.701 218.556C113.938 218.909 128.405 221.818 131.858 238.491C133.494 246.389 136.348 248.051 139.108 249.659C142.382 251.567 145.475 253.369 145.039 265.103C144.787 271.941 142.673 281.121 137.554 284.484C135.342 285.936 132.848 286.137 130.141 285.082C124.918 283.043 121.792 280.858 120.076 279.361C121.309 283.762 123.814 293.294 124.3 299.62C124.532 302.65 124.653 305.655 124.658 308.553C124.669 312.347 125.158 316.124 126.112 319.795L127.345 324.535C127.812 326.281 127.799 328.121 127.307 329.861C126.815 331.6 125.862 333.174 124.549 334.416C119.715 338.938 113.821 340.969 106.532 340.625C106.368 340.617 106.214 340.546 106.104 340.425C105.993 340.304 105.935 340.145 105.942 339.981C105.942 339.813 106.604 322.853 104.728 313.402C103.805 308.746 101.208 289.075 100.559 270.251C100.338 263.83 100.984 253.761 101.605 244.022C102.215 234.509 102.844 224.675 102.628 218.62C102.497 218.293 100.85 217.166 95.5823 215.498C87.7031 213.008 79.0522 211.494 77.5367 212.012C79.3849 219.815 80.3999 225.016 80.5536 227.473C81.714 245.846 77.9757 264.535 70.5578 277.464C69.4198 279.448 68.3574 281.263 67.362 282.965C58.2106 298.604 54.7798 304.457 51.0107 342.054C50.9955 342.207 50.9242 342.349 50.8106 342.452C50.697 342.556 50.5491 342.613 50.3956 342.614V342.594ZM38.2273 332.08C41.7419 334.565 47.6667 339.1 49.8923 340.809C53.653 303.934 57.1369 297.98 66.2967 282.335C67.2893 280.64 68.3489 278.827 69.4869 276.846C76.7902 264.118 80.4669 245.689 79.3233 227.548C79.1696 225.139 78.149 219.941 76.2869 212.09C76.2393 211.909 76.2462 211.719 76.307 211.542C76.3677 211.365 76.4794 211.21 76.628 211.097C78.7334 209.357 95.3614 213.615 100.934 216.133C102.967 217.045 103.845 217.773 103.873 218.559C104.091 224.675 103.459 234.543 102.849 244.086C102.228 253.792 101.585 263.83 101.806 270.193C102.452 288.938 105.033 308.523 105.95 313.145C107.65 321.706 107.309 336.238 107.208 339.402C113.874 339.601 119.276 337.656 123.705 333.504C124.855 332.413 125.69 331.031 126.119 329.504C126.549 327.977 126.558 326.363 126.146 324.831L124.913 320.089C123.93 316.317 123.428 312.435 123.42 308.537C123.42 305.672 123.294 302.698 123.062 299.698C122.427 291.42 118.244 277.456 118.202 277.316C118.161 277.175 118.171 277.024 118.231 276.891C118.29 276.757 118.396 276.648 118.527 276.585C118.659 276.521 118.81 276.507 118.951 276.544C119.093 276.581 119.217 276.667 119.301 276.787C119.326 276.821 122.044 280.578 130.589 283.913C132.898 284.817 135.015 284.654 136.874 283.435C140.763 280.88 143.484 273.659 143.803 265.039C144.211 254.046 141.683 252.575 138.49 250.711C135.635 249.047 132.4 247.161 130.661 238.725C127.116 221.611 111.453 219.745 111.293 219.728C111.206 219.719 111.121 219.691 111.046 219.646C110.97 219.601 110.905 219.54 110.854 219.468C104.703 210.635 98.328 201.503 86.2491 201.33C73.7285 201.148 68.5586 206.422 68.5083 206.475C68.3999 206.587 68.2535 206.654 68.0982 206.663C67.9428 206.671 67.7898 206.621 67.6695 206.523C67.6359 206.492 63.8641 203.425 54.6316 203.677C49.4757 203.812 32.7666 200.893 28.9976 197.276C28.4104 196.716 28.1084 196.126 28.1 195.527C28.0022 189.092 23.7019 182.82 18.7082 181.818C14.7155 181.009 11.0946 183.804 8.50829 189.685C2.2284 203.971 12.7247 210.736 21.1575 216.169C22.9442 217.322 24.6329 218.408 26.0617 219.502C28.8578 221.622 31.9054 223.698 34.8664 225.713C40.657 229.647 46.1289 233.359 48.4804 236.742C52.0481 241.876 50.4599 255.168 47.046 265.646C43.9731 275.005 38.711 327.206 38.2273 332.069V332.08Z" fill="black"/>
<path d="M16.4239 123.57C16.4239 123.57 14.6289 122.804 14.2738 124.281C13.9187 125.758 15.9514 127.985 11.6902 133.693C7.42909 139.4 18.9599 130.361 18.9599 130.361C18.9599 130.361 19.6925 125.697 16.4239 123.57Z" fill="white"/>
<path d="M10.9045 136.2C10.804 136.204 10.7039 136.186 10.6114 136.146C10.519 136.106 10.4367 136.046 10.3705 135.97C9.81132 135.43 10.2531 134.591 11.1925 133.324C14.2262 129.25 13.9131 127.093 13.709 125.663C13.6021 125.16 13.5908 124.642 13.6755 124.135C13.7249 123.884 13.8306 123.646 13.9846 123.441C14.1385 123.235 14.3367 123.067 14.5646 122.949C15.4481 122.504 16.547 122.949 16.67 123.002C16.7019 123.017 16.7327 123.034 16.7622 123.053C20.3244 125.369 19.6114 130.249 19.5806 130.456C19.5556 130.61 19.4738 130.75 19.3513 130.847C13.6391 135.327 11.6902 136.2 10.9045 136.2ZM15.4481 123.99C15.3337 123.985 15.2198 124.007 15.1154 124.054C15.0679 124.077 14.942 124.141 14.8749 124.424C14.8332 124.779 14.8521 125.138 14.9309 125.487C15.1518 127.017 15.5208 129.58 12.1852 134.062C12.0146 134.292 11.8776 134.485 11.7713 134.647C13.1861 133.889 15.9654 131.913 18.3811 130.033C18.465 129.121 18.5824 125.758 16.1443 124.121C15.9212 124.039 15.6859 123.995 15.4481 123.99Z" fill="black"/>
<path d="M10.4571 146.784L22.343 121.998C22.4804 121.713 22.6962 121.473 22.9652 121.306C23.2341 121.14 23.545 121.054 23.8613 121.058L34.8245 121.223C35.0994 121.227 35.3688 121.3 35.6086 121.434C35.8484 121.568 36.051 121.76 36.1981 121.993C36.3451 122.225 36.4321 122.491 36.451 122.765C36.4699 123.039 36.4202 123.314 36.3064 123.565L25.1586 148.104C25.0281 148.392 24.8179 148.637 24.5528 148.809C24.2876 148.981 23.9788 149.073 23.6628 149.075L11.9613 149.159C11.6801 149.161 11.403 149.092 11.1561 148.957C10.9091 148.822 10.7005 148.627 10.55 148.389C10.3995 148.152 10.312 147.879 10.2957 147.599C10.2795 147.318 10.335 147.037 10.4571 146.784Z" fill="black"/>
<path d="M10.3985 152.343C12.5877 161.127 15.385 169.749 18.7698 178.145C23.3637 189.384 24.127 192.553 22.455 196.574C20.783 200.594 16.505 203.949 9.22695 200.228C1.8622 196.465 1.63852 151.266 0.91435 147.503C-0.120182 142.126 1.55748 137.02 5.28738 133.648C8.41614 130.822 13.3958 128.629 16.8377 128.956C18.3252 129.099 26.8783 130.495 27.1831 133.782C27.4487 136.726 24.8987 139.177 15.8172 140.629C15.8172 140.629 24.2053 141.594 24.0823 143.586C23.9649 145.67 21.742 145.217 18.3979 145.105C14.7324 144.979 9.44502 146.79 10.3985 152.343Z" fill="white"/>
<path d="M15.0539 202.463C13.1833 202.463 11.1394 201.904 8.94451 200.785C3.58731 198.046 1.85098 177.118 0.771709 154.9C0.595559 151.263 0.455782 148.384 0.307592 147.626C-0.749308 142.128 0.95909 136.731 4.87354 133.195C8.29308 130.103 13.4629 128.011 16.8965 128.346C16.9999 128.346 27.4096 129.533 27.801 133.732C28.0806 136.944 25.3964 139.154 19.3765 140.573C22.0244 141.132 24.7925 142.072 24.703 143.628C24.566 146.031 22.3123 145.919 19.7008 145.788C19.2842 145.766 18.8425 145.743 18.3811 145.726C16.4239 145.67 13.5719 146.213 12.0173 147.995C11.0639 149.089 10.7256 150.513 11.0164 152.226C13.2007 160.971 15.9865 169.555 19.3541 177.915C23.9256 189.106 24.8344 192.495 23.0338 196.817C21.9936 199.335 20.1958 201.148 17.9729 201.965C17.0371 202.303 16.0487 202.472 15.0539 202.463ZM16.1248 129.541C13.0184 129.541 8.67613 131.418 5.70115 134.107C2.10825 137.353 0.545212 142.316 1.52103 147.385C1.6832 148.242 1.80069 150.869 2.0048 154.844C2.61713 167.435 4.04866 196.887 9.50651 199.679C12.5821 201.252 15.2831 201.638 17.5367 200.799C19.4324 200.102 20.9758 198.518 21.8846 196.336C23.4364 192.612 22.8492 189.758 18.1994 178.38C14.8075 169.952 12.0001 161.3 9.79731 152.486C9.79617 152.474 9.79617 152.462 9.79731 152.449C9.43383 150.343 9.86724 148.569 11.0835 147.176C12.9177 145.072 16.0688 144.409 18.4175 144.487C18.8872 144.504 19.3346 144.526 19.7568 144.546C22.6591 144.694 23.3917 144.616 23.4644 143.55C23.5007 142.898 20.137 141.748 15.7417 141.241C15.5949 141.222 15.4599 141.151 15.361 141.041C15.2622 140.931 15.2061 140.789 15.2031 140.641C15.2 140.493 15.2502 140.349 15.3444 140.235C15.4386 140.12 15.5706 140.044 15.7165 140.019C25.7822 138.407 26.7329 135.719 26.5651 133.836C26.3498 131.438 19.575 129.838 16.779 129.572C16.5665 129.552 16.3485 129.541 16.1248 129.541Z" fill="black"/>
<path d="M60.8864 220.246H60.8249C60.7438 220.239 60.6648 220.216 60.5926 220.178C60.5205 220.141 60.4565 220.089 60.4044 220.026C60.3524 219.963 60.3134 219.891 60.2896 219.813C60.2657 219.735 60.2577 219.653 60.2657 219.572C60.2993 219.236 61.1465 211.282 68.2596 205.023C68.3206 204.97 68.3915 204.928 68.4683 204.902C68.5451 204.876 68.6263 204.865 68.7073 204.87C68.7884 204.876 68.8675 204.897 68.9404 204.933C69.0132 204.968 69.0783 205.018 69.1319 205.079C69.1855 205.14 69.2266 205.211 69.2528 205.288C69.279 205.365 69.2898 205.446 69.2846 205.527C69.2795 205.608 69.2584 205.688 69.2226 205.76C69.1868 205.833 69.137 205.898 69.076 205.952C62.3432 211.878 61.5015 219.619 61.496 219.695C61.4789 219.845 61.4076 219.984 61.2954 220.086C61.1832 220.187 61.0377 220.244 60.8864 220.246Z" fill="black"/>
<path d="M77.6262 215.615C77.5032 215.615 77.383 215.578 77.281 215.51C77.1789 215.441 77.0996 215.343 77.053 215.229C75.7753 212.065 75.6802 209.371 76.7734 207.228C78.2302 204.377 81.2471 203.604 81.3645 203.574C81.4449 203.548 81.5297 203.54 81.6136 203.548C81.6975 203.557 81.7787 203.582 81.8523 203.624C81.9259 203.665 81.9904 203.721 82.0416 203.788C82.0928 203.855 82.1298 203.931 82.1503 204.013C82.1707 204.095 82.1742 204.18 82.1605 204.264C82.1468 204.347 82.1163 204.426 82.0707 204.497C82.0251 204.568 81.9654 204.629 81.8955 204.676C81.8255 204.723 81.7466 204.756 81.6637 204.771C81.6274 204.771 79.055 205.459 77.8667 207.801C76.9496 209.611 77.0587 211.956 78.1966 214.768C78.2575 214.92 78.2557 215.089 78.1917 215.24C78.1278 215.39 78.0069 215.509 77.8555 215.571C77.7825 215.6 77.7048 215.615 77.6262 215.615Z" fill="black"/>
<path d="M119.089 278.04C119.005 278.041 118.922 278.025 118.845 277.992C118.768 277.959 118.699 277.911 118.641 277.85C109.291 268.041 109.487 251.576 109.501 250.879C109.504 250.718 109.57 250.564 109.685 250.45C109.8 250.337 109.955 250.273 110.116 250.272H110.13C110.293 250.276 110.448 250.345 110.561 250.463C110.674 250.581 110.736 250.738 110.734 250.901C110.734 251.067 110.538 267.562 119.533 276.997C119.617 277.084 119.674 277.194 119.696 277.313C119.718 277.432 119.705 277.555 119.657 277.666C119.61 277.778 119.53 277.872 119.429 277.939C119.328 278.006 119.21 278.041 119.089 278.04Z" fill="black"/>
<path d="M87.267 196.042L83.5735 206.646C82.7738 209.038 80.3748 209.69 78.2134 209.964C77.9491 210.002 77.6978 210.103 77.4801 210.257C77.2625 210.412 77.0849 210.617 76.9621 210.854C76.8393 211.091 76.7749 211.354 76.7742 211.621C76.7735 211.888 76.8365 212.152 76.958 212.39L77.1174 212.698C82.1698 221.46 90.969 223.402 101.325 220.137L102.374 219.687C102.578 219.599 102.754 219.459 102.886 219.281C103.018 219.102 103.1 218.892 103.124 218.672C103.148 218.451 103.114 218.228 103.024 218.026C102.934 217.823 102.791 217.648 102.612 217.518L99.4773 215.28C98.0597 214.262 97.425 212.242 97.8639 210.152L102.374 191.426L87.267 196.042Z" fill="white"/>
<path d="M92.5795 222.224C85.6202 222.224 80.0896 219.087 76.5834 212.991L76.41 212.661C76.2394 212.335 76.1499 211.973 76.1492 211.605C76.1485 211.237 76.2366 210.875 76.406 210.548C76.5754 210.222 76.821 209.942 77.1221 209.731C77.4232 209.52 77.7707 209.385 78.1351 209.337C80.9787 208.973 82.4299 208.106 82.9891 206.436L86.6854 195.824C86.717 195.732 86.77 195.648 86.84 195.581C86.91 195.513 86.995 195.463 87.088 195.435L102.187 190.81C102.291 190.778 102.401 190.773 102.507 190.798C102.613 190.822 102.711 190.874 102.79 190.949C102.869 191.024 102.927 191.118 102.959 191.222C102.99 191.326 102.992 191.437 102.967 191.543L98.4595 210.271C98.0737 212.107 98.6105 213.872 99.8324 214.748L102.967 217C103.235 217.194 103.447 217.455 103.581 217.758C103.716 218.06 103.768 218.393 103.732 218.722C103.695 219.051 103.573 219.365 103.376 219.631C103.179 219.897 102.916 220.106 102.612 220.237L101.563 220.688L101.507 220.71C98.6255 221.666 95.615 222.176 92.5795 222.224ZM87.7479 196.54L84.1578 206.85C83.2239 209.648 80.3608 210.313 78.2861 210.576C78.1198 210.598 77.9614 210.661 77.8249 210.758C77.6884 210.856 77.5779 210.986 77.5032 211.136C77.4227 211.287 77.3806 211.455 77.3806 211.626C77.3806 211.796 77.4227 211.965 77.5032 212.115L77.6626 212.423C83.5147 222.574 93.6364 221.916 101.107 219.569L102.128 219.129C102.231 219.085 102.321 219.015 102.388 218.925C102.455 218.834 102.497 218.728 102.509 218.616C102.521 218.505 102.504 218.391 102.458 218.289C102.412 218.186 102.34 218.098 102.248 218.033L99.1138 215.78C97.4949 214.617 96.7651 212.356 97.2572 210.025L101.518 192.332L87.7479 196.54Z" fill="black"/>
<path d="M104.06 182.998C104.06 182.998 111.193 181.068 108.254 186.417C105.819 190.849 104.317 190.964 102.57 190.804C100.822 190.645 104.06 182.998 104.06 182.998Z" fill="white"/>
<path d="M103.299 191.462C103.039 191.462 102.777 191.445 102.511 191.42C102.338 191.405 102.172 191.349 102.026 191.256C101.88 191.163 101.758 191.036 101.672 190.885C100.794 189.417 102.847 184.294 103.495 182.758C103.532 182.672 103.588 182.595 103.659 182.533C103.729 182.472 103.813 182.427 103.903 182.402C104.309 182.293 107.91 181.376 109.171 182.982C109.825 183.821 109.702 185.074 108.799 186.717C106.576 190.748 104.983 191.462 103.299 191.462ZM102.712 190.197C104.08 190.32 105.396 190.359 107.726 186.121C108.349 185.002 108.52 184.143 108.206 183.746C107.647 183.046 105.654 183.267 104.521 183.524C103.26 186.535 102.447 189.554 102.698 190.197H102.712Z" fill="black"/>
<path d="M84.0375 181.885C84.0375 181.885 82.3347 193.158 85.4495 197.833C88.4608 202.362 98.5377 205.415 105.136 184.789C111.735 164.164 85.6201 165.098 84.0375 181.885Z" fill="white"/>
<path d="M91.5477 201.772C90.2379 201.753 88.9522 201.417 87.8006 200.792C86.649 200.167 85.6657 199.273 84.935 198.185C81.7587 193.404 83.3245 182.484 83.4252 181.812C83.9844 176.065 87.3956 171.477 92.585 169.535C96.7791 167.966 101.253 168.623 103.97 171.214C107.015 174.118 107.636 179.012 105.724 184.99C101.605 197.86 96.3429 201.184 92.6521 201.699C92.2861 201.749 91.9171 201.773 91.5477 201.772ZM97.1565 169.924C95.7423 169.931 94.3408 170.192 93.0184 170.694C88.2652 172.468 85.1475 176.673 84.6526 181.944C84.6526 181.944 84.6526 181.966 84.6526 181.977C84.6359 182.089 83.0225 193.068 85.9696 197.502C87.0572 199.139 89.4199 200.907 92.4871 200.471C95.2216 200.09 100.425 197.522 104.555 184.61C106.313 179.107 105.807 174.664 103.123 172.107C101.616 170.674 99.4772 169.924 97.1565 169.924Z" fill="black"/>
<path d="M103.727 175.674C102.869 173.559 99.9022 172.479 96.4575 173.598C93.0128 174.717 80.3048 178.561 77.4445 165.319C74.5842 152.077 81.194 161.36 83.4644 161.962C85.7347 162.563 81.5686 158.688 82.2621 155.415C82.9555 152.142 84.0459 155.994 87.7255 157.189C91.4051 158.383 87.5382 155.868 87.678 153.535C87.8178 151.201 88.8523 151.817 92.0566 155.239C95.2608 158.66 102.539 164.533 108.377 163.632C114.215 162.731 115.991 169.001 113.432 174.608C110.874 180.215 110.821 179.896 109.772 181.463C107.429 184.965 105.933 186.247 104.46 185.864C101.885 185.195 105.083 179.026 103.727 175.674Z" fill="black"/>
<path d="M111.098 203.415C111.293 203.353 111.502 203.343 111.702 203.387C111.903 203.431 112.088 203.527 112.24 203.665C112.392 203.804 112.504 203.979 112.567 204.175C112.63 204.371 112.64 204.579 112.596 204.78C112.395 205.804 112.258 206.839 112.185 207.88C111.872 211.797 113.267 215.868 114.375 219.933C116.432 227.487 126.493 241.605 135.331 251.654C140.017 256.984 137.252 270.632 131.718 273.503C128.643 275.103 119.156 273.961 116.989 264.485C113.262 248.185 113.594 247.715 109.669 236.468C109.07 234.753 107.183 233.832 105.371 233.715C102.575 233.533 98.3533 232.861 95.9151 230.578C93.9971 228.782 95.8704 228.161 95.7054 226.62C95.5768 225.419 94.6122 225.369 94.7548 223.592C94.9338 221.315 97.6515 221.586 97.4194 220.453C96.8015 217.443 99.3543 214.858 102.422 214.765C108.469 214.595 107.586 212.247 107.804 208.35C107.988 205.088 109.672 203.865 111.098 203.415Z" fill="white"/>
<path d="M128.648 274.722C126.812 274.71 125.001 274.303 123.336 273.528C120.819 272.367 117.582 269.877 116.379 264.622C115.515 260.848 114.87 257.924 114.338 255.515C112.56 247.449 112.082 245.281 109.076 236.672C108.517 235.089 106.711 234.42 105.324 234.33C102.229 234.129 98.0094 233.396 95.4846 231.029C93.9328 229.574 94.4305 228.531 94.794 227.767C94.9873 227.439 95.0842 227.064 95.0736 226.684C95.0311 226.378 94.9086 226.088 94.7185 225.845C94.2259 225.183 94.0112 224.354 94.1202 223.536C94.2488 221.894 95.4315 221.298 96.2144 220.892C96.4284 220.801 96.628 220.68 96.8071 220.532C96.6521 219.809 96.6619 219.061 96.8357 218.342C97.0095 217.624 97.3428 216.954 97.8109 216.382C98.3674 215.702 99.0642 215.149 99.8537 214.763C100.643 214.377 101.507 214.166 102.385 214.144C107.038 214.015 107.063 212.782 107.119 209.808C107.119 209.338 107.138 208.837 107.169 208.311C107.373 204.674 109.305 203.322 110.894 202.824C111.192 202.73 111.51 202.716 111.815 202.784C112.121 202.851 112.403 202.997 112.635 203.208C112.866 203.418 113.038 203.686 113.134 203.984C113.23 204.282 113.246 204.6 113.181 204.906C112.984 205.904 112.851 206.913 112.781 207.927C112.524 211.156 113.458 214.466 114.458 217.974C114.626 218.573 114.797 219.169 114.959 219.768C116.981 227.185 126.965 241.216 135.781 251.243C138.099 253.879 138.899 258.565 137.923 263.783C137 268.693 134.73 272.627 131.99 274.048C130.942 274.526 129.799 274.757 128.648 274.722ZM111.458 203.977C111.399 203.977 111.339 203.987 111.282 204.005C109.515 204.564 108.553 206.033 108.422 208.383C108.391 208.895 108.383 209.379 108.374 209.833C108.31 213.173 107.988 215.227 102.438 215.384C101.741 215.4 101.055 215.567 100.427 215.873C99.7999 216.179 99.2461 216.617 98.8035 217.157C98.4477 217.595 98.1936 218.107 98.0597 218.655C97.9257 219.203 97.9153 219.775 98.029 220.327C98.2219 221.279 97.3999 221.698 96.8015 222.006C95.9851 222.42 95.4455 222.759 95.3756 223.646C95.3348 223.915 95.3489 224.189 95.4171 224.453C95.4854 224.716 95.6063 224.963 95.7726 225.179C96.076 225.581 96.2688 226.055 96.3318 226.555C96.3712 227.164 96.2302 227.772 95.9264 228.301C95.6048 228.984 95.4566 229.294 96.3486 230.131C98.7252 232.369 103.059 232.948 105.422 233.099C107.745 233.25 109.644 234.498 110.262 236.266C113.293 244.94 113.818 247.335 115.574 255.252C116.103 257.656 116.748 260.568 117.61 264.351C118.7 269.107 121.622 271.362 123.881 272.409C126.842 273.782 129.99 273.715 131.453 272.968C133.824 271.737 135.898 268.05 136.74 263.57C137.635 258.797 136.925 254.394 134.886 252.077C125.973 241.941 115.873 227.708 113.799 220.109C113.636 219.516 113.469 218.92 113.301 218.327C112.325 214.869 111.313 211.296 111.59 207.844C111.664 206.777 111.805 205.717 112.012 204.668C112.029 204.587 112.029 204.504 112.01 204.424C111.991 204.343 111.955 204.268 111.904 204.204C111.853 204.139 111.789 204.086 111.715 204.05C111.641 204.013 111.56 203.993 111.478 203.991L111.458 203.977Z" fill="black"/>
<path d="M49.9512 114.724C58.6559 114.724 65.7124 107.663 65.7124 98.9524C65.7124 90.2422 58.6559 83.1812 49.9512 83.1812C41.2465 83.1812 34.1899 90.2422 34.1899 98.9524C34.1899 107.663 41.2465 114.724 49.9512 114.724Z" fill="white"/>
<path d="M49.9511 115.339C46.7115 115.34 43.5445 114.379 40.8506 112.578C38.1566 110.778 36.0568 108.218 34.8167 105.224C33.5766 102.229 33.2518 98.9334 33.8835 95.754C34.5152 92.5745 36.0749 89.6539 38.3655 87.3615C40.656 85.0691 43.5745 83.5078 46.7519 82.8752C49.9292 82.2426 53.2226 82.567 56.2157 83.8074C59.2088 85.0478 61.767 87.1485 63.5669 89.8438C65.3668 92.5392 66.3274 95.708 66.3274 98.9497C66.323 103.295 64.5963 107.46 61.5262 110.533C58.4561 113.606 54.2933 115.334 49.9511 115.339ZM49.9511 83.7995C46.9559 83.7995 44.028 84.6883 41.5376 86.3534C39.0473 88.0186 37.1063 90.3854 35.9602 93.1544C34.8141 95.9234 34.5144 98.9702 35.099 101.91C35.6835 104.849 37.126 107.549 39.2441 109.668C41.3622 111.787 44.0608 113.23 46.9985 113.815C49.9362 114.399 52.9811 114.098 55.7481 112.951C58.5151 111.804 60.88 109.861 62.5436 107.369C64.2073 104.877 65.0949 101.947 65.0944 98.9497C65.09 94.9322 63.4931 91.0806 60.6541 88.2398C57.8152 85.399 53.966 83.8012 49.9511 83.7967V83.7995Z" fill="black"/>
<path d="M45.3768 104.685L45.5809 93.1356C45.5832 93.0003 45.6201 92.8679 45.688 92.7508C45.7559 92.6337 45.8525 92.536 45.9687 92.4668C46.085 92.3976 46.2169 92.3592 46.3521 92.3553C46.4873 92.3514 46.6213 92.3821 46.7413 92.4446L58.1742 98.3452C58.3053 98.4127 58.4151 98.5155 58.4911 98.6419C58.5671 98.7684 58.6065 98.9135 58.6048 99.061C58.603 99.2086 58.5603 99.3527 58.4813 99.4773C58.4023 99.6019 58.2901 99.7021 58.1574 99.7665L46.5064 105.415C46.3846 105.472 46.2504 105.497 46.1163 105.488C45.9823 105.479 45.8527 105.436 45.7399 105.363C45.627 105.29 45.5345 105.189 45.471 105.071C45.4075 104.952 45.3751 104.819 45.3768 104.685Z" fill="black"/>
<path d="M467.793 286.182C467.793 286.182 476.148 284.825 483.09 281.269C485.956 279.803 493.673 277.148 498.365 282.878C501.801 287.075 506.169 292.715 511.14 297.639C513.203 299.684 513.877 302.796 513.877 302.796C513.877 302.796 507.323 301.567 495.373 297.636C483.423 293.706 467.793 286.182 467.793 286.182Z" fill="black"/>
<path d="M509.118 303.509C510.055 303.706 511.032 303.567 511.877 303.117C512.722 302.667 513.383 301.934 513.743 301.047L516.662 293.856C516.804 293.517 517.05 293.232 517.364 293.041C517.677 292.85 518.044 292.763 518.41 292.793L522.732 293.137C523.181 293.174 523.629 293.062 524.008 292.819C524.387 292.576 524.676 292.215 524.829 291.792L526.957 285.975C526.962 285.966 526.97 285.959 526.98 285.955L529.2 285.264C529.305 285.232 529.404 285.18 529.489 285.11C529.574 285.04 529.645 284.953 529.697 284.856C529.749 284.758 529.781 284.652 529.792 284.542C529.802 284.432 529.791 284.321 529.759 284.215L528.447 279.666C528.193 278.782 528.515 274.126 527.609 273.995C527.609 273.995 513.419 265.733 507.712 271.163C506.981 271.89 506.446 272.79 506.16 273.781C505.873 274.771 505.843 275.818 506.074 276.823L506.633 279.406C507.064 281.241 507.034 283.154 506.546 284.975C506.059 286.796 505.128 288.468 503.837 289.842L498.245 295.678C498.021 295.911 497.854 296.192 497.756 296.5C497.659 296.807 497.633 297.133 497.68 297.453C497.728 297.772 497.848 298.076 498.032 298.342C498.216 298.607 498.458 298.827 498.74 298.985C501.499 300.512 506.065 302.865 509.118 303.509Z" fill="white"/>
<path d="M509.966 304.214C509.639 304.214 509.313 304.18 508.993 304.113C505.959 303.473 501.583 301.265 498.449 299.525C498.083 299.323 497.769 299.039 497.531 298.696C497.292 298.353 497.136 297.959 497.074 297.546C497.012 297.133 497.046 296.711 497.172 296.313C497.299 295.914 497.516 295.551 497.806 295.25L503.398 289.416C503.911 288.862 504.367 288.258 504.759 287.612C506.199 285.181 506.651 282.289 506.023 279.534L505.464 276.952C505.213 275.844 505.249 274.69 505.567 273.599C505.885 272.508 506.475 271.516 507.281 270.716C513.089 265.193 526.535 272.674 527.832 273.416C528.766 273.696 528.861 275.285 528.934 277.805C528.933 278.367 528.97 278.928 529.043 279.484L530.352 284.031C530.455 284.4 530.412 284.795 530.23 285.132C530.049 285.47 529.743 285.724 529.378 285.841L527.421 286.448L525.394 291.993C525.19 292.541 524.814 293.007 524.323 293.323C523.831 293.639 523.251 293.787 522.668 293.745L518.343 293.398C518.107 293.38 517.873 293.437 517.672 293.56C517.471 293.684 517.314 293.868 517.224 294.086L514.308 301.271C513.959 302.138 513.359 302.881 512.585 303.405C511.812 303.929 510.9 304.211 509.966 304.214ZM513.161 269.924C511.204 269.924 509.423 270.388 508.129 271.603C507.475 272.257 506.998 273.067 506.743 273.956C506.487 274.845 506.462 275.785 506.669 276.686L507.228 279.269C507.923 282.333 507.415 285.546 505.811 288.247C505.373 288.966 504.865 289.639 504.292 290.256L498.7 296.098C498.542 296.263 498.424 296.463 498.355 296.682C498.286 296.901 498.268 297.133 498.303 297.359C498.337 297.584 498.421 297.798 498.551 297.985C498.68 298.172 498.851 298.326 499.05 298.436C501.566 299.835 506.219 302.255 509.253 302.896C510.046 303.063 510.874 302.945 511.589 302.563C512.305 302.181 512.863 301.559 513.167 300.806L516.086 293.616C516.28 293.157 516.612 292.77 517.037 292.511C517.462 292.251 517.958 292.132 518.454 292.169L522.78 292.514C523.094 292.538 523.407 292.459 523.672 292.289C523.937 292.119 524.139 291.867 524.248 291.571L526.376 285.754C526.411 285.663 526.466 285.582 526.536 285.514C526.605 285.446 526.689 285.395 526.781 285.362L529.018 284.666C529.074 284.648 529.122 284.609 529.151 284.557C529.18 284.505 529.188 284.444 529.174 284.386L527.863 279.837C527.762 279.484 527.74 278.88 527.709 277.842C527.681 276.916 527.628 275.022 527.377 274.568L527.301 274.529C527.192 274.468 519.29 269.924 513.161 269.924Z" fill="black"/>
<path d="M514.543 279.045C514.216 276.487 512.904 275.424 513.394 274.26C513.659 273.625 514.319 273.32 514.691 273.141C516.55 272.279 518.552 273.421 522.693 275.066C527.835 277.114 528.414 277.391 529.499 277.19C532.256 276.681 534.325 273.832 534.943 271.256C535.116 270.537 535.932 266.695 533.044 264.068C530.958 262.171 527.768 261.662 524.899 262.753C524.821 261.961 524.564 260.817 523.647 260.098C521.477 258.397 517.342 260.453 515.893 261.172C513.534 262.362 511.506 264.118 509.991 266.284C509.569 265.926 507.966 264.656 505.903 264.885C502.827 265.24 501.429 268.626 501.312 268.947C499.83 272.699 502.372 276.723 504.292 279.758C505.674 281.943 506.266 282.43 507.293 283.432L508.022 283.197C508.212 283.135 508.388 283.036 508.538 282.905C508.689 282.773 508.811 282.613 508.898 282.433C508.985 282.253 509.034 282.057 509.043 281.858C509.052 281.658 509.021 281.459 508.951 281.272L508.928 281.219C508.603 280.386 508.469 279.491 508.534 278.6C508.593 277.889 508.788 277.17 509.309 276.885C510.147 276.42 511.299 277.058 511.464 277.151C512.516 277.735 512.932 278.796 513.097 279.596C513.206 280.141 514.652 279.89 514.543 279.045Z" fill="black"/>
<path d="M544.818 467.897L540.065 483.422C544.309 489.712 548.271 491.301 551.666 483.472L558.572 470.77L544.818 467.897Z" fill="white"/>
<path d="M546.513 489.376C544.374 489.376 542.089 487.538 539.548 483.781C539.495 483.704 539.461 483.617 539.448 483.525C539.434 483.434 539.441 483.34 539.469 483.252L544.223 467.727C544.268 467.58 544.366 467.455 544.498 467.376C544.631 467.298 544.788 467.272 544.938 467.304L558.692 470.175C558.786 470.195 558.874 470.236 558.949 470.296C559.025 470.356 559.085 470.432 559.125 470.52C559.165 470.607 559.185 470.702 559.182 470.798C559.179 470.894 559.154 470.988 559.109 471.073L552.203 483.775C550.662 487.334 548.906 489.18 546.854 489.371C546.739 489.371 546.624 489.376 546.513 489.376ZM540.736 483.325C543.037 486.682 545.059 488.285 546.739 488.134C548.28 487.991 549.745 486.341 551.095 483.23L557.627 471.199L545.243 468.611L540.736 483.325Z" fill="black"/>
<path d="M537.674 482.186C536.535 485.369 535.587 488.617 534.836 491.914C534.61 493.016 534.801 494.163 535.373 495.132C535.945 496.101 536.857 496.822 537.932 497.154C540.943 498.117 549.873 500.134 555.678 501.412C559.114 502.164 562.683 502.042 566.06 501.057L570.858 499.658C572.397 499.221 573.856 498.537 575.177 497.633C576.483 496.726 577.716 495.557 577.414 494.505C576.623 491.721 573.259 490.921 570.5 490.753C567.394 490.543 564.374 489.648 561.656 488.131C558.821 486.565 555.354 484.617 552.862 483.095C552.618 482.947 552.337 482.872 552.052 482.877C551.766 482.882 551.488 482.967 551.249 483.123L549.49 484.265C548.633 484.825 547.632 485.124 546.608 485.124C545.584 485.124 544.582 484.825 543.725 484.265L539.612 481.54C539.448 481.432 539.261 481.362 539.066 481.337C538.871 481.311 538.673 481.33 538.486 481.392C538.3 481.455 538.13 481.558 537.989 481.696C537.849 481.833 537.741 482.001 537.674 482.186Z" fill="white"/>
<path d="M560.163 502.515C558.61 502.515 557.063 502.347 555.547 502.014C549.049 500.584 540.688 498.684 537.744 497.741C536.523 497.364 535.487 496.544 534.837 495.443C534.188 494.341 533.972 493.037 534.232 491.785C534.989 488.466 535.944 485.196 537.093 481.993C537.19 481.719 537.349 481.47 537.557 481.267C537.765 481.063 538.016 480.909 538.292 480.817C538.567 480.725 538.861 480.697 539.149 480.735C539.437 480.772 539.713 480.875 539.956 481.036L544.069 483.761C544.825 484.257 545.709 484.521 546.613 484.521C547.517 484.521 548.402 484.257 549.158 483.761L550.916 482.619C551.253 482.401 551.644 482.282 552.044 482.275C552.445 482.268 552.84 482.374 553.184 482.58C555.745 484.136 559.369 486.164 561.958 487.594C564.596 489.065 567.528 489.935 570.542 490.14C574.736 490.397 577.305 491.849 578.013 494.337C578.34 495.492 577.504 496.773 575.53 498.144C574.153 499.085 572.634 499.798 571.031 500.254L566.233 501.653C564.26 502.226 562.217 502.516 560.163 502.515ZM538.913 481.942C538.838 481.942 538.763 481.954 538.692 481.979C538.595 482.011 538.506 482.065 538.433 482.136C538.36 482.208 538.304 482.296 538.27 482.393C537.137 485.549 536.196 488.772 535.451 492.042C535.258 492.994 535.425 493.984 535.92 494.819C536.415 495.655 537.203 496.276 538.13 496.564C541.183 497.54 550.525 499.641 555.823 500.808C559.155 501.534 562.615 501.416 565.889 500.464L570.69 499.065C572.165 498.646 573.562 497.991 574.828 497.126C576.226 496.147 576.987 495.229 576.827 494.672C576.131 492.221 572.985 491.522 570.469 491.368C567.272 491.151 564.162 490.23 561.362 488.671C558.765 487.236 555.127 485.196 552.546 483.635C552.402 483.547 552.235 483.503 552.066 483.506C551.897 483.509 551.732 483.559 551.59 483.652L549.832 484.793C548.876 485.419 547.758 485.752 546.616 485.752C545.474 485.752 544.356 485.419 543.401 484.793L539.288 482.068C539.175 481.987 539.04 481.943 538.902 481.942H538.913Z" fill="black"/>
<path d="M534.957 491.368C534.957 491.368 534.873 491.735 534.836 491.914C534.61 493.016 534.801 494.163 535.373 495.132C535.945 496.1 536.857 496.821 537.932 497.154C545.595 499.538 553.42 501.366 561.345 502.624C566.82 503.463 574.601 499.504 576.251 498.64C577.397 498.038 578.119 496.88 577.736 495.663L577.126 493.704C577.126 493.704 566.996 498.967 562.089 497.823C553.388 495.789 545.215 494.3 536.629 491.835L534.957 491.368Z" fill="white"/>
<path d="M562.973 503.359C562.397 503.36 561.822 503.318 561.253 503.234C553.295 501.973 545.438 500.137 537.744 497.741C536.523 497.364 535.487 496.544 534.837 495.443C534.188 494.341 533.972 493.037 534.232 491.785L534.353 491.225C534.371 491.143 534.406 491.065 534.455 490.997C534.504 490.929 534.567 490.871 534.639 490.828C534.711 490.785 534.792 490.758 534.875 490.747C534.959 490.736 535.044 490.743 535.124 490.766L536.802 491.245C542.567 492.898 548.042 494.09 553.841 495.352C556.567 495.945 559.388 496.558 562.229 497.224C566.851 498.301 576.743 493.209 576.841 493.159C576.921 493.117 577.01 493.093 577.1 493.089C577.19 493.085 577.28 493.101 577.364 493.136C577.447 493.171 577.522 493.223 577.583 493.29C577.644 493.357 577.689 493.436 577.716 493.522L578.326 495.481C578.773 496.905 578.046 498.396 576.536 499.191C573.995 500.517 567.986 503.359 562.973 503.359ZM535.421 492.143C535.256 493.082 535.439 494.049 535.935 494.863C536.432 495.677 537.208 496.282 538.119 496.563C545.751 498.941 553.545 500.762 561.441 502.011C566.493 502.789 573.833 499.213 575.963 498.094C576.713 497.702 577.47 496.88 577.149 495.856L576.755 494.602C574.389 495.761 566.339 499.47 561.949 498.444C559.114 497.781 556.299 497.168 553.575 496.577C547.76 495.31 542.263 494.115 536.458 492.451L535.421 492.143Z" fill="black"/>
<path d="M554.47 491.975C554.368 491.975 554.268 491.949 554.179 491.9C554.089 491.851 554.013 491.781 553.958 491.695C553.867 491.559 553.834 491.393 553.866 491.233C553.897 491.072 553.991 490.931 554.126 490.839L559.883 486.973C560.019 486.881 560.185 486.848 560.346 486.879C560.506 486.911 560.647 487.005 560.739 487.141C560.83 487.276 560.864 487.443 560.832 487.603C560.801 487.764 560.707 487.905 560.571 487.997L554.814 491.866C554.712 491.935 554.593 491.973 554.47 491.975Z" fill="black"/>
<path d="M559.097 493.341C558.967 493.341 558.839 493.299 558.734 493.222C558.628 493.145 558.549 493.036 558.51 492.911C558.47 492.787 558.471 492.652 558.513 492.528C558.555 492.404 558.635 492.297 558.742 492.221L563.373 488.984C563.439 488.934 563.515 488.898 563.595 488.877C563.676 488.857 563.76 488.853 563.842 488.866C563.924 488.879 564.003 488.908 564.074 488.952C564.144 488.996 564.205 489.054 564.253 489.123C564.301 489.191 564.334 489.268 564.351 489.349C564.368 489.431 564.369 489.515 564.353 489.597C564.337 489.678 564.304 489.756 564.257 489.825C564.21 489.894 564.15 489.952 564.08 489.997L559.45 493.232C559.347 493.304 559.223 493.342 559.097 493.341Z" fill="black"/>
<path d="M484.65 380.558C484.65 380.558 551.845 376.674 586.082 389.329C587.734 389.941 589.166 391.03 590.197 392.459C591.228 393.888 591.81 395.592 591.87 397.353C592.222 407.741 588.487 432.343 557.456 475.918L539.931 475.261L556.201 419.008L481.281 413.351L484.65 380.558Z" fill="black"/>
<path d="M575.642 483.392L580.974 489.01C583.003 491.149 584.149 493.978 584.181 496.928L584.225 501.175L599.906 496.869C596.483 493.218 593.03 489.843 590.715 485.398L585.864 476.112L575.642 483.392Z" fill="white"/>
<path d="M584.225 501.79C584.091 501.79 583.961 501.745 583.854 501.664C583.778 501.607 583.716 501.534 583.674 501.45C583.631 501.365 583.608 501.272 583.608 501.177L583.563 496.93C583.535 494.137 582.45 491.457 580.526 489.432L575.194 483.814C575.133 483.751 575.086 483.674 575.057 483.591C575.028 483.507 575.018 483.418 575.027 483.33C575.035 483.242 575.062 483.156 575.107 483.08C575.151 483.003 575.211 482.937 575.284 482.885L585.506 475.611C585.578 475.56 585.661 475.525 585.747 475.509C585.834 475.492 585.923 475.495 586.009 475.516C586.095 475.536 586.176 475.574 586.245 475.628C586.315 475.682 586.372 475.751 586.412 475.829L591.26 485.115C593.259 488.937 596.1 491.939 599.112 495.12L600.356 496.438C600.428 496.515 600.48 496.61 600.506 496.713C600.531 496.816 600.53 496.923 600.502 497.026C600.474 497.128 600.42 497.221 600.345 497.297C600.271 497.372 600.178 497.427 600.076 497.456L584.388 501.771C584.335 501.784 584.28 501.791 584.225 501.79ZM576.578 483.481L581.421 488.582C583.562 490.832 584.769 493.812 584.799 496.919L584.835 500.363L598.751 496.541L598.214 495.982C595.138 492.736 592.244 489.673 590.167 485.697L585.646 477.041L576.578 483.481Z" fill="black"/>
<path d="M581.365 495.87C581.041 498.153 581.035 502.288 580.993 506.082C580.986 507.235 581.402 508.35 582.162 509.216C582.922 510.082 583.974 510.638 585.117 510.779C591.797 511.638 608.478 512.483 621.387 511.311C622.271 511.233 623.834 510.589 624.267 508.379C625.73 500.967 612.84 499.146 598.712 493.772C598.44 493.668 598.145 493.644 597.86 493.702C597.576 493.76 597.313 493.898 597.104 494.099L595.583 495.576C594.837 496.299 593.894 496.785 592.873 496.974C591.852 497.163 590.798 497.047 589.843 496.639L583.166 494.852C582.982 494.774 582.782 494.739 582.583 494.751C582.383 494.762 582.189 494.819 582.015 494.918C581.841 495.016 581.692 495.153 581.579 495.318C581.467 495.483 581.393 495.672 581.365 495.87Z" fill="white"/>
<path d="M606.918 512.5C598.192 512.5 589.711 511.993 585.039 511.381C583.745 511.221 582.555 510.592 581.695 509.612C580.835 508.631 580.366 507.369 580.375 506.065V504.85C580.412 501.412 580.448 497.856 580.742 495.774C580.782 495.486 580.887 495.211 581.05 494.969C581.212 494.728 581.427 494.526 581.678 494.38C581.93 494.233 582.211 494.146 582.501 494.125C582.791 494.103 583.083 494.148 583.353 494.255L589.991 496.032C590.02 496.039 590.048 496.048 590.075 496.06C590.918 496.42 591.849 496.523 592.75 496.356C593.651 496.188 594.483 495.758 595.141 495.12L596.665 493.642C596.959 493.361 597.327 493.168 597.726 493.087C598.124 493.006 598.538 493.04 598.919 493.184C602.215 494.437 605.383 495.478 608.447 496.485C618.303 499.719 626.088 502.277 624.863 508.488C624.402 510.829 622.727 511.797 621.432 511.915C616.964 512.335 611.901 512.5 606.918 512.5ZM582.654 495.355C582.536 495.354 582.42 495.385 582.319 495.444C582.226 495.495 582.147 495.567 582.088 495.654C582.028 495.741 581.989 495.841 581.975 495.945C581.695 497.945 581.659 501.462 581.622 504.865V506.079C581.616 507.08 581.977 508.049 582.638 508.8C583.299 509.552 584.214 510.034 585.207 510.155C591.269 510.933 608.09 511.887 621.343 510.687C621.656 510.656 623.25 510.407 623.675 508.25C624.687 503.11 617.725 500.822 608.087 497.66C605.011 496.647 601.826 495.604 598.502 494.339C598.341 494.277 598.165 494.263 597.996 494.297C597.827 494.331 597.67 494.413 597.546 494.532L596.022 496.007C595.196 496.811 594.152 497.353 593.02 497.568C591.888 497.782 590.718 497.659 589.655 497.213L583.018 495.439L582.934 495.411C582.846 495.371 582.75 495.352 582.654 495.355Z" fill="black"/>
<path d="M581.357 505.354C581.357 505.354 581.357 505.741 581.357 505.914C581.35 507.067 581.766 508.181 582.526 509.047C583.286 509.913 584.338 510.47 585.481 510.611C592.161 511.47 608.489 512.472 621.399 511.3C622.282 511.222 623.845 510.578 624.279 508.368C624.358 507.74 624.376 507.105 624.332 506.474L623.415 506.518C610.372 507.162 597.3 506.848 584.304 505.581L581.357 505.354Z" fill="white"/>
<path d="M608.154 512.467C598.485 512.467 589.42 511.756 585.386 511.235C584.092 511.076 582.902 510.447 582.042 509.466C581.182 508.486 580.712 507.224 580.722 505.92V505.343C580.723 505.259 580.742 505.176 580.777 505.1C580.811 505.023 580.861 504.955 580.923 504.898C580.985 504.841 581.059 504.797 581.139 504.77C581.219 504.743 581.303 504.733 581.387 504.742L584.326 504.979C597.297 506.242 610.342 506.554 623.359 505.914L624.273 505.869C624.435 505.861 624.593 505.917 624.714 506.025C624.835 506.132 624.909 506.284 624.919 506.446C624.97 507.131 624.949 507.821 624.857 508.502C624.396 510.844 622.721 511.812 621.427 511.929C617.171 512.315 612.6 512.467 608.154 512.467ZM581.958 506.032C581.975 507.017 582.347 507.963 583.005 508.695C583.664 509.428 584.565 509.898 585.542 510.018C591.414 510.771 607.858 511.927 621.332 510.707C621.645 510.676 623.239 510.427 623.664 508.27C623.717 507.899 623.737 507.525 623.725 507.151L623.445 507.165C610.372 507.809 597.27 507.494 584.242 506.225L581.958 506.032Z" fill="black"/>
<path d="M601.95 502.397C601.828 502.397 601.708 502.36 601.607 502.292C601.506 502.224 601.427 502.128 601.38 502.015C601.333 501.902 601.321 501.778 601.345 501.658C601.369 501.539 601.427 501.429 601.513 501.342L606.474 496.379C606.591 496.274 606.745 496.218 606.902 496.223C607.06 496.228 607.21 496.292 607.321 496.404C607.432 496.515 607.497 496.665 607.502 496.823C607.506 496.98 607.45 497.134 607.346 497.252L602.388 502.215C602.272 502.331 602.114 502.396 601.95 502.397Z" fill="black"/>
<path d="M606.823 502.909C606.702 502.91 606.583 502.874 606.482 502.807C606.38 502.741 606.301 502.646 606.253 502.534C606.206 502.423 606.192 502.3 606.214 502.18C606.235 502.061 606.292 501.95 606.376 501.863L610.338 497.744C610.394 497.686 610.461 497.639 610.535 497.606C610.61 497.574 610.69 497.556 610.771 497.554C610.852 497.553 610.933 497.567 611.008 497.596C611.084 497.626 611.153 497.67 611.211 497.726C611.27 497.783 611.317 497.85 611.349 497.924C611.382 497.999 611.4 498.078 611.401 498.16C611.403 498.241 611.389 498.322 611.359 498.397C611.33 498.473 611.286 498.542 611.23 498.601L607.268 502.719C607.21 502.779 607.141 502.826 607.064 502.859C606.988 502.892 606.906 502.909 606.823 502.909Z" fill="black"/>
<path d="M466.395 416.935C475.901 419.951 485.495 419.56 509.239 419.235C515.985 419.143 525.531 425.15 528.596 431.162C535.628 444.964 554.878 474.304 579.685 490.411L591.529 484.027L557.266 411.454C555.901 408.377 553.931 405.606 551.474 403.306C549.017 401.006 546.123 399.223 542.964 398.064L483.062 376.084C483.062 376.084 467.404 371.194 458.306 387.785C456.879 390.332 455.722 393.023 454.856 395.812C452.376 404.009 458.231 414.347 466.395 416.935Z" fill="black"/>
<path d="M573.763 445.218C573.644 445.218 573.529 445.183 573.43 445.119C573.33 445.054 573.252 444.962 573.204 444.854L558.552 412.54C556.036 406.852 549.527 401.144 542.738 398.651L514.051 388.126C513.97 388.101 513.896 388.06 513.832 388.006C513.769 387.951 513.716 387.884 513.679 387.809C513.642 387.733 513.621 387.651 513.616 387.568C513.612 387.484 513.625 387.4 513.654 387.321C513.683 387.242 513.728 387.17 513.786 387.109C513.844 387.048 513.913 387 513.99 386.967C514.067 386.934 514.15 386.917 514.234 386.917C514.318 386.917 514.401 386.934 514.478 386.968L543.166 397.493C550.24 400.089 557.031 406.068 559.679 412.042L574.322 444.345C574.389 444.494 574.394 444.664 574.337 444.817C574.279 444.97 574.163 445.094 574.014 445.162C573.936 445.199 573.85 445.219 573.763 445.218Z" fill="white"/>
<path d="M555.588 471.196C555.504 471.196 555.42 471.179 555.342 471.145C555.264 471.111 555.193 471.062 555.135 471C553.178 468.89 550.838 466.037 548.19 462.52C548.136 462.455 548.096 462.381 548.072 462.3C548.048 462.22 548.041 462.135 548.051 462.052C548.06 461.969 548.087 461.888 548.128 461.815C548.17 461.743 548.226 461.679 548.293 461.629C548.36 461.578 548.437 461.542 548.519 461.522C548.6 461.503 548.685 461.5 548.767 461.514C548.85 461.528 548.929 461.558 548.999 461.604C549.07 461.649 549.13 461.709 549.177 461.778C551.8 465.262 554.107 468.079 556.039 470.158C556.094 470.217 556.137 470.286 556.166 470.362C556.194 470.438 556.208 470.519 556.205 470.601C556.202 470.682 556.183 470.761 556.149 470.835C556.116 470.909 556.067 470.975 556.008 471.031C555.895 471.138 555.744 471.197 555.588 471.196Z" fill="white"/>
<path d="M579.109 271.217L584.877 264.25C584.97 264.138 585.096 264.057 585.238 264.02C585.379 263.982 585.529 263.99 585.665 264.042C585.802 264.094 585.919 264.187 586 264.308C586.082 264.43 586.123 264.574 586.118 264.72C586.084 265.95 585.96 267.176 585.746 268.388C585.712 268.567 585.718 268.751 585.764 268.927C585.811 269.102 585.896 269.266 586.014 269.404C586.132 269.542 586.279 269.652 586.445 269.726C586.612 269.8 586.792 269.835 586.974 269.829C587.254 269.829 587.533 269.812 587.768 269.812C588.373 269.809 588.97 269.68 589.522 269.432C590.074 269.184 590.568 268.824 590.972 268.374C591.934 267.303 593.148 265.985 593.612 265.613C594.425 264.955 595.471 263.934 596.665 263.811H596.701C596.982 263.78 597.266 263.828 597.522 263.95C597.777 264.072 597.993 264.263 598.145 264.501C598.298 264.739 598.381 265.015 598.385 265.298C598.389 265.581 598.315 265.86 598.169 266.102L596.439 268.998C594.499 272.246 591.571 274.788 588.084 276.253L582.889 278.438C582.467 278.616 582.107 278.915 581.855 279.298C581.603 279.681 581.47 280.131 581.474 280.589L581.659 300.803L575.001 293.941C575.001 293.941 575.63 281.767 576.939 275.657C577.295 274.024 578.04 272.501 579.109 271.217Z" fill="white"/>
<path d="M581.659 301.416C581.576 301.416 581.495 301.4 581.419 301.367C581.343 301.335 581.274 301.288 581.217 301.229L574.56 294.366C574.5 294.305 574.455 294.232 574.425 294.153C574.395 294.074 574.382 293.989 574.386 293.904C574.411 293.406 575.032 281.61 576.343 275.522C576.723 273.794 577.511 272.182 578.642 270.822L584.41 263.855C584.585 263.643 584.823 263.491 585.089 263.42C585.355 263.35 585.636 263.364 585.894 263.462C586.151 263.56 586.371 263.736 586.523 263.966C586.676 264.196 586.752 264.467 586.742 264.742C586.711 266.005 586.584 267.263 586.362 268.505C586.345 268.593 586.348 268.683 586.371 268.77C586.393 268.856 586.435 268.936 586.493 269.004C586.551 269.07 586.623 269.123 586.704 269.159C586.784 269.195 586.872 269.212 586.96 269.211C587.24 269.211 587.519 269.197 587.774 269.194C588.292 269.191 588.803 269.08 589.276 268.868C589.749 268.656 590.172 268.348 590.519 267.963C591.917 266.404 592.834 265.445 593.234 265.131L593.578 264.852C594.386 264.18 595.393 263.344 596.601 263.201C596.998 263.151 597.401 263.213 597.765 263.382C598.129 263.55 598.438 263.817 598.657 264.152C598.877 264.487 598.997 264.877 599.006 265.278C599.015 265.679 598.911 266.074 598.706 266.418L596.975 269.317C594.974 272.682 591.944 275.314 588.333 276.823L583.135 279.008C582.825 279.137 582.56 279.356 582.376 279.637C582.192 279.918 582.096 280.248 582.1 280.584L582.285 300.798C582.286 300.921 582.25 301.042 582.182 301.145C582.114 301.248 582.016 301.328 581.902 301.374C581.825 301.406 581.742 301.42 581.659 301.416ZM575.633 293.7L581.027 299.262L580.856 280.589C580.849 280.008 581.016 279.438 581.336 278.952C581.655 278.467 582.112 278.088 582.648 277.864L587.846 275.679C591.214 274.274 594.04 271.822 595.907 268.685L597.638 265.786C597.725 265.642 597.77 265.477 597.767 265.31C597.765 265.142 597.716 264.978 597.626 264.837C597.535 264.695 597.407 264.582 597.255 264.51C597.104 264.438 596.935 264.41 596.768 264.429C595.89 264.53 595.077 265.207 594.358 265.806C594.235 265.909 594.115 266.01 593.998 266.102C593.802 266.259 593.209 266.818 591.431 268.796C590.968 269.309 590.404 269.719 589.775 270.002C589.145 270.285 588.464 270.433 587.774 270.439C587.53 270.439 587.27 270.439 586.993 270.453C586.719 270.468 586.445 270.419 586.193 270.308C585.941 270.197 585.719 270.028 585.545 269.815C585.366 269.606 585.237 269.358 585.167 269.092C585.097 268.825 585.089 268.546 585.143 268.276C585.35 267.097 585.47 265.903 585.5 264.706C585.501 264.689 585.497 264.672 585.487 264.657C585.477 264.643 585.464 264.632 585.447 264.626C585.431 264.62 585.413 264.619 585.397 264.624C585.38 264.629 585.366 264.639 585.355 264.653L579.584 271.619C578.581 272.826 577.881 274.256 577.543 275.788C576.366 281.275 575.734 291.878 575.633 293.7Z" fill="black"/>
<path d="M583.336 282.111H574.081C574.081 282.111 572.124 303.618 547.897 308.595C531.814 311.897 524.192 308.64 522.019 307.401C521.404 307.012 517.358 304.323 514.498 302.768C506.459 298.428 492.015 291.347 479.95 298.591C447.449 318.105 441.754 362.784 451.842 393.716C452.518 395.792 453.902 404.415 455.731 405.691C467.231 413.701 485.872 404.239 485.872 404.239C499.475 399.203 508.864 388.535 512.834 383.311C513.303 382.684 513.505 381.897 513.395 381.121C513.286 380.346 512.874 379.646 512.25 379.173C509.991 377.405 507.094 372.861 506.781 361.203C506.563 353.226 509.42 342.891 512.731 333.415C520.367 338.918 532.781 344.069 549.887 339.19C592.362 327.064 583.336 282.111 583.336 282.111Z" fill="white"/>
<path d="M467.256 409.546C463.135 409.546 458.946 408.676 455.379 406.189C453.961 405.198 452.977 401.287 451.931 396.66C451.652 395.462 451.428 394.421 451.255 393.901C440.834 361.953 447.239 317.506 479.634 298.059C491.154 291.14 504.474 296.66 514.792 302.222C517.221 303.534 520.445 305.638 521.824 306.533C522.072 306.696 522.254 306.813 522.349 306.875C524.245 307.955 531.755 311.276 547.773 307.994C571.288 303.165 573.449 282.271 573.466 282.061C573.481 281.908 573.552 281.766 573.666 281.662C573.779 281.559 573.928 281.501 574.081 281.501H583.336C583.479 281.501 583.617 281.551 583.727 281.641C583.837 281.731 583.912 281.857 583.94 281.997C583.965 282.111 586.177 293.515 583.141 306.254C580.317 318.049 572.284 333.443 550.055 339.785C533.072 344.634 520.649 339.66 513.047 334.394C509.071 345.924 507.223 354.695 507.396 361.189C507.701 372.503 510.413 376.952 512.633 378.689C513.007 378.971 513.322 379.325 513.559 379.729C513.797 380.133 513.952 380.58 514.016 381.045C514.081 381.509 514.053 381.982 513.935 382.436C513.816 382.889 513.61 383.315 513.326 383.689C508.962 389.427 499.626 399.799 486.118 404.807C485.324 405.198 476.461 409.546 467.256 409.546ZM491.582 296.073C487.598 296.024 483.679 297.078 480.258 299.119C448.422 318.253 442.156 362.028 452.415 393.515C452.608 394.099 452.834 395.107 453.125 396.385C453.757 399.183 454.931 404.376 456.075 405.173C467.133 412.876 485.397 403.774 485.581 403.676C485.602 403.665 485.624 403.656 485.646 403.648C498.879 398.752 508.045 388.563 512.334 382.925C512.518 382.679 512.652 382.399 512.727 382.101C512.803 381.803 512.819 381.493 512.775 381.188C512.731 380.884 512.627 380.591 512.47 380.327C512.313 380.063 512.105 379.832 511.859 379.649C509.432 377.746 506.471 373.004 506.152 361.208C505.967 354.418 507.927 345.261 512.138 333.199C512.169 333.108 512.221 333.026 512.29 332.959C512.359 332.892 512.443 332.842 512.535 332.813C512.629 332.782 512.728 332.774 512.825 332.789C512.922 332.804 513.015 332.842 513.094 332.9C520.409 338.174 532.7 343.439 549.722 338.582C567.094 333.628 577.932 322.663 581.935 305.994C584.575 295.004 583.205 285.024 582.825 282.724H574.627C574.093 286.19 570.22 304.637 548.025 309.194C532.035 312.476 524.301 309.407 521.72 307.932L521.161 307.566C519.796 306.676 516.601 304.595 514.216 303.308C507.497 299.682 499.461 296.073 491.593 296.073H491.582Z" fill="black"/>
<path d="M507.304 313.718C508.039 319.484 503.11 336.26 508.232 343.168C525.078 365.847 535.728 371.241 541.004 372.282L535.798 378.104C535.798 378.104 487.404 381.182 480.767 328.499C480.767 328.499 474.509 309.113 488.419 304.32C491.316 303.324 495.13 302.742 498.765 304.161C505.078 306.62 507.055 312.884 507.304 313.718Z" fill="white"/>
<path d="M534.428 378.75C530.832 378.75 520.881 378.28 510.519 373.616C498.589 368.247 483.638 356.082 480.16 328.628C479.794 327.427 474.288 308.534 488.221 303.727C490.922 302.795 494.984 302.015 498.991 303.576C505.389 306.069 507.53 312.305 507.894 313.531C507.894 313.564 507.911 313.595 507.916 313.628C508.168 315.601 507.793 318.704 507.357 322.302C506.496 329.453 505.425 338.353 508.721 342.793C525.746 365.713 536.327 370.723 541.119 371.669C541.226 371.69 541.325 371.739 541.407 371.811C541.489 371.883 541.55 371.976 541.585 372.079C541.62 372.183 541.626 372.293 541.604 372.4C541.583 372.507 541.533 372.606 541.46 372.687L536.254 378.512C536.145 378.633 535.993 378.706 535.832 378.717C535.812 378.722 535.312 378.75 534.428 378.75ZM494.093 303.931C492.228 303.954 490.379 304.283 488.621 304.905C475.437 309.446 481.292 328.127 481.351 328.309C481.362 328.345 481.371 328.382 481.376 328.42C484.768 355.319 499.343 367.22 510.978 372.469C522.612 377.718 533.724 377.567 535.507 377.505L539.847 372.651C533.634 370.986 523.247 364.425 507.734 343.54C504.144 338.708 505.246 329.534 506.132 322.165C506.552 318.687 506.912 315.676 506.691 313.852C506.314 312.618 504.318 306.995 498.535 304.743C497.118 304.198 495.611 303.923 494.093 303.931Z" fill="black"/>
<path d="M472.672 304.673C470.262 305.705 467.53 305.848 465.123 304.824C463.729 304.273 462.507 303.361 461.58 302.183C456.192 294.908 455.555 280.309 485.347 288.263C495.074 290.86 508.534 298.727 508.534 298.727L516.293 303.632C500.979 299.085 486.339 298.825 472.672 304.673Z" fill="white"/>
<path d="M468.632 306.136C467.346 306.143 466.071 305.89 464.885 305.392C463.387 304.802 462.075 303.82 461.085 302.549C458.376 298.892 456.807 293.479 459.408 289.632C461.748 286.182 468.176 283.043 485.509 287.673C495.203 290.258 508.716 298.12 508.847 298.201L516.626 303.114C516.756 303.192 516.852 303.315 516.898 303.46C516.943 303.605 516.933 303.761 516.871 303.899C516.808 304.037 516.697 304.148 516.559 304.209C516.42 304.271 516.264 304.28 516.12 304.233C499.903 299.418 485.76 299.757 472.91 305.252C471.557 305.83 470.103 306.131 468.632 306.136ZM470.723 286.596C465.648 286.596 462.125 287.844 460.439 290.326C458.18 293.655 459.704 298.616 462.078 301.813C462.936 302.907 464.072 303.751 465.366 304.256C467.511 305.165 470.086 305.112 472.437 304.105C484.491 298.948 497.627 298.229 512.482 301.945L508.218 299.251C508.101 299.183 494.736 291.417 485.201 288.859C479.536 287.346 474.652 286.596 470.715 286.596H470.723Z" fill="black"/>
<path d="M533.586 378.076C534.017 377.819 537.982 371.672 542.335 370.391C546.689 369.109 556.162 378.672 556.162 378.672L533.586 378.076Z" fill="white"/>
<path d="M556.162 379.291H556.148L533.572 378.692C533.443 378.689 533.318 378.645 533.215 378.567C533.112 378.489 533.036 378.38 532.998 378.257C532.959 378.133 532.961 378.001 533.002 377.878C533.043 377.755 533.121 377.648 533.226 377.573C533.312 377.486 533.561 377.17 533.802 376.865C535.214 375.069 538.524 370.866 542.165 369.795C546.742 368.443 555.605 377.229 556.601 378.236C556.686 378.322 556.744 378.432 556.767 378.551C556.79 378.671 556.777 378.794 556.731 378.906C556.684 379.019 556.606 379.115 556.505 379.182C556.404 379.25 556.286 379.287 556.164 379.288L556.162 379.291ZM534.878 377.491L554.593 378.015C551.431 375.052 545.389 370.139 542.509 370.984C539.335 371.916 536.276 375.72 534.878 377.491Z" fill="black"/>
<path d="M513.134 329.688C513.098 329.692 513.063 329.692 513.027 329.688C512.866 329.66 512.723 329.569 512.628 329.435C512.534 329.302 512.496 329.136 512.524 328.974L515.6 311.2C515.61 311.117 515.636 311.036 515.678 310.964C515.72 310.891 515.777 310.828 515.844 310.778C515.911 310.728 515.988 310.692 516.069 310.672C516.151 310.653 516.236 310.65 516.318 310.664C516.401 310.679 516.48 310.709 516.55 310.755C516.62 310.801 516.68 310.86 516.727 310.93C516.774 311 516.805 311.078 516.821 311.161C516.836 311.243 516.834 311.328 516.816 311.41L513.74 329.184C513.714 329.326 513.638 329.453 513.528 329.545C513.417 329.637 513.277 329.688 513.134 329.688Z" fill="black"/>
<path d="M596.928 386.674H520.166C519.558 386.674 518.957 386.554 518.396 386.321C517.836 386.088 517.326 385.747 516.897 385.317C516.469 384.887 516.129 384.376 515.897 383.815C515.666 383.253 515.548 382.651 515.549 382.043H601.547C601.548 382.651 601.429 383.253 601.198 383.815C600.966 384.377 600.626 384.887 600.197 385.317C599.768 385.747 599.258 386.088 598.697 386.321C598.136 386.554 597.535 386.674 596.928 386.674Z" fill="white"/>
<path d="M596.928 387.292H520.166C518.778 387.291 517.447 386.739 516.466 385.757C515.485 384.775 514.933 383.443 514.931 382.055C514.931 381.891 514.996 381.733 515.112 381.618C515.228 381.502 515.385 381.437 515.549 381.437H601.547C601.711 381.437 601.868 381.502 601.984 381.618C602.1 381.733 602.165 381.891 602.165 382.055C602.163 383.444 601.61 384.775 600.628 385.757C599.647 386.739 598.316 387.291 596.928 387.292ZM516.215 382.673C516.363 383.615 516.843 384.473 517.567 385.093C518.291 385.714 519.212 386.055 520.166 386.056H596.928C597.881 386.055 598.803 385.714 599.528 385.094C600.252 384.474 600.732 383.615 600.881 382.673H516.215Z" fill="black"/>
<path d="M601.547 382.139H552.337L567.972 336.087C568.442 335.372 569.083 334.786 569.837 334.382C570.591 333.978 571.434 333.769 572.289 333.773H613.886C614.304 333.764 614.718 333.857 615.092 334.044C615.466 334.23 615.79 334.505 616.035 334.845C616.279 335.184 616.438 335.578 616.497 335.992C616.556 336.406 616.514 336.828 616.374 337.223C616.128 337.866 615.863 338.501 615.65 339.156L601.547 382.139Z" fill="white"/>
<path d="M601.547 382.754H552.337C552.239 382.754 552.143 382.731 552.056 382.686C551.969 382.641 551.894 382.576 551.837 382.497C551.779 382.417 551.742 382.325 551.727 382.228C551.713 382.132 551.721 382.033 551.752 381.94L567.388 335.888C567.404 335.84 567.427 335.794 567.455 335.751C567.979 334.948 568.696 334.289 569.541 333.836C570.386 333.382 571.331 333.148 572.289 333.155H613.886C614.417 333.148 614.941 333.272 615.413 333.516C615.884 333.76 616.288 334.116 616.59 334.553C616.878 334.969 617.062 335.449 617.124 335.951C617.187 336.454 617.127 336.964 616.95 337.438L616.735 337.998C616.553 338.459 616.383 338.896 616.237 339.349L602.134 382.323C602.095 382.448 602.017 382.558 601.911 382.635C601.805 382.713 601.678 382.754 601.547 382.754ZM553.201 381.52H601.1L615.066 338.957C615.225 338.473 615.41 338 615.589 337.542L615.798 336.999C615.905 336.711 615.94 336.402 615.901 336.098C615.862 335.794 615.75 335.504 615.575 335.253C615.387 334.982 615.136 334.762 614.844 334.61C614.551 334.459 614.226 334.382 613.897 334.386H572.292C571.553 334.379 570.824 334.554 570.169 334.895C569.513 335.237 568.952 335.734 568.534 336.344L553.201 381.52Z" fill="black"/>
<path d="M583.286 357.333C582.702 359.292 583.596 361.272 585.288 361.784C586.98 362.296 588.828 361.13 589.412 359.183C589.997 357.235 589.102 355.243 587.41 354.734C585.719 354.225 583.873 355.386 583.286 357.333Z" fill="black"/>
<path d="M575.888 246.567C586.676 235.772 586.676 218.27 575.888 207.475C565.1 196.679 547.609 196.679 536.821 207.474C526.032 218.269 526.033 235.772 536.821 246.567C547.609 257.362 565.1 257.362 575.888 246.567Z" fill="white"/>
<path d="M556.357 255.28C550.772 255.28 545.312 253.623 540.668 250.518C536.024 247.413 532.404 242.999 530.267 237.836C528.13 232.672 527.571 226.991 528.66 221.509C529.75 216.028 532.439 210.993 536.389 207.041C540.338 203.089 545.37 200.397 550.848 199.307C556.326 198.217 562.004 198.776 567.164 200.915C572.324 203.054 576.735 206.676 579.838 211.323C582.941 215.97 584.597 221.433 584.597 227.022C584.588 234.514 581.61 241.696 576.316 246.994C571.022 252.291 563.844 255.271 556.357 255.28ZM556.357 199.998C551.016 199.997 545.794 201.582 541.352 204.551C536.91 207.52 533.448 211.741 531.404 216.679C529.36 221.617 528.825 227.051 529.866 232.293C530.908 237.536 533.481 242.351 537.258 246.131C541.035 249.91 545.847 252.484 551.086 253.527C556.326 254.57 561.756 254.034 566.691 251.989C571.626 249.943 575.844 246.479 578.811 242.034C581.778 237.59 583.362 232.364 583.362 227.019C583.353 219.856 580.505 212.988 575.442 207.922C570.38 202.857 563.517 200.007 556.357 199.998Z" fill="black"/>
<path d="M502.869 180.478C502.742 180.477 502.618 180.438 502.514 180.365C502.41 180.292 502.331 180.189 502.288 180.069C493.965 157.103 481.529 135.846 465.59 117.342C465.496 117.217 465.452 117.06 465.469 116.904C465.486 116.748 465.561 116.605 465.68 116.502C465.799 116.4 465.952 116.346 466.109 116.353C466.265 116.359 466.414 116.425 466.524 116.536C482.565 135.153 495.078 156.54 503.451 179.649C503.487 179.743 503.499 179.845 503.487 179.945C503.475 180.045 503.439 180.14 503.382 180.223C503.324 180.306 503.248 180.373 503.158 180.419C503.069 180.466 502.97 180.49 502.869 180.489V180.478Z" fill="black"/>
<path d="M517.207 192.953C517.073 192.953 516.942 192.909 516.835 192.827C516.727 192.745 516.65 192.63 516.615 192.5C507.014 157.525 488.538 125.628 462.981 99.9066C462.869 99.7898 462.806 99.6334 462.808 99.4712C462.809 99.3089 462.875 99.1538 462.99 99.0392C463.104 98.9247 463.26 98.86 463.422 98.8589C463.584 98.8578 463.74 98.9206 463.856 99.0336C489.56 124.909 508.144 156.993 517.806 192.173C517.849 192.331 517.827 192.5 517.746 192.643C517.665 192.785 517.53 192.89 517.372 192.934C517.318 192.947 517.263 192.954 517.207 192.953Z" fill="black"/>
<path d="M108.223 63.1988C107.631 63.198 107.044 63.087 106.493 62.8715C105.889 62.6369 105.34 62.2839 104.875 61.8332C104.411 61.3824 104.041 60.8431 103.789 60.2472C103.272 59.0559 103.242 57.7096 103.705 56.4964C104.168 55.2833 105.087 54.2996 106.266 53.7562C106.842 53.4946 107.465 53.3514 108.098 53.3351C108.73 53.3187 109.359 53.4296 109.948 53.6611C110.552 53.8946 111.102 54.247 111.566 54.6973C112.031 55.1476 112.4 55.6867 112.652 56.2826C113.169 57.4743 113.199 58.8211 112.736 60.0347C112.273 61.2483 111.354 62.2324 110.175 62.7764C109.561 63.0533 108.896 63.1972 108.223 63.1988ZM108.223 54.5704C107.724 54.5706 107.23 54.6764 106.775 54.8809C105.891 55.2909 105.203 56.0306 104.857 56.9419C104.511 57.8532 104.535 58.8638 104.924 59.7575C105.113 60.2024 105.388 60.6048 105.735 60.9412C106.082 61.2776 106.492 61.541 106.943 61.716C107.379 61.8877 107.845 61.97 108.314 61.958C108.783 61.9459 109.245 61.8399 109.672 61.6461C110.555 61.2361 111.244 60.4964 111.59 59.5851C111.936 58.6738 111.912 57.6632 111.523 56.7694C111.333 56.3252 111.057 55.9232 110.71 55.587C110.364 55.2507 109.953 54.9869 109.504 54.811C109.096 54.6518 108.661 54.5702 108.223 54.5704Z" fill="black"/>
<path d="M517.218 215.213C517.055 215.213 516.897 215.148 516.782 215.032C516.666 214.916 516.601 214.759 516.601 214.595V209.802C516.601 209.638 516.666 209.481 516.782 209.365C516.897 209.249 517.055 209.184 517.218 209.184C517.382 209.184 517.54 209.249 517.655 209.365C517.771 209.481 517.836 209.638 517.836 209.802V214.595C517.836 214.759 517.771 214.916 517.655 215.032C517.54 215.148 517.382 215.213 517.218 215.213Z" fill="black"/>
<path d="M517.218 226.376C517.055 226.376 516.897 226.311 516.782 226.195C516.666 226.079 516.601 225.922 516.601 225.758V220.965C516.601 220.801 516.666 220.644 516.782 220.528C516.897 220.412 517.055 220.347 517.218 220.347C517.382 220.347 517.54 220.412 517.655 220.528C517.771 220.644 517.836 220.801 517.836 220.965V225.758C517.836 225.922 517.771 226.079 517.655 226.195C517.54 226.311 517.382 226.376 517.218 226.376Z" fill="black"/>
<path d="M514.034 218.397H509.244C509.16 218.402 509.075 218.391 508.995 218.362C508.916 218.334 508.842 218.289 508.781 218.232C508.719 218.174 508.67 218.104 508.636 218.026C508.602 217.948 508.585 217.865 508.585 217.78C508.585 217.695 508.602 217.611 508.636 217.534C508.67 217.456 508.719 217.386 508.781 217.328C508.842 217.27 508.916 217.226 508.995 217.197C509.075 217.169 509.16 217.157 509.244 217.163H514.034C514.118 217.157 514.203 217.169 514.283 217.197C514.362 217.226 514.436 217.27 514.497 217.328C514.559 217.386 514.608 217.456 514.642 217.534C514.676 217.611 514.693 217.695 514.693 217.78C514.693 217.865 514.676 217.948 514.642 218.026C514.608 218.104 514.559 218.174 514.497 218.232C514.436 218.289 514.362 218.334 514.283 218.362C514.203 218.391 514.118 218.402 514.034 218.397Z" fill="black"/>
<path d="M525.19 218.397H520.4C520.244 218.386 520.098 218.317 519.991 218.202C519.884 218.088 519.824 217.937 519.824 217.78C519.824 217.623 519.884 217.472 519.991 217.358C520.098 217.243 520.244 217.174 520.4 217.163H525.19C525.274 217.157 525.359 217.169 525.439 217.197C525.519 217.226 525.592 217.27 525.654 217.328C525.715 217.386 525.765 217.456 525.798 217.534C525.832 217.611 525.849 217.695 525.849 217.78C525.849 217.865 525.832 217.948 525.798 218.026C525.765 218.104 525.715 218.174 525.654 218.232C525.592 218.289 525.519 218.334 525.439 218.362C525.359 218.391 525.274 218.402 525.19 218.397Z" fill="black"/>
<path d="M129.012 42.33C128.947 42.3293 128.883 42.3189 128.822 42.2992C128.666 42.2486 128.537 42.1382 128.462 41.9924C128.388 41.8466 128.374 41.6772 128.425 41.5214L129.912 36.9638C129.967 36.8128 130.078 36.6889 130.222 36.6184C130.366 36.5479 130.532 36.5363 130.685 36.5861C130.837 36.6359 130.965 36.7432 131.04 36.8853C131.115 37.0273 131.131 37.1929 131.086 37.3471L129.599 41.9047C129.558 42.0285 129.48 42.1362 129.374 42.2126C129.269 42.2889 129.142 42.33 129.012 42.33Z" fill="black"/>
<path d="M125.559 52.942C125.494 52.9415 125.43 52.9312 125.369 52.9112C125.213 52.8606 125.084 52.7503 125.009 52.6045C124.935 52.4587 124.921 52.2893 124.971 52.1334L126.459 47.5758C126.484 47.4986 126.525 47.4272 126.577 47.3656C126.63 47.304 126.695 47.2535 126.767 47.2168C126.84 47.1802 126.919 47.1583 127 47.1521C127.081 47.146 127.162 47.1559 127.239 47.1812C127.316 47.2066 127.388 47.2469 127.449 47.2999C127.511 47.3528 127.561 47.4174 127.598 47.4899C127.634 47.5623 127.656 47.6413 127.662 47.7223C127.669 47.8033 127.659 47.8847 127.633 47.9618L126.146 52.5167C126.105 52.6404 126.027 52.7482 125.921 52.8246C125.816 52.9009 125.689 52.942 125.559 52.942Z" fill="black"/>
<path d="M124.999 44.3698C124.935 44.3692 124.871 44.3588 124.809 44.339L120.257 42.8506C120.178 42.8274 120.104 42.7884 120.04 42.7361C119.976 42.6837 119.923 42.619 119.884 42.5457C119.845 42.4725 119.822 42.3922 119.815 42.3096C119.808 42.2271 119.817 42.144 119.843 42.0652C119.869 41.9865 119.91 41.9137 119.964 41.8512C120.018 41.7887 120.085 41.7377 120.159 41.7014C120.234 41.665 120.315 41.644 120.397 41.6396C120.48 41.6351 120.563 41.6473 120.64 41.6755L125.192 43.1639C125.332 43.2098 125.451 43.304 125.527 43.4296C125.604 43.5552 125.633 43.7039 125.61 43.8492C125.587 43.9945 125.513 44.1267 125.401 44.2221C125.289 44.3176 125.146 44.3699 124.999 44.3698Z" fill="black"/>
<path d="M135.602 47.836C135.537 47.8353 135.473 47.825 135.412 47.8053L130.871 46.3056C130.794 46.2802 130.723 46.24 130.661 46.187C130.599 46.1341 130.549 46.0695 130.512 45.997C130.476 45.9245 130.454 45.8455 130.448 45.7645C130.442 45.6836 130.451 45.6021 130.477 45.525C130.502 45.4478 130.542 45.3765 130.595 45.3149C130.648 45.2533 130.713 45.2027 130.785 45.1661C130.858 45.1295 130.937 45.1075 131.018 45.1014C131.098 45.0953 131.18 45.1052 131.257 45.1305L135.809 46.619C135.949 46.6648 136.067 46.759 136.144 46.8846C136.22 47.0102 136.25 47.159 136.226 47.3042C136.203 47.4495 136.129 47.5817 136.017 47.6771C135.905 47.7725 135.763 47.8249 135.616 47.8248L135.602 47.836Z" fill="black"/>
<path d="M547.39 216.08H565.388C565.702 216.08 566.213 216.105 566.524 216.133C567.912 216.254 569.23 216.799 570.298 217.694C571.366 218.59 572.134 219.792 572.496 221.139C572.496 221.186 572.521 221.234 572.532 221.281C572.675 221.869 572.745 222.472 572.742 223.077V231.337C572.738 231.549 572.718 231.76 572.683 231.969C572.482 233.623 571.679 235.145 570.429 236.245C569.179 237.346 567.568 237.948 565.903 237.937C559.537 237.963 553.171 237.963 546.803 237.937C545.899 237.942 545.004 237.766 544.168 237.42C543.333 237.075 542.575 236.565 541.939 235.923C541.303 235.28 540.802 234.517 540.464 233.678C540.126 232.84 539.959 231.942 539.973 231.037C539.973 228.287 539.959 225.537 539.973 222.784C539.997 221.339 540.482 219.94 541.358 218.791C542.233 217.642 543.452 216.803 544.838 216.396C544.994 216.352 545.151 216.315 545.31 216.282C545.995 216.144 546.692 216.077 547.39 216.08ZM567.938 219.39C567.297 219.018 566.567 218.824 565.825 218.83H546.921C546.169 218.821 545.428 219.014 544.776 219.39C544.899 219.468 551.959 223.959 555.381 226.158C555.663 226.371 556.007 226.486 556.36 226.486C556.713 226.486 557.057 226.371 557.339 226.158C560.761 223.967 567.818 219.471 567.938 219.39Z" fill="black"/>
</g>
<defs>
<clipPath id="clip0_2061_888">
<rect width="625" height="512" fill="white" transform="translate(0 0.5)"/>
</clipPath>
</defs>
</svg>
