<svg width="36" height="36" viewBox="0 0 36 36" fill="none" xmlns="http://www.w3.org/2000/svg">
<g id="linkedin" clip-path="url(#clip0_2142_1672)">
<path id="linkedin_2" fill-rule="evenodd" clip-rule="evenodd" d="M35.9985 17.9976C35.9985 27.9387 27.9397 35.9976 17.9985 35.9976C8.05741 35.9976 -0.00146484 27.9387 -0.00146484 17.9976C-0.00146484 8.05643 8.05741 -0.00244141 17.9985 -0.00244141C27.9397 -0.00244141 35.9985 8.05643 35.9985 17.9976ZM12.2577 10.7852C12.6759 9.15806 11.5268 7.75237 9.76966 7.75237C8.60995 7.75237 7.68571 8.31113 7.32725 9.23186C7.18636 9.5666 7.12445 9.92929 7.14632 10.2918C7.16819 10.6543 7.27326 11.0069 7.45337 11.3223C7.63349 11.6377 7.88381 11.9073 8.18494 12.1104C8.48607 12.3134 8.82991 12.4444 9.18981 12.4931C10.6658 12.7356 11.945 12.0222 12.2577 10.7852ZM19.1633 16.3061C19.2041 16.2603 19.2335 16.2298 19.2558 16.2067C19.2815 16.18 19.2977 16.1632 19.3109 16.1444C20.5198 14.3873 22.2488 13.8601 24.2659 14.1694C26.5959 14.5208 28.0859 16.1585 28.4831 18.6536C28.5636 19.2451 28.5989 19.8419 28.5885 20.4388V27.8925C28.5885 28.1702 28.5217 28.244 28.2371 28.244C26.9368 28.2264 25.633 28.2264 24.3327 28.244C24.0481 28.244 23.9813 28.1667 23.9813 27.8925V20.9414C23.9933 20.4151 23.9306 19.8897 23.795 19.381C23.6973 19.0128 23.5074 18.6754 23.2433 18.4008C22.9792 18.1262 22.6496 17.9232 22.2855 17.8111C21.9213 17.699 21.5346 17.6814 21.1618 17.7599C20.789 17.8384 20.4423 18.0105 20.1543 18.26C19.8213 18.5346 19.5579 18.884 19.3857 19.2798C19.2134 19.6755 19.1372 20.1064 19.1633 20.5372V27.0948C19.1633 27.1895 19.1613 27.2845 19.1594 27.3797C19.1555 27.5705 19.1515 27.7624 19.1633 27.9523C19.1808 28.2369 19.0789 28.2475 18.8575 28.2475H14.8794C14.6369 28.2475 14.5526 28.2018 14.5561 27.9382C14.5748 25.9656 14.5842 23.9941 14.5842 22.0237C14.5842 19.5989 14.5772 17.1752 14.5631 14.7528C14.5631 14.4857 14.6158 14.4013 14.8899 14.4013H18.8681C19.107 14.4013 19.1703 14.4716 19.1633 14.7036C19.1564 15.0326 19.1585 15.3631 19.1608 15.7187C19.162 15.9061 19.1633 16.1012 19.1633 16.3061ZM12.0364 21.3314V27.8855C12.0364 28.1596 11.9836 28.2369 11.6849 28.2369C10.8112 28.2252 9.93587 28.2291 9.06004 28.233C8.62193 28.235 8.18369 28.2369 7.74545 28.2369C7.50297 28.2369 7.41862 28.1807 7.42214 27.9242V14.7071C7.42214 14.4751 7.47836 14.3978 7.72085 14.4013H11.7306C11.9977 14.4013 12.0399 14.4962 12.0399 14.7317C12.0346 16.3871 12.0353 18.0366 12.0359 19.6847V19.6862C12.0361 20.2347 12.0364 20.7831 12.0364 21.3314Z" fill="#121212"/>
</g>
<defs>
<clipPath id="clip0_2142_1672">
<rect width="36" height="36" fill="white"/>
</clipPath>
</defs>
</svg>
