<svg width="166" height="50" viewBox="0 0 166 50" fill="none" xmlns="http://www.w3.org/2000/svg">
<g clip-path="url(#clip0_574_921)">
<path d="M0 50.0019V21.9832C0.00310848 18.1136 1.00085 14.3133 2.89273 10.9649C4.7846 7.61656 7.50378 4.83848 10.7763 2.91054L11.2275 2.65335C11.3791 2.57009 11.5307 2.48683 11.6841 2.40727C12.1426 2.16673 12.6154 1.941 13.0919 1.73562C17.0215 0.0319894 21.3577 -0.43012 25.545 0.408485C29.7324 1.24709 33.5802 3.34822 36.5955 6.44272C37.2669 7.13171 37.8939 7.86473 38.4725 8.63714C40.8311 11.7964 42.3066 15.5541 42.7408 19.5075C42.8297 20.3296 42.8743 21.1561 42.8743 21.9832V45.7907C41.9316 45.7909 40.9981 45.6008 40.127 45.2311C39.256 44.8614 38.4645 44.3194 37.7978 43.6361C37.1311 42.9527 36.6023 42.1415 36.2415 41.2486C35.8806 40.3557 35.6949 39.3986 35.6949 38.4321V38.397C31.7703 41.9849 26.6956 43.9676 21.4372 43.9676C16.1788 43.9676 11.1041 41.9849 7.17941 38.397V50.0019H0ZM21.4372 7.366C19.5641 7.3609 17.7086 7.73669 15.9781 8.47161C14.2477 9.20653 12.6765 10.286 11.3557 11.6475C11.0615 11.9491 10.7781 12.2655 10.5128 12.5875C8.38364 15.1633 7.20392 18.4237 7.17941 21.8V21.985C7.17941 24.876 8.01562 27.7021 9.58228 30.1059C11.1489 32.5097 13.3757 34.3832 15.981 35.4895C18.5862 36.5959 21.453 36.8854 24.2187 36.3213C26.9845 35.7573 29.5249 34.3652 31.5189 32.3209C33.5129 30.2767 34.8708 27.6722 35.421 24.8367C35.9711 22.0012 35.6888 19.0622 34.6096 16.3913C33.5305 13.7203 31.703 11.4374 29.3584 9.83129C27.0137 8.22514 24.2571 7.36785 21.4372 7.36785V7.366Z" fill="#2F80ED"/>
<path d="M61.7468 18.8081C61.2842 19.6542 60.5835 20.3377 59.7363 20.7694C58.8231 21.2628 57.6722 21.5096 56.2838 21.5096H53.4503V28.1705H50.0591V10.8372H56.2838C57.5928 10.8372 58.7076 11.0684 59.628 11.531C60.4897 11.9413 61.211 12.608 61.6981 13.4442C62.1433 14.263 62.3811 15.1833 62.3896 16.1207C62.3981 17.0582 62.1771 17.9828 61.7468 18.81V18.8081ZM58.2221 18.0514C58.6745 17.6135 58.9007 16.9967 58.9007 16.2011C58.9007 14.5124 57.9803 13.6681 56.1394 13.6681H53.4503V18.7082H56.1394C57.0755 18.7082 57.7697 18.4893 58.2221 18.0514Z" fill="black"/>
<path d="M75.1547 24.8678H68.4211L67.3039 28.1706H63.7449L69.8306 10.8113H73.7794L79.8597 28.1706H76.2682L75.1547 24.8678ZM74.2342 22.0924L71.787 14.8356L69.3415 22.0869L74.2342 22.0924Z" fill="black"/>
<path d="M91.6684 28.1705L85.5159 20.4475V28.1705H82.1301V10.8372H85.5213V18.6083L91.6738 10.8372H95.7688L88.7916 19.4298L95.962 28.1705H91.6684Z" fill="black"/>
<path d="M101.582 10.8372V28.1705H98.1909V10.8372H101.582Z" fill="black"/>
<path d="M107.577 27.7227C106.683 27.3518 105.907 26.7337 105.336 25.9372C104.778 25.1321 104.481 24.1677 104.488 23.1803H108.121C108.129 23.498 108.199 23.8109 108.326 24.1008C108.453 24.3908 108.635 24.6521 108.861 24.8696C109.305 25.284 109.914 25.4906 110.689 25.4894C111.464 25.4882 112.086 25.2939 112.555 24.9066C112.774 24.7223 112.95 24.4889 113.067 24.2242C113.184 23.9595 113.241 23.6707 113.232 23.3801C113.24 23.1482 113.204 22.9169 113.125 22.6994C113.046 22.4819 112.926 22.2825 112.772 22.1127C112.448 21.7697 112.056 21.5027 111.622 21.33C110.998 21.0847 110.362 20.8729 109.716 20.6953C108.803 20.4323 107.909 20.1046 107.04 19.7147C106.342 19.3823 105.734 18.879 105.271 18.2493C104.778 17.5955 104.532 16.7222 104.533 15.6293C104.512 14.6776 104.774 13.7419 105.284 12.9464C105.807 12.1669 106.539 11.5591 107.392 11.196C108.373 10.772 109.431 10.5622 110.496 10.5799C112.239 10.5799 113.656 11.0116 114.746 11.8751C115.836 12.7385 116.438 13.9511 116.551 15.5127H112.82C112.809 15.2259 112.737 14.9451 112.61 14.6895C112.482 14.4339 112.302 14.2098 112.082 14.0325C111.621 13.6439 111.012 13.4491 110.254 13.4478C109.681 13.4169 109.116 13.6026 108.668 13.9696C108.27 14.3174 108.074 14.8226 108.074 15.485C108.067 15.6986 108.103 15.9114 108.18 16.11C108.257 16.3086 108.373 16.4889 108.521 16.6395C108.841 16.9589 109.22 17.2104 109.635 17.3797C110.079 17.5708 110.705 17.7898 111.514 18.0365C112.432 18.3005 113.33 18.6326 114.201 19.0301C114.908 19.3715 115.523 19.8832 115.995 20.5214C116.494 21.1814 116.745 22.0504 116.746 23.1285C116.751 24.0423 116.507 24.9395 116.042 25.7188C115.546 26.5392 114.832 27.1977 113.984 27.6172C112.981 28.1175 111.876 28.3661 110.761 28.3425C109.67 28.3604 108.586 28.1495 107.577 27.7227Z" fill="black"/>
<path d="M131.182 10.8372V13.6422H126.681V28.1705H123.284V13.6422H118.772V10.8372H131.182Z" fill="black"/>
<path d="M144.02 24.8678H137.286L136.172 28.1706H132.612L138.692 10.8113H142.639L148.719 28.1706H145.135L144.02 24.8678ZM143.099 22.0924L140.654 14.8356L138.206 22.0869L143.099 22.0924Z" fill="black"/>
<path d="M165.457 28.1706H162.066L154.388 16.2751V28.1706H150.997V10.8113H154.388L162.066 22.7326V10.8113H165.457V28.1706Z" fill="black"/>
<g filter="url(#filter0_d_574_921)">
<path d="M42.8744 21.9832C42.8736 26.5561 41.4826 31.0151 38.8948 34.7398C36.3071 38.4646 32.6514 41.2699 28.4362 42.7655C27.2262 43.1842 25.9836 43.4968 24.722 43.6998C23.0469 43.9659 21.347 44.028 19.6577 43.8849H19.6433C19.8942 43.8645 20.1432 43.8386 20.3923 43.8072C25.6276 43.1637 30.448 40.5646 33.9319 36.5069C37.4157 32.4491 39.3187 27.2174 39.2769 21.8118C39.2351 16.4062 37.2516 11.206 33.7055 7.20535C30.1593 3.2047 25.2994 0.684253 20.0548 0.125855L19.6433 0.0851494H19.6577C23.8646 -0.268968 28.0802 0.650365 31.7823 2.72919C33.5581 3.74307 35.1873 5.00604 36.6227 6.48155C39.7033 9.64375 41.7664 13.6965 42.5351 18.0957C42.7581 19.379 42.8716 20.6797 42.8744 21.9832Z" fill="black"/>
</g>
<path d="M42.8744 21.9831V45.7906C41.9318 45.7908 40.9983 45.6007 40.1274 45.231C39.2565 44.8612 38.4651 44.3192 37.7986 43.6359C37.132 42.9525 36.6033 42.1412 36.2427 41.2483C35.8821 40.3554 35.6966 39.3985 35.6968 38.432V38.395L35.4658 38.6023C34.5504 39.4121 33.5713 40.143 32.5384 40.7874C28.6932 43.1665 24.2183 44.2527 19.7408 43.8941L19.6343 43.8848C19.8148 43.87 19.9862 43.8534 20.1613 43.833C25.3887 43.2427 30.2221 40.7031 33.7422 36.6974C37.2622 32.6917 39.2234 27.4992 39.2526 22.1077C39.2818 16.7162 37.377 11.5018 33.9005 7.45622C30.424 3.41067 25.6184 0.816275 20.3977 0.166494C20.145 0.13689 19.8888 0.109136 19.6343 0.0869327H19.6577C19.7877 0.075831 19.9176 0.0702799 20.0476 0.0591783C22.9733 -0.136756 25.9071 0.28488 28.6674 1.298C31.4278 2.31111 33.956 3.89416 36.0957 5.94919C38.2354 8.00422 39.941 10.4875 41.1069 13.2455C42.2729 16.0034 42.8745 18.9773 42.8744 21.9831Z" fill="url(#paint0_linear_574_921)"/>
<path d="M52.0425 40.3435C51.5774 40.0774 51.1903 39.6883 50.9218 39.2167C50.6502 38.7195 50.5076 38.1592 50.5076 37.5894C50.5076 37.0195 50.6502 36.4592 50.9218 35.9621C51.1903 35.4904 51.5774 35.1013 52.0425 34.8352C52.519 34.5682 53.0534 34.4282 53.5964 34.4282C54.1395 34.4282 54.6739 34.5682 55.1504 34.8352C55.6135 35.1016 55.9981 35.4908 56.2639 35.9621C56.5327 36.4602 56.6737 37.0201 56.6737 37.5894C56.6737 38.1586 56.5327 38.7186 56.2639 39.2167C55.9972 39.6885 55.6112 40.0778 55.1468 40.3435C54.6709 40.6106 54.1371 40.7505 53.5946 40.7505C53.0522 40.7505 52.5184 40.6106 52.0425 40.3435ZM54.5512 39.3925C54.8304 39.2217 55.0554 38.9717 55.1991 38.6727C55.36 38.3342 55.4398 37.9612 55.4319 37.5847C55.4402 37.21 55.3604 36.8387 55.1991 36.5023C55.0557 36.2051 54.8304 35.9574 54.5512 35.79C54.2598 35.6208 53.9294 35.5351 53.5946 35.542C53.2582 35.5357 52.9262 35.6212 52.6327 35.79C52.352 35.9567 52.1254 36.2044 51.9812 36.5023C51.8199 36.8387 51.74 37.21 51.7483 37.5847C51.7405 37.9612 51.8203 38.3342 51.9812 38.6727C52.1256 38.9724 52.352 39.2224 52.6327 39.3925C52.9252 39.5641 53.2577 39.6511 53.5946 39.6441C53.9299 39.6516 54.2608 39.5645 54.5512 39.3925Z" fill="black"/>
<path d="M61.2866 34.5168V35.516H58.778V37.098H60.7V38.0805H58.778V40.6875H57.5706V34.5168H61.2866Z" fill="black"/>
<path d="M65.86 34.5168V35.516H63.3514V37.098H65.2753V38.0805H63.3478V40.6875H62.1404V34.5168H65.86Z" fill="black"/>
<path d="M67.6648 40.5283C67.3462 40.3967 67.0698 40.1762 66.8671 39.8918C66.6683 39.6057 66.5628 39.2625 66.5657 38.9112H67.8453C67.8485 39.0243 67.8734 39.1356 67.9187 39.2388C67.9639 39.342 68.0285 39.435 68.1088 39.5125C68.2911 39.6676 68.5239 39.7463 68.7603 39.7327C68.9987 39.7469 69.2342 39.6734 69.4245 39.5255C69.5024 39.4597 69.5645 39.3764 69.6062 39.2821C69.6478 39.1878 69.6677 39.085 69.6645 38.9815C69.6705 38.815 69.6121 38.6527 69.5021 38.53C69.3862 38.4089 69.2466 38.3143 69.0924 38.2525C68.8708 38.1653 68.6449 38.09 68.4156 38.0268C68.0905 37.933 67.772 37.8162 67.4627 37.6771C67.2138 37.5593 66.9974 37.38 66.8328 37.1553C66.6468 36.8857 66.554 36.56 66.5693 36.2302C66.5616 35.8915 66.6548 35.5584 66.8365 35.2754C67.0229 34.9977 67.2836 34.7812 67.5872 34.6519C67.9362 34.502 68.3117 34.4283 68.69 34.4354C69.2314 34.4102 69.7652 34.5739 70.2042 34.8998C70.397 35.0545 70.5545 35.2506 70.6655 35.4744C70.7765 35.6981 70.8383 35.9441 70.8467 36.195H69.5184C69.5142 36.0931 69.4886 35.9932 69.4431 35.9025C69.3976 35.8118 69.3333 35.7323 69.2549 35.6695C69.0694 35.5229 68.8391 35.4488 68.6051 35.4604C68.4011 35.4494 68.2002 35.5152 68.0402 35.6455C67.968 35.7133 67.9116 35.7969 67.875 35.8901C67.8385 35.9833 67.8228 36.0837 67.8291 36.1839C67.8267 36.2599 67.8396 36.3355 67.8669 36.4062C67.8942 36.4768 67.9354 36.541 67.9879 36.5947C68.1032 36.7067 68.2387 36.7947 68.3868 36.8537C68.6054 36.9428 68.8283 37.0206 69.0545 37.0868C69.382 37.1812 69.7023 37.2999 70.0129 37.4421C70.2636 37.5634 70.4821 37.7449 70.65 37.9713C70.8373 38.2404 70.9313 38.5661 70.9171 38.8964C70.9195 39.2225 70.8333 39.5429 70.668 39.8215C70.4913 40.1135 70.2371 40.3477 69.9353 40.4969C69.5777 40.6735 69.1842 40.7604 68.7874 40.7504C68.4024 40.7552 68.0205 40.6796 67.6648 40.5283Z" fill="black"/>
<path d="M76.9557 34.5168V40.6875H75.7483V38.062H73.1693V40.6875H71.9619V34.5168H73.1693V37.0536H75.7483V34.5168H76.9557Z" fill="black"/>
<path d="M79.3958 40.3435C78.9306 40.0774 78.5436 39.6883 78.275 39.2166C78.0035 38.7195 77.8608 38.1592 77.8608 37.5893C77.8608 37.0195 78.0035 36.4592 78.275 35.962C78.5436 35.4904 78.9306 35.1013 79.3958 34.8352C79.8728 34.5686 80.4074 34.429 80.9506 34.429C81.4939 34.429 82.0284 34.5686 82.5054 34.8352C82.968 35.1016 83.352 35.4909 83.6172 35.962C83.8859 36.4601 84.0269 37.0201 84.0269 37.5893C84.0269 38.1586 83.8859 38.7185 83.6172 39.2166C83.3515 39.6892 82.9653 40.0788 82.5 40.3435C82.0242 40.6105 81.4904 40.7505 80.9479 40.7505C80.4054 40.7505 79.8717 40.6105 79.3958 40.3435ZM81.9062 39.3924C82.1849 39.2215 82.4094 38.9715 82.5524 38.6727C82.7132 38.3341 82.793 37.9612 82.7852 37.5847C82.7935 37.21 82.7136 36.8387 82.5524 36.5023C82.4096 36.2051 82.185 35.9575 81.9062 35.7899C81.6114 35.6272 81.2818 35.542 80.947 35.542C80.6122 35.542 80.2826 35.6272 79.9878 35.7899C79.7067 35.9561 79.4799 36.204 79.3362 36.5023C79.175 36.8387 79.0951 37.21 79.1034 37.5847C79.0956 37.9612 79.1754 38.3341 79.3362 38.6727C79.4802 38.9727 79.7067 39.2229 79.9878 39.3924C80.2819 39.5574 80.6117 39.6439 80.947 39.6439C81.2823 39.6439 81.6122 39.5574 81.9062 39.3924Z" fill="black"/>
<path d="M88.019 40.6875L86.6907 38.2821H86.1222V40.6875H84.9148V34.5168H87.1744C87.5845 34.5043 87.9919 34.5905 88.3637 34.7684C88.6695 34.9164 88.9262 35.1531 89.1019 35.4494C89.2782 35.7667 89.3626 36.1291 89.345 36.4939C89.3274 36.8587 89.2086 37.2107 89.0026 37.5087C88.7491 37.8518 88.3853 38.0917 87.9757 38.1859L89.4195 40.6875H88.019ZM86.1222 37.357H87.1311C87.2629 37.3678 87.3955 37.3518 87.5212 37.3098C87.647 37.2679 87.7634 37.2009 87.8638 37.1127C87.9471 37.0232 88.0116 36.917 88.0532 36.8008C88.0948 36.6847 88.1126 36.5609 88.1056 36.4374C88.1127 36.3164 88.0948 36.1951 88.0531 36.0817C88.0114 35.9682 87.9469 35.865 87.8638 35.7787C87.658 35.6069 87.3957 35.5227 87.1311 35.5437H86.1222V37.357Z" fill="black"/>
<path d="M91.6503 35.516V37.0628H93.677V38.0434H91.6503V39.6791H93.9351V40.6875H90.4429V34.5076H93.9351V35.516H91.6503Z" fill="black"/>
<path d="M100.773 39.5126H98.3767L97.9797 40.6875H96.7163L98.882 34.5076H100.288L102.454 40.6875H101.178L100.773 39.5126ZM100.445 38.519L99.5751 35.9378L98.707 38.519H100.445Z" fill="black"/>
<path d="M104.446 34.5168V38.334C104.435 38.5077 104.457 38.6821 104.512 38.847C104.567 39.0119 104.653 39.1639 104.766 39.2943C105.02 39.509 105.339 39.6265 105.668 39.6265C105.997 39.6265 106.316 39.509 106.57 39.2943C106.683 39.1639 106.769 39.0119 106.824 38.847C106.879 38.6821 106.901 38.5077 106.89 38.334V34.5168H108.104V38.334C108.12 38.8014 108.004 39.2635 107.772 39.6662C107.56 40.0208 107.251 40.3043 106.884 40.4821C106.498 40.6692 106.075 40.7635 105.648 40.7578C105.226 40.7635 104.807 40.6692 104.426 40.4821C104.066 40.3035 103.764 40.0196 103.56 39.6662C103.336 39.2606 103.226 38.7997 103.241 38.334V34.5168H104.446Z" fill="black"/>
<path d="M113.459 36.3726C113.329 36.1229 113.131 35.9172 112.889 35.7805C112.629 35.6406 112.338 35.5705 112.044 35.577C111.712 35.5708 111.384 35.6564 111.095 35.8249C110.818 35.9918 110.593 36.2373 110.449 36.5317C110.294 36.8663 110.214 37.2319 110.214 37.6021C110.214 37.9723 110.294 38.3379 110.449 38.6725C110.598 38.9683 110.828 39.2137 111.109 39.3793C111.41 39.5492 111.75 39.6347 112.093 39.6272C112.501 39.6456 112.901 39.5144 113.223 39.2572C113.527 38.9859 113.731 38.6154 113.8 38.2081H111.734V37.2626H114.993V38.3339C114.912 38.767 114.735 39.1753 114.475 39.5273C114.206 39.898 113.856 40.1994 113.454 40.4081C113.023 40.6311 112.545 40.7447 112.062 40.7393C111.513 40.7471 110.97 40.6081 110.489 40.3359C110.028 40.0773 109.645 39.6931 109.384 39.2257C109.121 38.725 108.983 38.1652 108.983 37.5966C108.983 37.0279 109.121 36.4681 109.384 35.9674C109.644 35.4953 110.026 35.1065 110.489 34.8443C111.005 34.5634 111.584 34.4255 112.168 34.4443C112.753 34.4631 113.322 34.638 113.82 34.9516C114.319 35.2869 114.686 35.7922 114.856 36.3782L113.459 36.3726Z" fill="black"/>
<path d="M122.453 34.5168V40.6875H121.245V36.6687L119.642 40.6875H118.727L117.103 36.6743V40.6875H115.896V34.5168H117.267L119.18 39.1055L121.086 34.5168H122.453Z" fill="black"/>
<path d="M124.849 35.516V37.0628H126.876V38.0434H124.849V39.6791H127.136V40.6875H123.642V34.5076H127.136V35.516H124.849Z" fill="black"/>
<path d="M133.379 40.6875H132.171L129.437 36.4522V40.6875H128.229V34.5076H129.437L132.171 38.7521V34.5076H133.379V40.6875Z" fill="black"/>
<path d="M138.665 34.5168V35.516H137.06V40.6875H135.853V35.516H134.25V34.5168H138.665Z" fill="black"/>
<path d="M143.234 39.5126H140.838L140.441 40.6875H139.177L141.343 34.5076H142.743L144.909 40.6875H143.633L143.234 39.5126ZM142.908 38.519L142.036 35.9378L141.166 38.519H142.908Z" fill="black"/>
<path d="M149.815 34.5168V35.516H148.21V40.6875H147.003V35.516H145.4V34.5168H149.815Z" fill="black"/>
<path d="M151.901 34.5168V40.6875H150.694V34.5168H151.901Z" fill="black"/>
<path d="M154.334 40.3435C153.869 40.0774 153.482 39.6883 153.213 39.2167C152.941 38.7195 152.799 38.1592 152.799 37.5894C152.799 37.0195 152.941 36.4592 153.213 35.9621C153.482 35.4904 153.869 35.1013 154.334 34.8352C154.81 34.5682 155.345 34.4282 155.888 34.4282C156.431 34.4282 156.965 34.5682 157.442 34.8352C157.905 35.1016 158.289 35.4908 158.555 35.9621C158.824 36.4602 158.965 37.0201 158.965 37.5894C158.965 38.1586 158.824 38.7186 158.555 39.2167C158.288 39.6885 157.902 40.0778 157.438 40.3435C156.962 40.6106 156.428 40.7505 155.886 40.7505C155.343 40.7505 154.81 40.6106 154.334 40.3435ZM156.842 39.3925C157.122 39.2217 157.347 38.9717 157.49 38.6727C157.65 38.337 157.73 37.9674 157.723 37.594C157.731 37.2193 157.652 36.848 157.49 36.5116C157.347 36.2143 157.122 35.9667 156.842 35.7992C156.551 35.63 156.221 35.5444 155.886 35.5513C155.549 35.5449 155.217 35.6305 154.924 35.7992C154.643 35.9659 154.417 36.2137 154.272 36.5116C154.111 36.848 154.031 37.2193 154.04 37.594C154.032 37.9705 154.112 38.3434 154.272 38.682C154.417 38.9816 154.643 39.2317 154.924 39.4017C155.216 39.5734 155.549 39.6603 155.886 39.6534C156.222 39.658 156.553 39.5678 156.842 39.3925Z" fill="black"/>
<path d="M165.009 40.6875H163.802L161.068 36.4522V40.6875H159.86V34.5076H161.068L163.802 38.7521V34.5076H165.009V40.6875Z" fill="black"/>
<path d="M165.457 31.8377H50.0593C49.9157 31.8377 49.7779 31.7792 49.6764 31.6751C49.5749 31.571 49.5178 31.4298 49.5178 31.2826C49.5178 31.1354 49.5749 30.9942 49.6764 30.8901C49.7779 30.786 49.9157 30.7275 50.0593 30.7275H165.457C165.6 30.7275 165.738 30.786 165.84 30.8901C165.941 30.9942 165.998 31.1354 165.998 31.2826C165.998 31.4298 165.941 31.571 165.84 31.6751C165.738 31.7792 165.6 31.8377 165.457 31.8377Z" fill="black"/>
</g>
<defs>
<filter id="filter0_d_574_921" x="1.64331" y="-13.989" width="51.2312" height="71.9487" filterUnits="userSpaceOnUse" color-interpolation-filters="sRGB">
<feFlood flood-opacity="0" result="BackgroundImageFix"/>
<feColorMatrix in="SourceAlpha" type="matrix" values="0 0 0 0 0 0 0 0 0 0 0 0 0 0 0 0 0 0 127 0" result="hardAlpha"/>
<feOffset dx="-4"/>
<feGaussianBlur stdDeviation="7"/>
<feComposite in2="hardAlpha" operator="out"/>
<feColorMatrix type="matrix" values="0 0 0 0 0 0 0 0 0 0 0 0 0 0 0 0 0 0 0.15 0"/>
<feBlend mode="normal" in2="BackgroundImageFix" result="effect1_dropShadow_574_921"/>
<feBlend mode="normal" in="SourceGraphic" in2="effect1_dropShadow_574_921" result="shape"/>
</filter>
<linearGradient id="paint0_linear_574_921" x1="19.6343" y1="22.8953" x2="42.8744" y2="22.8953" gradientUnits="userSpaceOnUse">
<stop stop-color="#56CCF2"/>
<stop offset="0.43" stop-color="#55CAF2"/>
<stop offset="0.61" stop-color="#51C3F1"/>
<stop offset="0.75" stop-color="#4BB6F1"/>
<stop offset="0.86" stop-color="#42A5EF"/>
<stop offset="0.95" stop-color="#368EEE"/>
<stop offset="1" stop-color="#2F80ED"/>
</linearGradient>
<clipPath id="clip0_574_921">
<rect width="166" height="50" fill="white"/>
</clipPath>
</defs>
</svg>
