<svg width="26" height="26" viewBox="0 0 26 26" fill="none" xmlns="http://www.w3.org/2000/svg">
<rect width="26" height="26" rx="5" fill="#121212"/>
<path d="M13.9549 4.00162C14.0564 4.0015 14.1552 4.03412 14.2367 4.09464C14.3196 4.15215 14.3783 4.23828 14.4015 4.33647C14.4248 4.43465 14.411 4.53797 14.3627 4.62657C13.4891 6.11352 13.405 7.64368 14.1107 9.21707C14.1178 9.23202 14.1223 9.2481 14.1239 9.26459C11.8239 8.86473 10.1197 9.62095 9.32336 11.8933C8.76778 13.4778 9.422 15.1976 10.7937 16.1616C12.1021 17.0825 14.0008 17.1401 15.5351 15.9095C15.538 15.9072 15.5415 15.9058 15.5451 15.9053C15.5488 15.9049 15.5525 15.9055 15.5559 15.907C15.5593 15.9085 15.5622 15.911 15.5643 15.9141C15.5663 15.9171 15.5675 15.9207 15.5677 15.9244C15.5677 15.9715 15.5717 16.0158 15.5717 16.0533C15.5717 17.118 15.5689 18.1822 15.5761 19.2469C15.5761 19.3878 15.531 19.4482 15.4026 19.4849C15.1715 19.5505 14.9469 19.6415 14.7138 19.6979C14.5902 19.7281 14.5527 19.7853 14.5447 19.8992C14.5044 20.4465 14.4641 20.9937 14.4162 21.5401C14.3889 21.8478 14.2234 21.9964 13.917 21.998C13.3077 22.0007 12.6986 22.0007 12.0896 21.998C11.7796 21.998 11.6137 21.851 11.5868 21.545C11.5398 21.0116 11.4987 20.4778 11.4636 19.9435C11.4539 19.7982 11.4096 19.7257 11.2534 19.6874C10.6323 19.532 10.0377 19.285 9.48923 18.9546C9.44611 18.9292 9.39618 18.9179 9.34635 18.9222C9.29652 18.9264 9.24924 18.946 9.21104 18.9783C9.03953 19.1245 8.86641 19.2715 8.6941 19.4193C8.45496 19.6238 8.21863 19.8316 7.97667 20.0329C7.73471 20.2343 7.51046 20.2298 7.2846 20.0055C6.85543 19.5833 6.42868 19.1582 6.00434 18.7303C5.76278 18.4887 5.75714 18.274 5.9826 18.0083C6.3248 17.6056 6.66701 17.2029 7.01687 16.8055C7.10665 16.704 7.12276 16.6348 7.04868 16.514C6.70945 15.9598 6.45819 15.3564 6.30387 14.7253C6.27126 14.5952 6.21329 14.5529 6.09049 14.5445C5.5498 14.5062 5.00911 14.4659 4.46923 14.418C4.14715 14.3894 4.00302 14.2272 4.00181 13.9078C3.9994 13.3054 3.9994 12.7029 4.00181 12.1002C4.00181 11.7781 4.14514 11.6142 4.4644 11.586C4.991 11.5393 5.518 11.499 6.0454 11.4652C6.19879 11.4551 6.27529 11.408 6.31474 11.2445C6.46503 10.644 6.70096 10.0681 7.01526 9.53478C7.04904 9.47698 7.06397 9.41009 7.05798 9.34341C7.052 9.27672 7.02538 9.21357 6.98185 9.16271L6.09089 8.12099C6.03453 8.05495 5.97495 7.99052 5.92382 7.91965C5.77888 7.72315 5.77848 7.50691 5.94677 7.33456C6.40546 6.86558 6.86939 6.40183 7.33855 5.94332C7.52254 5.76413 7.7492 5.77822 7.97143 5.96506C8.38611 6.31459 8.79555 6.66975 9.20741 7.02209C9.23185 7.04286 9.26157 7.05646 9.29327 7.06137C9.32496 7.06627 9.3574 7.06229 9.38697 7.04987C9.92444 6.82236 10.4337 6.59123 10.9571 6.39754C11.4338 6.22157 11.4402 6.24251 11.4757 5.73836C11.5042 5.3381 11.5469 4.93824 11.567 4.53758C11.5672 4.53503 11.5672 4.53248 11.567 4.52993C11.5769 4.38558 11.6414 4.25042 11.7473 4.15196C11.8533 4.0535 11.9929 3.99916 12.1375 4.00001L13.9549 4.00162Z" fill="white"/>
<path d="M21.9976 7.4957C21.9521 7.70428 21.9191 7.91609 21.8587 8.12025C21.5946 9.01217 21.0632 9.70397 20.2632 10.1787C20.1183 10.2649 20.0647 10.3491 20.0651 10.5194C20.0707 13.7872 20.072 17.0548 20.0687 20.3221C20.0687 21.1742 19.5454 21.8205 18.7458 21.9707C17.792 22.1499 16.8846 21.4242 16.8592 20.4518C16.8467 19.9766 16.8556 19.5011 16.8556 19.0255C16.8556 16.1866 16.8569 13.3476 16.8596 10.5085C16.8596 10.3474 16.8077 10.2637 16.6692 10.1836C14.3808 8.85996 14.3498 5.50527 16.6112 4.14061L16.6201 4.13577C16.6438 4.12239 16.6706 4.11543 16.6979 4.11559C16.7252 4.11575 16.7519 4.12303 16.7755 4.13669C16.7991 4.15036 16.8187 4.16994 16.8324 4.19351C16.8461 4.21708 16.8534 4.24381 16.8536 4.27107V4.27429C16.8564 5.40581 16.858 6.53733 16.8536 7.66885C16.8536 7.80978 16.8906 7.88106 17.0275 7.9322C17.4651 8.09609 17.8951 8.28051 18.3323 8.44561C18.4178 8.47298 18.5097 8.47298 18.5952 8.44561C19.0381 8.27769 19.4761 8.09246 19.9194 7.92213C20.0401 7.87622 20.074 7.8122 20.0736 7.68656C20.0685 6.55505 20.0685 5.42353 20.0736 4.29201V4.2896C20.0738 4.26035 20.0818 4.23168 20.0966 4.2065C20.1115 4.18132 20.1328 4.16052 20.1583 4.14621C20.1838 4.13191 20.2126 4.1246 20.2419 4.12502C20.2711 4.12545 20.2997 4.13361 20.3248 4.14866L20.334 4.1543C21.2466 4.74005 21.7893 5.5693 21.9622 6.64202C21.972 6.6864 21.9846 6.73011 22 6.77289L21.9976 7.4957Z" fill="white"/>
</svg>
