<svg width="36" height="36" viewBox="0 0 36 36" fill="none" xmlns="http://www.w3.org/2000/svg">
<g id="youtube" clip-path="url(#clip0_2142_1673)">
<g id="youtube_2">
<path fill-rule="evenodd" clip-rule="evenodd" d="M35.9982 17.9991C35.9982 27.9397 27.9397 35.9982 17.9991 35.9982C8.05848 35.9982 0 27.9397 0 17.9991C0 8.05848 8.05848 0 17.9991 0C27.9397 0 35.9982 8.05848 35.9982 17.9991ZM28.9962 18.833V17.1652C28.9818 15.9737 28.9053 14.7838 28.7669 13.6002C28.7669 13.6002 28.5535 12.0889 27.8921 11.4186C27.1417 10.6298 26.3093 10.5508 25.8301 10.5053C25.7767 10.5003 25.7277 10.4956 25.6837 10.4905C22.6184 10.2664 18.0079 10.2664 18.0079 10.2664H17.9991C17.9991 10.2664 13.3868 10.2664 10.3037 10.4905C10.26 10.4957 10.211 10.5004 10.1574 10.5056C9.68508 10.5511 8.8524 10.6314 8.09714 11.4186C7.4446 12.0889 7.22946 13.6002 7.22946 13.6002C7.09132 14.7837 7.01713 15.9738 7.0072 17.1652V18.833C7.01692 20.0215 7.09111 21.2086 7.22946 22.3891C7.22946 22.3891 7.4446 23.9004 8.10603 24.5708C8.80351 25.3055 9.68837 25.4069 10.2455 25.4707C10.353 25.4831 10.4483 25.494 10.5277 25.5078C12.2844 25.6803 17.9955 25.7318 17.9955 25.7318C17.9955 25.7318 22.6148 25.7229 25.6891 25.4989C25.7328 25.4936 25.7818 25.4889 25.8354 25.4837C26.3077 25.4382 27.1404 25.358 27.8956 24.5708C28.5588 23.9004 28.7722 22.3891 28.7722 22.3891C28.9117 21.2087 28.9864 20.0216 28.9962 18.833Z" fill="#121212"/>
<path d="M15.7321 20.8511L21.6761 17.7751L15.7321 14.6742V20.8511Z" fill="#121212"/>
</g>
</g>
<defs>
<clipPath id="clip0_2142_1673">
<rect width="36" height="36" fill="white"/>
</clipPath>
</defs>
</svg>
